<svg xmlns="http://www.w3.org/2000/svg" width="960" height="540" viewBox="0 0 960 540" role="img" aria-labelledby="title desc">
  <title id="title">Bayesian conditioning prototype</title>
  <desc id="desc">Prior random functions contract to a posterior credible band after conditioning on data.</desc>
  <defs>
    <linearGradient id="bg" x1="0" y1="0" x2="1" y2="1">
      <stop offset="0" stop-color="#fbfaf4"/>
      <stop offset="1" stop-color="#eef3f0"/>
    </linearGradient>
    <linearGradient id="band" x1="0" y1="0" x2="0" y2="1">
      <stop offset="0" stop-color="#6e9295" stop-opacity="0.30"/>
      <stop offset="1" stop-color="#6e9295" stop-opacity="0.04"/>
    </linearGradient>
    <marker id="arrow" viewBox="0 0 10 10" refX="8" refY="5" markerWidth="5" markerHeight="5" orient="auto">
      <path d="M0 0 L10 5 L0 10 Z" fill="#7e9da0"/>
    </marker>
  </defs>
  <rect width="960" height="540" rx="10" fill="url(#bg)"/>
  <g fill="none" stroke-linecap="round" stroke-linejoin="round">
    <g opacity="0.25" stroke-width="1.1">
      <path d="M96 346 C154 262, 214 378, 272 292 S392 203, 453 288" stroke="#a98751"/>
      <path d="M101 276 C170 352, 228 207, 286 280 S395 364, 456 238" stroke="#a98751"/>
      <path d="M94 314 C165 221, 227 292, 283 349 S394 266, 453 338" stroke="#a98751"/>
      <path d="M98 234 C164 286, 218 323, 277 254 S397 186, 458 305" stroke="#a98751"/>
      <path d="M100 385 C159 319, 221 338, 281 302 S394 245, 456 269" stroke="#a98751"/>
    </g>
    <g fill="#a65d4f" opacity="0.55">
      <circle cx="157" cy="318" r="2.6"/>
      <circle cx="208" cy="302" r="2.4"/>
      <circle cx="259" cy="310" r="2.2"/>
      <circle cx="314" cy="279" r="2.5"/>
      <circle cx="375" cy="262" r="2.2"/>
      <circle cx="430" cy="283" r="2.4"/>
    </g>
    <path d="M488 270 C522 238, 558 238, 592 270" stroke="#7e9da0" stroke-width="2" opacity="0.62" marker-end="url(#arrow)"/>
    <path d="M615 358 C653 308, 688 282, 728 292 C765 301, 792 347, 831 322 C856 306, 877 265, 901 247
             L901 196 C877 209, 854 246, 828 263 C790 289, 764 243, 729 235 C690 226, 652 250, 615 297 Z" fill="url(#band)"/>
    <path d="M615 327 C653 283, 688 259, 728 268 C765 277, 792 322, 831 297 C856 281, 877 241, 901 222" stroke="#496f73" stroke-width="2.6"/>
    <path d="M615 298 C652 257, 687 234, 729 243 C766 251, 793 292, 828 267 C853 250, 877 214, 900 199" stroke="#496f73" stroke-width="1" opacity="0.22"/>
    <path d="M615 356 C654 308, 688 285, 728 292 C765 299, 795 348, 831 322 C857 304, 878 268, 900 247" stroke="#496f73" stroke-width="1" opacity="0.22"/>
    <g stroke="#a98751" opacity="0.24" stroke-width="0.95">
      <path d="M625 337 C667 294, 701 279, 731 286 C765 294, 795 337, 831 309 C852 293, 873 255, 892 238"/>
      <path d="M625 312 C663 269, 698 246, 729 252 C766 260, 792 307, 829 282 C853 266, 874 226, 892 214"/>
      <path d="M624 349 C662 302, 696 287, 731 296 C769 306, 797 352, 834 329 C857 313, 875 275, 893 258"/>
    </g>
    <g fill="#496f73" opacity="0.58">
      <circle cx="650" cy="287" r="2.5"/>
      <circle cx="697" cy="261" r="2.2"/>
      <circle cx="742" cy="272" r="2.4"/>
      <circle cx="792" cy="319" r="2.1"/>
      <circle cx="841" cy="289" r="2.3"/>
      <circle cx="883" cy="234" r="2"/>
    </g>
  </g>
</svg>
