<svg xmlns="http://www.w3.org/2000/svg" width="960" height="540" viewBox="0 0 960 540" role="img" aria-label="A conformal image of an orthogonal grid in the disk with a contour encircling a point.">
<rect width="960" height="540" fill="#fbfaf6"/>
<rect x="0.5" y="0.5" width="959" height="539" fill="none" stroke="#d8d2c5" stroke-width="1" opacity="0.72"/>
<circle cx="480" cy="270" r="205" fill="#d8bf74" opacity="0.052" stroke="#d8d2c5" stroke-width="1" stroke-opacity="0.55"/>
<g fill="none" stroke-linecap="round" stroke-linejoin="round">
<path d="M 281.15 314.60 L 282.00 314.38 L 282.84 314.14 L 283.67 313.89 L 284.49 313.62 L 285.30 313.34 L 286.11 313.04 L 286.90 312.74 L 287.69 312.42 L 288.47 312.08 L 289.24 311.73 L 290.00 311.37 L 290.75 311.00 L 291.49 310.62 L 292.22 310.22 L 292.93 309.81 L 293.64 309.39 L 294.34 308.96 L 295.03 308.52 L 295.71 308.07 L 296.38 307.61 L 297.03 307.14 L 297.68 306.66 L 298.32 306.17 L 298.94 305.67 L 299.56 305.16 L 300.16 304.64 L 300.75 304.12 L 301.33 303.58 L 301.90 303.04 L 302.46 302.49 L 303.01 301.93 L 303.55 301.36 L 304.07 300.79 L 304.58 300.21 L 305.09 299.62 L 305.58 299.03 L 306.06 298.43 L 306.53 297.82 L 306.99 297.21 L 307.43 296.59 L 307.87 295.97 L 308.29 295.34 L 308.70 294.70 L 309.10 294.06 L 309.49 293.42 L 309.87 292.77 L 310.23 292.11 L 310.59 291.46 L 310.93 290.79 L 311.26 290.12 L 311.58 289.45 L 311.89 288.78 L 312.19 288.10 L 312.47 287.42 L 312.75 286.73 L 313.01 286.04 L 313.26 285.35 L 313.50 284.66 L 313.73 283.96 L 313.95 283.26 L 314.15 282.55 L 314.35 281.85 L 314.53 281.14 L 314.70 280.43 L 314.86 279.72 L 315.01 279.01 L 315.14 278.29 L 315.27 277.58 L 315.38 276.86 L 315.49 276.14 L 315.58 275.42 L 315.66 274.70 L 315.73 273.98 L 315.78 273.26 L 315.83 272.53 L 315.86 271.81 L 315.88 271.09 L 315.90 270.36 L 315.90 269.64 L 315.88 268.91 L 315.86 268.19 L 315.83 267.47 L 315.78 266.74 L 315.73 266.02 L 315.66 265.30 L 315.58 264.58 L 315.49 263.86 L 315.38 263.14 L 315.27 262.42 L 315.14 261.71 L 315.01 260.99 L 314.86 260.28 L 314.70 259.57 L 314.53 258.86 L 314.35 258.15 L 314.15 257.45 L 313.95 256.74 L 313.73 256.04 L 313.50 255.34 L 313.26 254.65 L 313.01 253.96 L 312.75 253.27 L 312.47 252.58 L 312.19 251.90 L 311.89 251.22 L 311.58 250.55 L 311.26 249.88 L 310.93 249.21 L 310.59 248.54 L 310.23 247.89 L 309.87 247.23 L 309.49 246.58 L 309.10 245.94 L 308.70 245.30 L 308.29 244.66 L 307.87 244.03 L 307.43 243.41 L 306.99 242.79 L 306.53 242.18 L 306.06 241.57 L 305.58 240.97 L 305.09 240.38 L 304.58 239.79 L 304.07 239.21 L 303.55 238.64 L 303.01 238.07 L 302.46 237.51 L 301.90 236.96 L 301.33 236.42 L 300.75 235.88 L 300.16 235.36 L 299.56 234.84 L 298.94 234.33 L 298.32 233.83 L 297.68 233.34 L 297.03 232.86 L 296.38 232.39 L 295.71 231.93 L 295.03 231.48 L 294.34 231.04 L 293.64 230.61 L 292.93 230.19 L 292.22 229.78 L 291.49 229.38 L 290.75 229.00 L 290.00 228.63 L 289.24 228.27 L 288.47 227.92 L 287.69 227.58 L 286.90 227.26 L 286.11 226.96 L 285.30 226.66 L 284.49 226.38 L 283.67 226.11 L 282.84 225.86 L 282.00 225.62 L 281.15 225.40" stroke="#5f7f80" stroke-width="1.15" opacity="0.39"/>
<path d="M 293.24 353.02 L 294.71 352.33 L 296.16 351.63 L 297.59 350.91 L 298.99 350.16 L 300.37 349.40 L 301.73 348.62 L 303.06 347.83 L 304.37 347.01 L 305.66 346.18 L 306.92 345.34 L 308.16 344.48 L 309.38 343.61 L 310.57 342.72 L 311.74 341.83 L 312.89 340.91 L 314.01 339.99 L 315.12 339.06 L 316.20 338.11 L 317.26 337.15 L 318.30 336.19 L 319.31 335.21 L 320.31 334.22 L 321.28 333.23 L 322.23 332.23 L 323.16 331.21 L 324.07 330.20 L 324.96 329.17 L 325.83 328.13 L 326.68 327.09 L 327.51 326.04 L 328.32 324.99 L 329.11 323.93 L 329.88 322.86 L 330.64 321.79 L 331.37 320.72 L 332.08 319.63 L 332.78 318.55 L 333.45 317.46 L 334.11 316.36 L 334.75 315.26 L 335.37 314.16 L 335.98 313.05 L 336.56 311.94 L 337.13 310.82 L 337.68 309.70 L 338.21 308.58 L 338.73 307.46 L 339.23 306.33 L 339.71 305.20 L 340.18 304.07 L 340.63 302.93 L 341.06 301.80 L 341.47 300.66 L 341.87 299.52 L 342.26 298.37 L 342.62 297.23 L 342.97 296.08 L 343.31 294.93 L 343.63 293.78 L 343.93 292.63 L 344.22 291.48 L 344.49 290.32 L 344.75 289.17 L 344.99 288.01 L 345.21 286.85 L 345.42 285.70 L 345.62 284.54 L 345.80 283.38 L 345.96 282.22 L 346.11 281.05 L 346.25 279.89 L 346.37 278.73 L 346.47 277.57 L 346.56 276.40 L 346.63 275.24 L 346.69 274.08 L 346.74 272.91 L 346.77 271.75 L 346.78 270.58 L 346.78 269.42 L 346.77 268.25 L 346.74 267.09 L 346.69 265.92 L 346.63 264.76 L 346.56 263.60 L 346.47 262.43 L 346.37 261.27 L 346.25 260.11 L 346.11 258.95 L 345.96 257.78 L 345.80 256.62 L 345.62 255.46 L 345.42 254.30 L 345.21 253.15 L 344.99 251.99 L 344.75 250.83 L 344.49 249.68 L 344.22 248.52 L 343.93 247.37 L 343.63 246.22 L 343.31 245.07 L 342.97 243.92 L 342.62 242.77 L 342.26 241.63 L 341.87 240.48 L 341.47 239.34 L 341.06 238.20 L 340.63 237.07 L 340.18 235.93 L 339.71 234.80 L 339.23 233.67 L 338.73 232.54 L 338.21 231.42 L 337.68 230.30 L 337.13 229.18 L 336.56 228.06 L 335.98 226.95 L 335.37 225.84 L 334.75 224.74 L 334.11 223.64 L 333.45 222.54 L 332.78 221.45 L 332.08 220.37 L 331.37 219.28 L 330.64 218.21 L 329.88 217.14 L 329.11 216.07 L 328.32 215.01 L 327.51 213.96 L 326.68 212.91 L 325.83 211.87 L 324.96 210.83 L 324.07 209.80 L 323.16 208.79 L 322.23 207.77 L 321.28 206.77 L 320.31 205.78 L 319.31 204.79 L 318.30 203.81 L 317.26 202.85 L 316.20 201.89 L 315.12 200.94 L 314.01 200.01 L 312.89 199.09 L 311.74 198.17 L 310.57 197.28 L 309.38 196.39 L 308.16 195.52 L 306.92 194.66 L 305.66 193.82 L 304.37 192.99 L 303.06 192.17 L 301.73 191.38 L 300.37 190.60 L 298.99 189.84 L 297.59 189.09 L 296.16 188.37 L 294.71 187.67 L 293.24 186.98" stroke="#5f7f80" stroke-width="1.15" opacity="0.39"/>
<path d="M 329.10 407.25 L 331.06 405.42 L 332.97 403.58 L 334.83 401.75 L 336.64 399.91 L 338.40 398.07 L 340.12 396.23 L 341.79 394.39 L 343.41 392.54 L 345.00 390.70 L 346.54 388.86 L 348.04 387.03 L 349.50 385.19 L 350.93 383.36 L 352.31 381.52 L 353.66 379.70 L 354.97 377.87 L 356.25 376.05 L 357.49 374.23 L 358.70 372.41 L 359.87 370.60 L 361.02 368.80 L 362.13 366.99 L 363.21 365.19 L 364.26 363.40 L 365.28 361.61 L 366.28 359.83 L 367.24 358.05 L 368.18 356.27 L 369.10 354.50 L 369.98 352.73 L 370.84 350.97 L 371.68 349.22 L 372.49 347.47 L 373.28 345.72 L 374.04 343.98 L 374.78 342.24 L 375.50 340.51 L 376.19 338.78 L 376.87 337.06 L 377.52 335.34 L 378.15 333.62 L 378.76 331.91 L 379.35 330.21 L 379.93 328.50 L 380.48 326.81 L 381.01 325.11 L 381.52 323.42 L 382.02 321.74 L 382.50 320.06 L 382.96 318.38 L 383.40 316.70 L 383.82 315.03 L 384.23 313.37 L 384.62 311.70 L 384.99 310.04 L 385.35 308.38 L 385.69 306.73 L 386.01 305.07 L 386.32 303.43 L 386.61 301.78 L 386.89 300.13 L 387.15 298.49 L 387.40 296.85 L 387.63 295.21 L 387.85 293.58 L 388.05 291.94 L 388.23 290.31 L 388.40 288.68 L 388.56 287.05 L 388.70 285.42 L 388.83 283.80 L 388.95 282.17 L 389.04 280.55 L 389.13 278.92 L 389.20 277.30 L 389.26 275.68 L 389.30 274.05 L 389.33 272.43 L 389.34 270.81 L 389.34 269.19 L 389.33 267.57 L 389.30 265.95 L 389.26 264.32 L 389.20 262.70 L 389.13 261.08 L 389.04 259.45 L 388.95 257.83 L 388.83 256.20 L 388.70 254.58 L 388.56 252.95 L 388.40 251.32 L 388.23 249.69 L 388.05 248.06 L 387.85 246.42 L 387.63 244.79 L 387.40 243.15 L 387.15 241.51 L 386.89 239.87 L 386.61 238.22 L 386.32 236.57 L 386.01 234.93 L 385.69 233.27 L 385.35 231.62 L 384.99 229.96 L 384.62 228.30 L 384.23 226.63 L 383.82 224.97 L 383.40 223.30 L 382.96 221.62 L 382.50 219.94 L 382.02 218.26 L 381.52 216.58 L 381.01 214.89 L 380.48 213.19 L 379.93 211.50 L 379.35 209.79 L 378.76 208.09 L 378.15 206.38 L 377.52 204.66 L 376.87 202.94 L 376.19 201.22 L 375.50 199.49 L 374.78 197.76 L 374.04 196.02 L 373.28 194.28 L 372.49 192.53 L 371.68 190.78 L 370.84 189.03 L 369.98 187.27 L 369.10 185.50 L 368.18 183.73 L 367.24 181.95 L 366.28 180.17 L 365.28 178.39 L 364.26 176.60 L 363.21 174.81 L 362.13 173.01 L 361.02 171.20 L 359.87 169.40 L 358.70 167.59 L 357.49 165.77 L 356.25 163.95 L 354.97 162.13 L 353.66 160.30 L 352.31 158.48 L 350.93 156.64 L 349.50 154.81 L 348.04 152.97 L 346.54 151.14 L 345.00 149.30 L 343.41 147.46 L 341.79 145.61 L 340.12 143.77 L 338.40 141.93 L 336.64 140.09 L 334.83 138.25 L 332.97 136.42 L 331.06 134.58 L 329.10 132.75" stroke="#5f7f80" stroke-width="1.15" opacity="0.39"/>
<path d="M 399.18 456.88 L 400.60 453.53 L 401.98 450.23 L 403.30 446.97 L 404.58 443.75 L 405.82 440.58 L 407.01 437.46 L 408.16 434.37 L 409.27 431.33 L 410.35 428.32 L 411.39 425.36 L 412.40 422.43 L 413.37 419.54 L 414.31 416.68 L 415.22 413.85 L 416.10 411.06 L 416.95 408.31 L 417.77 405.58 L 418.57 402.88 L 419.34 400.22 L 420.08 397.58 L 420.80 394.97 L 421.50 392.38 L 422.18 389.83 L 422.83 387.30 L 423.46 384.79 L 424.08 382.31 L 424.67 379.85 L 425.24 377.41 L 425.80 375.00 L 426.33 372.60 L 426.85 370.23 L 427.36 367.88 L 427.84 365.55 L 428.31 363.23 L 428.77 360.94 L 429.21 358.66 L 429.63 356.40 L 430.04 354.16 L 430.44 351.93 L 430.82 349.72 L 431.19 347.52 L 431.55 345.34 L 431.89 343.17 L 432.22 341.01 L 432.54 338.87 L 432.85 336.74 L 433.15 334.63 L 433.43 332.52 L 433.70 330.43 L 433.97 328.34 L 434.22 326.27 L 434.46 324.21 L 434.69 322.16 L 434.92 320.12 L 435.13 318.08 L 435.33 316.06 L 435.52 314.04 L 435.71 312.03 L 435.88 310.02 L 436.04 308.03 L 436.20 306.04 L 436.35 304.06 L 436.49 302.08 L 436.61 300.11 L 436.74 298.14 L 436.85 296.18 L 436.95 294.22 L 437.05 292.27 L 437.14 290.32 L 437.22 288.38 L 437.29 286.43 L 437.35 284.49 L 437.41 282.56 L 437.45 280.62 L 437.49 278.69 L 437.52 276.76 L 437.55 274.82 L 437.56 272.89 L 437.57 270.96 L 437.57 269.04 L 437.56 267.11 L 437.55 265.18 L 437.52 263.24 L 437.49 261.31 L 437.45 259.38 L 437.41 257.44 L 437.35 255.51 L 437.29 253.57 L 437.22 251.62 L 437.14 249.68 L 437.05 247.73 L 436.95 245.78 L 436.85 243.82 L 436.74 241.86 L 436.61 239.89 L 436.49 237.92 L 436.35 235.94 L 436.20 233.96 L 436.04 231.97 L 435.88 229.98 L 435.71 227.97 L 435.52 225.96 L 435.33 223.94 L 435.13 221.92 L 434.92 219.88 L 434.69 217.84 L 434.46 215.79 L 434.22 213.73 L 433.97 211.66 L 433.70 209.57 L 433.43 207.48 L 433.15 205.37 L 432.85 203.26 L 432.54 201.13 L 432.22 198.99 L 431.89 196.83 L 431.55 194.66 L 431.19 192.48 L 430.82 190.28 L 430.44 188.07 L 430.04 185.84 L 429.63 183.60 L 429.21 181.34 L 428.77 179.06 L 428.31 176.77 L 427.84 174.45 L 427.36 172.12 L 426.85 169.77 L 426.33 167.40 L 425.80 165.00 L 425.24 162.59 L 424.67 160.15 L 424.08 157.69 L 423.46 155.21 L 422.83 152.70 L 422.18 150.17 L 421.50 147.62 L 420.80 145.03 L 420.08 142.42 L 419.34 139.78 L 418.57 137.12 L 417.77 134.42 L 416.95 131.69 L 416.10 128.94 L 415.22 126.15 L 414.31 123.32 L 413.37 120.46 L 412.40 117.57 L 411.39 114.64 L 410.35 111.68 L 409.27 108.67 L 408.16 105.63 L 407.01 102.54 L 405.82 99.42 L 404.58 96.25 L 403.30 93.03 L 401.98 89.77 L 400.60 86.47 L 399.18 83.12" stroke="#5f7f80" stroke-width="1.15" opacity="0.39"/>
<path d="M 480.00 473.49 L 480.00 469.52 L 480.00 465.64 L 480.00 461.82 L 480.00 458.07 L 480.00 454.39 L 480.00 450.78 L 480.00 447.23 L 480.00 443.73 L 480.00 440.30 L 480.00 436.92 L 480.00 433.60 L 480.00 430.32 L 480.00 427.10 L 480.00 423.92 L 480.00 420.79 L 480.00 417.71 L 480.00 414.67 L 480.00 411.67 L 480.00 408.71 L 480.00 405.79 L 480.00 402.91 L 480.00 400.07 L 480.00 397.26 L 480.00 394.48 L 480.00 391.74 L 480.00 389.03 L 480.00 386.35 L 480.00 383.70 L 480.00 381.07 L 480.00 378.48 L 480.00 375.91 L 480.00 373.37 L 480.00 370.86 L 480.00 368.37 L 480.00 365.90 L 480.00 363.45 L 480.00 361.03 L 480.00 358.63 L 480.00 356.24 L 480.00 353.88 L 480.00 351.54 L 480.00 349.21 L 480.00 346.90 L 480.00 344.61 L 480.00 342.34 L 480.00 340.08 L 480.00 337.83 L 480.00 335.61 L 480.00 333.39 L 480.00 331.19 L 480.00 329.00 L 480.00 326.82 L 480.00 324.66 L 480.00 322.51 L 480.00 320.36 L 480.00 318.23 L 480.00 316.11 L 480.00 313.99 L 480.00 311.89 L 480.00 309.79 L 480.00 307.71 L 480.00 305.63 L 480.00 303.55 L 480.00 301.49 L 480.00 299.43 L 480.00 297.37 L 480.00 295.32 L 480.00 293.28 L 480.00 291.24 L 480.00 289.20 L 480.00 287.17 L 480.00 285.15 L 480.00 283.12 L 480.00 281.10 L 480.00 279.08 L 480.00 277.06 L 480.00 275.04 L 480.00 273.02 L 480.00 271.01 L 480.00 268.99 L 480.00 266.98 L 480.00 264.96 L 480.00 262.94 L 480.00 260.92 L 480.00 258.90 L 480.00 256.88 L 480.00 254.85 L 480.00 252.83 L 480.00 250.80 L 480.00 248.76 L 480.00 246.72 L 480.00 244.68 L 480.00 242.63 L 480.00 240.57 L 480.00 238.51 L 480.00 236.45 L 480.00 234.37 L 480.00 232.29 L 480.00 230.21 L 480.00 228.11 L 480.00 226.01 L 480.00 223.89 L 480.00 221.77 L 480.00 219.64 L 480.00 217.49 L 480.00 215.34 L 480.00 213.18 L 480.00 211.00 L 480.00 208.81 L 480.00 206.61 L 480.00 204.39 L 480.00 202.17 L 480.00 199.92 L 480.00 197.66 L 480.00 195.39 L 480.00 193.10 L 480.00 190.79 L 480.00 188.46 L 480.00 186.12 L 480.00 183.76 L 480.00 181.37 L 480.00 178.97 L 480.00 176.55 L 480.00 174.10 L 480.00 171.63 L 480.00 169.14 L 480.00 166.63 L 480.00 164.09 L 480.00 161.52 L 480.00 158.93 L 480.00 156.30 L 480.00 153.65 L 480.00 150.97 L 480.00 148.26 L 480.00 145.52 L 480.00 142.74 L 480.00 139.93 L 480.00 137.09 L 480.00 134.21 L 480.00 131.29 L 480.00 128.33 L 480.00 125.33 L 480.00 122.29 L 480.00 119.21 L 480.00 116.08 L 480.00 112.90 L 480.00 109.68 L 480.00 106.40 L 480.00 103.08 L 480.00 99.70 L 480.00 96.27 L 480.00 92.77 L 480.00 89.22 L 480.00 85.61 L 480.00 81.93 L 480.00 78.18 L 480.00 74.36 L 480.00 70.48 L 480.00 66.51" stroke="#5f7f80" stroke-width="1.15" opacity="0.39"/>
<path d="M 560.82 456.88 L 559.40 453.53 L 558.02 450.23 L 556.70 446.97 L 555.42 443.75 L 554.18 440.58 L 552.99 437.46 L 551.84 434.37 L 550.73 431.33 L 549.65 428.32 L 548.61 425.36 L 547.60 422.43 L 546.63 419.54 L 545.69 416.68 L 544.78 413.85 L 543.90 411.06 L 543.05 408.31 L 542.23 405.58 L 541.43 402.88 L 540.66 400.22 L 539.92 397.58 L 539.20 394.97 L 538.50 392.38 L 537.82 389.83 L 537.17 387.30 L 536.54 384.79 L 535.92 382.31 L 535.33 379.85 L 534.76 377.41 L 534.20 375.00 L 533.67 372.60 L 533.15 370.23 L 532.64 367.88 L 532.16 365.55 L 531.69 363.23 L 531.23 360.94 L 530.79 358.66 L 530.37 356.40 L 529.96 354.16 L 529.56 351.93 L 529.18 349.72 L 528.81 347.52 L 528.45 345.34 L 528.11 343.17 L 527.78 341.01 L 527.46 338.87 L 527.15 336.74 L 526.85 334.63 L 526.57 332.52 L 526.30 330.43 L 526.03 328.34 L 525.78 326.27 L 525.54 324.21 L 525.31 322.16 L 525.08 320.12 L 524.87 318.08 L 524.67 316.06 L 524.48 314.04 L 524.29 312.03 L 524.12 310.02 L 523.96 308.03 L 523.80 306.04 L 523.65 304.06 L 523.51 302.08 L 523.39 300.11 L 523.26 298.14 L 523.15 296.18 L 523.05 294.22 L 522.95 292.27 L 522.86 290.32 L 522.78 288.38 L 522.71 286.43 L 522.65 284.49 L 522.59 282.56 L 522.55 280.62 L 522.51 278.69 L 522.48 276.76 L 522.45 274.82 L 522.44 272.89 L 522.43 270.96 L 522.43 269.04 L 522.44 267.11 L 522.45 265.18 L 522.48 263.24 L 522.51 261.31 L 522.55 259.38 L 522.59 257.44 L 522.65 255.51 L 522.71 253.57 L 522.78 251.62 L 522.86 249.68 L 522.95 247.73 L 523.05 245.78 L 523.15 243.82 L 523.26 241.86 L 523.39 239.89 L 523.51 237.92 L 523.65 235.94 L 523.80 233.96 L 523.96 231.97 L 524.12 229.98 L 524.29 227.97 L 524.48 225.96 L 524.67 223.94 L 524.87 221.92 L 525.08 219.88 L 525.31 217.84 L 525.54 215.79 L 525.78 213.73 L 526.03 211.66 L 526.30 209.57 L 526.57 207.48 L 526.85 205.37 L 527.15 203.26 L 527.46 201.13 L 527.78 198.99 L 528.11 196.83 L 528.45 194.66 L 528.81 192.48 L 529.18 190.28 L 529.56 188.07 L 529.96 185.84 L 530.37 183.60 L 530.79 181.34 L 531.23 179.06 L 531.69 176.77 L 532.16 174.45 L 532.64 172.12 L 533.15 169.77 L 533.67 167.40 L 534.20 165.00 L 534.76 162.59 L 535.33 160.15 L 535.92 157.69 L 536.54 155.21 L 537.17 152.70 L 537.82 150.17 L 538.50 147.62 L 539.20 145.03 L 539.92 142.42 L 540.66 139.78 L 541.43 137.12 L 542.23 134.42 L 543.05 131.69 L 543.90 128.94 L 544.78 126.15 L 545.69 123.32 L 546.63 120.46 L 547.60 117.57 L 548.61 114.64 L 549.65 111.68 L 550.73 108.67 L 551.84 105.63 L 552.99 102.54 L 554.18 99.42 L 555.42 96.25 L 556.70 93.03 L 558.02 89.77 L 559.40 86.47 L 560.82 83.12" stroke="#5f7f80" stroke-width="1.15" opacity="0.39"/>
<path d="M 630.90 407.25 L 628.94 405.42 L 627.03 403.58 L 625.17 401.75 L 623.36 399.91 L 621.60 398.07 L 619.88 396.23 L 618.21 394.39 L 616.59 392.54 L 615.00 390.70 L 613.46 388.86 L 611.96 387.03 L 610.50 385.19 L 609.07 383.36 L 607.69 381.52 L 606.34 379.70 L 605.03 377.87 L 603.75 376.05 L 602.51 374.23 L 601.30 372.41 L 600.13 370.60 L 598.98 368.80 L 597.87 366.99 L 596.79 365.19 L 595.74 363.40 L 594.72 361.61 L 593.72 359.83 L 592.76 358.05 L 591.82 356.27 L 590.90 354.50 L 590.02 352.73 L 589.16 350.97 L 588.32 349.22 L 587.51 347.47 L 586.72 345.72 L 585.96 343.98 L 585.22 342.24 L 584.50 340.51 L 583.81 338.78 L 583.13 337.06 L 582.48 335.34 L 581.85 333.62 L 581.24 331.91 L 580.65 330.21 L 580.07 328.50 L 579.52 326.81 L 578.99 325.11 L 578.48 323.42 L 577.98 321.74 L 577.50 320.06 L 577.04 318.38 L 576.60 316.70 L 576.18 315.03 L 575.77 313.37 L 575.38 311.70 L 575.01 310.04 L 574.65 308.38 L 574.31 306.73 L 573.99 305.07 L 573.68 303.43 L 573.39 301.78 L 573.11 300.13 L 572.85 298.49 L 572.60 296.85 L 572.37 295.21 L 572.15 293.58 L 571.95 291.94 L 571.77 290.31 L 571.60 288.68 L 571.44 287.05 L 571.30 285.42 L 571.17 283.80 L 571.05 282.17 L 570.96 280.55 L 570.87 278.92 L 570.80 277.30 L 570.74 275.68 L 570.70 274.05 L 570.67 272.43 L 570.66 270.81 L 570.66 269.19 L 570.67 267.57 L 570.70 265.95 L 570.74 264.32 L 570.80 262.70 L 570.87 261.08 L 570.96 259.45 L 571.05 257.83 L 571.17 256.20 L 571.30 254.58 L 571.44 252.95 L 571.60 251.32 L 571.77 249.69 L 571.95 248.06 L 572.15 246.42 L 572.37 244.79 L 572.60 243.15 L 572.85 241.51 L 573.11 239.87 L 573.39 238.22 L 573.68 236.57 L 573.99 234.93 L 574.31 233.27 L 574.65 231.62 L 575.01 229.96 L 575.38 228.30 L 575.77 226.63 L 576.18 224.97 L 576.60 223.30 L 577.04 221.62 L 577.50 219.94 L 577.98 218.26 L 578.48 216.58 L 578.99 214.89 L 579.52 213.19 L 580.07 211.50 L 580.65 209.79 L 581.24 208.09 L 581.85 206.38 L 582.48 204.66 L 583.13 202.94 L 583.81 201.22 L 584.50 199.49 L 585.22 197.76 L 585.96 196.02 L 586.72 194.28 L 587.51 192.53 L 588.32 190.78 L 589.16 189.03 L 590.02 187.27 L 590.90 185.50 L 591.82 183.73 L 592.76 181.95 L 593.72 180.17 L 594.72 178.39 L 595.74 176.60 L 596.79 174.81 L 597.87 173.01 L 598.98 171.20 L 600.13 169.40 L 601.30 167.59 L 602.51 165.77 L 603.75 163.95 L 605.03 162.13 L 606.34 160.30 L 607.69 158.48 L 609.07 156.64 L 610.50 154.81 L 611.96 152.97 L 613.46 151.14 L 615.00 149.30 L 616.59 147.46 L 618.21 145.61 L 619.88 143.77 L 621.60 141.93 L 623.36 140.09 L 625.17 138.25 L 627.03 136.42 L 628.94 134.58 L 630.90 132.75" stroke="#5f7f80" stroke-width="1.15" opacity="0.39"/>
<path d="M 666.76 353.02 L 665.29 352.33 L 663.84 351.63 L 662.41 350.91 L 661.01 350.16 L 659.63 349.40 L 658.27 348.62 L 656.94 347.83 L 655.63 347.01 L 654.34 346.18 L 653.08 345.34 L 651.84 344.48 L 650.62 343.61 L 649.43 342.72 L 648.26 341.83 L 647.11 340.91 L 645.99 339.99 L 644.88 339.06 L 643.80 338.11 L 642.74 337.15 L 641.70 336.19 L 640.69 335.21 L 639.69 334.22 L 638.72 333.23 L 637.77 332.23 L 636.84 331.21 L 635.93 330.20 L 635.04 329.17 L 634.17 328.13 L 633.32 327.09 L 632.49 326.04 L 631.68 324.99 L 630.89 323.93 L 630.12 322.86 L 629.36 321.79 L 628.63 320.72 L 627.92 319.63 L 627.22 318.55 L 626.55 317.46 L 625.89 316.36 L 625.25 315.26 L 624.63 314.16 L 624.02 313.05 L 623.44 311.94 L 622.87 310.82 L 622.32 309.70 L 621.79 308.58 L 621.27 307.46 L 620.77 306.33 L 620.29 305.20 L 619.82 304.07 L 619.37 302.93 L 618.94 301.80 L 618.53 300.66 L 618.13 299.52 L 617.74 298.37 L 617.38 297.23 L 617.03 296.08 L 616.69 294.93 L 616.37 293.78 L 616.07 292.63 L 615.78 291.48 L 615.51 290.32 L 615.25 289.17 L 615.01 288.01 L 614.79 286.85 L 614.58 285.70 L 614.38 284.54 L 614.20 283.38 L 614.04 282.22 L 613.89 281.05 L 613.75 279.89 L 613.63 278.73 L 613.53 277.57 L 613.44 276.40 L 613.37 275.24 L 613.31 274.08 L 613.26 272.91 L 613.23 271.75 L 613.22 270.58 L 613.22 269.42 L 613.23 268.25 L 613.26 267.09 L 613.31 265.92 L 613.37 264.76 L 613.44 263.60 L 613.53 262.43 L 613.63 261.27 L 613.75 260.11 L 613.89 258.95 L 614.04 257.78 L 614.20 256.62 L 614.38 255.46 L 614.58 254.30 L 614.79 253.15 L 615.01 251.99 L 615.25 250.83 L 615.51 249.68 L 615.78 248.52 L 616.07 247.37 L 616.37 246.22 L 616.69 245.07 L 617.03 243.92 L 617.38 242.77 L 617.74 241.63 L 618.13 240.48 L 618.53 239.34 L 618.94 238.20 L 619.37 237.07 L 619.82 235.93 L 620.29 234.80 L 620.77 233.67 L 621.27 232.54 L 621.79 231.42 L 622.32 230.30 L 622.87 229.18 L 623.44 228.06 L 624.02 226.95 L 624.63 225.84 L 625.25 224.74 L 625.89 223.64 L 626.55 222.54 L 627.22 221.45 L 627.92 220.37 L 628.63 219.28 L 629.36 218.21 L 630.12 217.14 L 630.89 216.07 L 631.68 215.01 L 632.49 213.96 L 633.32 212.91 L 634.17 211.87 L 635.04 210.83 L 635.93 209.80 L 636.84 208.79 L 637.77 207.77 L 638.72 206.77 L 639.69 205.78 L 640.69 204.79 L 641.70 203.81 L 642.74 202.85 L 643.80 201.89 L 644.88 200.94 L 645.99 200.01 L 647.11 199.09 L 648.26 198.17 L 649.43 197.28 L 650.62 196.39 L 651.84 195.52 L 653.08 194.66 L 654.34 193.82 L 655.63 192.99 L 656.94 192.17 L 658.27 191.38 L 659.63 190.60 L 661.01 189.84 L 662.41 189.09 L 663.84 188.37 L 665.29 187.67 L 666.76 186.98" stroke="#5f7f80" stroke-width="1.15" opacity="0.39"/>
<path d="M 678.85 314.60 L 678.00 314.38 L 677.16 314.14 L 676.33 313.89 L 675.51 313.62 L 674.70 313.34 L 673.89 313.04 L 673.10 312.74 L 672.31 312.42 L 671.53 312.08 L 670.76 311.73 L 670.00 311.37 L 669.25 311.00 L 668.51 310.62 L 667.78 310.22 L 667.07 309.81 L 666.36 309.39 L 665.66 308.96 L 664.97 308.52 L 664.29 308.07 L 663.62 307.61 L 662.97 307.14 L 662.32 306.66 L 661.68 306.17 L 661.06 305.67 L 660.44 305.16 L 659.84 304.64 L 659.25 304.12 L 658.67 303.58 L 658.10 303.04 L 657.54 302.49 L 656.99 301.93 L 656.45 301.36 L 655.93 300.79 L 655.42 300.21 L 654.91 299.62 L 654.42 299.03 L 653.94 298.43 L 653.47 297.82 L 653.01 297.21 L 652.57 296.59 L 652.13 295.97 L 651.71 295.34 L 651.30 294.70 L 650.90 294.06 L 650.51 293.42 L 650.13 292.77 L 649.77 292.11 L 649.41 291.46 L 649.07 290.79 L 648.74 290.12 L 648.42 289.45 L 648.11 288.78 L 647.81 288.10 L 647.53 287.42 L 647.25 286.73 L 646.99 286.04 L 646.74 285.35 L 646.50 284.66 L 646.27 283.96 L 646.05 283.26 L 645.85 282.55 L 645.65 281.85 L 645.47 281.14 L 645.30 280.43 L 645.14 279.72 L 644.99 279.01 L 644.86 278.29 L 644.73 277.58 L 644.62 276.86 L 644.51 276.14 L 644.42 275.42 L 644.34 274.70 L 644.27 273.98 L 644.22 273.26 L 644.17 272.53 L 644.14 271.81 L 644.12 271.09 L 644.10 270.36 L 644.10 269.64 L 644.12 268.91 L 644.14 268.19 L 644.17 267.47 L 644.22 266.74 L 644.27 266.02 L 644.34 265.30 L 644.42 264.58 L 644.51 263.86 L 644.62 263.14 L 644.73 262.42 L 644.86 261.71 L 644.99 260.99 L 645.14 260.28 L 645.30 259.57 L 645.47 258.86 L 645.65 258.15 L 645.85 257.45 L 646.05 256.74 L 646.27 256.04 L 646.50 255.34 L 646.74 254.65 L 646.99 253.96 L 647.25 253.27 L 647.53 252.58 L 647.81 251.90 L 648.11 251.22 L 648.42 250.55 L 648.74 249.88 L 649.07 249.21 L 649.41 248.54 L 649.77 247.89 L 650.13 247.23 L 650.51 246.58 L 650.90 245.94 L 651.30 245.30 L 651.71 244.66 L 652.13 244.03 L 652.57 243.41 L 653.01 242.79 L 653.47 242.18 L 653.94 241.57 L 654.42 240.97 L 654.91 240.38 L 655.42 239.79 L 655.93 239.21 L 656.45 238.64 L 656.99 238.07 L 657.54 237.51 L 658.10 236.96 L 658.67 236.42 L 659.25 235.88 L 659.84 235.36 L 660.44 234.84 L 661.06 234.33 L 661.68 233.83 L 662.32 233.34 L 662.97 232.86 L 663.62 232.39 L 664.29 231.93 L 664.97 231.48 L 665.66 231.04 L 666.36 230.61 L 667.07 230.19 L 667.78 229.78 L 668.51 229.38 L 669.25 229.00 L 670.00 228.63 L 670.76 228.27 L 671.53 227.92 L 672.31 227.58 L 673.10 227.26 L 673.89 226.96 L 674.70 226.66 L 675.51 226.38 L 676.33 226.11 L 677.16 225.86 L 678.00 225.62 L 678.85 225.40" stroke="#5f7f80" stroke-width="1.15" opacity="0.39"/>
<path d="" stroke="#b19159" stroke-width="1.05" opacity="0.31"/>
<path d="M 277.66 286.40 L 277.75 286.81 L 277.83 287.22 L 277.92 287.65 L 278.01 288.08 L 278.11 288.53 L 278.21 288.98 L 278.31 289.45 L 278.42 289.93 L 278.53 290.42 L 278.64 290.92 L 278.76 291.44 L 278.88 291.96 L 279.01 292.50 L 279.14 293.05 L 279.27 293.62 L 279.41 294.19 L 279.56 294.79 L 279.71 295.39 L 279.87 296.01 L 280.03 296.65 L 280.20 297.30 L 280.37 297.96 L 280.55 298.64 L 280.74 299.34 L 280.94 300.05 L 281.14 300.78 L 281.35 301.53 L 281.57 302.29 L 281.80 303.07 L 282.03 303.87 L 282.28 304.69 L 282.53 305.53 L 282.79 306.38 L 283.07 307.26 L 283.35 308.15 L 283.65 309.06 L 283.95 310.00 L 284.27 310.96 L 284.60 311.93 L 284.95 312.93 L 285.31 313.95 L 285.68 314.99 L 286.06 316.06 L 286.47 317.15 L 286.88 318.26 L 287.32 319.39 L 287.77 320.55 L 288.24 321.74 L 288.72 322.95 L 289.23 324.18 L 289.76 325.44 L 290.30 326.72 L 290.87 328.03 L 291.46 329.37 L 292.08 330.73 L 292.72 332.12 L 293.38 333.53 L 294.07 334.98 L 294.79 336.45 L 295.54 337.94 L 296.31 339.47 L 297.12 341.02 L 297.95 342.60 L 298.82 344.21 L 299.73 345.84 L 300.66 347.50 L 301.64 349.19 L 302.65 350.91 L 303.70 352.65 L 304.80 354.42 L 305.93 356.22 L 307.10 358.04 L 308.33 359.89 L 309.59 361.76 L 310.91 363.65 L 312.27 365.58 L 313.68 367.52 L 315.15 369.49 L 316.67 371.47 L 318.24 373.48 L 319.87 375.51 L 321.56 377.55 L 323.30 379.62 L 325.11 381.69 L 326.98 383.79 L 328.91 385.89 L 330.91 388.01 L 332.98 390.13 L 335.11 392.26 L 337.32 394.40 L 339.59 396.54 L 341.94 398.68 L 344.36 400.82 L 346.85 402.96 L 349.42 405.09 L 352.06 407.21 L 354.78 409.32 L 357.57 411.42 L 360.45 413.49 L 363.40 415.55 L 366.43 417.59 L 369.54 419.59 L 372.72 421.57 L 375.98 423.51 L 379.32 425.42 L 382.74 427.28 L 386.23 429.10 L 389.80 430.88 L 393.43 432.60 L 397.14 434.27 L 400.92 435.88 L 404.77 437.43 L 408.69 438.92 L 412.66 440.33 L 416.70 441.68 L 420.80 442.95 L 424.95 444.15 L 429.15 445.26 L 433.40 446.29 L 437.70 447.24 L 442.04 448.10 L 446.42 448.87 L 450.82 449.55 L 455.26 450.13 L 459.73 450.62 L 464.21 451.02 L 468.71 451.31 L 473.22 451.51 L 477.74 451.61 L 482.26 451.61 L 486.78 451.51 L 491.29 451.31 L 495.79 451.02 L 500.27 450.62 L 504.74 450.13 L 509.18 449.55 L 513.58 448.87 L 517.96 448.10 L 522.30 447.24 L 526.60 446.29 L 530.85 445.26 L 535.05 444.15 L 539.20 442.95 L 543.30 441.68 L 547.34 440.33 L 551.31 438.92 L 555.23 437.43 L 559.08 435.88 L 562.86 434.27 L 566.57 432.60 L 570.20 430.88 L 573.77 429.10 L 577.26 427.28 L 580.68 425.42 L 584.02 423.51 L 587.28 421.57 L 590.46 419.59 L 593.57 417.59 L 596.60 415.55 L 599.55 413.49 L 602.43 411.42 L 605.22 409.32 L 607.94 407.21 L 610.58 405.09 L 613.15 402.96 L 615.64 400.82 L 618.06 398.68 L 620.41 396.54 L 622.68 394.40 L 624.89 392.26 L 627.02 390.13 L 629.09 388.01 L 631.09 385.89 L 633.02 383.79 L 634.89 381.69 L 636.70 379.62 L 638.44 377.55 L 640.13 375.51 L 641.76 373.48 L 643.33 371.47 L 644.85 369.49 L 646.32 367.52 L 647.73 365.58 L 649.09 363.65 L 650.41 361.76 L 651.67 359.89 L 652.90 358.04 L 654.07 356.22 L 655.20 354.42 L 656.30 352.65 L 657.35 350.91 L 658.36 349.19 L 659.34 347.50 L 660.27 345.84 L 661.18 344.21 L 662.05 342.60 L 662.88 341.02 L 663.69 339.47 L 664.46 337.94 L 665.21 336.45 L 665.93 334.98 L 666.62 333.53 L 667.28 332.12 L 667.92 330.73 L 668.54 329.37 L 669.13 328.03 L 669.70 326.72 L 670.24 325.44 L 670.77 324.18 L 671.28 322.95 L 671.76 321.74 L 672.23 320.55 L 672.68 319.39 L 673.12 318.26 L 673.53 317.15 L 673.94 316.06 L 674.32 314.99 L 674.69 313.95 L 675.05 312.93 L 675.40 311.93 L 675.73 310.96 L 676.05 310.00 L 676.35 309.06 L 676.65 308.15 L 676.93 307.26 L 677.21 306.38 L 677.47 305.53 L 677.72 304.69 L 677.97 303.87 L 678.20 303.07 L 678.43 302.29 L 678.65 301.53 L 678.86 300.78 L 679.06 300.05 L 679.26 299.34 L 679.45 298.64 L 679.63 297.96 L 679.80 297.30 L 679.97 296.65 L 680.13 296.01 L 680.29 295.39 L 680.44 294.79 L 680.59 294.19 L 680.73 293.62 L 680.86 293.05 L 680.99 292.50 L 681.12 291.96 L 681.24 291.44 L 681.36 290.92 L 681.47 290.42 L 681.58 289.93 L 681.69 289.45 L 681.79 288.98 L 681.89 288.53 L 681.99 288.08 L 682.08 287.65 L 682.17 287.22 L 682.25 286.81 L 682.34 286.40" stroke="#b19159" stroke-width="1.05" opacity="0.31"/>
<path d="M 286.10 281.90 L 286.37 282.18 L 286.66 282.46 L 286.95 282.76 L 287.25 283.06 L 287.56 283.36 L 287.88 283.68 L 288.20 284.00 L 288.53 284.33 L 288.87 284.66 L 289.22 285.00 L 289.58 285.35 L 289.94 285.71 L 290.32 286.07 L 290.70 286.44 L 291.10 286.82 L 291.50 287.21 L 291.92 287.60 L 292.34 288.00 L 292.78 288.42 L 293.22 288.84 L 293.68 289.26 L 294.15 289.70 L 294.63 290.15 L 295.12 290.60 L 295.63 291.07 L 296.14 291.54 L 296.67 292.02 L 297.22 292.51 L 297.77 293.01 L 298.34 293.52 L 298.93 294.04 L 299.53 294.57 L 300.14 295.11 L 300.77 295.66 L 301.41 296.22 L 302.07 296.79 L 302.75 297.37 L 303.44 297.96 L 304.15 298.56 L 304.88 299.17 L 305.62 299.79 L 306.39 300.42 L 307.17 301.06 L 307.97 301.72 L 308.79 302.38 L 309.63 303.05 L 310.48 303.74 L 311.36 304.43 L 312.27 305.14 L 313.19 305.85 L 314.13 306.58 L 315.10 307.32 L 316.09 308.06 L 317.10 308.82 L 318.14 309.59 L 319.20 310.36 L 320.28 311.15 L 321.39 311.95 L 322.53 312.76 L 323.69 313.57 L 324.88 314.40 L 326.09 315.23 L 327.33 316.08 L 328.60 316.93 L 329.90 317.79 L 331.23 318.66 L 332.59 319.53 L 333.97 320.42 L 335.39 321.31 L 336.83 322.21 L 338.31 323.11 L 339.82 324.02 L 341.36 324.93 L 342.93 325.86 L 344.54 326.78 L 346.18 327.71 L 347.85 328.64 L 349.55 329.58 L 351.29 330.52 L 353.06 331.46 L 354.87 332.40 L 356.71 333.34 L 358.58 334.28 L 360.49 335.22 L 362.44 336.16 L 364.42 337.09 L 366.44 338.03 L 368.49 338.96 L 370.58 339.88 L 372.70 340.80 L 374.86 341.71 L 377.06 342.62 L 379.28 343.51 L 381.55 344.40 L 383.85 345.28 L 386.18 346.14 L 388.55 347.00 L 390.96 347.84 L 393.39 348.67 L 395.86 349.48 L 398.37 350.28 L 400.90 351.06 L 403.47 351.83 L 406.07 352.57 L 408.70 353.30 L 411.36 354.00 L 414.05 354.69 L 416.76 355.35 L 419.51 355.99 L 422.28 356.60 L 425.08 357.19 L 427.90 357.76 L 430.74 358.30 L 433.61 358.81 L 436.50 359.29 L 439.41 359.74 L 442.34 360.17 L 445.28 360.56 L 448.24 360.93 L 451.22 361.26 L 454.21 361.56 L 457.22 361.83 L 460.23 362.06 L 463.26 362.27 L 466.29 362.43 L 469.33 362.57 L 472.37 362.67 L 475.42 362.74 L 478.47 362.78 L 481.53 362.78 L 484.58 362.74 L 487.63 362.67 L 490.67 362.57 L 493.71 362.43 L 496.74 362.27 L 499.77 362.06 L 502.78 361.83 L 505.79 361.56 L 508.78 361.26 L 511.76 360.93 L 514.72 360.56 L 517.66 360.17 L 520.59 359.74 L 523.50 359.29 L 526.39 358.81 L 529.26 358.30 L 532.10 357.76 L 534.92 357.19 L 537.72 356.60 L 540.49 355.99 L 543.24 355.35 L 545.95 354.69 L 548.64 354.00 L 551.30 353.30 L 553.93 352.57 L 556.53 351.83 L 559.10 351.06 L 561.63 350.28 L 564.14 349.48 L 566.61 348.67 L 569.04 347.84 L 571.45 347.00 L 573.82 346.14 L 576.15 345.28 L 578.45 344.40 L 580.72 343.51 L 582.94 342.62 L 585.14 341.71 L 587.30 340.80 L 589.42 339.88 L 591.51 338.96 L 593.56 338.03 L 595.58 337.09 L 597.56 336.16 L 599.51 335.22 L 601.42 334.28 L 603.29 333.34 L 605.13 332.40 L 606.94 331.46 L 608.71 330.52 L 610.45 329.58 L 612.15 328.64 L 613.82 327.71 L 615.46 326.78 L 617.07 325.86 L 618.64 324.93 L 620.18 324.02 L 621.69 323.11 L 623.17 322.21 L 624.61 321.31 L 626.03 320.42 L 627.41 319.53 L 628.77 318.66 L 630.10 317.79 L 631.40 316.93 L 632.67 316.08 L 633.91 315.23 L 635.12 314.40 L 636.31 313.57 L 637.47 312.76 L 638.61 311.95 L 639.72 311.15 L 640.80 310.36 L 641.86 309.59 L 642.90 308.82 L 643.91 308.06 L 644.90 307.32 L 645.87 306.58 L 646.81 305.85 L 647.73 305.14 L 648.64 304.43 L 649.52 303.74 L 650.37 303.05 L 651.21 302.38 L 652.03 301.72 L 652.83 301.06 L 653.61 300.42 L 654.38 299.79 L 655.12 299.17 L 655.85 298.56 L 656.56 297.96 L 657.25 297.37 L 657.93 296.79 L 658.59 296.22 L 659.23 295.66 L 659.86 295.11 L 660.47 294.57 L 661.07 294.04 L 661.66 293.52 L 662.23 293.01 L 662.78 292.51 L 663.33 292.02 L 663.86 291.54 L 664.37 291.07 L 664.88 290.60 L 665.37 290.15 L 665.85 289.70 L 666.32 289.26 L 666.78 288.84 L 667.22 288.42 L 667.66 288.00 L 668.08 287.60 L 668.50 287.21 L 668.90 286.82 L 669.30 286.44 L 669.68 286.07 L 670.06 285.71 L 670.42 285.35 L 670.78 285.00 L 671.13 284.66 L 671.47 284.33 L 671.80 284.00 L 672.12 283.68 L 672.44 283.36 L 672.75 283.06 L 673.05 282.76 L 673.34 282.46 L 673.63 282.18 L 673.90 281.90" stroke="#b19159" stroke-width="1.05" opacity="0.31"/>
<path d="M 290.33 274.87 L 290.70 274.98 L 291.08 275.10 L 291.47 275.22 L 291.87 275.34 L 292.27 275.46 L 292.69 275.58 L 293.11 275.71 L 293.55 275.84 L 293.99 275.97 L 294.45 276.11 L 294.91 276.25 L 295.39 276.39 L 295.88 276.53 L 296.37 276.68 L 296.88 276.83 L 297.40 276.98 L 297.93 277.13 L 298.48 277.29 L 299.04 277.45 L 299.60 277.62 L 300.19 277.78 L 300.78 277.95 L 301.39 278.13 L 302.01 278.30 L 302.64 278.48 L 303.29 278.67 L 303.95 278.85 L 304.63 279.04 L 305.32 279.24 L 306.03 279.43 L 306.75 279.63 L 307.49 279.83 L 308.24 280.04 L 309.01 280.25 L 309.79 280.46 L 310.60 280.68 L 311.41 280.90 L 312.25 281.12 L 313.10 281.35 L 313.97 281.58 L 314.86 281.81 L 315.77 282.05 L 316.69 282.29 L 317.64 282.53 L 318.60 282.78 L 319.58 283.03 L 320.59 283.28 L 321.61 283.54 L 322.65 283.80 L 323.71 284.06 L 324.79 284.33 L 325.90 284.60 L 327.02 284.87 L 328.17 285.15 L 329.34 285.43 L 330.53 285.71 L 331.74 285.99 L 332.98 286.28 L 334.23 286.57 L 335.51 286.86 L 336.82 287.16 L 338.14 287.46 L 339.49 287.76 L 340.87 288.06 L 342.26 288.36 L 343.69 288.67 L 345.13 288.97 L 346.60 289.28 L 348.10 289.59 L 349.62 289.91 L 351.16 290.22 L 352.73 290.53 L 354.33 290.85 L 355.95 291.17 L 357.59 291.48 L 359.26 291.80 L 360.96 292.12 L 362.68 292.44 L 364.42 292.75 L 366.20 293.07 L 367.99 293.39 L 369.82 293.70 L 371.66 294.01 L 373.54 294.33 L 375.43 294.64 L 377.36 294.95 L 379.30 295.26 L 381.28 295.56 L 383.27 295.86 L 385.30 296.16 L 387.34 296.46 L 389.41 296.76 L 391.50 297.05 L 393.62 297.33 L 395.76 297.62 L 397.92 297.89 L 400.11 298.17 L 402.31 298.44 L 404.54 298.70 L 406.79 298.96 L 409.06 299.21 L 411.35 299.46 L 413.66 299.70 L 416.00 299.93 L 418.34 300.16 L 420.71 300.38 L 423.10 300.59 L 425.50 300.80 L 427.92 301.00 L 430.35 301.19 L 432.80 301.37 L 435.27 301.55 L 437.75 301.71 L 440.24 301.87 L 442.75 302.02 L 445.26 302.16 L 447.79 302.29 L 450.33 302.41 L 452.88 302.52 L 455.43 302.62 L 458.00 302.71 L 460.57 302.79 L 463.15 302.86 L 465.73 302.93 L 468.32 302.98 L 470.91 303.02 L 473.51 303.05 L 476.10 303.07 L 478.70 303.08 L 481.30 303.08 L 483.90 303.07 L 486.49 303.05 L 489.09 303.02 L 491.68 302.98 L 494.27 302.93 L 496.85 302.86 L 499.43 302.79 L 502.00 302.71 L 504.57 302.62 L 507.12 302.52 L 509.67 302.41 L 512.21 302.29 L 514.74 302.16 L 517.25 302.02 L 519.76 301.87 L 522.25 301.71 L 524.73 301.55 L 527.20 301.37 L 529.65 301.19 L 532.08 301.00 L 534.50 300.80 L 536.90 300.59 L 539.29 300.38 L 541.66 300.16 L 544.00 299.93 L 546.34 299.70 L 548.65 299.46 L 550.94 299.21 L 553.21 298.96 L 555.46 298.70 L 557.69 298.44 L 559.89 298.17 L 562.08 297.89 L 564.24 297.62 L 566.38 297.33 L 568.50 297.05 L 570.59 296.76 L 572.66 296.46 L 574.70 296.16 L 576.73 295.86 L 578.72 295.56 L 580.70 295.26 L 582.64 294.95 L 584.57 294.64 L 586.46 294.33 L 588.34 294.01 L 590.18 293.70 L 592.01 293.39 L 593.80 293.07 L 595.58 292.75 L 597.32 292.44 L 599.04 292.12 L 600.74 291.80 L 602.41 291.48 L 604.05 291.17 L 605.67 290.85 L 607.27 290.53 L 608.84 290.22 L 610.38 289.91 L 611.90 289.59 L 613.40 289.28 L 614.87 288.97 L 616.31 288.67 L 617.74 288.36 L 619.13 288.06 L 620.51 287.76 L 621.86 287.46 L 623.18 287.16 L 624.49 286.86 L 625.77 286.57 L 627.02 286.28 L 628.26 285.99 L 629.47 285.71 L 630.66 285.43 L 631.83 285.15 L 632.98 284.87 L 634.10 284.60 L 635.21 284.33 L 636.29 284.06 L 637.35 283.80 L 638.39 283.54 L 639.41 283.28 L 640.42 283.03 L 641.40 282.78 L 642.36 282.53 L 643.31 282.29 L 644.23 282.05 L 645.14 281.81 L 646.03 281.58 L 646.90 281.35 L 647.75 281.12 L 648.59 280.90 L 649.40 280.68 L 650.21 280.46 L 650.99 280.25 L 651.76 280.04 L 652.51 279.83 L 653.25 279.63 L 653.97 279.43 L 654.68 279.24 L 655.37 279.04 L 656.05 278.85 L 656.71 278.67 L 657.36 278.48 L 657.99 278.30 L 658.61 278.13 L 659.22 277.95 L 659.81 277.78 L 660.40 277.62 L 660.96 277.45 L 661.52 277.29 L 662.07 277.13 L 662.60 276.98 L 663.12 276.83 L 663.63 276.68 L 664.12 276.53 L 664.61 276.39 L 665.09 276.25 L 665.55 276.11 L 666.01 275.97 L 666.45 275.84 L 666.89 275.71 L 667.31 275.58 L 667.73 275.46 L 668.13 275.34 L 668.53 275.22 L 668.92 275.10 L 669.30 274.98 L 669.67 274.87" stroke="#b19159" stroke-width="1.05" opacity="0.31"/>
<path d="M 290.33 265.13 L 290.70 265.02 L 291.08 264.90 L 291.47 264.78 L 291.87 264.66 L 292.27 264.54 L 292.69 264.42 L 293.11 264.29 L 293.55 264.16 L 293.99 264.03 L 294.45 263.89 L 294.91 263.75 L 295.39 263.61 L 295.88 263.47 L 296.37 263.32 L 296.88 263.17 L 297.40 263.02 L 297.93 262.87 L 298.48 262.71 L 299.04 262.55 L 299.60 262.38 L 300.19 262.22 L 300.78 262.05 L 301.39 261.87 L 302.01 261.70 L 302.64 261.52 L 303.29 261.33 L 303.95 261.15 L 304.63 260.96 L 305.32 260.76 L 306.03 260.57 L 306.75 260.37 L 307.49 260.17 L 308.24 259.96 L 309.01 259.75 L 309.79 259.54 L 310.60 259.32 L 311.41 259.10 L 312.25 258.88 L 313.10 258.65 L 313.97 258.42 L 314.86 258.19 L 315.77 257.95 L 316.69 257.71 L 317.64 257.47 L 318.60 257.22 L 319.58 256.97 L 320.59 256.72 L 321.61 256.46 L 322.65 256.20 L 323.71 255.94 L 324.79 255.67 L 325.90 255.40 L 327.02 255.13 L 328.17 254.85 L 329.34 254.57 L 330.53 254.29 L 331.74 254.01 L 332.98 253.72 L 334.23 253.43 L 335.51 253.14 L 336.82 252.84 L 338.14 252.54 L 339.49 252.24 L 340.87 251.94 L 342.26 251.64 L 343.69 251.33 L 345.13 251.03 L 346.60 250.72 L 348.10 250.41 L 349.62 250.09 L 351.16 249.78 L 352.73 249.47 L 354.33 249.15 L 355.95 248.83 L 357.59 248.52 L 359.26 248.20 L 360.96 247.88 L 362.68 247.56 L 364.42 247.25 L 366.20 246.93 L 367.99 246.61 L 369.82 246.30 L 371.66 245.99 L 373.54 245.67 L 375.43 245.36 L 377.36 245.05 L 379.30 244.74 L 381.28 244.44 L 383.27 244.14 L 385.30 243.84 L 387.34 243.54 L 389.41 243.24 L 391.50 242.95 L 393.62 242.67 L 395.76 242.38 L 397.92 242.11 L 400.11 241.83 L 402.31 241.56 L 404.54 241.30 L 406.79 241.04 L 409.06 240.79 L 411.35 240.54 L 413.66 240.30 L 416.00 240.07 L 418.34 239.84 L 420.71 239.62 L 423.10 239.41 L 425.50 239.20 L 427.92 239.00 L 430.35 238.81 L 432.80 238.63 L 435.27 238.45 L 437.75 238.29 L 440.24 238.13 L 442.75 237.98 L 445.26 237.84 L 447.79 237.71 L 450.33 237.59 L 452.88 237.48 L 455.43 237.38 L 458.00 237.29 L 460.57 237.21 L 463.15 237.14 L 465.73 237.07 L 468.32 237.02 L 470.91 236.98 L 473.51 236.95 L 476.10 236.93 L 478.70 236.92 L 481.30 236.92 L 483.90 236.93 L 486.49 236.95 L 489.09 236.98 L 491.68 237.02 L 494.27 237.07 L 496.85 237.14 L 499.43 237.21 L 502.00 237.29 L 504.57 237.38 L 507.12 237.48 L 509.67 237.59 L 512.21 237.71 L 514.74 237.84 L 517.25 237.98 L 519.76 238.13 L 522.25 238.29 L 524.73 238.45 L 527.20 238.63 L 529.65 238.81 L 532.08 239.00 L 534.50 239.20 L 536.90 239.41 L 539.29 239.62 L 541.66 239.84 L 544.00 240.07 L 546.34 240.30 L 548.65 240.54 L 550.94 240.79 L 553.21 241.04 L 555.46 241.30 L 557.69 241.56 L 559.89 241.83 L 562.08 242.11 L 564.24 242.38 L 566.38 242.67 L 568.50 242.95 L 570.59 243.24 L 572.66 243.54 L 574.70 243.84 L 576.73 244.14 L 578.72 244.44 L 580.70 244.74 L 582.64 245.05 L 584.57 245.36 L 586.46 245.67 L 588.34 245.99 L 590.18 246.30 L 592.01 246.61 L 593.80 246.93 L 595.58 247.25 L 597.32 247.56 L 599.04 247.88 L 600.74 248.20 L 602.41 248.52 L 604.05 248.83 L 605.67 249.15 L 607.27 249.47 L 608.84 249.78 L 610.38 250.09 L 611.90 250.41 L 613.40 250.72 L 614.87 251.03 L 616.31 251.33 L 617.74 251.64 L 619.13 251.94 L 620.51 252.24 L 621.86 252.54 L 623.18 252.84 L 624.49 253.14 L 625.77 253.43 L 627.02 253.72 L 628.26 254.01 L 629.47 254.29 L 630.66 254.57 L 631.83 254.85 L 632.98 255.13 L 634.10 255.40 L 635.21 255.67 L 636.29 255.94 L 637.35 256.20 L 638.39 256.46 L 639.41 256.72 L 640.42 256.97 L 641.40 257.22 L 642.36 257.47 L 643.31 257.71 L 644.23 257.95 L 645.14 258.19 L 646.03 258.42 L 646.90 258.65 L 647.75 258.88 L 648.59 259.10 L 649.40 259.32 L 650.21 259.54 L 650.99 259.75 L 651.76 259.96 L 652.51 260.17 L 653.25 260.37 L 653.97 260.57 L 654.68 260.76 L 655.37 260.96 L 656.05 261.15 L 656.71 261.33 L 657.36 261.52 L 657.99 261.70 L 658.61 261.87 L 659.22 262.05 L 659.81 262.22 L 660.40 262.38 L 660.96 262.55 L 661.52 262.71 L 662.07 262.87 L 662.60 263.02 L 663.12 263.17 L 663.63 263.32 L 664.12 263.47 L 664.61 263.61 L 665.09 263.75 L 665.55 263.89 L 666.01 264.03 L 666.45 264.16 L 666.89 264.29 L 667.31 264.42 L 667.73 264.54 L 668.13 264.66 L 668.53 264.78 L 668.92 264.90 L 669.30 265.02 L 669.67 265.13" stroke="#b19159" stroke-width="1.05" opacity="0.31"/>
<path d="M 286.10 258.10 L 286.37 257.82 L 286.66 257.54 L 286.95 257.24 L 287.25 256.94 L 287.56 256.64 L 287.88 256.32 L 288.20 256.00 L 288.53 255.67 L 288.87 255.34 L 289.22 255.00 L 289.58 254.65 L 289.94 254.29 L 290.32 253.93 L 290.70 253.56 L 291.10 253.18 L 291.50 252.79 L 291.92 252.40 L 292.34 252.00 L 292.78 251.58 L 293.22 251.16 L 293.68 250.74 L 294.15 250.30 L 294.63 249.85 L 295.12 249.40 L 295.63 248.93 L 296.14 248.46 L 296.67 247.98 L 297.22 247.49 L 297.77 246.99 L 298.34 246.48 L 298.93 245.96 L 299.53 245.43 L 300.14 244.89 L 300.77 244.34 L 301.41 243.78 L 302.07 243.21 L 302.75 242.63 L 303.44 242.04 L 304.15 241.44 L 304.88 240.83 L 305.62 240.21 L 306.39 239.58 L 307.17 238.94 L 307.97 238.28 L 308.79 237.62 L 309.63 236.95 L 310.48 236.26 L 311.36 235.57 L 312.27 234.86 L 313.19 234.15 L 314.13 233.42 L 315.10 232.68 L 316.09 231.94 L 317.10 231.18 L 318.14 230.41 L 319.20 229.64 L 320.28 228.85 L 321.39 228.05 L 322.53 227.24 L 323.69 226.43 L 324.88 225.60 L 326.09 224.77 L 327.33 223.92 L 328.60 223.07 L 329.90 222.21 L 331.23 221.34 L 332.59 220.47 L 333.97 219.58 L 335.39 218.69 L 336.83 217.79 L 338.31 216.89 L 339.82 215.98 L 341.36 215.07 L 342.93 214.14 L 344.54 213.22 L 346.18 212.29 L 347.85 211.36 L 349.55 210.42 L 351.29 209.48 L 353.06 208.54 L 354.87 207.60 L 356.71 206.66 L 358.58 205.72 L 360.49 204.78 L 362.44 203.84 L 364.42 202.91 L 366.44 201.97 L 368.49 201.04 L 370.58 200.12 L 372.70 199.20 L 374.86 198.29 L 377.06 197.38 L 379.28 196.49 L 381.55 195.60 L 383.85 194.72 L 386.18 193.86 L 388.55 193.00 L 390.96 192.16 L 393.39 191.33 L 395.86 190.52 L 398.37 189.72 L 400.90 188.94 L 403.47 188.17 L 406.07 187.43 L 408.70 186.70 L 411.36 186.00 L 414.05 185.31 L 416.76 184.65 L 419.51 184.01 L 422.28 183.40 L 425.08 182.81 L 427.90 182.24 L 430.74 181.70 L 433.61 181.19 L 436.50 180.71 L 439.41 180.26 L 442.34 179.83 L 445.28 179.44 L 448.24 179.07 L 451.22 178.74 L 454.21 178.44 L 457.22 178.17 L 460.23 177.94 L 463.26 177.73 L 466.29 177.57 L 469.33 177.43 L 472.37 177.33 L 475.42 177.26 L 478.47 177.22 L 481.53 177.22 L 484.58 177.26 L 487.63 177.33 L 490.67 177.43 L 493.71 177.57 L 496.74 177.73 L 499.77 177.94 L 502.78 178.17 L 505.79 178.44 L 508.78 178.74 L 511.76 179.07 L 514.72 179.44 L 517.66 179.83 L 520.59 180.26 L 523.50 180.71 L 526.39 181.19 L 529.26 181.70 L 532.10 182.24 L 534.92 182.81 L 537.72 183.40 L 540.49 184.01 L 543.24 184.65 L 545.95 185.31 L 548.64 186.00 L 551.30 186.70 L 553.93 187.43 L 556.53 188.17 L 559.10 188.94 L 561.63 189.72 L 564.14 190.52 L 566.61 191.33 L 569.04 192.16 L 571.45 193.00 L 573.82 193.86 L 576.15 194.72 L 578.45 195.60 L 580.72 196.49 L 582.94 197.38 L 585.14 198.29 L 587.30 199.20 L 589.42 200.12 L 591.51 201.04 L 593.56 201.97 L 595.58 202.91 L 597.56 203.84 L 599.51 204.78 L 601.42 205.72 L 603.29 206.66 L 605.13 207.60 L 606.94 208.54 L 608.71 209.48 L 610.45 210.42 L 612.15 211.36 L 613.82 212.29 L 615.46 213.22 L 617.07 214.14 L 618.64 215.07 L 620.18 215.98 L 621.69 216.89 L 623.17 217.79 L 624.61 218.69 L 626.03 219.58 L 627.41 220.47 L 628.77 221.34 L 630.10 222.21 L 631.40 223.07 L 632.67 223.92 L 633.91 224.77 L 635.12 225.60 L 636.31 226.43 L 637.47 227.24 L 638.61 228.05 L 639.72 228.85 L 640.80 229.64 L 641.86 230.41 L 642.90 231.18 L 643.91 231.94 L 644.90 232.68 L 645.87 233.42 L 646.81 234.15 L 647.73 234.86 L 648.64 235.57 L 649.52 236.26 L 650.37 236.95 L 651.21 237.62 L 652.03 238.28 L 652.83 238.94 L 653.61 239.58 L 654.38 240.21 L 655.12 240.83 L 655.85 241.44 L 656.56 242.04 L 657.25 242.63 L 657.93 243.21 L 658.59 243.78 L 659.23 244.34 L 659.86 244.89 L 660.47 245.43 L 661.07 245.96 L 661.66 246.48 L 662.23 246.99 L 662.78 247.49 L 663.33 247.98 L 663.86 248.46 L 664.37 248.93 L 664.88 249.40 L 665.37 249.85 L 665.85 250.30 L 666.32 250.74 L 666.78 251.16 L 667.22 251.58 L 667.66 252.00 L 668.08 252.40 L 668.50 252.79 L 668.90 253.18 L 669.30 253.56 L 669.68 253.93 L 670.06 254.29 L 670.42 254.65 L 670.78 255.00 L 671.13 255.34 L 671.47 255.67 L 671.80 256.00 L 672.12 256.32 L 672.44 256.64 L 672.75 256.94 L 673.05 257.24 L 673.34 257.54 L 673.63 257.82 L 673.90 258.10" stroke="#b19159" stroke-width="1.05" opacity="0.31"/>
<path d="M 277.66 253.60 L 277.75 253.19 L 277.83 252.78 L 277.92 252.35 L 278.01 251.92 L 278.11 251.47 L 278.21 251.02 L 278.31 250.55 L 278.42 250.07 L 278.53 249.58 L 278.64 249.08 L 278.76 248.56 L 278.88 248.04 L 279.01 247.50 L 279.14 246.95 L 279.27 246.38 L 279.41 245.81 L 279.56 245.21 L 279.71 244.61 L 279.87 243.99 L 280.03 243.35 L 280.20 242.70 L 280.37 242.04 L 280.55 241.36 L 280.74 240.66 L 280.94 239.95 L 281.14 239.22 L 281.35 238.47 L 281.57 237.71 L 281.80 236.93 L 282.03 236.13 L 282.28 235.31 L 282.53 234.47 L 282.79 233.62 L 283.07 232.74 L 283.35 231.85 L 283.65 230.94 L 283.95 230.00 L 284.27 229.04 L 284.60 228.07 L 284.95 227.07 L 285.31 226.05 L 285.68 225.01 L 286.06 223.94 L 286.47 222.85 L 286.88 221.74 L 287.32 220.61 L 287.77 219.45 L 288.24 218.26 L 288.72 217.05 L 289.23 215.82 L 289.76 214.56 L 290.30 213.28 L 290.87 211.97 L 291.46 210.63 L 292.08 209.27 L 292.72 207.88 L 293.38 206.47 L 294.07 205.02 L 294.79 203.55 L 295.54 202.06 L 296.31 200.53 L 297.12 198.98 L 297.95 197.40 L 298.82 195.79 L 299.73 194.16 L 300.66 192.50 L 301.64 190.81 L 302.65 189.09 L 303.70 187.35 L 304.80 185.58 L 305.93 183.78 L 307.10 181.96 L 308.33 180.11 L 309.59 178.24 L 310.91 176.35 L 312.27 174.42 L 313.68 172.48 L 315.15 170.51 L 316.67 168.53 L 318.24 166.52 L 319.87 164.49 L 321.56 162.45 L 323.30 160.38 L 325.11 158.31 L 326.98 156.21 L 328.91 154.11 L 330.91 151.99 L 332.98 149.87 L 335.11 147.74 L 337.32 145.60 L 339.59 143.46 L 341.94 141.32 L 344.36 139.18 L 346.85 137.04 L 349.42 134.91 L 352.06 132.79 L 354.78 130.68 L 357.57 128.58 L 360.45 126.51 L 363.40 124.45 L 366.43 122.41 L 369.54 120.41 L 372.72 118.43 L 375.98 116.49 L 379.32 114.58 L 382.74 112.72 L 386.23 110.90 L 389.80 109.12 L 393.43 107.40 L 397.14 105.73 L 400.92 104.12 L 404.77 102.57 L 408.69 101.08 L 412.66 99.67 L 416.70 98.32 L 420.80 97.05 L 424.95 95.85 L 429.15 94.74 L 433.40 93.71 L 437.70 92.76 L 442.04 91.90 L 446.42 91.13 L 450.82 90.45 L 455.26 89.87 L 459.73 89.38 L 464.21 88.98 L 468.71 88.69 L 473.22 88.49 L 477.74 88.39 L 482.26 88.39 L 486.78 88.49 L 491.29 88.69 L 495.79 88.98 L 500.27 89.38 L 504.74 89.87 L 509.18 90.45 L 513.58 91.13 L 517.96 91.90 L 522.30 92.76 L 526.60 93.71 L 530.85 94.74 L 535.05 95.85 L 539.20 97.05 L 543.30 98.32 L 547.34 99.67 L 551.31 101.08 L 555.23 102.57 L 559.08 104.12 L 562.86 105.73 L 566.57 107.40 L 570.20 109.12 L 573.77 110.90 L 577.26 112.72 L 580.68 114.58 L 584.02 116.49 L 587.28 118.43 L 590.46 120.41 L 593.57 122.41 L 596.60 124.45 L 599.55 126.51 L 602.43 128.58 L 605.22 130.68 L 607.94 132.79 L 610.58 134.91 L 613.15 137.04 L 615.64 139.18 L 618.06 141.32 L 620.41 143.46 L 622.68 145.60 L 624.89 147.74 L 627.02 149.87 L 629.09 151.99 L 631.09 154.11 L 633.02 156.21 L 634.89 158.31 L 636.70 160.38 L 638.44 162.45 L 640.13 164.49 L 641.76 166.52 L 643.33 168.53 L 644.85 170.51 L 646.32 172.48 L 647.73 174.42 L 649.09 176.35 L 650.41 178.24 L 651.67 180.11 L 652.90 181.96 L 654.07 183.78 L 655.20 185.58 L 656.30 187.35 L 657.35 189.09 L 658.36 190.81 L 659.34 192.50 L 660.27 194.16 L 661.18 195.79 L 662.05 197.40 L 662.88 198.98 L 663.69 200.53 L 664.46 202.06 L 665.21 203.55 L 665.93 205.02 L 666.62 206.47 L 667.28 207.88 L 667.92 209.27 L 668.54 210.63 L 669.13 211.97 L 669.70 213.28 L 670.24 214.56 L 670.77 215.82 L 671.28 217.05 L 671.76 218.26 L 672.23 219.45 L 672.68 220.61 L 673.12 221.74 L 673.53 222.85 L 673.94 223.94 L 674.32 225.01 L 674.69 226.05 L 675.05 227.07 L 675.40 228.07 L 675.73 229.04 L 676.05 230.00 L 676.35 230.94 L 676.65 231.85 L 676.93 232.74 L 677.21 233.62 L 677.47 234.47 L 677.72 235.31 L 677.97 236.13 L 678.20 236.93 L 678.43 237.71 L 678.65 238.47 L 678.86 239.22 L 679.06 239.95 L 679.26 240.66 L 679.45 241.36 L 679.63 242.04 L 679.80 242.70 L 679.97 243.35 L 680.13 243.99 L 680.29 244.61 L 680.44 245.21 L 680.59 245.81 L 680.73 246.38 L 680.86 246.95 L 680.99 247.50 L 681.12 248.04 L 681.24 248.56 L 681.36 249.08 L 681.47 249.58 L 681.58 250.07 L 681.69 250.55 L 681.79 251.02 L 681.89 251.47 L 681.99 251.92 L 682.08 252.35 L 682.17 252.78 L 682.25 253.19 L 682.34 253.60" stroke="#b19159" stroke-width="1.05" opacity="0.31"/>
<path d="" stroke="#b19159" stroke-width="1.05" opacity="0.31"/>
<path d="M 610.70 260.22 L 610.79 259.24 L 610.85 258.26 L 610.89 257.27 L 610.90 256.28 L 610.88 255.28 L 610.83 254.27 L 610.76 253.26 L 610.67 252.25 L 610.54 251.22 L 610.39 250.19 L 610.21 249.15 L 610.00 248.10 L 609.77 247.04 L 609.50 245.97 L 609.21 244.89 L 608.88 243.80 L 608.53 242.70 L 608.14 241.59 L 607.72 240.47 L 607.27 239.33 L 606.78 238.19 L 606.26 237.03 L 605.71 235.86 L 605.11 234.68 L 604.48 233.48 L 603.82 232.28 L 603.11 231.06 L 602.37 229.83 L 601.58 228.58 L 600.75 227.33 L 599.87 226.07 L 598.96 224.79 L 597.99 223.51 L 596.98 222.21 L 595.92 220.91 L 594.82 219.60 L 593.66 218.29 L 592.45 216.97 L 591.18 215.65 L 589.87 214.32 L 588.50 212.99 L 587.07 211.67 L 585.59 210.34 L 584.04 209.03 L 582.44 207.71 L 580.78 206.41 L 579.07 205.12 L 577.29 203.84 L 575.45 202.58 L 573.55 201.34 L 571.59 200.12 L 569.57 198.92 L 567.49 197.76 L 565.35 196.62 L 563.15 195.52 L 560.90 194.45 L 558.59 193.43 L 556.23 192.44 L 553.81 191.51 L 551.35 190.62 L 548.83 189.79 L 546.27 189.01 L 543.67 188.29 L 541.03 187.64 L 538.35 187.04 L 535.64 186.51 L 532.90 186.05 L 530.14 185.66 L 527.35 185.34 L 524.55 185.09 L 521.73 184.92 L 518.91 184.82 L 516.08 184.80 L 513.25 184.86 L 510.42 184.99 L 507.61 185.19 L 504.80 185.47 L 502.02 185.83 L 499.25 186.26 L 496.51 186.76 L 493.81 187.33 L 491.13 187.97 L 488.49 188.67 L 485.89 189.44 L 483.34 190.28 L 480.83 191.17 L 478.36 192.12 L 475.96 193.12 L 473.60 194.18 L 471.30 195.29 L 469.06 196.44 L 466.87 197.64 L 464.75 198.88 L 462.69 200.15 L 460.69 201.46 L 458.75 202.81 L 456.88 204.18 L 455.07 205.59 L 453.33 207.01 L 451.66 208.46 L 450.04 209.94 L 448.50 211.43 L 447.01 212.93 L 445.60 214.46 L 444.24 215.99 L 442.95 217.54 L 441.73 219.09 L 440.56 220.66 L 439.46 222.23 L 438.42 223.80 L 437.44 225.38 L 436.52 226.97 L 435.66 228.55 L 434.86 230.14 L 434.11 231.73 L 433.43 233.32 L 432.80 234.91 L 432.22 236.49 L 431.71 238.08 L 431.24 239.66 L 430.83 241.24 L 430.48 242.82 L 430.18 244.40 L 429.93 245.97 L 429.73 247.54 L 429.59 249.11 L 429.50 250.67 L 429.45 252.23 L 429.46 253.78 L 429.53 255.33 L 429.64 256.88 L 429.80 258.42 L 430.01 259.96 L 430.27 261.50 L 430.59 263.03 L 430.95 264.55 L 431.37 266.07 L 431.83 267.59 L 432.35 269.10 L 432.91 270.61 L 433.53 272.11 L 434.20 273.61 L 434.92 275.10 L 435.69 276.59 L 436.51 278.07 L 437.38 279.54 L 438.31 281.00 L 439.29 282.46 L 440.32 283.91 L 441.40 285.34 L 442.54 286.77 L 443.73 288.19 L 444.97 289.59 L 446.27 290.98 L 447.62 292.36 L 449.02 293.72 L 450.48 295.07 L 451.99 296.39 L 453.56 297.70 L 455.17 298.99 L 456.84 300.25 L 458.57 301.49 L 460.34 302.71 L 462.17 303.90 L 464.04 305.06 L 465.97 306.18 L 467.94 307.28 L 469.97 308.34 L 472.04 309.37 L 474.15 310.36 L 476.31 311.30 L 478.51 312.21 L 480.75 313.08 L 483.03 313.89 L 485.35 314.67 L 487.69 315.39 L 490.08 316.06 L 492.49 316.69 L 494.92 317.26 L 497.38 317.77 L 499.87 318.24 L 502.37 318.64 L 504.88 318.99 L 507.41 319.29 L 509.94 319.52 L 512.49 319.70 L 515.03 319.82 L 517.58 319.89 L 520.12 319.89 L 522.65 319.84 L 525.17 319.74 L 527.69 319.58 L 530.18 319.36 L 532.66 319.09 L 535.11 318.77 L 537.54 318.39 L 539.95 317.97 L 542.32 317.50 L 544.67 316.99 L 546.98 316.43 L 549.25 315.83 L 551.49 315.19 L 553.68 314.51 L 555.84 313.80 L 557.95 313.05 L 560.03 312.27 L 562.05 311.46 L 564.04 310.62 L 565.97 309.76 L 567.86 308.87 L 569.71 307.97 L 571.50 307.04 L 573.25 306.10 L 574.95 305.14 L 576.61 304.16 L 578.22 303.18 L 579.77 302.18 L 581.29 301.18 L 582.76 300.16 L 584.18 299.14 L 585.55 298.12 L 586.88 297.09 L 588.17 296.06 L 589.41 295.02 L 590.61 293.99 L 591.77 292.95 L 592.89 291.92 L 593.96 290.88 L 595.00 289.85 L 595.99 288.82 L 596.95 287.79 L 597.87 286.77 L 598.76 285.75 L 599.60 284.73 L 600.41 283.72 L 601.19 282.71 L 601.93 281.70 L 602.64 280.70 L 603.32 279.70 L 603.96 278.71 L 604.57 277.72 L 605.16 276.73 L 605.71 275.75 L 606.23 274.77 L 606.72 273.79 L 607.18 272.82 L 607.62 271.85 L 608.02 270.88 L 608.40 269.91 L 608.75 268.94 L 609.07 267.98 L 609.37 267.01 L 609.64 266.04 L 609.88 265.08 L 610.10 264.11 L 610.29 263.14 L 610.45 262.17 L 610.59 261.20 L 610.70 260.22" stroke="#7a2e2e" stroke-width="2.75" opacity="0.88"/>
<circle cx="530.51" cy="254.56" r="4.2" fill="#2f3739" opacity="0.82"/>
</g>
</svg>
