<svg xmlns="http://www.w3.org/2000/svg" width="960" height="540" viewBox="0 0 960 540" role="img" aria-label="A sphere-like manifold with a placed tangent plane and geodesic.">
<rect width="960" height="540" fill="#fbfaf6"/>
<rect x="0.5" y="0.5" width="959" height="539" fill="none" stroke="#d8d2c5" stroke-width="1" opacity="0.72"/>
<circle cx="485" cy="282" r="226.44" fill="#d8bf74" opacity="0.060" stroke="#d8d2c5" stroke-width="1" stroke-opacity="0.42"/>
<path d="M 665.05 419.32 L 665.95 418.10 L 666.83 416.86 L 667.68 415.59 L 668.50 414.31 L 669.30 413.01 L 670.07 411.69 L 670.81 410.35 L 671.53 408.99 L 672.22 407.61 L 672.88 406.22 L 673.51 404.80 L 674.12 403.37 L 674.70 401.92 L 675.25 400.45 L 675.77 398.97 L 676.27 397.47 L 676.73 395.95 L 677.17 394.41 L 677.59 392.86 L 677.97 391.30 L 678.32 389.71 L 678.65 388.11 L 678.95 386.50 L 679.22 384.87 L 679.46 383.22 L 679.68 381.56 L 679.86 379.89 L 680.02 378.20 L 680.15 376.50 L 680.25 374.78 L 680.32 373.05 L 680.36 371.31 L 680.37 369.55 L 680.36 367.78 L 680.32 366.00 L 680.25 364.21 L 680.15 362.40 L 680.02 360.59 L 679.86 358.76 L 679.68 356.92 L 679.46 355.07 L 679.22 353.20 L 678.95 351.33 L 678.65 349.45 L 678.32 347.56 L 677.97 345.66 L 677.59 343.74 L 677.17 341.82 L 676.73 339.90 L 676.27 337.96 L 675.77 336.01 L 675.25 334.06 L 674.70 332.10 L 674.12 330.13 L 673.51 328.16 L 672.88 326.17 L 672.22 324.19 L 671.53 322.19 L 670.81 320.19 L 670.07 318.18 L 669.30 316.17 L 668.50 314.16 L 667.68 312.14 L 666.83 310.11 L 665.95 308.08 L 665.05 306.05 L 664.12 304.01 L 663.16 301.97 L 662.18 299.93 L 661.17 297.88 L 660.14 295.83 L 659.08 293.78 L 658.00 291.73 L 656.89 289.68 L 655.75 287.63 L 654.59 285.57 L 653.41 283.52 L 652.20 281.46 L 650.96 279.40 L 649.71 277.35 L 648.42 275.29 L 647.12 273.24 L 645.79 271.19 L 644.44 269.14 L 643.06 267.09 L 641.66 265.04 L 640.24 263.00 L 638.80 260.96 L 637.33 258.92 L 635.84 256.88 L 634.33 254.85 L 632.79 252.82 L 631.24 250.80 L 629.66 248.78 L 628.07 246.77 L 626.45 244.76 L 624.81 242.76 L 623.15 240.76 L 621.47 238.77 L 619.77 236.78 L 618.05 234.80 L 616.31 232.83 L 614.56 230.87 L 612.78 228.91 L 610.99 226.96 L 609.17 225.02 L 607.34 223.09 L 605.49 221.16 L 603.62 219.25 L 601.74 217.34 L 599.84 215.45 L 597.92 213.56 L 595.99 211.68 L 594.03 209.82 L 592.07 207.96 L 590.08 206.11 L 588.09 204.28 L 586.07 202.46 L 584.05 200.64 L 582.00 198.85 L 579.95 197.06 L 577.88 195.28 L 575.79 193.52 L 573.70 191.77 L 571.59 190.04 L 569.47 188.31 L 567.33 186.60 L 565.18 184.91 L 563.03 183.23 L 560.86 181.56 L 558.67 179.91 L 556.48 178.27 L 554.28 176.65 L 552.07 175.04 L 549.85 173.45 L 547.61 171.88 L 545.37 170.32 L 543.12 168.78 L 540.87 167.25 L 538.60 165.74 L 536.33 164.25 L 534.04 162.77 L 531.76 161.32 L 529.46 159.88 L 527.16 158.45 L 524.85 157.05 L 522.54 155.66 L 520.22 154.29 L 517.89 152.95 L 515.56 151.62 L 513.23 150.30 L 510.89 149.01 L 508.55 147.74 L 506.20 146.49 L 503.86 145.25 L 501.51 144.04 L 499.15 142.85 L 496.80 141.68 L 494.44 140.52 L 492.08 139.39 L 489.72 138.28 L 487.36 137.19 L 485.00 136.12" fill="none" stroke="#bfc6c4" stroke-width="1.0" opacity="0.09" stroke-linecap="round" stroke-linejoin="round"/>
<path d="M 698.93 207.80 L 698.35 206.20 L 697.73 204.61 L 697.08 203.03 L 696.40 201.46 L 695.69 199.90 L 694.95 198.36 L 694.17 196.83 L 693.37 195.31 L 692.54 193.80 L 691.67 192.31 L 690.78 190.83 L 689.86 189.36 L 688.90 187.91 L 687.92 186.47 L 686.91 185.04 L 685.86 183.63 L 684.79 182.23 L 683.69 180.85 L 682.56 179.48 L 681.40 178.13 L 680.22 176.79 L 679.00 175.47 L 677.75 174.16 L 676.48 172.87 L 675.18 171.59 L 673.85 170.33 L 672.50 169.09 L 671.11 167.86 L 669.70 166.65 L 668.27 165.46 L 666.80 164.28 L 665.31 163.12 L 663.79 161.98 L 662.25 160.86 L 660.68 159.75 L 659.09 158.66 L 657.47 157.59 L 655.82 156.54 L 654.15 155.51 L 652.46 154.49 L 650.74 153.49 L 648.99 152.52 L 647.23 151.56 L 645.44 150.62 L 643.62 149.70 L 641.78 148.79 L 639.92 147.91 L 638.04 147.05 L 636.13 146.21 L 634.21 145.38 L 632.26 144.58 L 630.29 143.80 L 628.29 143.03 L 626.28 142.29 L 624.25 141.57 L 622.19 140.87 L 620.12 140.18 L 618.03 139.52 L 615.91 138.88 L 613.78 138.27 L 611.63 137.67 L 609.46 137.09 L 607.27 136.54 L 605.07 136.00 L 602.84 135.49 L 600.60 135.00 L 598.35 134.53 L 596.07 134.08 L 593.78 133.65 L 591.48 133.25 L 589.16 132.86 L 586.82 132.50 L 584.47 132.16 L 582.10 131.84 L 579.72 131.54 L 577.33 131.27 L 574.92 131.02 L 572.50 130.79 L 570.07 130.58 L 567.62 130.39 L 565.16 130.23 L 562.69 130.09 L 560.21 129.97 L 557.72 129.87 L 555.22 129.80 L 552.70 129.74 L 550.18 129.71 L 547.65 129.70 L 545.11 129.72 L 542.56 129.75 L 540.00 129.81 L 537.43 129.89 L 534.86 129.99 L 532.28 130.12 L 529.69 130.27 L 527.09 130.43 L 524.49 130.63 L 521.89 130.84 L 519.27 131.07 L 516.66 131.33 L 514.04 131.61 L 511.41 131.91 L 508.78 132.24 L 506.15 132.58 L 503.51 132.95 L 500.87 133.34 L 498.23 133.75 L 495.59 134.18 L 492.94 134.63 L 490.29 135.11 L 487.65 135.61 L 485.00 136.12" fill="none" stroke="#bfc6c4" stroke-width="1.0" opacity="0.09" stroke-linecap="round" stroke-linejoin="round"/>
<path d="M 576.79 75.01 L 575.96 74.70 L 575.11 74.41 L 574.25 74.15 L 573.38 73.92 L 572.49 73.72 L 571.60 73.55 L 570.68 73.42 L 569.76 73.31 L 568.82 73.23 L 567.88 73.19 L 566.92 73.17 L 565.94 73.19 L 564.96 73.23 L 563.97 73.31 L 562.96 73.41 L 561.94 73.55 L 560.91 73.72 L 559.87 73.92 L 558.82 74.15 L 557.75 74.40 L 556.68 74.69 L 555.60 75.01 L 554.50 75.36 L 553.40 75.74 L 552.29 76.15 L 551.16 76.59 L 550.03 77.06 L 548.89 77.56 L 547.73 78.09 L 546.57 78.65 L 545.40 79.24 L 544.22 79.86 L 543.03 80.50 L 541.84 81.18 L 540.63 81.89 L 539.42 82.62 L 538.20 83.39 L 536.97 84.18 L 535.73 85.01 L 534.49 85.86 L 533.24 86.74 L 531.98 87.65 L 530.72 88.58 L 529.45 89.55 L 528.17 90.54 L 526.88 91.56 L 525.59 92.61 L 524.30 93.69 L 522.99 94.80 L 521.69 95.93 L 520.37 97.09 L 519.06 98.27 L 517.73 99.49 L 516.41 100.72 L 515.07 101.99 L 513.74 103.28 L 512.40 104.60 L 511.05 105.95 L 509.70 107.32 L 508.35 108.71 L 506.99 110.13 L 505.63 111.58 L 504.27 113.05 L 502.91 114.54 L 501.54 116.06 L 500.17 117.61 L 498.80 119.18 L 497.42 120.77 L 496.05 122.38 L 494.67 124.02 L 493.29 125.68 L 491.91 127.37 L 490.53 129.07 L 489.15 130.80 L 487.77 132.56 L 486.38 134.33 L 485.00 136.12" fill="none" stroke="#bfc6c4" stroke-width="1.0" opacity="0.09" stroke-linecap="round" stroke-linejoin="round"/>
<path d="M 440.83 59.91 L 441.28 59.85 L 441.73 59.83 L 442.18 59.84 L 442.64 59.88 L 443.11 59.95 L 443.58 60.05 L 444.06 60.19 L 444.55 60.36 L 445.04 60.56 L 445.54 60.79 L 446.04 61.06 L 446.55 61.36 L 447.07 61.69 L 447.59 62.05 L 448.11 62.45 L 448.64 62.87 L 449.18 63.33 L 449.72 63.82 L 450.27 64.35 L 450.82 64.90 L 451.38 65.49 L 451.94 66.10 L 452.50 66.75 L 453.07 67.43 L 453.65 68.15 L 454.23 68.89 L 454.82 69.66 L 455.41 70.47 L 456.00 71.31 L 456.60 72.17 L 457.20 73.07 L 457.81 74.00 L 458.42 74.96 L 459.03 75.95 L 459.65 76.97 L 460.27 78.01 L 460.89 79.09 L 461.52 80.20 L 462.15 81.34 L 462.79 82.51 L 463.43 83.70 L 464.07 84.93 L 464.71 86.18 L 465.36 87.46 L 466.01 88.77 L 466.67 90.11 L 467.32 91.48 L 467.98 92.88 L 468.64 94.30 L 469.31 95.75 L 469.97 97.22 L 470.64 98.73 L 471.31 100.26 L 471.98 101.82 L 472.66 103.40 L 473.33 105.01 L 474.01 106.65 L 474.69 108.31 L 475.37 109.99 L 476.05 111.71 L 476.73 113.44 L 477.42 115.20 L 478.10 116.99 L 478.79 118.80 L 479.48 120.63 L 480.17 122.49 L 480.86 124.37 L 481.55 126.27 L 482.24 128.20 L 482.93 130.15 L 483.62 132.12 L 484.31 134.11 L 485.00 136.12" fill="none" stroke="#bfc6c4" stroke-width="1.0" opacity="0.09" stroke-linecap="round" stroke-linejoin="round"/>
<path d="M 305.88 143.47 L 306.84 142.29 L 307.82 141.13 L 308.83 139.98 L 309.86 138.86 L 310.92 137.76 L 312.00 136.68 L 313.11 135.62 L 314.25 134.59 L 315.41 133.57 L 316.59 132.58 L 317.80 131.61 L 319.04 130.66 L 320.29 129.73 L 321.58 128.82 L 322.88 127.94 L 324.21 127.08 L 325.56 126.24 L 326.94 125.42 L 328.34 124.63 L 329.76 123.86 L 331.20 123.11 L 332.67 122.39 L 334.16 121.69 L 335.67 121.01 L 337.21 120.36 L 338.76 119.73 L 340.34 119.12 L 341.93 118.54 L 343.55 117.98 L 345.19 117.45 L 346.85 116.94 L 348.53 116.45 L 350.23 115.99 L 351.95 115.55 L 353.69 115.14 L 355.44 114.75 L 357.22 114.39 L 359.01 114.05 L 360.83 113.73 L 362.66 113.44 L 364.51 113.17 L 366.38 112.93 L 368.26 112.71 L 370.16 112.52 L 372.08 112.35 L 374.01 112.21 L 375.97 112.09 L 377.93 112.00 L 379.92 111.93 L 381.91 111.89 L 383.93 111.87 L 385.95 111.87 L 388.00 111.90 L 390.05 111.96 L 392.12 112.04 L 394.21 112.14 L 396.30 112.27 L 398.41 112.43 L 400.53 112.61 L 402.67 112.81 L 404.82 113.04 L 406.97 113.30 L 409.14 113.57 L 411.33 113.88 L 413.52 114.20 L 415.72 114.56 L 417.93 114.93 L 420.15 115.33 L 422.39 115.76 L 424.63 116.21 L 426.88 116.68 L 429.13 117.18 L 431.40 117.70 L 433.67 118.25 L 435.96 118.82 L 438.24 119.41 L 440.54 120.03 L 442.84 120.67 L 445.15 121.33 L 447.46 122.02 L 449.78 122.73 L 452.11 123.47 L 454.44 124.22 L 456.77 125.00 L 459.11 125.81 L 461.45 126.63 L 463.80 127.48 L 466.14 128.35 L 468.49 129.25 L 470.85 130.16 L 473.20 131.10 L 475.56 132.06 L 477.92 133.05 L 480.28 134.05 L 482.64 135.08 L 485.00 136.12" fill="none" stroke="#bfc6c4" stroke-width="1.0" opacity="0.09" stroke-linecap="round" stroke-linejoin="round"/>
<path d="M 270.51 354.59 L 269.99 352.97 L 269.49 351.33 L 269.03 349.69 L 268.60 348.03 L 268.20 346.37 L 267.84 344.70 L 267.50 343.02 L 267.20 341.33 L 266.93 339.63 L 266.69 337.92 L 266.48 336.20 L 266.30 334.48 L 266.16 332.75 L 266.05 331.01 L 265.97 329.27 L 265.92 327.51 L 265.91 325.75 L 265.92 323.99 L 265.97 322.22 L 266.05 320.44 L 266.16 318.65 L 266.30 316.87 L 266.48 315.07 L 266.69 313.27 L 266.93 311.47 L 267.20 309.66 L 267.50 307.85 L 267.84 306.04 L 268.20 304.22 L 268.60 302.39 L 269.03 300.57 L 269.49 298.74 L 269.99 296.91 L 270.51 295.08 L 271.07 293.24 L 271.65 291.41 L 272.27 289.57 L 272.92 287.73 L 273.60 285.89 L 274.31 284.05 L 275.05 282.21 L 275.83 280.37 L 276.63 278.53 L 277.46 276.69 L 278.33 274.86 L 279.22 273.02 L 280.14 271.18 L 281.10 269.35 L 282.08 267.51 L 283.09 265.68 L 284.14 263.85 L 285.21 262.03 L 286.31 260.21 L 287.44 258.39 L 288.60 256.57 L 289.78 254.76 L 291.00 252.95 L 292.25 251.15 L 293.52 249.35 L 294.82 247.55 L 296.15 245.76 L 297.50 243.98 L 298.89 242.20 L 300.30 240.42 L 301.73 238.66 L 303.20 236.90 L 304.69 235.14 L 306.21 233.39 L 307.75 231.65 L 309.32 229.92 L 310.91 228.19 L 312.53 226.48 L 314.18 224.77 L 315.85 223.07 L 317.54 221.37 L 319.26 219.69 L 321.01 218.02 L 322.77 216.35 L 324.56 214.69 L 326.38 213.05 L 328.22 211.41 L 330.08 209.79 L 331.96 208.17 L 333.87 206.57 L 335.79 204.98 L 337.74 203.39 L 339.71 201.82 L 341.71 200.26 L 343.72 198.72 L 345.75 197.18 L 347.81 195.66 L 349.88 194.15 L 351.97 192.66 L 354.09 191.17 L 356.22 189.70 L 358.37 188.24 L 360.54 186.80 L 362.73 185.37 L 364.93 183.96 L 367.16 182.55 L 369.40 181.17 L 371.65 179.80 L 373.93 178.44 L 376.22 177.10 L 378.52 175.77 L 380.84 174.46 L 383.18 173.17 L 385.53 171.89 L 387.90 170.62 L 390.28 169.38 L 392.67 168.15 L 395.08 166.93 L 397.50 165.73 L 399.93 164.55 L 402.38 163.39 L 404.84 162.25 L 407.31 161.12 L 409.79 160.01 L 412.28 158.91 L 414.78 157.84 L 417.30 156.78 L 419.82 155.75 L 422.35 154.73 L 424.89 153.72 L 427.44 152.74 L 430.00 151.78 L 432.57 150.83 L 435.14 149.91 L 437.72 149.00 L 440.31 148.11 L 442.91 147.25 L 445.51 146.40 L 448.11 145.57 L 450.73 144.76 L 453.34 143.98 L 455.96 143.21 L 458.59 142.46 L 461.22 141.73 L 463.85 141.03 L 466.49 140.34 L 469.13 139.68 L 471.77 139.03 L 474.41 138.41 L 477.06 137.80 L 479.71 137.22 L 482.35 136.66 L 485.00 136.12" fill="none" stroke="#bfc6c4" stroke-width="1.0" opacity="0.09" stroke-linecap="round" stroke-linejoin="round"/>
<path d="M 392.39 488.64 L 391.58 488.26 L 390.79 487.85 L 390.01 487.41 L 389.25 486.94 L 388.50 486.44 L 387.76 485.91 L 387.04 485.35 L 386.33 484.76 L 385.63 484.14 L 384.95 483.49 L 384.29 482.81 L 383.64 482.11 L 383.00 481.37 L 382.38 480.60 L 381.78 479.81 L 381.19 478.99 L 380.61 478.14 L 380.05 477.25 L 379.51 476.35 L 378.98 475.41 L 378.46 474.44 L 377.97 473.45 L 377.48 472.43 L 377.02 471.38 L 376.57 470.30 L 376.13 469.20 L 375.71 468.06 L 375.31 466.90 L 374.92 465.72 L 374.55 464.50 L 374.19 463.26 L 373.85 462.00 L 373.53 460.71 L 373.22 459.39 L 372.93 458.04 L 372.66 456.67 L 372.40 455.28 L 372.16 453.86 L 371.94 452.41 L 371.73 450.94 L 371.54 449.44 L 371.36 447.92 L 371.20 446.38 L 371.06 444.81 L 370.94 443.22 L 370.83 441.60 L 370.74 439.97 L 370.66 438.30 L 370.60 436.62 L 370.56 434.91 L 370.54 433.18 L 370.53 431.43 L 370.54 429.66 L 370.56 427.86 L 370.60 426.05 L 370.66 424.21 L 370.74 422.35 L 370.83 420.47 L 370.94 418.57 L 371.06 416.65 L 371.20 414.72 L 371.36 412.76 L 371.54 410.78 L 371.73 408.78 L 371.94 406.77 L 372.16 404.74 L 372.40 402.69 L 372.66 400.62 L 372.93 398.53 L 373.22 396.43 L 373.53 394.31 L 373.85 392.18 L 374.19 390.03 L 374.55 387.86 L 374.92 385.68 L 375.31 383.48 L 375.71 381.27 L 376.13 379.04 L 376.57 376.80 L 377.02 374.54 L 377.48 372.27 L 377.97 369.99 L 378.46 367.70 L 378.98 365.39 L 379.51 363.07 L 380.05 360.74 L 380.61 358.40 L 381.19 356.04 L 381.78 353.68 L 382.38 351.30 L 383.00 348.92 L 383.64 346.52 L 384.29 344.12 L 384.95 341.70 L 385.63 339.28 L 386.33 336.85 L 387.04 334.41 L 387.76 331.97 L 388.50 329.51 L 389.25 327.05 L 390.01 324.58 L 390.79 322.11 L 391.58 319.63 L 392.39 317.15 L 393.21 314.66 L 394.04 312.16 L 394.89 309.66 L 395.75 307.16 L 396.62 304.65 L 397.51 302.14 L 398.40 299.63 L 399.32 297.12 L 400.24 294.60 L 401.18 292.08 L 402.12 289.56 L 403.08 287.04 L 404.06 284.51 L 405.04 281.99 L 406.03 279.47 L 407.04 276.94 L 408.06 274.42 L 409.09 271.90 L 410.13 269.38 L 411.18 266.86 L 412.25 264.35 L 413.32 261.83 L 414.40 259.32 L 415.50 256.82 L 416.60 254.32 L 417.71 251.82 L 418.84 249.32 L 419.97 246.83 L 421.11 244.35 L 422.27 241.87 L 423.43 239.39 L 424.60 236.93 L 425.78 234.47 L 426.97 232.01 L 428.16 229.57 L 429.37 227.13 L 430.58 224.70 L 431.80 222.28 L 433.03 219.86 L 434.27 217.46 L 435.51 215.06 L 436.76 212.68 L 438.02 210.30 L 439.28 207.94 L 440.55 205.58 L 441.83 203.24 L 443.12 200.91 L 444.41 198.59 L 445.70 196.28 L 447.01 193.99 L 448.31 191.71 L 449.63 189.44 L 450.94 187.18 L 452.27 184.94 L 453.59 182.72 L 454.93 180.50 L 456.26 178.31 L 457.60 176.12 L 458.95 173.96 L 460.30 171.80 L 461.65 169.67 L 463.01 167.55 L 464.37 165.45 L 465.73 163.36 L 467.09 161.30 L 468.46 159.25 L 469.83 157.21 L 471.20 155.20 L 472.58 153.20 L 473.95 151.23 L 475.33 149.27 L 476.71 147.33 L 478.09 145.41 L 479.47 143.51 L 480.85 141.63 L 482.23 139.78 L 483.62 137.94 L 485.00 136.12" fill="none" stroke="#bfc6c4" stroke-width="1.0" opacity="0.09" stroke-linecap="round" stroke-linejoin="round"/>
<path d="M 529.60 504.00 L 530.03 503.88 L 530.45 503.72 L 530.87 503.53 L 531.28 503.31 L 531.68 503.06 L 532.08 502.78 L 532.47 502.46 L 532.85 502.11 L 533.23 501.73 L 533.59 501.32 L 533.96 500.87 L 534.31 500.40 L 534.66 499.89 L 535.00 499.35 L 535.33 498.77 L 535.65 498.17 L 535.97 497.54 L 536.28 496.87 L 536.58 496.17 L 536.88 495.44 L 537.17 494.68 L 537.45 493.89 L 537.72 493.06 L 537.98 492.21 L 538.24 491.33 L 538.49 490.41 L 538.73 489.47 L 538.96 488.49 L 539.19 487.49 L 539.41 486.45 L 539.62 485.38 L 539.82 484.29 L 540.01 483.16 L 540.20 482.01 L 540.37 480.83 L 540.54 479.61 L 540.70 478.37 L 540.86 477.10 L 541.00 475.80 L 541.14 474.48 L 541.27 473.12 L 541.39 471.74 L 541.50 470.33 L 541.61 468.89 L 541.70 467.43 L 541.79 465.93 L 541.87 464.42 L 541.94 462.87 L 542.00 461.30 L 542.06 459.70 L 542.10 458.08 L 542.14 456.43 L 542.17 454.75 L 542.19 453.05 L 542.20 451.32 L 542.21 449.57 L 542.20 447.80 L 542.19 446.00 L 542.17 444.18 L 542.14 442.33 L 542.10 440.46 L 542.06 438.57 L 542.00 436.65 L 541.94 434.71 L 541.87 432.75 L 541.79 430.77 L 541.70 428.76 L 541.61 426.74 L 541.50 424.69 L 541.39 422.62 L 541.27 420.53 L 541.14 418.42 L 541.00 416.30 L 540.86 414.15 L 540.70 411.98 L 540.54 409.79 L 540.37 407.59 L 540.20 405.36 L 540.01 403.12 L 539.82 400.86 L 539.62 398.59 L 539.41 396.29 L 539.19 393.98 L 538.96 391.66 L 538.73 389.31 L 538.49 386.95 L 538.24 384.58 L 537.98 382.19 L 537.72 379.79 L 537.45 377.37 L 537.17 374.94 L 536.88 372.50 L 536.58 370.04 L 536.28 367.57 L 535.97 365.08 L 535.65 362.59 L 535.33 360.08 L 535.00 357.56 L 534.66 355.03 L 534.31 352.49 L 533.96 349.94 L 533.59 347.38 L 533.23 344.81 L 532.85 342.23 L 532.47 339.64 L 532.08 337.04 L 531.68 334.44 L 531.28 331.83 L 530.87 329.21 L 530.45 326.58 L 530.03 323.95 L 529.60 321.31 L 529.17 318.66 L 528.72 316.01 L 528.27 313.36 L 527.82 310.70 L 527.36 308.03 L 526.89 305.36 L 526.42 302.69 L 525.94 300.02 L 525.45 297.34 L 524.96 294.66 L 524.46 291.98 L 523.96 289.30 L 523.45 286.62 L 522.93 283.93 L 522.41 281.25 L 521.89 278.56 L 521.36 275.88 L 520.82 273.20 L 520.28 270.51 L 519.73 267.83 L 519.18 265.16 L 518.62 262.48 L 518.06 259.81 L 517.50 257.14 L 516.93 254.47 L 516.35 251.81 L 515.77 249.15 L 515.18 246.50 L 514.59 243.85 L 514.00 241.21 L 513.40 238.58 L 512.80 235.95 L 512.19 233.32 L 511.58 230.71 L 510.97 228.10 L 510.35 225.50 L 509.73 222.91 L 509.11 220.32 L 508.48 217.75 L 507.85 215.18 L 507.21 212.63 L 506.57 210.08 L 505.93 207.55 L 505.29 205.03 L 504.64 202.51 L 503.99 200.01 L 503.33 197.52 L 502.68 195.05 L 502.02 192.58 L 501.36 190.13 L 500.69 187.69 L 500.03 185.27 L 499.36 182.86 L 498.69 180.47 L 498.02 178.08 L 497.34 175.72 L 496.67 173.37 L 495.99 171.04 L 495.31 168.72 L 494.63 166.42 L 493.95 164.13 L 493.27 161.87 L 492.58 159.62 L 491.90 157.39 L 491.21 155.17 L 490.52 152.98 L 489.83 150.80 L 489.14 148.64 L 488.45 146.51 L 487.76 144.39 L 487.07 142.29 L 486.38 140.22 L 485.69 138.16 L 485.00 136.12" fill="none" stroke="#bfc6c4" stroke-width="1.0" opacity="0.09" stroke-linecap="round" stroke-linejoin="round"/>
<path d="M 670.81 410.35 L 673.05 407.35 L 675.21 404.32 L 677.28 401.26 L 679.27 398.16 L 681.17 395.04 L 682.99 391.88" fill="none" stroke="#bfc6c4" stroke-width="1.0" opacity="0.08" stroke-linecap="round" stroke-linejoin="round"/>
<path d="M 287.70 393.11 L 289.56 396.25 L 291.49 399.37 L 293.51 402.45 L 295.62 405.50 L 297.81 408.52 L 300.08 411.50 L 302.43 414.44 L 304.87 417.35 L 307.38 420.22 L 309.97 423.04 L 312.63 425.82 L 315.37 428.56 L 318.19 431.26 L 321.08 433.91 L 324.04 436.51 L 327.07 439.06 L 330.17 441.57 L 333.34 444.02 L 336.58 446.43 L 339.88 448.78 L 343.24 451.07 L 346.67 453.32 L 350.15 455.51 L 353.70 457.64 L 357.30 459.71 L 360.96 461.73 L 364.68 463.69 L 368.44 465.58 L 372.26 467.42 L 376.13 469.20 L 380.04 470.91 L 384.01 472.56 L 388.01 474.14 L 392.06 475.66 L 396.15 477.12 L 400.28 478.51 L 404.44 479.83 L 408.64 481.09 L 412.88 482.28 L 417.14 483.40 L 421.44 484.45 L 425.76 485.44 L 430.11 486.35 L 434.48 487.20 L 438.88 487.97 L 443.29 488.67 L 447.73 489.31 L 452.18 489.87 L 456.64 490.36 L 461.12 490.78 L 465.61 491.12 L 470.10 491.40 L 474.60 491.60 L 479.11 491.73 L 483.62 491.79 L 488.13 491.78 L 492.64 491.69 L 497.15 491.53 L 501.65 491.30 L 506.14 491.00 L 510.62 490.62 L 515.10 490.18 L 519.55 489.66 L 524.00 489.07 L 528.43 488.41 L 532.83 487.68 L 537.22 486.88 L 541.58 486.01 L 545.92 485.06 L 550.24 484.05 L 554.52 482.97 L 558.77 481.83 L 562.99 480.61 L 567.18 479.33 L 571.33 477.98 L 575.45 476.56 L 579.52 475.08 L 583.55 473.53 L 587.54 471.92 L 591.48 470.25 L 595.38 468.51 L 599.23 466.71 L 603.03 464.85 L 606.77 462.93 L 610.47 460.95 L 614.10 458.91 L 617.69 456.82 L 621.21 454.66 L 624.67 452.45 L 628.07 450.19 L 631.41 447.87 L 634.69 445.50 L 637.90 443.07 L 641.04 440.60 L 644.12 438.08 L 647.12 435.50 L 650.05 432.88 L 652.91 430.21 L 655.70 427.50 L 658.41 424.75 L 661.05 421.95 L 663.61 419.11 L 666.09 416.23 L 668.49 413.30 L 670.81 410.35" fill="none" stroke="#bfc6c4" stroke-width="1.0" opacity="0.08" stroke-linecap="round" stroke-linejoin="round"/>
<path d="M 670.81 320.19 L 673.05 317.20 L 675.21 314.17 L 677.28 311.10 L 679.27 308.01 L 681.17 304.88 L 682.99 301.72 L 684.72 298.54 L 686.37 295.32 L 687.92 292.09 L 689.39 288.82 L 690.76 285.54 L 692.05 282.23 L 693.24 278.90 L 694.35 275.56 L 695.36 272.20 L 696.28 268.82 L 697.11 265.43 L 697.84 262.03 L 698.48 258.61 L 699.03 255.19 L 699.48 251.75 L 699.84 248.32 L 700.11 244.87 L 700.28 241.43 L 700.35 237.98 L 700.33 234.53 L 700.22 231.08 L 700.01 227.63 L 699.71 224.19 L 699.32 220.75 L 698.83 217.32 L 698.24 213.90 L 697.57 210.49 L 696.80 207.09 L 695.93 203.71 L 694.98 200.34 L 693.93 196.98 L 692.79 193.64 L 691.56 190.32 L 690.24 187.03 L 688.83 183.75 L 687.33 180.50 L 685.74 177.27 L 684.06 174.07" fill="none" stroke="#bfc6c4" stroke-width="1.0" opacity="0.08" stroke-linecap="round" stroke-linejoin="round"/>
<path d="M 285.28 175.31 L 283.63 178.52 L 282.08 181.76 L 280.61 185.02 L 279.24 188.31 L 277.95 191.61 L 276.76 194.94 L 275.65 198.28 L 274.64 201.64 L 273.72 205.02 L 272.89 208.41 L 272.16 211.82 L 271.52 215.23 L 270.97 218.66 L 270.52 222.09 L 270.16 225.53 L 269.89 228.97 L 269.72 232.42 L 269.65 235.87 L 269.67 239.32 L 269.78 242.77 L 269.99 246.21 L 270.29 249.65 L 270.68 253.09 L 271.17 256.52 L 271.76 259.94 L 272.43 263.35 L 273.20 266.75 L 274.07 270.14 L 275.02 273.51 L 276.07 276.86 L 277.21 280.20 L 278.44 283.52 L 279.76 286.82 L 281.17 290.09 L 282.67 293.35 L 284.26 296.58 L 285.94 299.78 L 287.70 302.95 L 289.56 306.10 L 291.49 309.21 L 293.51 312.30 L 295.62 315.35 L 297.81 318.36 L 300.08 321.34 L 302.43 324.29 L 304.87 327.19 L 307.38 330.06 L 309.97 332.88 L 312.63 335.67 L 315.37 338.41 L 318.19 341.10 L 321.08 343.75 L 324.04 346.35 L 327.07 348.91 L 330.17 351.41 L 333.34 353.87 L 336.58 356.27 L 339.88 358.62 L 343.24 360.92 L 346.67 363.16 L 350.15 365.35 L 353.70 367.48 L 357.30 369.56 L 360.96 371.57 L 364.68 373.53 L 368.44 375.43 L 372.26 377.26 L 376.13 379.04 L 380.04 380.75 L 384.01 382.40 L 388.01 383.99 L 392.06 385.51 L 396.15 386.96 L 400.28 388.35 L 404.44 389.68 L 408.64 390.93 L 412.88 392.12 L 417.14 393.25 L 421.44 394.30 L 425.76 395.28 L 430.11 396.20 L 434.48 397.04 L 438.88 397.81 L 443.29 398.52 L 447.73 399.15 L 452.18 399.71 L 456.64 400.20 L 461.12 400.62 L 465.61 400.97 L 470.10 401.24 L 474.60 401.44 L 479.11 401.57 L 483.62 401.63 L 488.13 401.62 L 492.64 401.53 L 497.15 401.37 L 501.65 401.14 L 506.14 400.84 L 510.62 400.47 L 515.10 400.02 L 519.55 399.50 L 524.00 398.91 L 528.43 398.25 L 532.83 397.52 L 537.22 396.72 L 541.58 395.85 L 545.92 394.91 L 550.24 393.90 L 554.52 392.82 L 558.77 391.67 L 562.99 390.45 L 567.18 389.17 L 571.33 387.82 L 575.45 386.41 L 579.52 384.92 L 583.55 383.38 L 587.54 381.77 L 591.48 380.09 L 595.38 378.36 L 599.23 376.56 L 603.03 374.70 L 606.77 372.78 L 610.47 370.80 L 614.10 368.76 L 617.69 366.66 L 621.21 364.51 L 624.67 362.30 L 628.07 360.03 L 631.41 357.71 L 634.69 355.34 L 637.90 352.92 L 641.04 350.44 L 644.12 347.92 L 647.12 345.35 L 650.05 342.72 L 652.91 340.06 L 655.70 337.35 L 658.41 334.59 L 661.05 331.79 L 663.61 328.95 L 666.09 326.07 L 668.49 323.15 L 670.81 320.19" fill="none" stroke="#bfc6c4" stroke-width="1.0" opacity="0.08" stroke-linecap="round" stroke-linejoin="round"/>
<path d="M 599.84 215.45 L 601.22 213.60 L 602.55 211.72 L 603.84 209.83 L 605.07 207.92 L 606.24 205.98 L 607.37 204.03 L 608.44 202.06 L 609.45 200.08 L 610.41 198.08 L 611.32 196.06 L 612.17 194.03 L 612.96 191.99 L 613.70 189.93 L 614.38 187.86 L 615.01 185.79 L 615.58 183.70 L 616.09 181.60 L 616.54 179.50 L 616.94 177.39 L 617.28 175.27 L 617.56 173.15 L 617.78 171.03 L 617.94 168.90 L 618.05 166.77 L 618.10 164.63 L 618.08 162.50 L 618.01 160.37 L 617.89 158.24 L 617.70 156.11 L 617.46 153.99 L 617.15 151.87 L 616.79 149.76 L 616.37 147.65 L 615.90 145.55 L 615.36 143.46 L 614.77 141.37 L 614.13 139.30 L 613.42 137.24 L 612.66 135.18 L 611.84 133.15 L 610.97 131.12 L 610.04 129.11 L 609.06 127.12 L 608.03 125.14 L 606.94 123.17 L 605.79 121.23 L 604.59 119.30 L 603.34 117.40 L 602.04 115.51 L 600.69 113.65 L 599.29 111.81 L 597.83 109.99 L 596.33 108.19 L 594.78 106.42 L 593.18 104.68 L 591.53 102.96 L 589.84 101.26 L 588.09 99.60 L 586.31 97.96 L 584.48 96.35 L 582.61 94.77 L 580.69 93.23 L 578.73 91.71 L 576.73 90.22 L 574.69 88.77 L 572.61 87.35 L 570.49 85.96 L 568.34 84.61 L 566.15 83.29 L 563.92 82.01 L 561.66 80.76 L 559.36 79.56 L 557.04 78.38 L 554.68 77.25 L 552.29 76.15 L 549.87 75.09 L 547.42 74.07 L 544.94 73.09 L 542.44 72.15 L 539.91 71.25 L 537.36 70.39 L 534.79 69.57 L 532.19 68.80 L 529.58 68.06 L 526.94 67.37 L 524.28 66.72 L 521.61 66.11 L 518.92 65.55 L 516.22 65.02 L 513.51 64.55 L 510.78 64.11 L 508.04 63.72 L 505.29 63.37 L 502.53 63.07 L 499.76 62.81 L 496.99 62.60 L 494.21 62.43 L 491.42 62.30 L 488.64 62.22 L 485.85 62.19 L 483.06 62.20 L 480.28 62.25 L 477.49 62.35 L 474.71 62.49 L 471.94 62.68 L 469.16 62.91 L 466.40 63.18 L 463.64 63.50 L 460.90 63.87 L 458.16 64.28 L 455.44 64.73 L 452.73 65.22 L 450.03 65.76 L 447.35 66.34 L 444.68 66.97 L 442.03 67.63 L 439.41 68.34 L 436.80 69.10 L 434.21 69.89 L 431.64 70.72 L 429.10 71.60 L 426.58 72.51 L 424.09 73.47 L 421.63 74.46 L 419.19 75.50 L 416.78 76.57 L 414.40 77.68 L 412.06 78.83 L 409.74 80.02 L 407.46 81.24 L 405.21 82.51 L 403.00 83.80 L 400.82 85.13 L 398.68 86.50 L 396.57 87.90 L 394.51 89.33 L 392.49 90.80 L 390.50 92.29 L 388.56 93.82 L 386.66 95.38 L 384.80 96.97 L 382.99 98.59 L 381.22 100.24 L 379.50 101.92 L 377.82 103.62 L 376.20 105.35 L 374.61 107.11 L 373.08 108.89 L 371.60 110.69 L 370.16 112.52 L 368.78 114.37 L 367.45 116.24 L 366.16 118.14 L 364.93 120.05 L 363.76 121.98 L 362.63 123.93 L 361.56 125.90 L 360.55 127.89 L 359.59 129.89 L 358.68 131.91 L 357.83 133.94 L 357.04 135.98 L 356.30 138.04 L 355.62 140.10 L 354.99 142.18 L 354.42 144.27 L 353.91 146.36 L 353.46 148.47 L 353.06 150.58 L 352.72 152.69 L 352.44 154.82 L 352.22 156.94 L 352.06 159.07 L 351.95 161.20 L 351.90 163.33 L 351.92 165.46 L 351.99 167.60 L 352.11 169.72 L 352.30 171.85 L 352.54 173.98 L 352.85 176.10 L 353.21 178.21 L 353.63 180.32 L 354.10 182.42 L 354.64 184.51 L 355.23 186.59 L 355.87 188.67 L 356.58 190.73 L 357.34 192.78 L 358.16 194.82 L 359.03 196.85 L 359.96 198.86 L 360.94 200.85 L 361.97 202.83 L 363.06 204.79 L 364.21 206.74 L 365.41 208.66 L 366.66 210.57 L 367.96 212.45 L 369.31 214.32 L 370.71 216.16 L 372.17 217.98 L 373.67 219.77 L 375.22 221.55 L 376.82 223.29 L 378.47 225.01 L 380.16 226.70 L 381.91 228.37 L 383.69 230.01 L 385.52 231.61 L 387.39 233.19 L 389.31 234.74 L 391.27 236.26 L 393.27 237.74 L 395.31 239.20 L 397.39 240.62 L 399.51 242.00 L 401.66 243.36 L 403.85 244.67 L 406.08 245.96 L 408.34 247.20 L 410.64 248.41 L 412.96 249.58 L 415.32 250.72 L 417.71 251.82 L 420.13 252.87 L 422.58 253.89 L 425.06 254.87 L 427.56 255.81 L 430.09 256.71 L 432.64 257.57 L 435.21 258.39 L 437.81 259.17 L 440.42 259.90 L 443.06 260.60 L 445.72 261.25 L 448.39 261.86 L 451.08 262.42 L 453.78 262.94 L 456.49 263.42 L 459.22 263.86 L 461.96 264.25 L 464.71 264.59 L 467.47 264.90 L 470.24 265.15 L 473.01 265.37 L 475.79 265.54 L 478.58 265.66 L 481.36 265.74 L 484.15 265.78 L 486.94 265.77 L 489.72 265.72 L 492.51 265.62 L 495.29 265.48 L 498.06 265.29 L 500.84 265.06 L 503.60 264.78 L 506.36 264.46 L 509.10 264.10 L 511.84 263.69 L 514.56 263.24 L 517.27 262.74 L 519.97 262.21 L 522.65 261.62 L 525.32 261.00 L 527.97 260.33 L 530.59 259.62 L 533.20 258.87 L 535.79 258.08 L 538.36 257.24 L 540.90 256.37 L 543.42 255.45 L 545.91 254.50 L 548.37 253.50 L 550.81 252.47 L 553.22 251.39 L 555.60 250.28 L 557.94 249.13 L 560.26 247.95 L 562.54 246.72 L 564.79 245.46 L 567.00 244.17 L 569.18 242.83 L 571.32 241.47 L 573.43 240.07 L 575.49 238.64 L 577.51 237.17 L 579.50 235.67 L 581.44 234.14 L 583.34 232.58 L 585.20 230.99 L 587.01 229.37 L 588.78 227.72 L 590.50 226.05 L 592.18 224.35 L 593.80 222.62 L 595.39 220.86 L 596.92 219.08 L 598.40 217.27 L 599.84 215.45" fill="none" stroke="#bfc6c4" stroke-width="1.0" opacity="0.08" stroke-linecap="round" stroke-linejoin="round"/>
<path d="M 485.00 427.88 L 487.36 428.92 L 489.72 429.95 L 492.08 430.95 L 494.44 431.94 L 496.80 432.90 L 499.15 433.84 L 501.51 434.75 L 503.86 435.65 L 506.20 436.52 L 508.55 437.37 L 510.89 438.19 L 513.23 439.00 L 515.56 439.78 L 517.89 440.53 L 520.22 441.27 L 522.54 441.98 L 524.85 442.67 L 527.16 443.33 L 529.46 443.97 L 531.76 444.59 L 534.04 445.18 L 536.33 445.75 L 538.60 446.30 L 540.87 446.82 L 543.12 447.32 L 545.37 447.79 L 547.61 448.24 L 549.85 448.67 L 552.07 449.07 L 554.28 449.44 L 556.48 449.80 L 558.67 450.12 L 560.86 450.43 L 563.03 450.70 L 565.18 450.96 L 567.33 451.19 L 569.47 451.39 L 571.59 451.57 L 573.70 451.73 L 575.79 451.86 L 577.88 451.96 L 579.95 452.04 L 582.00 452.10 L 584.05 452.13 L 586.07 452.13 L 588.09 452.11 L 590.08 452.07 L 592.07 452.00 L 594.03 451.91 L 595.99 451.79 L 597.92 451.65 L 599.84 451.48 L 601.74 451.29 L 603.62 451.07 L 605.49 450.83 L 607.34 450.56 L 609.17 450.27 L 610.99 449.95 L 612.78 449.61 L 614.56 449.25 L 616.31 448.86 L 618.05 448.45 L 619.77 448.01 L 621.47 447.55 L 623.15 447.06 L 624.81 446.55 L 626.45 446.02 L 628.07 445.46 L 629.66 444.88 L 631.24 444.27 L 632.79 443.64 L 634.33 442.99 L 635.84 442.31 L 637.33 441.61 L 638.80 440.89 L 640.24 440.14 L 641.66 439.37 L 643.06 438.58 L 644.44 437.76 L 645.79 436.92 L 647.12 436.06 L 648.42 435.18 L 649.71 434.27 L 650.96 433.34 L 652.20 432.39 L 653.41 431.42 L 654.59 430.43 L 655.75 429.41 L 656.89 428.38 L 658.00 427.32 L 659.08 426.24 L 660.14 425.14 L 661.17 424.02 L 662.18 422.87 L 663.16 421.71 L 664.12 420.53" fill="none" stroke="#5f7f80" stroke-width="1.16" opacity="0.36" stroke-linecap="round" stroke-linejoin="round"/>
<path d="M 485.00 427.88 L 487.65 427.34 L 490.29 426.78 L 492.94 426.20 L 495.59 425.59 L 498.23 424.97 L 500.87 424.32 L 503.51 423.66 L 506.15 422.97 L 508.78 422.27 L 511.41 421.54 L 514.04 420.79 L 516.66 420.02 L 519.27 419.24 L 521.89 418.43 L 524.49 417.60 L 527.09 416.75 L 529.69 415.89 L 532.28 415.00 L 534.86 414.09 L 537.43 413.17 L 540.00 412.22 L 542.56 411.26 L 545.11 410.28 L 547.65 409.27 L 550.18 408.25 L 552.70 407.22 L 555.22 406.16 L 557.72 405.09 L 560.21 403.99 L 562.69 402.88 L 565.16 401.75 L 567.62 400.61 L 570.07 399.45 L 572.50 398.27 L 574.92 397.07 L 577.33 395.85 L 579.72 394.62 L 582.10 393.38 L 584.47 392.11 L 586.82 390.83 L 589.16 389.54 L 591.48 388.23 L 593.78 386.90 L 596.07 385.56 L 598.35 384.20 L 600.60 382.83 L 602.84 381.45 L 605.07 380.04 L 607.27 378.63 L 609.46 377.20 L 611.63 375.76 L 613.78 374.30 L 615.91 372.83 L 618.03 371.34 L 620.12 369.85 L 622.19 368.34 L 624.25 366.82 L 626.28 365.28 L 628.29 363.74 L 630.29 362.18 L 632.26 360.61 L 634.21 359.02 L 636.13 357.43 L 638.04 355.83 L 639.92 354.21 L 641.78 352.59 L 643.62 350.95 L 645.44 349.31 L 647.23 347.65 L 648.99 345.98 L 650.74 344.31 L 652.46 342.63 L 654.15 340.93 L 655.82 339.23 L 657.47 337.52 L 659.09 335.81 L 660.68 334.08 L 662.25 332.35 L 663.79 330.61 L 665.31 328.86 L 666.80 327.10 L 668.27 325.34 L 669.70 323.58 L 671.11 321.80 L 672.50 320.02 L 673.85 318.24 L 675.18 316.45 L 676.48 314.65 L 677.75 312.85 L 679.00 311.05 L 680.22 309.24 L 681.40 307.43 L 682.56 305.61 L 683.69 303.79 L 684.79 301.97 L 685.86 300.15 L 686.91 298.32 L 687.92 296.49 L 688.90 294.65 L 689.86 292.82 L 690.78 290.98 L 691.67 289.14 L 692.54 287.31 L 693.37 285.47 L 694.17 283.63 L 694.95 281.79 L 695.69 279.95 L 696.40 278.11 L 697.08 276.27 L 697.73 274.43 L 698.35 272.59 L 698.93 270.76 L 699.49 268.92 L 700.01 267.09 L 700.51 265.26 L 700.97 263.43 L 701.40 261.61 L 701.80 259.78 L 702.16 257.96 L 702.50 256.15 L 702.80 254.34 L 703.07 252.53 L 703.31 250.73 L 703.52 248.93 L 703.70 247.13 L 703.84 245.35 L 703.95 243.56 L 704.03 241.78 L 704.08 240.01 L 704.09 238.25 L 704.08 236.49 L 704.03 234.73 L 703.95 232.99 L 703.84 231.25 L 703.70 229.52 L 703.52 227.80 L 703.31 226.08 L 703.07 224.37 L 702.80 222.67 L 702.50 220.98 L 702.16 219.30 L 701.80 217.63 L 701.40 215.97 L 700.97 214.31 L 700.51 212.67 L 700.01 211.03 L 699.49 209.41" fill="none" stroke="#5f7f80" stroke-width="1.16" opacity="0.36" stroke-linecap="round" stroke-linejoin="round"/>
<path d="M 485.00 427.88 L 486.38 426.06 L 487.77 424.22 L 489.15 422.37 L 490.53 420.49 L 491.91 418.59 L 493.29 416.67 L 494.67 414.73 L 496.05 412.77 L 497.42 410.80 L 498.80 408.80 L 500.17 406.79 L 501.54 404.75 L 502.91 402.70 L 504.27 400.64 L 505.63 398.55 L 506.99 396.45 L 508.35 394.33 L 509.70 392.20 L 511.05 390.04 L 512.40 387.88 L 513.74 385.69 L 515.07 383.50 L 516.41 381.28 L 517.73 379.06 L 519.06 376.82 L 520.37 374.56 L 521.69 372.29 L 522.99 370.01 L 524.30 367.72 L 525.59 365.41 L 526.88 363.09 L 528.17 360.76 L 529.45 358.42 L 530.72 356.06 L 531.98 353.70 L 533.24 351.32 L 534.49 348.94 L 535.73 346.54 L 536.97 344.14 L 538.20 341.72 L 539.42 339.30 L 540.63 336.87 L 541.84 334.43 L 543.03 331.99 L 544.22 329.53 L 545.40 327.07 L 546.57 324.61 L 547.73 322.13 L 548.89 319.65 L 550.03 317.17 L 551.16 314.68 L 552.29 312.18 L 553.40 309.68 L 554.50 307.18 L 555.60 304.68 L 556.68 302.17 L 557.75 299.65 L 558.82 297.14 L 559.87 294.62 L 560.91 292.10 L 561.94 289.58 L 562.96 287.06 L 563.97 284.53 L 564.96 282.01 L 565.94 279.49 L 566.92 276.96 L 567.88 274.44 L 568.82 271.92 L 569.76 269.40 L 570.68 266.88 L 571.60 264.37 L 572.49 261.86 L 573.38 259.35 L 574.25 256.84 L 575.11 254.34 L 575.96 251.84 L 576.79 249.34 L 577.61 246.85 L 578.42 244.37 L 579.21 241.89 L 579.99 239.42 L 580.75 236.95 L 581.50 234.49 L 582.24 232.03 L 582.96 229.59 L 583.67 227.15 L 584.37 224.72 L 585.05 222.30 L 585.71 219.88 L 586.36 217.48 L 587.00 215.08 L 587.62 212.70 L 588.22 210.32 L 588.81 207.96 L 589.39 205.60 L 589.95 203.26 L 590.49 200.93 L 591.02 198.61 L 591.54 196.30 L 592.03 194.01 L 592.52 191.73 L 592.98 189.46 L 593.43 187.20 L 593.87 184.96 L 594.29 182.73 L 594.69 180.52 L 595.08 178.32 L 595.45 176.14 L 595.81 173.97 L 596.15 171.82 L 596.47 169.69 L 596.78 167.57 L 597.07 165.47 L 597.34 163.38 L 597.60 161.31 L 597.84 159.26 L 598.06 157.23 L 598.27 155.22 L 598.46 153.22 L 598.64 151.24 L 598.80 149.28 L 598.94 147.35 L 599.06 145.43 L 599.17 143.53 L 599.26 141.65 L 599.34 139.79 L 599.40 137.95 L 599.44 136.14 L 599.46 134.34 L 599.47 132.57 L 599.46 130.82 L 599.44 129.09 L 599.40 127.38 L 599.34 125.70 L 599.26 124.03 L 599.17 122.40 L 599.06 120.78 L 598.94 119.19 L 598.80 117.62 L 598.64 116.08 L 598.46 114.56 L 598.27 113.06 L 598.06 111.59 L 597.84 110.14 L 597.60 108.72 L 597.34 107.33 L 597.07 105.96 L 596.78 104.61 L 596.47 103.29 L 596.15 102.00 L 595.81 100.74 L 595.45 99.50 L 595.08 98.28 L 594.69 97.10 L 594.29 95.94 L 593.87 94.80 L 593.43 93.70 L 592.98 92.62 L 592.52 91.57 L 592.03 90.55 L 591.54 89.56 L 591.02 88.59 L 590.49 87.65 L 589.95 86.75 L 589.39 85.86 L 588.81 85.01 L 588.22 84.19 L 587.62 83.40 L 587.00 82.63 L 586.36 81.89 L 585.71 81.19 L 585.05 80.51 L 584.37 79.86 L 583.67 79.24 L 582.96 78.65 L 582.24 78.09 L 581.50 77.56 L 580.75 77.06 L 579.99 76.59 L 579.21 76.15 L 578.42 75.74 L 577.61 75.36" fill="none" stroke="#5f7f80" stroke-width="1.16" opacity="0.36" stroke-linecap="round" stroke-linejoin="round"/>
<path d="M 485.00 427.88 L 484.31 425.84 L 483.62 423.78 L 482.93 421.71 L 482.24 419.61 L 481.55 417.49 L 480.86 415.36 L 480.17 413.20 L 479.48 411.02 L 478.79 408.83 L 478.10 406.61 L 477.42 404.38 L 476.73 402.13 L 476.05 399.87 L 475.37 397.58 L 474.69 395.28 L 474.01 392.96 L 473.33 390.63 L 472.66 388.28 L 471.98 385.92 L 471.31 383.53 L 470.64 381.14 L 469.97 378.73 L 469.31 376.31 L 468.64 373.87 L 467.98 371.42 L 467.32 368.95 L 466.67 366.48 L 466.01 363.99 L 465.36 361.49 L 464.71 358.97 L 464.07 356.45 L 463.43 353.92 L 462.79 351.37 L 462.15 348.82 L 461.52 346.25 L 460.89 343.68 L 460.27 341.09 L 459.65 338.50 L 459.03 335.90 L 458.42 333.29 L 457.81 330.68 L 457.20 328.05 L 456.60 325.42 L 456.00 322.79 L 455.41 320.15 L 454.82 317.50 L 454.23 314.85 L 453.65 312.19 L 453.07 309.53 L 452.50 306.86 L 451.94 304.19 L 451.38 301.52 L 450.82 298.84 L 450.27 296.17 L 449.72 293.49 L 449.18 290.80 L 448.64 288.12 L 448.11 285.44 L 447.59 282.75 L 447.07 280.07 L 446.55 277.38 L 446.04 274.70 L 445.54 272.02 L 445.04 269.34 L 444.55 266.66 L 444.06 263.98 L 443.58 261.31 L 443.11 258.64 L 442.64 255.97 L 442.18 253.30 L 441.73 250.64 L 441.28 247.99 L 440.83 245.34 L 440.40 242.69 L 439.97 240.05 L 439.55 237.42 L 439.13 234.79 L 438.72 232.17 L 438.32 229.56 L 437.92 226.96 L 437.53 224.36 L 437.15 221.77 L 436.77 219.19 L 436.41 216.62 L 436.04 214.06 L 435.69 211.51 L 435.34 208.97 L 435.00 206.44 L 434.67 203.92 L 434.35 201.41 L 434.03 198.92 L 433.72 196.43 L 433.42 193.96 L 433.12 191.50 L 432.83 189.06 L 432.55 186.63 L 432.28 184.21 L 432.02 181.81 L 431.76 179.42 L 431.51 177.05 L 431.27 174.69 L 431.04 172.34 L 430.81 170.02 L 430.59 167.71 L 430.38 165.41 L 430.18 163.14 L 429.99 160.88 L 429.80 158.64 L 429.63 156.41 L 429.46 154.21 L 429.30 152.02 L 429.14 149.85 L 429.00 147.70 L 428.86 145.58 L 428.73 143.47 L 428.61 141.38 L 428.50 139.31 L 428.39 137.26 L 428.30 135.24 L 428.21 133.23 L 428.13 131.25 L 428.06 129.29 L 428.00 127.35 L 427.94 125.43 L 427.90 123.54 L 427.86 121.67 L 427.83 119.82 L 427.81 118.00 L 427.80 116.20 L 427.79 114.43 L 427.80 112.68 L 427.81 110.95 L 427.83 109.25 L 427.86 107.57 L 427.90 105.92 L 427.94 104.30 L 428.00 102.70 L 428.06 101.13 L 428.13 99.58 L 428.21 98.07 L 428.30 96.57 L 428.39 95.11 L 428.50 93.67 L 428.61 92.26 L 428.73 90.88 L 428.86 89.52 L 429.00 88.20 L 429.14 86.90 L 429.30 85.63 L 429.46 84.39 L 429.63 83.17 L 429.80 81.99 L 429.99 80.84 L 430.18 79.71 L 430.38 78.62 L 430.59 77.55 L 430.81 76.51 L 431.04 75.51 L 431.27 74.53 L 431.51 73.59 L 431.76 72.67 L 432.02 71.79 L 432.28 70.94 L 432.55 70.11 L 432.83 69.32 L 433.12 68.56 L 433.42 67.83 L 433.72 67.13 L 434.03 66.46 L 434.35 65.83 L 434.67 65.23 L 435.00 64.65 L 435.34 64.11 L 435.69 63.60 L 436.04 63.13 L 436.41 62.68 L 436.77 62.27 L 437.15 61.89 L 437.53 61.54 L 437.92 61.22 L 438.32 60.94 L 438.72 60.69 L 439.13 60.47 L 439.55 60.28 L 439.97 60.12 L 440.40 60.00" fill="none" stroke="#5f7f80" stroke-width="1.16" opacity="0.36" stroke-linecap="round" stroke-linejoin="round"/>
<path d="M 485.00 427.88 L 482.64 426.81 L 480.28 425.72 L 477.92 424.61 L 475.56 423.48 L 473.20 422.32 L 470.85 421.15 L 468.49 419.96 L 466.14 418.75 L 463.80 417.51 L 461.45 416.26 L 459.11 414.99 L 456.77 413.70 L 454.44 412.38 L 452.11 411.05 L 449.78 409.71 L 447.46 408.34 L 445.15 406.95 L 442.84 405.55 L 440.54 404.12 L 438.24 402.68 L 435.96 401.23 L 433.67 399.75 L 431.40 398.26 L 429.13 396.75 L 426.88 395.22 L 424.63 393.68 L 422.39 392.12 L 420.15 390.55 L 417.93 388.96 L 415.72 387.35 L 413.52 385.73 L 411.33 384.09 L 409.14 382.44 L 406.97 380.77 L 404.82 379.09 L 402.67 377.40 L 400.53 375.69 L 398.41 373.96 L 396.30 372.23 L 394.21 370.48 L 392.12 368.72 L 390.05 366.94 L 388.00 365.15 L 385.95 363.36 L 383.93 361.54 L 381.91 359.72 L 379.92 357.89 L 377.93 356.04 L 375.97 354.18 L 374.01 352.32 L 372.08 350.44 L 370.16 348.55 L 368.26 346.66 L 366.38 344.75 L 364.51 342.84 L 362.66 340.91 L 360.83 338.98 L 359.01 337.04 L 357.22 335.09 L 355.44 333.13 L 353.69 331.17 L 351.95 329.20 L 350.23 327.22 L 348.53 325.23 L 346.85 323.24 L 345.19 321.24 L 343.55 319.24 L 341.93 317.23 L 340.34 315.22 L 338.76 313.20 L 337.21 311.18 L 335.67 309.15 L 334.16 307.12 L 332.67 305.08 L 331.20 303.04 L 329.76 301.00 L 328.34 298.96 L 326.94 296.91 L 325.56 294.86 L 324.21 292.81 L 322.88 290.76 L 321.58 288.71 L 320.29 286.65 L 319.04 284.60 L 317.80 282.54 L 316.59 280.48 L 315.41 278.43 L 314.25 276.37 L 313.11 274.32 L 312.00 272.27 L 310.92 270.22 L 309.86 268.17 L 308.83 266.12 L 307.82 264.07 L 306.84 262.03 L 305.88 259.99 L 304.95 257.95 L 304.05 255.92 L 303.17 253.89 L 302.32 251.86 L 301.50 249.84 L 300.70 247.83 L 299.93 245.82 L 299.19 243.81 L 298.47 241.81 L 297.78 239.81 L 297.12 237.83 L 296.49 235.84 L 295.88 233.87 L 295.30 231.90 L 294.75 229.94 L 294.23 227.99 L 293.73 226.04 L 293.27 224.10 L 292.83 222.18 L 292.41 220.26 L 292.03 218.34 L 291.68 216.44 L 291.35 214.55 L 291.05 212.67 L 290.78 210.80 L 290.54 208.93 L 290.32 207.08 L 290.14 205.24 L 289.98 203.41 L 289.85 201.60 L 289.75 199.79 L 289.68 198.00 L 289.64 196.22 L 289.63 194.45 L 289.64 192.69 L 289.68 190.95 L 289.75 189.22 L 289.85 187.50 L 289.98 185.80 L 290.14 184.11 L 290.32 182.44 L 290.54 180.78 L 290.78 179.13 L 291.05 177.50 L 291.35 175.89 L 291.68 174.29 L 292.03 172.70 L 292.41 171.14 L 292.83 169.59 L 293.27 168.05 L 293.73 166.53 L 294.23 165.03 L 294.75 163.55 L 295.30 162.08 L 295.88 160.63 L 296.49 159.20 L 297.12 157.78 L 297.78 156.39 L 298.47 155.01 L 299.19 153.65 L 299.93 152.31 L 300.70 150.99 L 301.50 149.69 L 302.32 148.41 L 303.17 147.14 L 304.05 145.90 L 304.95 144.68" fill="none" stroke="#5f7f80" stroke-width="1.16" opacity="0.36" stroke-linecap="round" stroke-linejoin="round"/>
<path d="M 485.00 427.88 L 482.35 428.39 L 479.71 428.89 L 477.06 429.37 L 474.41 429.82 L 471.77 430.25 L 469.13 430.66 L 466.49 431.05 L 463.85 431.42 L 461.22 431.76 L 458.59 432.09 L 455.96 432.39 L 453.34 432.67 L 450.73 432.93 L 448.11 433.16 L 445.51 433.37 L 442.91 433.57 L 440.31 433.73 L 437.72 433.88 L 435.14 434.01 L 432.57 434.11 L 430.00 434.19 L 427.44 434.25 L 424.89 434.28 L 422.35 434.30 L 419.82 434.29 L 417.30 434.26 L 414.78 434.20 L 412.28 434.13 L 409.79 434.03 L 407.31 433.91 L 404.84 433.77 L 402.38 433.61 L 399.93 433.42 L 397.50 433.21 L 395.08 432.98 L 392.67 432.73 L 390.28 432.46 L 387.90 432.16 L 385.53 431.84 L 383.18 431.50 L 380.84 431.14 L 378.52 430.75 L 376.22 430.35 L 373.93 429.92 L 371.65 429.47 L 369.40 429.00 L 367.16 428.51 L 364.93 428.00 L 362.73 427.46 L 360.54 426.91 L 358.37 426.33 L 356.22 425.73 L 354.09 425.12 L 351.97 424.48 L 349.88 423.82 L 347.81 423.13 L 345.75 422.43 L 343.72 421.71 L 341.71 420.97 L 339.71 420.20 L 337.74 419.42 L 335.79 418.62 L 333.87 417.79 L 331.96 416.95 L 330.08 416.09 L 328.22 415.21 L 326.38 414.30 L 324.56 413.38 L 322.77 412.44 L 321.01 411.48 L 319.26 410.51 L 317.54 409.51 L 315.85 408.49 L 314.18 407.46 L 312.53 406.41 L 310.91 405.34 L 309.32 404.25 L 307.75 403.14 L 306.21 402.02 L 304.69 400.88 L 303.20 399.72 L 301.73 398.54 L 300.30 397.35 L 298.89 396.14 L 297.50 394.91 L 296.15 393.67 L 294.82 392.41 L 293.52 391.13 L 292.25 389.84 L 291.00 388.53 L 289.78 387.21 L 288.60 385.87 L 287.44 384.52 L 286.31 383.15 L 285.21 381.77 L 284.14 380.37 L 283.09 378.96 L 282.08 377.53 L 281.10 376.09 L 280.14 374.64 L 279.22 373.17 L 278.33 371.69 L 277.46 370.20 L 276.63 368.69 L 275.83 367.17 L 275.05 365.64 L 274.31 364.10 L 273.60 362.54 L 272.92 360.97 L 272.27 359.39 L 271.65 357.80 L 271.07 356.20" fill="none" stroke="#5f7f80" stroke-width="1.16" opacity="0.36" stroke-linecap="round" stroke-linejoin="round"/>
<path d="M 485.00 427.88 L 483.62 429.67 L 482.23 431.44 L 480.85 433.20 L 479.47 434.93 L 478.09 436.63 L 476.71 438.32 L 475.33 439.98 L 473.95 441.62 L 472.58 443.23 L 471.20 444.82 L 469.83 446.39 L 468.46 447.94 L 467.09 449.46 L 465.73 450.95 L 464.37 452.42 L 463.01 453.87 L 461.65 455.29 L 460.30 456.68 L 458.95 458.05 L 457.60 459.40 L 456.26 460.72 L 454.93 462.01 L 453.59 463.28 L 452.27 464.51 L 450.94 465.73 L 449.63 466.91 L 448.31 468.07 L 447.01 469.20 L 445.70 470.31 L 444.41 471.39 L 443.12 472.44 L 441.83 473.46 L 440.55 474.45 L 439.28 475.42 L 438.02 476.35 L 436.76 477.26 L 435.51 478.14 L 434.27 478.99 L 433.03 479.82 L 431.80 480.61 L 430.58 481.38 L 429.37 482.11 L 428.16 482.82 L 426.97 483.50 L 425.78 484.14 L 424.60 484.76 L 423.43 485.35 L 422.27 485.91 L 421.11 486.44 L 419.97 486.94 L 418.84 487.41 L 417.71 487.85 L 416.60 488.26 L 415.50 488.64 L 414.40 488.99 L 413.32 489.31 L 412.25 489.60 L 411.18 489.85 L 410.13 490.08 L 409.09 490.28 L 408.06 490.45 L 407.04 490.59 L 406.03 490.69 L 405.04 490.77 L 404.06 490.81 L 403.08 490.83 L 402.12 490.81 L 401.18 490.77 L 400.24 490.69 L 399.32 490.58 L 398.40 490.45 L 397.51 490.28 L 396.62 490.08 L 395.75 489.85 L 394.89 489.59 L 394.04 489.30 L 393.21 488.99" fill="none" stroke="#5f7f80" stroke-width="1.16" opacity="0.36" stroke-linecap="round" stroke-linejoin="round"/>
<path d="M 485.00 427.88 L 485.69 429.89 L 486.38 431.88 L 487.07 433.85 L 487.76 435.80 L 488.45 437.73 L 489.14 439.63 L 489.83 441.51 L 490.52 443.37 L 491.21 445.20 L 491.90 447.01 L 492.58 448.80 L 493.27 450.56 L 493.95 452.29 L 494.63 454.01 L 495.31 455.69 L 495.99 457.35 L 496.67 458.99 L 497.34 460.60 L 498.02 462.18 L 498.69 463.74 L 499.36 465.27 L 500.03 466.78 L 500.69 468.25 L 501.36 469.70 L 502.02 471.12 L 502.68 472.52 L 503.33 473.89 L 503.99 475.23 L 504.64 476.54 L 505.29 477.82 L 505.93 479.07 L 506.57 480.30 L 507.21 481.49 L 507.85 482.66 L 508.48 483.80 L 509.11 484.91 L 509.73 485.99 L 510.35 487.03 L 510.97 488.05 L 511.58 489.04 L 512.19 490.00 L 512.80 490.93 L 513.40 491.83 L 514.00 492.69 L 514.59 493.53 L 515.18 494.34 L 515.77 495.11 L 516.35 495.85 L 516.93 496.57 L 517.50 497.25 L 518.06 497.90 L 518.62 498.51 L 519.18 499.10 L 519.73 499.65 L 520.28 500.18 L 520.82 500.67 L 521.36 501.13 L 521.89 501.55 L 522.41 501.95 L 522.93 502.31 L 523.45 502.64 L 523.96 502.94 L 524.46 503.21 L 524.96 503.44 L 525.45 503.64 L 525.94 503.81 L 526.42 503.95 L 526.89 504.05 L 527.36 504.12 L 527.82 504.16 L 528.27 504.17 L 528.72 504.15 L 529.17 504.09" fill="none" stroke="#5f7f80" stroke-width="1.16" opacity="0.36" stroke-linecap="round" stroke-linejoin="round"/>
<path d="M 599.84 451.48 L 601.22 449.63 L 602.55 447.76 L 603.84 445.86 L 605.07 443.95 L 606.24 442.02 L 607.37 440.07 L 608.44 438.10 L 609.45 436.11 L 610.41 434.11 L 611.32 432.09 L 612.17 430.06 L 612.96 428.02 L 613.70 425.96 L 614.38 423.90 L 615.01 421.82 L 615.58 419.73 L 616.09 417.64 L 616.54 415.53 L 616.94 413.42 L 617.28 411.31 L 617.56 409.18 L 617.78 407.06 L 617.94 404.93 L 618.05 402.80 L 618.10 400.67 L 618.08 398.54 L 618.01 396.40 L 617.89 394.28 L 617.70 392.15 L 617.46 390.02 L 617.15 387.90 L 616.79 385.79 L 616.37 383.68 L 615.90 381.58 L 615.36 379.49 L 614.77 377.41 L 614.13 375.33 L 613.42 373.27 L 612.66 371.22 L 611.84 369.18 L 610.97 367.15 L 610.04 365.14 L 609.06 363.15 L 608.03 361.17 L 606.94 359.21 L 605.79 357.26 L 604.59 355.34 L 603.34 353.43 L 602.04 351.55 L 600.69 349.68 L 599.29 347.84 L 597.83 346.02 L 596.33 344.23 L 594.78 342.45 L 593.18 340.71 L 591.53 338.99 L 589.84 337.30 L 588.09 335.63 L 586.31 333.99 L 584.48 332.39 L 582.61 330.81 L 580.69 329.26 L 578.73 327.74 L 576.73 326.26 L 574.69 324.80 L 572.61 323.38 L 570.49 322.00 L 568.34 320.64 L 566.15 319.33 L 563.92 318.04 L 561.66 316.80 L 559.36 315.59 L 557.04 314.42 L 554.68 313.28 L 552.29 312.18 L 549.87 311.13 L 547.42 310.11 L 544.94 309.13 L 542.44 308.19 L 539.91 307.29 L 537.36 306.43 L 534.79 305.61 L 532.19 304.83 L 529.58 304.10 L 526.94 303.40 L 524.28 302.75 L 521.61 302.14 L 518.92 301.58 L 516.22 301.06 L 513.51 300.58 L 510.78 300.14 L 508.04 299.75 L 505.29 299.41 L 502.53 299.10 L 499.76 298.85 L 496.99 298.63 L 494.21 298.46 L 491.42 298.34 L 488.64 298.26 L 485.85 298.22 L 483.06 298.23 L 480.28 298.28 L 477.49 298.38 L 474.71 298.52 L 471.94 298.71 L 469.16 298.94 L 466.40 299.22 L 463.64 299.54 L 460.90 299.90 L 458.16 300.31 L 455.44 300.76 L 452.73 301.26 L 450.03 301.79 L 447.35 302.38 L 444.68 303.00 L 442.03 303.67 L 439.41 304.38 L 436.80 305.13 L 434.21 305.92 L 431.64 306.76 L 429.10 307.63 L 426.58 308.55 L 424.09 309.50 L 421.63 310.50 L 419.19 311.53 L 416.78 312.61 L 414.40 313.72 L 412.06 314.87 L 409.74 316.05 L 407.46 317.28 L 405.21 318.54 L 403.00 319.83 L 400.82 321.17 L 398.68 322.53 L 396.57 323.93 L 394.51 325.36 L 392.49 326.83 L 390.50 328.33 L 388.56 329.86 L 386.66 331.42 L 384.80 333.01 L 382.99 334.63 L 381.22 336.28 L 379.50 337.95 L 377.82 339.65 L 376.20 341.38 L 374.61 343.14 L 373.08 344.92 L 371.60 346.73 L 370.16 348.55 L 368.78 350.40 L 367.45 352.28 L 366.16 354.17 L 364.93 356.08 L 363.76 358.02 L 362.63 359.97 L 361.56 361.94 L 360.55 363.92 L 359.59 365.92 L 358.68 367.94 L 357.83 369.97 L 357.04 372.01 L 356.30 374.07 L 355.62 376.14 L 354.99 378.21 L 354.42 380.30 L 353.91 382.40 L 353.46 384.50 L 353.06 386.61 L 352.72 388.73 L 352.44 390.85 L 352.22 392.97 L 352.06 395.10 L 351.95 397.23 L 351.90 399.37 L 351.92 401.50 L 351.99 403.63 L 352.11 405.76 L 352.30 407.89 L 352.54 410.01 L 352.85 412.13 L 353.21 414.24 L 353.63 416.35 L 354.10 418.45 L 354.64 420.54 L 355.23 422.63 L 355.87 424.70 L 356.58 426.76 L 357.34 428.82 L 358.16 430.85 L 359.03 432.88 L 359.96 434.89 L 360.94 436.88 L 361.97 438.86 L 363.06 440.83 L 364.21 442.77 L 365.41 444.70 L 366.66 446.60 L 367.96 448.49 L 369.31 450.35 L 370.71 452.19 L 372.17 454.01 L 373.67 455.81 L 375.22 457.58 L 376.82 459.32 L 378.47 461.04 L 380.16 462.74 L 381.91 464.40 L 383.69 466.04 L 385.52 467.65 L 387.39 469.23 L 389.31 470.77 L 391.27 472.29 L 393.27 473.78 L 395.31 475.23 L 397.39 476.65 L 399.51 478.04 L 401.66 479.39 L 403.85 480.71 L 406.08 481.99 L 408.34 483.24 L 410.64 484.44 L 412.96 485.62 L 415.32 486.75 L 417.71 487.85 L 420.13 488.91 L 422.58 489.93 L 425.06 490.91 L 427.56 491.85 L 430.09 492.75 L 432.64 493.61 L 435.21 494.43 L 437.81 495.20 L 440.42 495.94 L 443.06 496.63 L 445.72 497.28 L 448.39 497.89 L 451.08 498.45 L 453.78 498.98 L 456.49 499.45 L 459.22 499.89 L 461.96 500.28 L 464.71 500.63 L 467.47 500.93 L 470.24 501.19 L 473.01 501.40 L 475.79 501.57 L 478.58 501.70 L 481.36 501.78 L 484.15 501.81 L 486.94 501.80 L 489.72 501.75 L 492.51 501.65 L 495.29 501.51 L 498.06 501.32 L 500.84 501.09 L 503.60 500.82 L 506.36 500.50 L 509.10 500.13 L 511.84 499.72 L 514.56 499.27 L 517.27 498.78 L 519.97 498.24 L 522.65 497.66 L 525.32 497.03 L 527.97 496.37 L 530.59 495.66 L 533.20 494.90 L 535.79 494.11 L 538.36 493.28 L 540.90 492.40 L 543.42 491.49 L 545.91 490.53 L 548.37 489.54 L 550.81 488.50 L 553.22 487.43 L 555.60 486.32 L 557.94 485.17 L 560.26 483.98 L 562.54 482.76 L 564.79 481.49 L 567.00 480.20 L 569.18 478.87 L 571.32 477.50 L 573.43 476.10 L 575.49 474.67 L 577.51 473.20 L 579.50 471.71 L 581.44 470.18 L 583.34 468.62 L 585.20 467.03 L 587.01 465.41 L 588.78 463.76 L 590.50 462.08 L 592.18 460.38 L 593.80 458.65 L 595.39 456.89 L 596.92 455.11 L 598.40 453.31 L 599.84 451.48" fill="none" stroke="#b19159" stroke-width="1.05" opacity="0.3" stroke-linecap="round" stroke-linejoin="round"/>
<path d="M 684.72 388.69 L 686.37 385.48 L 687.92 382.24 L 689.39 378.98 L 690.76 375.69 L 692.05 372.39 L 693.24 369.06 L 694.35 365.72 L 695.36 362.36 L 696.28 358.98 L 697.11 355.59 L 697.84 352.18 L 698.48 348.77 L 699.03 345.34 L 699.48 341.91 L 699.84 338.47 L 700.11 335.03 L 700.28 331.58 L 700.35 328.13 L 700.33 324.68 L 700.22 321.23 L 700.01 317.79 L 699.71 314.35 L 699.32 310.91 L 698.83 307.48 L 698.24 304.06 L 697.57 300.65 L 696.80 297.25 L 695.93 293.86 L 694.98 290.49 L 693.93 287.14 L 692.79 283.80 L 691.56 280.48 L 690.24 277.18 L 688.83 273.91 L 687.33 270.65 L 685.74 267.42 L 684.06 264.22 L 682.30 261.05 L 680.44 257.90 L 678.51 254.79 L 676.49 251.70 L 674.38 248.65 L 672.19 245.64 L 669.92 242.66 L 667.57 239.71 L 665.13 236.81 L 662.62 233.94 L 660.03 231.12 L 657.37 228.33 L 654.63 225.59 L 651.81 222.90 L 648.92 220.25 L 645.96 217.65 L 642.93 215.09 L 639.83 212.59 L 636.66 210.13 L 633.42 207.73 L 630.12 205.38 L 626.76 203.08 L 623.33 200.84 L 619.85 198.65 L 616.30 196.52 L 612.70 194.44 L 609.04 192.43 L 605.32 190.47 L 601.56 188.57 L 597.74 186.74 L 593.87 184.96 L 589.96 183.25 L 585.99 181.60 L 581.99 180.01 L 577.94 178.49 L 573.85 177.04 L 569.72 175.65 L 565.56 174.32 L 561.36 173.07 L 557.12 171.88 L 552.86 170.75 L 548.56 169.70 L 544.24 168.72 L 539.89 167.80 L 535.52 166.96 L 531.12 166.19 L 526.71 165.48 L 522.27 164.85 L 517.82 164.29 L 513.36 163.80 L 508.88 163.38 L 504.39 163.03 L 499.90 162.76 L 495.40 162.56 L 490.89 162.43 L 486.38 162.37 L 481.87 162.38 L 477.36 162.47 L 472.85 162.63 L 468.35 162.86 L 463.86 163.16 L 459.38 163.53 L 454.90 163.98 L 450.45 164.50 L 446.00 165.09 L 441.57 165.75 L 437.17 166.48 L 432.78 167.28 L 428.42 168.15 L 424.08 169.09 L 419.76 170.10 L 415.48 171.18 L 411.23 172.33 L 407.01 173.55 L 402.82 174.83 L 398.67 176.18 L 394.55 177.59 L 390.48 179.08 L 386.45 180.62 L 382.46 182.23 L 378.52 183.91 L 374.62 185.64 L 370.77 187.44 L 366.97 189.30 L 363.23 191.22 L 359.53 193.20 L 355.90 195.24 L 352.31 197.34 L 348.79 199.49 L 345.33 201.70 L 341.93 203.97 L 338.59 206.29 L 335.31 208.66 L 332.10 211.08 L 328.96 213.56 L 325.88 216.08 L 322.88 218.65 L 319.95 221.28 L 317.09 223.94 L 314.30 226.65 L 311.59 229.41 L 308.95 232.21 L 306.39 235.05 L 303.91 237.93 L 301.51 240.85 L 299.19 243.81 L 296.95 246.80 L 294.79 249.83 L 292.72 252.90 L 290.73 255.99 L 288.83 259.12 L 287.01 262.28 L 285.28 265.46 L 283.63 268.68 L 282.08 271.91 L 280.61 275.18 L 279.24 278.46 L 277.95 281.77 L 276.76 285.10 L 275.65 288.44 L 274.64 291.80 L 273.72 295.18 L 272.89 298.57 L 272.16 301.97 L 271.52 305.39 L 270.97 308.81 L 270.52 312.25 L 270.16 315.68 L 269.89 319.13 L 269.72 322.57 L 269.65 326.02 L 269.67 329.47 L 269.78 332.92 L 269.99 336.37 L 270.29 339.81 L 270.68 343.25 L 271.17 346.68 L 271.76 350.10 L 272.43 353.51 L 273.20 356.91 L 274.07 360.29 L 275.02 363.66 L 276.07 367.02 L 277.21 370.36 L 278.44 373.68 L 279.76 376.97 L 281.17 380.25 L 282.67 383.50 L 284.26 386.73 L 285.94 389.93" fill="none" stroke="#b19159" stroke-width="1.05" opacity="0.3" stroke-linecap="round" stroke-linejoin="round"/>
<path d="M 682.30 170.89 L 680.44 167.75 L 678.51 164.63 L 676.49 161.55 L 674.38 158.50 L 672.19 155.48 L 669.92 152.50 L 667.57 149.56 L 665.13 146.65 L 662.62 143.78 L 660.03 140.96 L 657.37 138.18 L 654.63 135.44 L 651.81 132.74 L 648.92 130.09 L 645.96 127.49 L 642.93 124.94 L 639.83 122.43 L 636.66 119.98 L 633.42 117.57 L 630.12 115.22 L 626.76 112.93 L 623.33 110.68 L 619.85 108.49 L 616.30 106.36 L 612.70 104.29 L 609.04 102.27 L 605.32 100.31 L 601.56 98.42 L 597.74 96.58 L 593.87 94.80 L 589.96 93.09 L 585.99 91.44 L 581.99 89.86 L 577.94 88.34 L 573.85 86.88 L 569.72 85.49 L 565.56 84.17 L 561.36 82.91 L 557.12 81.72 L 552.86 80.60 L 548.56 79.55 L 544.24 78.56 L 539.89 77.65 L 535.52 76.80 L 531.12 76.03 L 526.71 75.33 L 522.27 74.69 L 517.82 74.13 L 513.36 73.64 L 508.88 73.22 L 504.39 72.88 L 499.90 72.60 L 495.40 72.40 L 490.89 72.27 L 486.38 72.21 L 481.87 72.22 L 477.36 72.31 L 472.85 72.47 L 468.35 72.70 L 463.86 73.00 L 459.38 73.38 L 454.90 73.82 L 450.45 74.34 L 446.00 74.93 L 441.57 75.59 L 437.17 76.32 L 432.78 77.12 L 428.42 77.99 L 424.08 78.94 L 419.76 79.95 L 415.48 81.03 L 411.23 82.17 L 407.01 83.39 L 402.82 84.67 L 398.67 86.02 L 394.55 87.44 L 390.48 88.92 L 386.45 90.47 L 382.46 92.08 L 378.52 93.75 L 374.62 95.49 L 370.77 97.29 L 366.97 99.15 L 363.23 101.07 L 359.53 103.05 L 355.90 105.09 L 352.31 107.18 L 348.79 109.34 L 345.33 111.55 L 341.93 113.81 L 338.59 116.13 L 335.31 118.50 L 332.10 120.93 L 328.96 123.40 L 325.88 125.92 L 322.88 128.50 L 319.95 131.12 L 317.09 133.79 L 314.30 136.50 L 311.59 139.25 L 308.95 142.05 L 306.39 144.89 L 303.91 147.77 L 301.51 150.70 L 299.19 153.65 L 296.95 156.65 L 294.79 159.68 L 292.72 162.74 L 290.73 165.84 L 288.83 168.96 L 287.01 172.12" fill="none" stroke="#b19159" stroke-width="1.05" opacity="0.3" stroke-linecap="round" stroke-linejoin="round"/>
<g stroke-linecap="round" stroke-linejoin="round">
<polygon points="519.08,327.21 594.71,368.84 626.34,308.62 550.70,267.00" fill="#496d8a" opacity="0.055" stroke="#496d8a" stroke-width="1.05" stroke-opacity="0.42"/>
<path d="M 572.71 317.92 L 606.98 336.78" fill="none" stroke="#496d8a" stroke-width="1.9" opacity="0.63"/>
<path d="M 572.71 317.92 L 587.15 290.43" fill="none" stroke="#b19159" stroke-width="1.75" opacity="0.54"/>
<path d="M 398.31 246.50 L 395.95 245.20 L 393.61 243.91 L 391.28 242.62 L 388.97 241.34 L 386.67 240.07 L 384.39 238.80 L 382.13 237.55 L 379.89 236.30 L 377.66 235.05 L 375.45 233.82 L 373.26 232.59 L 371.09 231.37 L 368.94 230.16 L 366.81 228.96 L 364.70 227.77 L 362.61 226.59 L 360.55 225.42 L 358.50 224.25 L 356.47 223.10 L 354.47 221.96 L 352.49 220.82 L 350.53 219.70 L 348.59 218.59 L 346.68 217.49 L 344.79 216.40 L 342.93 215.32 L 341.09 214.26 L 339.27 213.20 L 337.48 212.16 L 335.72 211.12 L 333.98 210.11 L 332.26 209.10 L 330.58 208.10 L 328.92 207.12 L 327.28 206.15 L 325.67 205.20 L 324.09 204.25 L 322.54 203.32 L 321.02 202.41 L 319.52 201.50 L 318.05 200.62 L 316.61 199.74 L 315.20 198.88 L 313.82 198.03 L 312.47 197.20 L 311.14 196.38 L 309.85 195.58 L 308.59 194.79 L 307.36 194.02 L 306.15 193.26 L 304.98 192.52 L 303.84 191.79 L 302.73 191.08 L 301.65 190.38 L 300.61 189.70 L 299.59 189.04 L 298.61 188.39 L 297.66 187.76 L 296.74 187.14 L 295.85 186.54 L 294.99 185.95 L 294.17 185.39 L 293.38 184.83 L 292.62 184.30 L 291.90 183.78 L 291.21 183.28 L 290.55 182.80 L 289.93 182.33 L 289.34 181.88 L 288.78 181.45 L 288.25 181.03 L 287.76 180.63 L 287.31 180.25 L 286.89 179.89 L 286.50 179.54 L 286.14 179.21 L 285.82 178.90 L 285.54 178.61 L 285.28 178.33 L 285.07 178.08 L 284.88 177.84 L 284.73 177.61 L 284.62 177.41 L 284.54 177.22 L 284.49 177.06 L 284.48 176.90 L 284.50 176.77" fill="none" stroke="#7a2e2e" stroke-width="2.2" opacity="0.18" stroke-linecap="round" stroke-linejoin="round"/>
<path d="M 685.44 387.34 L 685.35 387.44 L 685.22 387.52 L 685.06 387.58 L 684.87 387.62 L 684.64 387.64 L 684.38 387.65 L 684.08 387.64 L 683.75 387.61 L 683.39 387.56 L 682.99 387.49 L 682.56 387.41 L 682.09 387.30 L 681.59 387.18 L 681.06 387.04 L 680.49 386.89 L 679.89 386.71 L 679.25 386.52 L 678.58 386.31 L 677.88 386.08 L 677.15 385.83 L 676.38 385.57 L 675.58 385.29 L 674.75 384.99 L 673.89 384.67 L 672.99 384.34 L 672.06 383.98 L 671.10 383.61 L 670.10 383.23 L 669.08 382.82 L 668.02 382.40 L 666.93 381.96 L 665.81 381.51 L 664.66 381.03 L 663.48 380.54 L 662.27 380.04 L 661.03 379.51 L 659.76 378.97 L 658.46 378.41 L 657.12 377.84 L 655.76 377.25 L 654.37 376.64 L 652.95 376.02 L 651.50 375.38 L 650.03 374.73 L 648.52 374.06 L 646.99 373.37 L 645.43 372.67 L 643.84 371.95 L 642.22 371.22 L 640.58 370.47 L 638.91 369.71 L 637.22 368.93 L 635.50 368.13 L 633.75 367.33 L 631.98 366.50 L 630.18 365.67 L 628.35 364.82 L 626.51 363.95 L 624.63 363.07 L 622.74 362.18 L 620.82 361.27 L 618.88 360.35 L 616.91 359.41 L 614.92 358.47 L 612.91 357.50 L 610.88 356.53 L 608.83 355.54 L 606.75 354.54 L 604.66 353.53 L 602.54 352.51 L 600.40 351.47 L 598.25 350.43 L 596.07 349.37 L 593.88 348.30 L 591.66 347.21 L 589.43 346.12 L 587.18 345.01 L 584.91 343.90 L 582.63 342.77 L 580.33 341.64 L 578.01 340.49 L 575.68 339.33 L 573.33 338.17 L 570.97 336.99 L 568.59 335.81 L 566.19 334.61 L 563.79 333.41 L 561.37 332.19 L 558.93 330.97 L 556.49 329.74 L 554.03 328.51 L 551.56 327.26 L 549.08 326.01 L 546.58 324.75 L 544.08 323.48 L 541.57 322.20 L 539.04 320.92 L 536.51 319.63 L 533.97 318.34 L 531.42 317.03 L 528.86 315.73 L 526.30 314.41 L 523.73 313.09 L 521.15 311.77 L 518.56 310.44 L 515.97 309.11 L 513.38 307.77 L 510.78 306.42 L 508.17 305.08 L 505.56 303.72 L 502.95 302.37 L 500.33 301.01 L 497.72 299.65 L 495.10 298.28 L 492.47 296.92 L 489.85 295.55 L 487.23 294.17 L 484.60 292.80 L 481.98 291.42 L 479.35 290.04 L 476.73 288.66 L 474.11 287.28 L 471.49 285.90 L 468.87 284.52 L 466.25 283.14 L 463.64 281.75 L 461.03 280.37 L 458.43 278.99 L 455.83 277.61 L 453.24 276.23 L 450.65 274.84 L 448.07 273.47 L 445.49 272.09 L 442.92 270.71 L 440.36 269.34 L 437.80 267.97 L 435.25 266.60 L 432.72 265.23 L 430.19 263.87 L 427.67 262.51 L 425.16 261.15 L 422.66 259.79 L 420.17 258.44 L 417.69 257.10 L 415.22 255.76 L 412.77 254.42 L 410.32 253.09 L 407.90 251.76 L 405.48 250.44 L 403.08 249.12 L 400.69 247.81 L 398.31 246.50" fill="none" stroke="#7a2e2e" stroke-width="2.2" opacity="0.18" stroke-linecap="round" stroke-linejoin="round"/>
<path d="M 284.56 176.66 L 284.65 176.56 L 284.78 176.48 L 284.94 176.42 L 285.13 176.38 L 285.36 176.36 L 285.62 176.35 L 285.92 176.36 L 286.25 176.39 L 286.61 176.44 L 287.01 176.51 L 287.44 176.59 L 287.91 176.70 L 288.41 176.82 L 288.94 176.96 L 289.51 177.11 L 290.11 177.29 L 290.75 177.48 L 291.42 177.69 L 292.12 177.92 L 292.85 178.17 L 293.62 178.43 L 294.42 178.71 L 295.25 179.01 L 296.11 179.33 L 297.01 179.66 L 297.94 180.02 L 298.90 180.39 L 299.90 180.77 L 300.92 181.18 L 301.98 181.60 L 303.07 182.04 L 304.19 182.49 L 305.34 182.97 L 306.52 183.46 L 307.73 183.96 L 308.97 184.49 L 310.24 185.03 L 311.54 185.59 L 312.88 186.16 L 314.24 186.75 L 315.63 187.36 L 317.05 187.98 L 318.50 188.62 L 319.97 189.27 L 321.48 189.94 L 323.01 190.63 L 324.57 191.33 L 326.16 192.05 L 327.78 192.78 L 329.42 193.53 L 331.09 194.29 L 332.78 195.07 L 334.50 195.87 L 336.25 196.67 L 338.02 197.50 L 339.82 198.33 L 341.65 199.18 L 343.49 200.05 L 345.37 200.93 L 347.26 201.82 L 349.18 202.73 L 351.12 203.65 L 353.09 204.59 L 355.08 205.53 L 357.09 206.50 L 359.12 207.47 L 361.17 208.46 L 363.25 209.46 L 365.34 210.47 L 367.46 211.49 L 369.60 212.53 L 371.75 213.57 L 373.93 214.63 L 376.12 215.70 L 378.34 216.79 L 380.57 217.88 L 382.82 218.99 L 385.09 220.10 L 387.37 221.23 L 389.67 222.36 L 391.99 223.51 L 394.32 224.67 L 396.67 225.83 L 399.03 227.01 L 401.41 228.19 L 403.81 229.39 L 406.21 230.59 L 408.63 231.81 L 411.07 233.03 L 413.51 234.26 L 415.97 235.49 L 418.44 236.74 L 420.92 237.99 L 423.42 239.25 L 425.92 240.52 L 428.43 241.80 L 430.96 243.08 L 433.49 244.37 L 436.03 245.66 L 438.58 246.97 L 441.14 248.27 L 443.70 249.59 L 446.27 250.91 L 448.85 252.23 L 451.44 253.56 L 454.03 254.89 L 456.62 256.23 L 459.22 257.58 L 461.83 258.92 L 464.44 260.28 L 467.05 261.63 L 469.67 262.99 L 472.28 264.35 L 474.90 265.72 L 477.53 267.08 L 480.15 268.45 L 482.77 269.83 L 485.40 271.20 L 488.02 272.58 L 490.65 273.96 L 493.27 275.34 L 495.89 276.72 L 498.51 278.10 L 501.13 279.48 L 503.75 280.86 L 506.36 282.25 L 508.97 283.63 L 511.57 285.01 L 514.17 286.39 L 516.76 287.77 L 519.35 289.16 L 521.93 290.53 L 524.51 291.91 L 527.08 293.29 L 529.64 294.66 L 532.20 296.03 L 534.75 297.40 L 537.28 298.77 L 539.81 300.13 L 542.33 301.49 L 544.84 302.85 L 547.34 304.21 L 549.83 305.56 L 552.31 306.90 L 554.78 308.24 L 557.23 309.58 L 559.68 310.91 L 562.10 312.24 L 564.52 313.56 L 566.92 314.88 L 569.31 316.19 L 571.69 317.50 L 574.05 318.80 L 576.39 320.09 L 578.72 321.38 L 581.03 322.66 L 583.33 323.93 L 585.61 325.20 L 587.87 326.45 L 590.11 327.70 L 592.34 328.95 L 594.55 330.18 L 596.74 331.41 L 598.91 332.63 L 601.06 333.84 L 603.19 335.04 L 605.30 336.23 L 607.39 337.41 L 609.45 338.58 L 611.50 339.75 L 613.53 340.90 L 615.53 342.04 L 617.51 343.18 L 619.47 344.30 L 621.41 345.41 L 623.32 346.51 L 625.21 347.60 L 627.07 348.68 L 628.91 349.74 L 630.73 350.80 L 632.52 351.84 L 634.28 352.88 L 636.02 353.89 L 637.74 354.90 L 639.42 355.90 L 641.08 356.88 L 642.72 357.85 L 644.33 358.80 L 645.91 359.75 L 647.46 360.68 L 648.98 361.59 L 650.48 362.50 L 651.95 363.38 L 653.39 364.26 L 654.80 365.12 L 656.18 365.97 L 657.53 366.80 L 658.86 367.62 L 660.15 368.42 L 661.41 369.21 L 662.64 369.98 L 663.85 370.74 L 665.02 371.48 L 666.16 372.21 L 667.27 372.92 L 668.35 373.62 L 669.39 374.30 L 670.41 374.96 L 671.39 375.61 L 672.34 376.24 L 673.26 376.86 L 674.15 377.46 L 675.01 378.05 L 675.83 378.61 L 676.62 379.17 L 677.38 379.70 L 678.10 380.22 L 678.79 380.72 L 679.45 381.20 L 680.07 381.67 L 680.66 382.12 L 681.22 382.55 L 681.75 382.97 L 682.24 383.37 L 682.69 383.75 L 683.11 384.11 L 683.50 384.46 L 683.86 384.79 L 684.18 385.10 L 684.46 385.39 L 684.72 385.67 L 684.93 385.92 L 685.12 386.16 L 685.27 386.39 L 685.38 386.59 L 685.46 386.78 L 685.51 386.94 L 685.52 387.10 L 685.50 387.23" fill="none" stroke="#7a2e2e" stroke-width="2.95" opacity="0.91" stroke-linecap="round" stroke-linejoin="round"/>
<circle cx="571.69" cy="317.50" r="4.4" fill="#2f3739" opacity="0.84"/>
</g></svg>