<?xml version="1.0" encoding="UTF-8"?>
<svg xmlns="http://www.w3.org/2000/svg" viewBox="0 0 800 1000" role="img" aria-labelledby="a-full-rank-linear-map-sends-a-sphere-to-an-ellipsoid">
  <title id="a-full-rank-linear-map-sends-a-sphere-to-an-ellipsoid">A full-rank linear map sends a sphere to an ellipsoid</title>
  <defs>
  <marker id="open-arrow" viewBox="0 0 14 14" refX="12" refY="7"
    markerWidth="14" markerHeight="14" markerUnits="userSpaceOnUse" orient="auto">
    <path d="M 2 2 L 12 7 L 2 12" fill="none" stroke="context-stroke"
      stroke-width="2.2" stroke-linecap="round" stroke-linejoin="round"/>
  </marker>
  <style>
    .ink { fill: none; stroke: #25343d; stroke-width: 3.2; stroke-linecap: round; stroke-linejoin: round; }
    .blue { fill: none; stroke: #54778c; stroke-width: 3.4; stroke-linecap: round; stroke-linejoin: round; }
    .red { fill: none; stroke: #9b625c; stroke-width: 3.4; stroke-linecap: round; stroke-linejoin: round; }
    .gold { fill: none; stroke: #b08d55; stroke-width: 3.2; stroke-linecap: round; stroke-linejoin: round; }
    .green { fill: none; stroke: #718677; stroke-width: 3.2; stroke-linecap: round; stroke-linejoin: round; }
    .violet { fill: none; stroke: #756b82; stroke-width: 3.2; stroke-linecap: round; stroke-linejoin: round; }
    .soft { fill: none; stroke: #9ba9ad; stroke-width: 1.75; stroke-linecap: round; stroke-linejoin: round; }
  </style></defs>
  <path d="M 380.88 304.18 L 377.38 306.26 L 373.75 308.27 L 370 310.21 L 366.12 312.07 L 362.13 313.86 L 358.02 315.57 L 353.81 317.2 L 349.5 318.75 L 345.08 320.22 L 340.58 321.6 L 335.99 322.89 L 331.32 324.1 L 326.58 325.21 L 321.76 326.23 L 316.88 327.16 L 311.95 328 L 306.97 328.74 L 301.94 329.38 L 296.87 329.93 L 291.77 330.38 L 286.64 330.73 L 281.49 330.99 L 276.33 331.14 L 271.16 331.2 L 265.99 331.16 L 260.82 331.02 L 255.66 330.78 L 250.53 330.44 L 245.41 330 L 240.33 329.47 L 235.28 328.84 L 230.27 328.11 L 225.32 327.29 L 220.41 326.37 L 215.57 325.36 L 210.79 324.26 L 206.09 323.07 L 201.46 321.79 L 196.92 320.42 L 192.47 318.97 L 188.11 317.43 L 183.85 315.81 L 179.69 314.11 L 175.65 312.33 L 171.72 310.48 L 167.91 308.55 L 164.22 306.55 L 160.67 304.49 L 157.24 302.35 L 153.96 300.15 L 150.81 297.89 L 147.82 295.58 L 144.96 293.2 L 142.27 290.78 L 139.72 288.3 L 137.34 285.78 L 135.12 283.21 L 133.06 280.61 L 131.17 277.96 L 129.45 275.29 L 127.9 272.58 L 126.52 269.84 L 125.32 267.08 L 124.29 264.3 L 123.44 261.5 L 122.77 258.69 L 122.28 255.87 L 121.97 253.04 L 121.84 250.21 L 121.89 247.37 L 122.12 244.54 L 122.53 241.72 L 123.12 238.9 L 123.89 236.1 L 124.84 233.32 L 125.96 230.56 L 127.26 227.82 L 128.73 225.1 L 130.38 222.42 L 132.19 219.77 L 134.18 217.16 L 136.33 214.59 L 138.64 212.06 L 141.11 209.58 L 143.74 207.15 L 146.52 204.76 L 149.45 202.44 L 152.53 200.17 L 155.76 197.96 L 159.12 195.82 L 162.62 193.74 L 166.25 191.73 L 170 189.79 L 173.88 187.93 L 177.87 186.14 L 181.98 184.43 L 186.19 182.8 L 190.5 181.25 L 194.92 179.78 L 199.42 178.4 L 204.01 177.11 L 208.68 175.9 L 213.42 174.79 L 218.24 173.77 L 223.12 172.84 L 228.05 172 L 233.03 171.26 L 238.06 170.62 L 243.13 170.07 L 248.23 169.62 L 253.36 169.27 L 258.51 169.01 L 263.67 168.86 L 268.84 168.8 L 274.01 168.84 L 279.18 168.98 L 284.34 169.22 L 289.47 169.56 L 294.59 170 L 299.67 170.53 L 304.72 171.16 L 309.73 171.89 L 314.68 172.71 L 319.59 173.63 L 324.43 174.64 L 329.21 175.74 L 333.91 176.93 L 338.54 178.21 L 343.08 179.58 L 347.53 181.03 L 351.89 182.57 L 356.15 184.19 L 360.31 185.89 L 364.35 187.67 L 368.28 189.52 L 372.09 191.45 L 375.78 193.45 L 379.33 195.51 L 382.76 197.65 L 386.04 199.85 L 389.19 202.11 L 392.18 204.42 L 395.04 206.8 L 397.73 209.22 L 400.28 211.7 L 402.66 214.22 L 404.88 216.79 L 406.94 219.39 L 408.83 222.04 L 410.55 224.71 L 412.1 227.42 L 413.48 230.16 L 414.68 232.92 L 415.71 235.7 L 416.56 238.5 L 417.23 241.31 L 417.72 244.13 L 418.03 246.96 L 418.16 249.79 L 418.11 252.63 L 417.88 255.46 L 417.47 258.28 L 416.88 261.1 L 416.11 263.9 L 415.16 266.68 L 414.04 269.44 L 412.74 272.18 L 411.27 274.9 L 409.62 277.58 L 407.81 280.23 L 405.82 282.84 L 403.67 285.41 L 401.36 287.94 L 398.89 290.42 L 396.26 292.85 L 393.48 295.24 L 390.55 297.56 L 387.47 299.83 L 384.24 302.04 L 380.88 304.18" fill="none"
          stroke="#54778c" stroke-width="3.15" opacity="0.9"/>
<path d="M 380.88 304.18 L 380.81 300.1 L 380.61 295.96 L 380.27 291.77 L 379.8 287.52 L 379.2 283.23 L 378.46 278.89 L 377.59 274.53 L 376.58 270.13 L 375.45 265.71 L 374.19 261.27 L 372.81 256.81 L 371.29 252.35 L 369.66 247.88 L 367.9 243.42 L 366.02 238.96 L 364.03 234.52 L 361.92 230.1 L 359.7 225.7 L 357.37 221.33 L 354.94 216.99 L 352.4 212.7 L 349.76 208.45 L 347.02 204.25 L 344.19 200.11 L 341.27 196.03 L 338.26 192.01 L 335.17 188.06 L 332 184.2 L 328.76 180.41 L 325.44 176.7 L 322.06 173.08 L 318.61 169.56 L 315.1 166.14 L 311.54 162.82 L 307.92 159.6 L 304.26 156.5 L 300.56 153.5 L 296.82 150.63 L 293.05 147.88 L 289.25 145.25 L 285.43 142.75 L 281.59 140.38 L 277.73 138.14 L 273.87 136.04 L 270 134.08 L 266.13 132.26 L 262.27 130.58 L 258.41 129.05 L 254.57 127.67 L 250.75 126.43 L 246.95 125.35 L 243.18 124.42 L 239.44 123.64 L 235.74 123.01 L 232.08 122.54 L 228.46 122.22 L 224.9 122.06 L 221.39 122.06 L 217.94 122.21 L 214.56 122.52 L 211.24 122.98 L 208 123.6 L 204.83 124.37 L 201.74 125.3 L 198.73 126.37 L 195.81 127.6 L 192.98 128.98 L 190.24 130.5 L 187.6 132.17 L 185.06 133.98 L 182.63 135.94 L 180.3 138.03 L 178.08 140.26 L 175.97 142.62 L 173.98 145.12 L 172.1 147.74 L 170.34 150.49 L 168.71 153.36 L 167.19 156.34 L 165.81 159.44 L 164.55 162.65 L 163.42 165.97 L 162.41 169.39 L 161.54 172.9 L 160.8 176.51 L 160.2 180.21 L 159.73 184 L 159.39 187.87 L 159.19 191.81 L 159.12 195.82 L 159.19 199.9 L 159.39 204.04 L 159.73 208.23 L 160.2 212.48 L 160.8 216.77 L 161.54 221.11 L 162.41 225.47 L 163.42 229.87 L 164.55 234.29 L 165.81 238.73 L 167.19 243.19 L 168.71 247.65 L 170.34 252.12 L 172.1 256.58 L 173.98 261.04 L 175.97 265.48 L 178.08 269.9 L 180.3 274.3 L 182.63 278.67 L 185.06 283.01 L 187.6 287.3 L 190.24 291.55 L 192.98 295.75 L 195.81 299.89 L 198.73 303.97 L 201.74 307.99 L 204.83 311.94 L 208 315.8 L 211.24 319.59 L 214.56 323.3 L 217.94 326.92 L 221.39 330.44 L 224.9 333.86 L 228.46 337.18 L 232.08 340.4 L 235.74 343.5 L 239.44 346.5 L 243.18 349.37 L 246.95 352.12 L 250.75 354.75 L 254.57 357.25 L 258.41 359.62 L 262.27 361.86 L 266.13 363.96 L 270 365.92 L 273.87 367.74 L 277.73 369.42 L 281.59 370.95 L 285.43 372.33 L 289.25 373.57 L 293.05 374.65 L 296.82 375.58 L 300.56 376.36 L 304.26 376.99 L 307.92 377.46 L 311.54 377.78 L 315.1 377.94 L 318.61 377.94 L 322.06 377.79 L 325.44 377.48 L 328.76 377.02 L 332 376.4 L 335.17 375.63 L 338.26 374.7 L 341.27 373.63 L 344.19 372.4 L 347.02 371.02 L 349.76 369.5 L 352.4 367.83 L 354.94 366.02 L 357.37 364.06 L 359.7 361.97 L 361.92 359.74 L 364.03 357.38 L 366.02 354.88 L 367.9 352.26 L 369.66 349.51 L 371.29 346.64 L 372.81 343.66 L 374.19 340.56 L 375.45 337.35 L 376.58 334.03 L 377.59 330.61 L 378.46 327.1 L 379.2 323.49 L 379.8 319.79 L 380.27 316 L 380.61 312.13 L 380.81 308.19 L 380.88 304.18" fill="none"
          stroke="#b08d55" stroke-width="3.15" opacity="0.9"/>
<path d="M 171.72 310.48 L 171.78 306.4 L 171.96 302.25 L 172.26 298.03 L 172.68 293.76 L 173.21 289.43 L 173.87 285.06 L 174.64 280.64 L 175.53 276.19 L 176.53 271.7 L 177.65 267.19 L 178.88 262.65 L 180.22 258.1 L 181.67 253.54 L 183.22 248.98 L 184.89 244.42 L 186.65 239.86 L 188.52 235.32 L 190.49 230.79 L 192.55 226.29 L 194.71 221.82 L 196.96 217.38 L 199.3 212.98 L 201.73 208.63 L 204.24 204.32 L 206.83 200.08 L 209.49 195.89 L 212.23 191.77 L 215.04 187.72 L 217.92 183.74 L 220.86 179.85 L 223.86 176.04 L 226.92 172.32 L 230.03 168.7 L 233.18 165.18 L 236.39 161.76 L 239.63 158.44 L 242.91 155.24 L 246.22 152.15 L 249.57 149.19 L 252.93 146.34 L 256.32 143.63 L 259.73 141.04 L 263.14 138.58 L 266.57 136.26 L 270 134.08 L 273.43 132.04 L 276.86 130.14 L 280.27 128.39 L 283.68 126.79 L 287.07 125.34 L 290.43 124.04 L 293.78 122.89 L 297.09 121.9 L 300.37 121.06 L 303.61 120.39 L 306.82 119.86 L 309.97 119.5 L 313.08 119.3 L 316.14 119.26 L 319.14 119.37 L 322.08 119.64 L 324.96 120.08 L 327.77 120.67 L 330.51 121.42 L 333.17 122.32 L 335.76 123.39 L 338.27 124.6 L 340.7 125.97 L 343.04 127.49 L 345.29 129.16 L 347.45 130.97 L 349.51 132.93 L 351.48 135.04 L 353.35 137.28 L 355.11 139.66 L 356.78 142.18 L 358.33 144.82 L 359.78 147.6 L 361.12 150.5 L 362.35 153.52 L 363.47 156.66 L 364.47 159.91 L 365.36 163.27 L 366.13 166.74 L 366.79 170.31 L 367.32 173.98 L 367.74 177.73 L 368.04 181.58 L 368.22 185.51 L 368.28 189.52 L 368.22 193.6 L 368.04 197.75 L 367.74 201.97 L 367.32 206.24 L 366.79 210.57 L 366.13 214.94 L 365.36 219.36 L 364.47 223.81 L 363.47 228.3 L 362.35 232.81 L 361.12 237.35 L 359.78 241.9 L 358.33 246.46 L 356.78 251.02 L 355.11 255.58 L 353.35 260.14 L 351.48 264.68 L 349.51 269.21 L 347.45 273.71 L 345.29 278.18 L 343.04 282.62 L 340.7 287.02 L 338.27 291.37 L 335.76 295.68 L 333.17 299.92 L 330.51 304.11 L 327.77 308.23 L 324.96 312.28 L 322.08 316.26 L 319.14 320.15 L 316.14 323.96 L 313.08 327.68 L 309.97 331.3 L 306.82 334.82 L 303.61 338.24 L 300.37 341.56 L 297.09 344.76 L 293.78 347.85 L 290.43 350.81 L 287.07 353.66 L 283.68 356.37 L 280.27 358.96 L 276.86 361.42 L 273.43 363.74 L 270 365.92 L 266.57 367.96 L 263.14 369.86 L 259.73 371.61 L 256.32 373.21 L 252.93 374.66 L 249.57 375.96 L 246.22 377.11 L 242.91 378.1 L 239.63 378.94 L 236.39 379.61 L 233.18 380.14 L 230.03 380.5 L 226.92 380.7 L 223.86 380.74 L 220.86 380.63 L 217.92 380.36 L 215.04 379.92 L 212.23 379.33 L 209.49 378.58 L 206.83 377.68 L 204.24 376.61 L 201.73 375.4 L 199.3 374.03 L 196.96 372.51 L 194.71 370.84 L 192.55 369.03 L 190.49 367.07 L 188.52 364.96 L 186.65 362.72 L 184.89 360.34 L 183.22 357.82 L 181.67 355.18 L 180.22 352.4 L 178.88 349.5 L 177.65 346.48 L 176.53 343.34 L 175.53 340.09 L 174.64 336.73 L 173.87 333.26 L 173.21 329.69 L 172.68 326.02 L 172.26 322.27 L 171.96 318.42 L 171.78 314.49 L 171.72 310.48" fill="none"
          stroke="#718677" stroke-width="3.15" opacity="0.9"/>
    <path d="M 322 392 C 340 492, 426 527, 468 594" class="ink"
      stroke-width="3" marker-end="url(#open-arrow)" opacity="0.78"/>
    <path d="M 645.38 828.2 L 642.92 829.75 L 640.28 831.2 L 637.49 832.54 L 634.53 833.78 L 631.42 834.91 L 628.15 835.93 L 624.73 836.84 L 621.16 837.63 L 617.46 838.31 L 613.61 838.88 L 609.64 839.34 L 605.53 839.68 L 601.31 839.91 L 596.96 840.01 L 592.51 840.01 L 587.95 839.89 L 583.28 839.65 L 578.53 839.29 L 573.68 838.83 L 568.75 838.24 L 563.74 837.55 L 558.66 836.74 L 553.51 835.82 L 548.3 834.79 L 543.05 833.65 L 537.74 832.4 L 532.4 831.04 L 527.02 829.58 L 521.62 828.02 L 516.19 826.36 L 510.75 824.6 L 505.31 822.73 L 499.86 820.78 L 494.42 818.73 L 489 816.6 L 483.59 814.37 L 478.21 812.06 L 472.86 809.67 L 467.55 807.2 L 462.29 804.66 L 457.07 802.04 L 451.92 799.35 L 446.83 796.6 L 441.82 793.78 L 436.87 790.91 L 432.02 787.98 L 427.25 784.99 L 422.57 781.96 L 418 778.88 L 413.53 775.76 L 409.18 772.61 L 404.94 769.42 L 400.82 766.2 L 396.83 762.95 L 392.97 759.68 L 389.25 756.4 L 385.67 753.1 L 382.23 749.79 L 378.94 746.47 L 375.81 743.16 L 372.84 739.84 L 370.02 736.53 L 367.37 733.24 L 364.89 729.95 L 362.58 726.69 L 360.44 723.44 L 358.48 720.23 L 356.7 717.04 L 355.09 713.89 L 353.67 710.77 L 352.44 707.7 L 351.39 704.67 L 350.53 701.7 L 349.85 698.77 L 349.37 695.9 L 349.07 693.09 L 348.96 690.34 L 349.05 687.67 L 349.32 685.06 L 349.79 682.52 L 350.44 680.06 L 351.28 677.68 L 352.31 675.38 L 353.53 673.16 L 354.92 671.04 L 356.51 669 L 358.27 667.05 L 360.21 665.2 L 362.33 663.45 L 364.62 661.8 L 367.08 660.25 L 369.72 658.8 L 372.51 657.46 L 375.47 656.22 L 378.58 655.09 L 381.85 654.07 L 385.27 653.16 L 388.84 652.37 L 392.54 651.69 L 396.39 651.12 L 400.36 650.66 L 404.47 650.32 L 408.69 650.09 L 413.04 649.99 L 417.49 649.99 L 422.05 650.11 L 426.72 650.35 L 431.47 650.71 L 436.32 651.17 L 441.25 651.76 L 446.26 652.45 L 451.34 653.26 L 456.49 654.18 L 461.7 655.21 L 466.95 656.35 L 472.26 657.6 L 477.6 658.96 L 482.98 660.42 L 488.38 661.98 L 493.81 663.64 L 499.25 665.4 L 504.69 667.27 L 510.14 669.22 L 515.58 671.27 L 521 673.4 L 526.41 675.63 L 531.79 677.94 L 537.14 680.33 L 542.45 682.8 L 547.71 685.34 L 552.93 687.96 L 558.08 690.65 L 563.17 693.4 L 568.18 696.22 L 573.13 699.09 L 577.98 702.02 L 582.75 705.01 L 587.43 708.04 L 592 711.12 L 596.47 714.24 L 600.82 717.39 L 605.06 720.58 L 609.18 723.8 L 613.17 727.05 L 617.03 730.32 L 620.75 733.6 L 624.33 736.9 L 627.77 740.21 L 631.06 743.53 L 634.19 746.84 L 637.16 750.16 L 639.98 753.47 L 642.63 756.76 L 645.11 760.05 L 647.42 763.31 L 649.56 766.56 L 651.52 769.77 L 653.3 772.96 L 654.91 776.11 L 656.33 779.23 L 657.56 782.3 L 658.61 785.33 L 659.47 788.3 L 660.15 791.23 L 660.63 794.1 L 660.93 796.91 L 661.04 799.66 L 660.95 802.33 L 660.68 804.94 L 660.21 807.48 L 659.56 809.94 L 658.72 812.32 L 657.69 814.62 L 656.47 816.84 L 655.08 818.96 L 653.49 821 L 651.73 822.95 L 649.79 824.8 L 647.67 826.55 L 645.38 828.2" fill="none"
          stroke="#54778c" stroke-width="3.15" opacity="0.9"/>
<path d="M 645.38 828.2 L 644.53 826.32 L 643.51 824.33 L 642.32 822.25 L 640.96 820.08 L 639.44 817.82 L 637.75 815.46 L 635.91 813.02 L 633.9 810.5 L 631.73 807.9 L 629.41 805.22 L 626.94 802.46 L 624.33 799.64 L 621.56 796.75 L 618.65 793.8 L 615.61 790.79 L 612.43 787.72 L 609.12 784.6 L 605.68 781.44 L 602.12 778.22 L 598.44 774.97 L 594.65 771.68 L 590.75 768.36 L 586.75 765.01 L 582.64 761.64 L 578.44 758.24 L 574.15 754.83 L 569.78 751.41 L 565.32 747.98 L 560.8 744.54 L 556.2 741.11 L 551.55 737.68 L 546.83 734.26 L 542.07 730.85 L 537.26 727.46 L 532.41 724.1 L 527.53 720.75 L 522.62 717.44 L 517.69 714.16 L 512.74 710.92 L 507.79 707.72 L 502.83 704.56 L 497.87 701.46 L 492.92 698.4 L 487.99 695.41 L 483.08 692.47 L 478.19 689.6 L 473.34 686.8 L 468.52 684.06 L 463.75 681.4 L 459.03 678.82 L 454.37 676.32 L 449.77 673.9 L 445.23 671.57 L 440.77 669.33 L 436.39 667.18 L 432.09 665.13 L 427.88 663.17 L 423.76 661.32 L 419.74 659.56 L 415.83 657.91 L 412.02 656.36 L 408.33 654.93 L 404.75 653.6 L 401.3 652.38 L 397.97 651.28 L 394.78 650.29 L 391.72 649.42 L 388.79 648.66 L 386.01 648.02 L 383.37 647.5 L 380.88 647.1 L 378.55 646.81 L 376.36 646.65 L 374.34 646.61 L 372.47 646.68 L 370.76 646.88 L 369.22 647.19 L 367.84 647.63 L 366.63 648.18 L 365.59 648.85 L 364.72 649.64 L 364.02 650.54 L 363.49 651.56 L 363.13 652.7 L 362.95 653.94 L 362.94 655.3 L 363.1 656.76 L 363.43 658.34 L 363.94 660.02 L 364.62 661.8 L 365.47 663.68 L 366.49 665.67 L 367.68 667.75 L 369.04 669.92 L 370.56 672.18 L 372.25 674.54 L 374.09 676.98 L 376.1 679.5 L 378.27 682.1 L 380.59 684.78 L 383.06 687.54 L 385.67 690.36 L 388.44 693.25 L 391.35 696.2 L 394.39 699.21 L 397.57 702.28 L 400.88 705.4 L 404.32 708.56 L 407.88 711.78 L 411.56 715.03 L 415.35 718.32 L 419.25 721.64 L 423.25 724.99 L 427.36 728.36 L 431.56 731.76 L 435.85 735.17 L 440.22 738.59 L 444.68 742.02 L 449.2 745.46 L 453.8 748.89 L 458.45 752.32 L 463.17 755.74 L 467.93 759.15 L 472.74 762.54 L 477.59 765.9 L 482.47 769.25 L 487.38 772.56 L 492.31 775.84 L 497.26 779.08 L 502.21 782.28 L 507.17 785.44 L 512.13 788.54 L 517.08 791.6 L 522.01 794.59 L 526.92 797.53 L 531.81 800.4 L 536.66 803.2 L 541.48 805.94 L 546.25 808.6 L 550.97 811.18 L 555.63 813.68 L 560.23 816.1 L 564.77 818.43 L 569.23 820.67 L 573.61 822.82 L 577.91 824.87 L 582.12 826.83 L 586.24 828.68 L 590.26 830.44 L 594.17 832.09 L 597.98 833.64 L 601.67 835.07 L 605.25 836.4 L 608.7 837.62 L 612.03 838.72 L 615.22 839.71 L 618.28 840.58 L 621.21 841.34 L 623.99 841.98 L 626.63 842.5 L 629.12 842.9 L 631.45 843.19 L 633.64 843.35 L 635.66 843.39 L 637.53 843.32 L 639.24 843.12 L 640.78 842.81 L 642.16 842.37 L 643.37 841.82 L 644.41 841.15 L 645.28 840.36 L 645.98 839.46 L 646.51 838.44 L 646.87 837.3 L 647.05 836.06 L 647.06 834.7 L 646.9 833.24 L 646.57 831.66 L 646.06 829.98 L 645.38 828.2" fill="none"
          stroke="#b08d55" stroke-width="3.15" opacity="0.9"/>
<path d="M 436.87 790.91 L 436.15 789.05 L 435.51 787.13 L 434.96 785.17 L 434.49 783.15 L 434.1 781.09 L 433.81 778.98 L 433.59 776.84 L 433.47 774.65 L 433.43 772.43 L 433.48 770.17 L 433.62 767.89 L 433.85 765.57 L 434.16 763.24 L 434.56 760.87 L 435.04 758.49 L 435.61 756.1 L 436.26 753.69 L 437 751.27 L 437.82 748.84 L 438.72 746.4 L 439.7 743.97 L 440.77 741.53 L 441.91 739.11 L 443.12 736.68 L 444.42 734.27 L 445.78 731.87 L 447.22 729.49 L 448.73 727.12 L 450.31 724.78 L 451.95 722.46 L 453.66 720.17 L 455.43 717.91 L 457.26 715.69 L 459.15 713.49 L 461.1 711.34 L 463.1 709.23 L 465.15 707.16 L 467.25 705.14 L 469.39 703.16 L 471.58 701.24 L 473.81 699.37 L 476.08 697.56 L 478.38 695.8 L 480.71 694.11 L 483.08 692.47 L 485.47 690.9 L 487.88 689.4 L 490.32 687.96 L 492.77 686.59 L 495.24 685.3 L 497.72 684.07 L 500.21 682.93 L 502.7 681.85 L 505.2 680.86 L 507.7 679.94 L 510.19 679.1 L 512.68 678.34 L 515.16 677.66 L 517.63 677.07 L 520.08 676.56 L 522.51 676.13 L 524.92 675.78 L 527.31 675.52 L 529.67 675.34 L 532 675.25 L 534.29 675.25 L 536.55 675.32 L 538.78 675.49 L 540.96 675.74 L 543.1 676.07 L 545.19 676.48 L 547.23 676.98 L 549.22 677.57 L 551.16 678.23 L 553.04 678.98 L 554.86 679.8 L 556.62 680.71 L 558.32 681.7 L 559.95 682.76 L 561.52 683.89 L 563.02 685.11 L 564.44 686.39 L 565.8 687.75 L 567.08 689.17 L 568.28 690.67 L 569.41 692.23 L 570.46 693.85 L 571.43 695.54 L 572.32 697.29 L 573.13 699.09 L 573.85 700.95 L 574.49 702.87 L 575.04 704.83 L 575.51 706.85 L 575.9 708.91 L 576.19 711.02 L 576.41 713.16 L 576.53 715.35 L 576.57 717.57 L 576.52 719.83 L 576.38 722.11 L 576.15 724.43 L 575.84 726.76 L 575.44 729.13 L 574.96 731.51 L 574.39 733.9 L 573.74 736.31 L 573 738.73 L 572.18 741.16 L 571.28 743.6 L 570.3 746.03 L 569.23 748.47 L 568.09 750.89 L 566.88 753.32 L 565.58 755.73 L 564.22 758.13 L 562.78 760.51 L 561.27 762.88 L 559.69 765.22 L 558.05 767.54 L 556.34 769.83 L 554.57 772.09 L 552.74 774.31 L 550.85 776.51 L 548.9 778.66 L 546.9 780.77 L 544.85 782.84 L 542.75 784.86 L 540.61 786.84 L 538.42 788.76 L 536.19 790.63 L 533.92 792.44 L 531.62 794.2 L 529.29 795.89 L 526.92 797.53 L 524.53 799.1 L 522.12 800.6 L 519.68 802.04 L 517.23 803.41 L 514.76 804.7 L 512.28 805.93 L 509.79 807.07 L 507.3 808.15 L 504.8 809.14 L 502.3 810.06 L 499.81 810.9 L 497.32 811.66 L 494.84 812.34 L 492.37 812.93 L 489.92 813.44 L 487.49 813.87 L 485.08 814.22 L 482.69 814.48 L 480.33 814.66 L 478 814.75 L 475.71 814.75 L 473.45 814.68 L 471.22 814.51 L 469.04 814.26 L 466.9 813.93 L 464.81 813.52 L 462.77 813.02 L 460.78 812.43 L 458.84 811.77 L 456.96 811.02 L 455.14 810.2 L 453.38 809.29 L 451.68 808.3 L 450.05 807.24 L 448.48 806.11 L 446.98 804.89 L 445.56 803.61 L 444.2 802.25 L 442.92 800.83 L 441.72 799.33 L 440.59 797.77 L 439.54 796.15 L 438.57 794.46 L 437.68 792.71 L 436.87 790.91" fill="none"
          stroke="#718677" stroke-width="3.15" opacity="0.9"/>
</svg>
