<svg xmlns="http://www.w3.org/2000/svg" viewBox="0 0 960 540" role="img" aria-label="A full-rank linear map sends a wireframe sphere to an ellipsoid.">
<rect width="960" height="540" fill="#fbfaf6"/>
<rect x="0.5" y="0.5" width="959" height="539" fill="none" stroke="#d8d2c5" stroke-width="1"/>
<path d="M 104 386 C 250 348, 410 348, 548 380 S 820 411, 885 348" fill="none" stroke="#d8d2c5" stroke-width="1" opacity="0.55"/>
<path d="M 347.00 282.00 L 346.12 282.50 L 345.22 282.99 L 344.28 283.49 L 343.32 283.99 L 342.33 284.48 L 341.32 284.98 L 340.27 285.47 L 339.20 285.97 L 338.10 286.46 L 336.98 286.95 L 335.83 287.44 L 334.65 287.93 L 333.45 288.41 L 332.23 288.89 L 330.98 289.38 L 329.70 289.86 L 328.41 290.33 L 327.08 290.81 L 325.74 291.28 L 324.38 291.75 L 322.99 292.21 L 321.58 292.68 L 320.15 293.14 L 318.69 293.59 L 317.22 294.04 L 315.73 294.49 L 314.22 294.94 L 312.69 295.38 L 311.14 295.82 L 309.57 296.25 L 307.99 296.68 L 306.39 297.10 L 304.77 297.52 L 303.13 297.94 L 301.48 298.35 L 299.82 298.75 L 298.14 299.15 L 296.45 299.55 L 294.74 299.94 L 293.02 300.32 L 291.29 300.70 L 289.54 301.07 L 287.79 301.44 L 286.02 301.80 L 284.24 302.15 L 282.46 302.50 L 280.66 302.84 L 278.86 303.18 L 277.04 303.51 L 275.22 303.83 L 273.39 304.15 L 271.56 304.46 L 269.72 304.76 L 267.87 305.06 L 266.02 305.35 L 264.17 305.63 L 262.31 305.90 L 260.45 306.17 L 258.58 306.43 L 256.72 306.68 L 254.85 306.93 L 252.98 307.16 L 251.11 307.39 L 249.24 307.62 L 247.38 307.83 L 245.51 308.04 L 243.65 308.23 L 241.78 308.42 L 239.93 308.61 L 238.07 308.78 L 236.22 308.95 L 234.37 309.11 L 232.53 309.25 L 230.70 309.40 L 228.87 309.53 L 227.05 309.65 L 225.24 309.77 L 223.43 309.88 L 221.63 309.98 L 219.85 310.07 L 218.07 310.15 L 216.30 310.22 L 214.55 310.29 L 212.80 310.34 L 211.07 310.39 L 209.35 310.43 L 207.64 310.46 L 205.95 310.48 L 204.27 310.50 L 202.60 310.50 L 200.95 310.50 L 199.31 310.48 L 197.70 310.46 L 196.09 310.43 L 194.51 310.39 L 192.94 310.34 L 191.39 310.29 L 189.86 310.22 L 188.35 310.15 L 186.85 310.07 L 185.38 309.98 L 183.93 309.88 L 182.50 309.77 L 181.08 309.65 L 179.70 309.53 L 178.33 309.40 L 176.98 309.25 L 175.66 309.11 L 174.36 308.95 L 173.09 308.78 L 171.84 308.61 L 170.61 308.42 L 169.41 308.23 L 168.23 308.04 L 167.08 307.83 L 165.95 307.62 L 164.86 307.39 L 163.78 307.16 L 162.74 306.93 L 161.72 306.68 L 160.73 306.43 L 159.76 306.17 L 158.83 305.90 L 157.92 305.63 L 157.04 305.35 L 156.19 305.06 L 155.37 304.76 L 154.58 304.46 L 153.82 304.15 L 153.09 303.83 L 152.39 303.51 L 151.72 303.18 L 151.08 302.84 L 150.47 302.50 L 149.89 302.15 L 149.35 301.80 L 148.83 301.44 L 148.35 301.07 L 147.89 300.70 L 147.47 300.32 L 147.08 299.94 L 146.73 299.55 L 146.40 299.15 L 146.11 298.75 L 145.85 298.35 L 145.62 297.94 L 145.42 297.52 L 145.26 297.10 L 145.13 296.68 L 145.03 296.25 L 144.96 295.82 L 144.93 295.38 L 144.93 294.94 L 144.96 294.49 L 145.02 294.04 L 145.12 293.59 L 145.25 293.14 L 145.41 292.68 L 145.61 292.21 L 145.83 291.75 L 146.09 291.28 L 146.38 290.81 L 146.71 290.33 L 147.06 289.86 L 147.45 289.38 L 147.87 288.89 L 148.32 288.41 L 148.81 287.93 L 149.32 287.44 L 149.87 286.95" fill="none" stroke="#bfc6c4" stroke-width="1.25" opacity="0.35" stroke-linecap="round" stroke-linejoin="round"/>
<path d="M 150.44 286.46 L 151.05 285.97 L 151.69 285.47 L 152.36 284.98 L 153.06 284.48 L 153.79 283.99 L 154.54 283.49 L 155.33 282.99 L 156.15 282.50 L 157.00 282.00 L 157.88 281.50 L 158.78 281.01 L 159.72 280.51 L 160.68 280.01 L 161.67 279.52 L 162.68 279.02 L 163.73 278.53 L 164.80 278.03 L 165.90 277.54 L 167.02 277.05 L 168.17 276.56 L 169.35 276.07 L 170.55 275.59 L 171.77 275.11 L 173.02 274.62 L 174.30 274.14 L 175.59 273.67 L 176.92 273.19 L 178.26 272.72 L 179.62 272.25 L 181.01 271.79 L 182.42 271.32 L 183.85 270.86 L 185.31 270.41 L 186.78 269.96 L 188.27 269.51 L 189.78 269.06 L 191.31 268.62 L 192.86 268.18 L 194.43 267.75 L 196.01 267.32 L 197.61 266.90 L 199.23 266.48 L 200.87 266.06 L 202.52 265.65 L 204.18 265.25 L 205.86 264.85 L 207.55 264.45 L 209.26 264.06 L 210.98 263.68 L 212.71 263.30 L 214.46 262.93 L 216.21 262.56 L 217.98 262.20 L 219.76 261.85 L 221.54 261.50 L 223.34 261.16 L 225.14 260.82 L 226.96 260.49 L 228.78 260.17 L 230.61 259.85 L 232.44 259.54 L 234.28 259.24 L 236.13 258.94 L 237.98 258.65 L 239.83 258.37 L 241.69 258.10 L 243.55 257.83 L 245.42 257.57 L 247.28 257.32 L 249.15 257.07 L 251.02 256.84 L 252.89 256.61 L 254.76 256.38 L 256.62 256.17 L 258.49 255.96 L 260.35 255.77 L 262.22 255.58 L 264.07 255.39 L 265.93 255.22 L 267.78 255.05 L 269.63 254.89 L 271.47 254.75 L 273.30 254.60 L 275.13 254.47 L 276.95 254.35 L 278.76 254.23 L 280.57 254.12 L 282.37 254.02 L 284.15 253.93 L 285.93 253.85 L 287.70 253.78 L 289.45 253.71 L 291.20 253.66 L 292.93 253.61 L 294.65 253.57 L 296.36 253.54 L 298.05 253.52 L 299.73 253.50 L 301.40 253.50 L 303.05 253.50 L 304.69 253.52 L 306.30 253.54 L 307.91 253.57 L 309.49 253.61 L 311.06 253.66 L 312.61 253.71 L 314.14 253.78 L 315.65 253.85 L 317.15 253.93 L 318.62 254.02 L 320.07 254.12 L 321.50 254.23 L 322.92 254.35 L 324.30 254.47 L 325.67 254.60 L 327.02 254.75 L 328.34 254.89 L 329.64 255.05 L 330.91 255.22 L 332.16 255.39 L 333.39 255.58 L 334.59 255.77 L 335.77 255.96 L 336.92 256.17 L 338.05 256.38 L 339.14 256.61 L 340.22 256.84 L 341.26 257.07 L 342.28 257.32 L 343.27 257.57 L 344.24 257.83 L 345.17 258.10 L 346.08 258.37 L 346.96 258.65 L 347.81 258.94 L 348.63 259.24 L 349.42 259.54 L 350.18 259.85 L 350.91 260.17 L 351.61 260.49 L 352.28 260.82 L 352.92 261.16 L 353.53 261.50 L 354.11 261.85 L 354.65 262.20 L 355.17 262.56 L 355.65 262.93 L 356.11 263.30 L 356.53 263.68 L 356.92 264.06 L 357.27 264.45 L 357.60 264.85 L 357.89 265.25 L 358.15 265.65 L 358.38 266.06 L 358.58 266.48 L 358.74 266.90 L 358.87 267.32 L 358.97 267.75 L 359.04 268.18 L 359.07 268.62 L 359.07 269.06 L 359.04 269.51 L 358.98 269.96 L 358.88 270.41 L 358.75 270.86 L 358.59 271.32 L 358.39 271.79 L 358.17 272.25 L 357.91 272.72 L 357.62 273.19 L 357.29 273.67 L 356.94 274.14 L 356.55 274.62 L 356.13 275.11 L 355.68 275.59 L 355.19 276.07 L 354.68 276.56 L 354.13 277.05 L 353.56 277.54 L 352.95 278.03" fill="none" stroke="#496d8a" stroke-width="2.25" opacity="0.92" stroke-linecap="round" stroke-linejoin="round"/>
<path d="M 352.31 278.53 L 351.64 279.02 L 350.94 279.52 L 350.21 280.01 L 349.46 280.51 L 348.67 281.01 L 347.85 281.50 L 347.00 282.00" fill="none" stroke="#bfc6c4" stroke-width="1.25" opacity="0.35" stroke-linecap="round" stroke-linejoin="round"/>
<path d="M 347.00 282.00 L 346.99 280.34 L 346.94 278.68 L 346.87 277.03 L 346.77 275.37 L 346.64 273.72 L 346.48 272.07 L 346.29 270.42 L 346.08 268.78 L 345.83 267.14 L 345.56 265.50 L 345.25 263.87 L 344.92 262.25 L 344.57 260.63 L 344.18 259.02 L 343.76 257.41 L 343.32 255.81 L 342.85 254.22 L 342.35 252.64 L 341.82 251.07 L 341.27 249.51 L 340.69 247.96 L 340.08 246.41 L 339.45 244.88 L 338.79 243.36 L 338.10 241.85 L 337.39 240.35 L 336.65 238.87 L 335.88 237.40 L 335.09 235.94 L 334.27 234.50 L 333.43 233.07 L 332.56 231.66 L 331.67 230.26 L 330.76 228.88 L 329.82 227.51 L 328.86 226.16 L 327.87 224.83 L 326.86 223.51 L 325.83 222.21 L 324.77 220.94 L 323.70 219.67 L 322.60 218.43 L 321.48 217.21 L 320.34 216.01 L 319.18 214.82 L 317.99 213.66 L 316.79 212.52 L 315.57 211.40 L 314.33 210.30" fill="none" stroke="#bfc6c4" stroke-width="1.25" opacity="0.35" stroke-linecap="round" stroke-linejoin="round"/>
<path d="M 313.06 209.23 L 311.79 208.17 L 310.49 207.14 L 309.17 206.13 L 307.84 205.14 L 306.49 204.18 L 305.12 203.24 L 303.74 202.33 L 302.34 201.44 L 300.93 200.57 L 299.50 199.73 L 298.06 198.91 L 296.60 198.12 L 295.13 197.35 L 293.65 196.61 L 292.15 195.90 L 290.64 195.21 L 289.12 194.55 L 287.59 193.92 L 286.04 193.31 L 284.49 192.73 L 282.93 192.18 L 281.36 191.65 L 279.78 191.15 L 278.19 190.68 L 276.59 190.24 L 274.98 189.82 L 273.37 189.43 L 271.75 189.08 L 270.13 188.75 L 268.50 188.44 L 266.86 188.17 L 265.22 187.92 L 263.58 187.71 L 261.93 187.52 L 260.28 187.36 L 258.63 187.23 L 256.97 187.13 L 255.32 187.06 L 253.66 187.01 L 252.00 187.00 L 250.34 187.01 L 248.68 187.06 L 247.03 187.13 L 245.37 187.23 L 243.72 187.36 L 242.07 187.52 L 240.42 187.71 L 238.78 187.92 L 237.14 188.17 L 235.50 188.44 L 233.87 188.75 L 232.25 189.08 L 230.63 189.43 L 229.02 189.82 L 227.41 190.24 L 225.81 190.68 L 224.22 191.15 L 222.64 191.65 L 221.07 192.18 L 219.51 192.73 L 217.96 193.31 L 216.41 193.92 L 214.88 194.55 L 213.36 195.21 L 211.85 195.90 L 210.35 196.61 L 208.87 197.35 L 207.40 198.12 L 205.94 198.91 L 204.50 199.73 L 203.07 200.57 L 201.66 201.44 L 200.26 202.33 L 198.88 203.24 L 197.51 204.18 L 196.16 205.14 L 194.83 206.13 L 193.51 207.14 L 192.21 208.17 L 190.94 209.23 L 189.67 210.30 L 188.43 211.40 L 187.21 212.52 L 186.01 213.66 L 184.82 214.82 L 183.66 216.01 L 182.52 217.21 L 181.40 218.43 L 180.30 219.67 L 179.23 220.94 L 178.17 222.21 L 177.14 223.51 L 176.13 224.83 L 175.14 226.16 L 174.18 227.51 L 173.24 228.88 L 172.33 230.26 L 171.44 231.66 L 170.57 233.07 L 169.73 234.50 L 168.91 235.94 L 168.12 237.40 L 167.35 238.87 L 166.61 240.35 L 165.90 241.85 L 165.21 243.36 L 164.55 244.88 L 163.92 246.41 L 163.31 247.96 L 162.73 249.51 L 162.18 251.07 L 161.65 252.64 L 161.15 254.22 L 160.68 255.81 L 160.24 257.41 L 159.82 259.02 L 159.43 260.63 L 159.08 262.25 L 158.75 263.87 L 158.44 265.50 L 158.17 267.14 L 157.92 268.78 L 157.71 270.42 L 157.52 272.07 L 157.36 273.72 L 157.23 275.37 L 157.13 277.03 L 157.06 278.68 L 157.01 280.34 L 157.00 282.00 L 157.01 283.66 L 157.06 285.32 L 157.13 286.97 L 157.23 288.63 L 157.36 290.28 L 157.52 291.93 L 157.71 293.58 L 157.92 295.22 L 158.17 296.86 L 158.44 298.50 L 158.75 300.13 L 159.08 301.75 L 159.43 303.37 L 159.82 304.98 L 160.24 306.59 L 160.68 308.19 L 161.15 309.78 L 161.65 311.36 L 162.18 312.93 L 162.73 314.49 L 163.31 316.04 L 163.92 317.59 L 164.55 319.12 L 165.21 320.64 L 165.90 322.15 L 166.61 323.65 L 167.35 325.13 L 168.12 326.60 L 168.91 328.06 L 169.73 329.50 L 170.57 330.93 L 171.44 332.34 L 172.33 333.74 L 173.24 335.12 L 174.18 336.49 L 175.14 337.84 L 176.13 339.17 L 177.14 340.49 L 178.17 341.79 L 179.23 343.06 L 180.30 344.33 L 181.40 345.57 L 182.52 346.79 L 183.66 347.99 L 184.82 349.18 L 186.01 350.34 L 187.21 351.48 L 188.43 352.60 L 189.67 353.70 L 190.94 354.77 L 192.21 355.83 L 193.51 356.86 L 194.83 357.87 L 196.16 358.86 L 197.51 359.82 L 198.88 360.76 L 200.26 361.67 L 201.66 362.56 L 203.07 363.43 L 204.50 364.27 L 205.94 365.09 L 207.40 365.88" fill="none" stroke="#2f3739" stroke-width="2.25" opacity="0.92" stroke-linecap="round" stroke-linejoin="round"/>
<path d="M 208.87 366.65 L 210.35 367.39 L 211.85 368.10 L 213.36 368.79 L 214.88 369.45 L 216.41 370.08 L 217.96 370.69 L 219.51 371.27 L 221.07 371.82 L 222.64 372.35 L 224.22 372.85 L 225.81 373.32 L 227.41 373.76 L 229.02 374.18 L 230.63 374.57 L 232.25 374.92 L 233.87 375.25 L 235.50 375.56 L 237.14 375.83 L 238.78 376.08 L 240.42 376.29 L 242.07 376.48 L 243.72 376.64 L 245.37 376.77 L 247.03 376.87 L 248.68 376.94 L 250.34 376.99 L 252.00 377.00 L 253.66 376.99 L 255.32 376.94 L 256.97 376.87 L 258.63 376.77 L 260.28 376.64 L 261.93 376.48 L 263.58 376.29 L 265.22 376.08 L 266.86 375.83 L 268.50 375.56 L 270.13 375.25 L 271.75 374.92 L 273.37 374.57 L 274.98 374.18 L 276.59 373.76 L 278.19 373.32 L 279.78 372.85 L 281.36 372.35 L 282.93 371.82 L 284.49 371.27 L 286.04 370.69 L 287.59 370.08 L 289.12 369.45 L 290.64 368.79 L 292.15 368.10 L 293.65 367.39 L 295.13 366.65 L 296.60 365.88 L 298.06 365.09 L 299.50 364.27 L 300.93 363.43 L 302.34 362.56 L 303.74 361.67 L 305.12 360.76 L 306.49 359.82 L 307.84 358.86 L 309.17 357.87 L 310.49 356.86 L 311.79 355.83 L 313.06 354.77 L 314.33 353.70 L 315.57 352.60 L 316.79 351.48 L 317.99 350.34 L 319.18 349.18 L 320.34 347.99 L 321.48 346.79 L 322.60 345.57 L 323.70 344.33 L 324.77 343.06 L 325.83 341.79 L 326.86 340.49 L 327.87 339.17 L 328.86 337.84 L 329.82 336.49 L 330.76 335.12 L 331.67 333.74 L 332.56 332.34 L 333.43 330.93 L 334.27 329.50 L 335.09 328.06 L 335.88 326.60 L 336.65 325.13 L 337.39 323.65 L 338.10 322.15 L 338.79 320.64 L 339.45 319.12 L 340.08 317.59 L 340.69 316.04 L 341.27 314.49 L 341.82 312.93 L 342.35 311.36 L 342.85 309.78 L 343.32 308.19 L 343.76 306.59 L 344.18 304.98 L 344.57 303.37 L 344.92 301.75 L 345.25 300.13 L 345.56 298.50 L 345.83 296.86 L 346.08 295.22 L 346.29 293.58 L 346.48 291.93 L 346.64 290.28 L 346.77 288.63 L 346.87 286.97 L 346.94 285.32 L 346.99 283.66 L 347.00 282.00" fill="none" stroke="#bfc6c4" stroke-width="1.25" opacity="0.35" stroke-linecap="round" stroke-linejoin="round"/>
<path d="M 202.60 310.50 L 202.61 308.84 L 202.63 307.17 L 202.67 305.49 L 202.72 303.80 L 202.79 302.11 L 202.87 300.41 L 202.97 298.71 L 203.08 297.00 L 203.21 295.29 L 203.35 293.57 L 203.51 291.85 L 203.68 290.13 L 203.87 288.40 L 204.07 286.67 L 204.28 284.94 L 204.51 283.21 L 204.76 281.48 L 205.02 279.75 L 205.29 278.02 L 205.58 276.29 L 205.88 274.56 L 206.20 272.84 L 206.53 271.11 L 206.87 269.40 L 207.23 267.68 L 207.60 265.97 L 207.98 264.26 L 208.38 262.56 L 208.79 260.87 L 209.22 259.18 L 209.66 257.50 L 210.11 255.83 L 210.57 254.16 L 211.05 252.50 L 211.53 250.86 L 212.03 249.22 L 212.55 247.59 L 213.07 245.97 L 213.61 244.36 L 214.16 242.77 L 214.72 241.18 L 215.29 239.61 L 215.87 238.05 L 216.46 236.51 L 217.07 234.98 L 217.68 233.46 L 218.31 231.96 L 218.94 230.47 L 219.59 229.00 L 220.25 227.55 L 220.91 226.11 L 221.59 224.69 L 222.27 223.28 L 222.96 221.90 L 223.67 220.53 L 224.38 219.18 L 225.09 217.85 L 225.82 216.54 L 226.56 215.25 L 227.30 213.98 L 228.05 212.73 L 228.81 211.50 L 229.57 210.29 L 230.34 209.11 L 231.12 207.95 L 231.91 206.81 L 232.70 205.69 L 233.49 204.59 L 234.30 203.52 L 235.10 202.48 L 235.92 201.45 L 236.73 200.46 L 237.56 199.48 L 238.38 198.54 L 239.21 197.61 L 240.05 196.72 L 240.89 195.85 L 241.73 195.00 L 242.57 194.18 L 243.42 193.39 L 244.27 192.63 L 245.12 191.89 L 245.98 191.18" fill="none" stroke="#bfc6c4" stroke-width="1.25" opacity="0.35" stroke-linecap="round" stroke-linejoin="round"/>
<path d="M 246.84 190.50 L 247.69 189.85 L 248.55 189.22 L 249.41 188.62 L 250.28 188.05 L 251.14 187.51 L 252.00 187.00 L 252.86 186.52 L 253.72 186.06 L 254.59 185.64 L 255.45 185.24 L 256.31 184.88 L 257.16 184.54 L 258.02 184.23 L 258.88 183.96 L 259.73 183.71 L 260.58 183.49 L 261.43 183.31 L 262.27 183.15 L 263.11 183.02 L 263.95 182.93 L 264.79 182.86 L 265.62 182.82 L 266.44 182.82 L 267.27 182.84 L 268.08 182.90 L 268.90 182.98 L 269.70 183.10 L 270.51 183.24 L 271.30 183.42 L 272.09 183.62 L 272.88 183.86 L 273.66 184.12 L 274.43 184.42 L 275.19 184.74 L 275.95 185.09 L 276.70 185.48 L 277.44 185.89 L 278.18 186.33 L 278.91 186.80 L 279.62 187.30 L 280.33 187.83 L 281.04 188.39 L 281.73 188.98 L 282.41 189.59 L 283.09 190.24 L 283.75 190.91 L 284.41 191.60 L 285.06 192.33 L 285.69 193.08 L 286.32 193.86 L 286.93 194.67 L 287.54 195.51 L 288.13 196.37 L 288.71 197.25 L 289.28 198.17 L 289.84 199.10 L 290.39 200.07 L 290.93 201.05 L 291.45 202.07 L 291.97 203.10 L 292.47 204.16 L 292.95 205.25 L 293.43 206.36 L 293.89 207.49 L 294.34 208.64 L 294.78 209.82 L 295.21 211.02 L 295.62 212.24 L 296.02 213.48 L 296.40 214.74 L 296.77 216.02 L 297.13 217.32 L 297.47 218.65 L 297.80 219.99 L 298.12 221.35 L 298.42 222.73 L 298.71 224.12 L 298.98 225.54 L 299.24 226.97 L 299.49 228.42 L 299.72 229.88 L 299.93 231.36 L 300.13 232.86 L 300.32 234.37 L 300.49 235.90 L 300.65 237.44 L 300.79 238.99 L 300.92 240.56 L 301.03 242.13 L 301.13 243.73 L 301.21 245.33 L 301.28 246.94 L 301.33 248.57 L 301.37 250.20 L 301.39 251.85 L 301.40 253.50 L 301.39 255.16 L 301.37 256.83 L 301.33 258.51 L 301.28 260.20 L 301.21 261.89 L 301.13 263.59 L 301.03 265.29 L 300.92 267.00 L 300.79 268.71 L 300.65 270.43 L 300.49 272.15 L 300.32 273.87 L 300.13 275.60 L 299.93 277.33 L 299.72 279.06 L 299.49 280.79 L 299.24 282.52 L 298.98 284.25 L 298.71 285.98 L 298.42 287.71 L 298.12 289.44 L 297.80 291.16 L 297.47 292.89 L 297.13 294.60 L 296.77 296.32 L 296.40 298.03 L 296.02 299.74 L 295.62 301.44 L 295.21 303.13 L 294.78 304.82 L 294.34 306.50 L 293.89 308.17 L 293.43 309.84 L 292.95 311.50 L 292.47 313.14 L 291.97 314.78 L 291.45 316.41 L 290.93 318.03 L 290.39 319.64 L 289.84 321.23 L 289.28 322.82 L 288.71 324.39 L 288.13 325.95 L 287.54 327.49 L 286.93 329.02 L 286.32 330.54 L 285.69 332.04 L 285.06 333.53 L 284.41 335.00 L 283.75 336.45 L 283.09 337.89 L 282.41 339.31 L 281.73 340.72 L 281.04 342.10 L 280.33 343.47 L 279.62 344.82 L 278.91 346.15 L 278.18 347.46 L 277.44 348.75 L 276.70 350.02 L 275.95 351.27 L 275.19 352.50 L 274.43 353.71 L 273.66 354.89 L 272.88 356.05 L 272.09 357.19 L 271.30 358.31 L 270.51 359.41 L 269.70 360.48 L 268.90 361.52 L 268.08 362.55 L 267.27 363.54 L 266.44 364.52 L 265.62 365.46 L 264.79 366.39 L 263.95 367.28 L 263.11 368.15 L 262.27 369.00 L 261.43 369.82 L 260.58 370.61 L 259.73 371.37 L 258.88 372.11 L 258.02 372.82 L 257.16 373.50 L 256.31 374.15" fill="none" stroke="#8f918a" stroke-width="2.25" opacity="0.92" stroke-linecap="round" stroke-linejoin="round"/>
<path d="M 255.45 374.78 L 254.59 375.38 L 253.72 375.95 L 252.86 376.49 L 252.00 377.00 L 251.14 377.48 L 250.28 377.94 L 249.41 378.36 L 248.55 378.76 L 247.69 379.12 L 246.84 379.46 L 245.98 379.77 L 245.12 380.04 L 244.27 380.29 L 243.42 380.51 L 242.57 380.69 L 241.73 380.85 L 240.89 380.98 L 240.05 381.07 L 239.21 381.14 L 238.38 381.18 L 237.56 381.18 L 236.73 381.16 L 235.92 381.10 L 235.10 381.02 L 234.30 380.90 L 233.49 380.76 L 232.70 380.58 L 231.91 380.38 L 231.12 380.14 L 230.34 379.88 L 229.57 379.58 L 228.81 379.26 L 228.05 378.91 L 227.30 378.52 L 226.56 378.11 L 225.82 377.67 L 225.09 377.20 L 224.38 376.70 L 223.67 376.17 L 222.96 375.61 L 222.27 375.02 L 221.59 374.41 L 220.91 373.76 L 220.25 373.09 L 219.59 372.40 L 218.94 371.67 L 218.31 370.92 L 217.68 370.14 L 217.07 369.33 L 216.46 368.49 L 215.87 367.63 L 215.29 366.75 L 214.72 365.83 L 214.16 364.90 L 213.61 363.93 L 213.07 362.95 L 212.55 361.93 L 212.03 360.90 L 211.53 359.84 L 211.05 358.75 L 210.57 357.64 L 210.11 356.51 L 209.66 355.36 L 209.22 354.18 L 208.79 352.98 L 208.38 351.76 L 207.98 350.52 L 207.60 349.26 L 207.23 347.98 L 206.87 346.68 L 206.53 345.35 L 206.20 344.01 L 205.88 342.65 L 205.58 341.27 L 205.29 339.88 L 205.02 338.46 L 204.76 337.03 L 204.51 335.58 L 204.28 334.12 L 204.07 332.64 L 203.87 331.14 L 203.68 329.63 L 203.51 328.10 L 203.35 326.56 L 203.21 325.01 L 203.08 323.44 L 202.97 321.87 L 202.87 320.27 L 202.79 318.67 L 202.72 317.06 L 202.67 315.43 L 202.63 313.80 L 202.61 312.15 L 202.60 310.50" fill="none" stroke="#bfc6c4" stroke-width="1.25" opacity="0.35" stroke-linecap="round" stroke-linejoin="round"/>
<path d="M 836.72 275.87 L 836.61 276.58 L 836.46 277.28 L 836.26 277.99 L 836.03 278.70 L 835.75 279.41 L 835.44 280.11 L 835.09 280.82 L 834.69 281.53 L 834.26 282.23 L 833.79 282.93 L 833.28 283.64 L 832.73 284.34 L 832.14 285.03 L 831.51 285.73 L 830.84 286.42 L 830.14 287.12 L 829.40 287.80 L 828.62 288.49 L 827.80 289.17 L 826.94 289.85 L 826.05 290.53 L 825.12 291.20 L 824.15 291.87 L 823.15 292.53 L 822.11 293.19 L 821.04 293.84 L 819.93 294.49 L 818.78 295.13 L 817.60 295.77 L 816.39 296.41 L 815.14 297.04 L 813.86 297.66 L 812.54 298.27 L 811.20 298.88 L 809.82 299.49 L 808.41 300.09 L 806.96 300.68 L 805.49 301.26 L 803.98 301.84 L 802.45 302.40 L 800.88 302.97 L 799.29 303.52 L 797.67 304.07 L 796.02 304.61 L 794.34 305.14 L 792.63 305.66 L 790.90 306.17 L 789.14 306.68 L 787.36 307.17 L 785.55 307.66 L 783.72 308.14 L 781.86 308.61 L 779.98 309.07 L 778.07 309.52 L 776.15 309.96 L 774.20 310.39 L 772.23 310.81 L 770.24 311.22 L 768.23 311.62 L 766.20 312.01 L 764.16 312.40 L 762.09 312.77 L 760.01 313.12 L 757.91 313.47 L 755.79 313.81 L 753.66 314.14 L 751.52 314.45 L 749.36 314.76 L 747.18 315.05 L 745.00 315.34 L 742.80 315.61 L 740.59 315.87 L 738.37 316.11 L 736.14 316.35 L 733.90 316.58 L 731.65 316.79 L 729.39 316.99 L 727.13 317.18 L 724.85 317.36 L 722.58 317.52 L 720.29 317.68 L 718.01 317.82 L 715.71 317.95 L 713.42 318.06 L 711.12 318.17 L 708.82 318.26 L 706.52 318.34 L 704.22 318.41 L 701.92 318.46 L 699.62 318.51 L 697.32 318.54 L 695.03 318.56 L 692.73 318.56 L 690.45 318.56 L 688.16 318.54 L 685.88 318.51 L 683.61 318.47 L 681.34 318.41 L 679.08 318.34 L 676.83 318.26 L 674.59 318.17 L 672.35 318.07 L 670.13 317.95 L 667.91 317.82 L 665.71 317.68 L 663.52 317.53 L 661.34 317.36 L 659.18 317.18 L 657.03 317.00 L 654.89 316.79 L 652.77 316.58 L 650.67 316.36 L 648.58 316.12 L 646.51 315.87 L 644.46 315.61 L 642.42 315.34 L 640.41 315.06 L 638.41 314.77 L 636.43 314.46 L 634.48 314.15 L 632.55 313.82 L 630.63 313.48 L 628.75 313.13 L 626.88 312.77 L 625.04 312.41 L 623.22 312.02 L 621.43 311.63 L 619.66 311.23 L 617.92 310.82 L 616.21 310.40 L 614.52 309.97 L 612.86 309.53 L 611.23 309.08 L 609.63 308.62 L 608.05 308.15 L 606.51 307.67 L 604.99 307.19 L 603.51 306.69 L 602.06 306.18 L 600.64 305.67 L 599.25 305.15 L 597.89 304.62 L 596.56 304.08 L 595.27 303.53 L 594.01 302.98 L 592.79 302.42 L 591.60 301.85 L 590.44 301.27 L 589.32 300.69 L 588.23 300.10 L 587.18 299.50 L 586.17 298.90" fill="none" stroke="#bfc6c4" stroke-width="1.25" opacity="0.35" stroke-linecap="round" stroke-linejoin="round"/>
<path d="M 585.19 298.29 L 584.25 297.67 L 583.34 297.05 L 582.48 296.42 L 581.64 295.79 L 580.85 295.15 L 580.10 294.51 L 579.38 293.86 L 578.70 293.20 L 578.06 292.55 L 577.46 291.88 L 576.90 291.21 L 576.37 290.54 L 575.89 289.87 L 575.44 289.19 L 575.04 288.51 L 574.67 287.82 L 574.34 287.13 L 574.06 286.44 L 573.81 285.75 L 573.60 285.05 L 573.43 284.35 L 573.31 283.65 L 573.22 282.95 L 573.17 282.25 L 573.17 281.54 L 573.20 280.84 L 573.28 280.13 L 573.39 279.42 L 573.54 278.72 L 573.74 278.01 L 573.97 277.30 L 574.25 276.59 L 574.56 275.89 L 574.91 275.18 L 575.31 274.47 L 575.74 273.77 L 576.21 273.07 L 576.72 272.36 L 577.27 271.66 L 577.86 270.97 L 578.49 270.27 L 579.16 269.58 L 579.86 268.88 L 580.60 268.20 L 581.38 267.51 L 582.20 266.83 L 583.06 266.15 L 583.95 265.47 L 584.88 264.80 L 585.85 264.13 L 586.85 263.47 L 587.89 262.81 L 588.96 262.16 L 590.07 261.51 L 591.22 260.87 L 592.40 260.23 L 593.61 259.59 L 594.86 258.96 L 596.14 258.34 L 597.46 257.73 L 598.80 257.12 L 600.18 256.51 L 601.59 255.91 L 603.04 255.32 L 604.51 254.74 L 606.02 254.16 L 607.55 253.60 L 609.12 253.03 L 610.71 252.48 L 612.33 251.93 L 613.98 251.39 L 615.66 250.86 L 617.37 250.34 L 619.10 249.83 L 620.86 249.32 L 622.64 248.83 L 624.45 248.34 L 626.28 247.86 L 628.14 247.39 L 630.02 246.93 L 631.93 246.48 L 633.85 246.04 L 635.80 245.61 L 637.77 245.19 L 639.76 244.78 L 641.77 244.38 L 643.80 243.99 L 645.84 243.60 L 647.91 243.23 L 649.99 242.88 L 652.09 242.53 L 654.21 242.19 L 656.34 241.86 L 658.48 241.55 L 660.64 241.24 L 662.82 240.95 L 665.00 240.66 L 667.20 240.39 L 669.41 240.13 L 671.63 239.89 L 673.86 239.65 L 676.10 239.42 L 678.35 239.21 L 680.61 239.01 L 682.87 238.82 L 685.15 238.64 L 687.42 238.48 L 689.71 238.32 L 691.99 238.18 L 694.29 238.05 L 696.58 237.94 L 698.88 237.83 L 701.18 237.74 L 703.48 237.66 L 705.78 237.59 L 708.08 237.54 L 710.38 237.49 L 712.68 237.46 L 714.97 237.44 L 717.27 237.44 L 719.55 237.44 L 721.84 237.46 L 724.12 237.49 L 726.39 237.53 L 728.66 237.59 L 730.92 237.66 L 733.17 237.74 L 735.41 237.83 L 737.65 237.93 L 739.87 238.05 L 742.09 238.18 L 744.29 238.32 L 746.48 238.47 L 748.66 238.64 L 750.82 238.82 L 752.97 239.00 L 755.11 239.21 L 757.23 239.42 L 759.33 239.64 L 761.42 239.88 L 763.49 240.13 L 765.54 240.39 L 767.58 240.66 L 769.59 240.94 L 771.59 241.23 L 773.57 241.54 L 775.52 241.85 L 777.45 242.18 L 779.37 242.52 L 781.25 242.87 L 783.12 243.23 L 784.96 243.59 L 786.78 243.98 L 788.57 244.37 L 790.34 244.77 L 792.08 245.18 L 793.79 245.60 L 795.48 246.03 L 797.14 246.47 L 798.77 246.92 L 800.37 247.38 L 801.95 247.85 L 803.49 248.33 L 805.01 248.81 L 806.49 249.31 L 807.94 249.82 L 809.36 250.33 L 810.75 250.85 L 812.11 251.38 L 813.44 251.92 L 814.73 252.47 L 815.99 253.02 L 817.21 253.58 L 818.40 254.15 L 819.56 254.73 L 820.68 255.31 L 821.77 255.90 L 822.82 256.50 L 823.83 257.10 L 824.81 257.71 L 825.75 258.33" fill="none" stroke="#496d8a" stroke-width="2.35" opacity="0.92" stroke-linecap="round" stroke-linejoin="round"/>
<path d="M 826.66 258.95 L 827.52 259.58 L 828.36 260.21 L 829.15 260.85 L 829.90 261.49 L 830.62 262.14 L 831.30 262.80 L 831.94 263.45 L 832.54 264.12 L 833.10 264.79 L 833.63 265.46 L 834.11 266.13 L 834.56 266.81 L 834.96 267.49 L 835.33 268.18 L 835.66 268.87 L 835.94 269.56 L 836.19 270.25 L 836.40 270.95 L 836.57 271.65 L 836.69 272.35 L 836.78 273.05 L 836.83 273.75 L 836.83 274.46 L 836.80 275.16 L 836.72 275.87" fill="none" stroke="#bfc6c4" stroke-width="1.25" opacity="0.35" stroke-linecap="round" stroke-linejoin="round"/>
<path d="M 836.72 275.87 L 836.34 274.42 L 835.91 272.98 L 835.45 271.54 L 834.94 270.10 L 834.39 268.66 L 833.81 267.22 L 833.18 265.79 L 832.52 264.36 L 831.82 262.94 L 831.08 261.52 L 830.30 260.10 L 829.48 258.70 L 828.63 257.29 L 827.73 255.90 L 826.80 254.51 L 825.84 253.12 L 824.83 251.75 L 823.79 250.38 L 822.71 249.02 L 821.60 247.67 L 820.45 246.33 L 819.27 245.00 L 818.05 243.68 L 816.80 242.37 L 815.51 241.07 L 814.19 239.78 L 812.84 238.50 L 811.45 237.24 L 810.03 235.98 L 808.58 234.74 L 807.10 233.52 L 805.58 232.30 L 804.04 231.10 L 802.47 229.92 L 800.86 228.75 L 799.23 227.59 L 797.57 226.45 L 795.88 225.33 L 794.16 224.22 L 792.41 223.13 L 790.64 222.06 L 788.84 221.00 L 787.02 219.96 L 785.17 218.93 L 783.30 217.93 L 781.40 216.94 L 779.48 215.98 L 777.54 215.03 L 775.58 214.10 L 773.59 213.19 L 771.58 212.30 L 769.56 211.42 L 767.51 210.57 L 765.44 209.74 L 763.36 208.93 L 761.26 208.15 L 759.14 207.38 L 757.00 206.63 L 754.85 205.91 L 752.68 205.21 L 750.50 204.53 L 748.31 203.87 L 746.10 203.24 L 743.88 202.63 L 741.64 202.04 L 739.40 201.47 L 737.15 200.93 L 734.88 200.41 L 732.61 199.92 L 730.33 199.45 L 728.04 199.00 L 725.74 198.57 L 723.44 198.18 L 721.13 197.80 L 718.82 197.45 L 716.50 197.12 L 714.18 196.82 L 711.85 196.55 L 709.53 196.29 L 707.20 196.07 L 704.87 195.87 L 702.54 195.69 L 700.22 195.54 L 697.89 195.41 L 695.57 195.31 L 693.25 195.23 L 690.93 195.18 L 688.62 195.16 L 686.31 195.16 L 684.01 195.18 L 681.71 195.23 L 679.42 195.30 L 677.14 195.41 L 674.87 195.53 L 672.61 195.68 L 670.35 195.86 L 668.11 196.06 L 665.88 196.28 L 663.66 196.53 L 661.45 196.81 L 659.26 197.11 L 657.08 197.43 L 654.91 197.78 L 652.76 198.16 L 650.63 198.55 L 648.51 198.98 L 646.41 199.42 L 644.33 199.89 L 642.27 200.39" fill="none" stroke="#bfc6c4" stroke-width="1.25" opacity="0.35" stroke-linecap="round" stroke-linejoin="round"/>
<path d="M 640.22 200.90 L 638.20 201.44 L 636.19 202.01 L 634.21 202.60 L 632.25 203.21 L 630.31 203.84 L 628.39 204.50 L 626.49 205.17 L 624.62 205.88 L 622.78 206.60 L 620.96 207.34 L 619.16 208.11 L 617.39 208.89 L 615.65 209.70 L 613.94 210.53 L 612.25 211.38 L 610.59 212.25 L 608.96 213.14 L 607.36 214.05 L 605.79 214.98 L 604.25 215.93 L 602.74 216.89 L 601.26 217.88 L 599.81 218.88 L 598.40 219.91 L 597.01 220.94 L 595.66 222.00 L 594.35 223.08 L 593.06 224.17 L 591.81 225.27 L 590.60 226.40 L 589.42 227.54 L 588.28 228.69 L 587.17 229.86 L 586.09 231.04 L 585.06 232.24 L 584.06 233.46 L 583.09 234.68 L 582.17 235.92 L 581.28 237.17 L 580.43 238.44 L 579.61 239.71 L 578.84 241.00 L 578.10 242.30 L 577.40 243.61 L 576.75 244.93 L 576.13 246.26 L 575.54 247.60 L 575.00 248.95 L 574.50 250.31 L 574.04 251.68 L 573.62 253.05 L 573.24 254.43 L 572.89 255.82 L 572.59 257.22 L 572.33 258.62 L 572.11 260.03 L 571.93 261.45 L 571.79 262.87 L 571.69 264.29 L 571.63 265.72 L 571.61 267.15 L 571.64 268.58 L 571.70 270.02 L 571.80 271.46 L 571.95 272.91 L 572.13 274.35 L 572.36 275.79 L 572.62 277.24 L 572.93 278.69 L 573.28 280.13 L 573.66 281.58 L 574.09 283.02 L 574.55 284.46 L 575.06 285.90 L 575.61 287.34 L 576.19 288.78 L 576.82 290.21 L 577.48 291.64 L 578.18 293.06 L 578.92 294.48 L 579.70 295.90 L 580.52 297.30 L 581.37 298.71 L 582.27 300.10 L 583.20 301.49 L 584.16 302.88 L 585.17 304.25 L 586.21 305.62 L 587.29 306.98 L 588.40 308.33 L 589.55 309.67 L 590.73 311.00 L 591.95 312.32 L 593.20 313.63 L 594.49 314.93 L 595.81 316.22 L 597.16 317.50 L 598.55 318.76 L 599.97 320.02 L 601.42 321.26 L 602.90 322.48 L 604.42 323.70 L 605.96 324.90 L 607.53 326.08 L 609.14 327.25 L 610.77 328.41 L 612.43 329.55 L 614.12 330.67 L 615.84 331.78 L 617.59 332.87 L 619.36 333.94 L 621.16 335.00 L 622.98 336.04 L 624.83 337.07 L 626.70 338.07 L 628.60 339.06 L 630.52 340.02 L 632.46 340.97 L 634.42 341.90 L 636.41 342.81 L 638.42 343.70 L 640.44 344.58 L 642.49 345.43 L 644.56 346.26 L 646.64 347.07 L 648.74 347.85 L 650.86 348.62 L 653.00 349.37 L 655.15 350.09 L 657.32 350.79 L 659.50 351.47 L 661.69 352.13 L 663.90 352.76 L 666.12 353.37 L 668.36 353.96 L 670.60 354.53 L 672.85 355.07 L 675.12 355.59 L 677.39 356.08 L 679.67 356.55 L 681.96 357.00 L 684.26 357.43 L 686.56 357.82 L 688.87 358.20 L 691.18 358.55 L 693.50 358.88 L 695.82 359.18 L 698.15 359.45 L 700.47 359.71 L 702.80 359.93 L 705.13 360.13 L 707.46 360.31 L 709.78 360.46 L 712.11 360.59 L 714.43 360.69 L 716.75 360.77 L 719.07 360.82 L 721.38 360.84 L 723.69 360.84 L 725.99 360.82 L 728.29 360.77 L 730.58 360.70 L 732.86 360.59 L 735.13 360.47 L 737.39 360.32 L 739.65 360.14 L 741.89 359.94 L 744.12 359.72 L 746.34 359.47 L 748.55 359.19 L 750.74 358.89 L 752.92 358.57 L 755.09 358.22 L 757.24 357.84 L 759.37 357.45 L 761.49 357.02 L 763.59 356.58 L 765.67 356.11 L 767.73 355.61 L 769.78 355.10 L 771.80 354.56 L 773.81 353.99 L 775.79 353.40 L 777.75 352.79" fill="none" stroke="#2f3739" stroke-width="2.35" opacity="0.92" stroke-linecap="round" stroke-linejoin="round"/>
<path d="M 779.69 352.16 L 781.61 351.50 L 783.51 350.83 L 785.38 350.12 L 787.22 349.40 L 789.04 348.66 L 790.84 347.89 L 792.61 347.11 L 794.35 346.30 L 796.06 345.47 L 797.75 344.62 L 799.41 343.75 L 801.04 342.86 L 802.64 341.95 L 804.21 341.02 L 805.75 340.07 L 807.26 339.11 L 808.74 338.12 L 810.19 337.12 L 811.60 336.09 L 812.99 335.06 L 814.34 334.00 L 815.65 332.92 L 816.94 331.83 L 818.19 330.73 L 819.40 329.60 L 820.58 328.46 L 821.72 327.31 L 822.83 326.14 L 823.91 324.96 L 824.94 323.76 L 825.94 322.54 L 826.91 321.32 L 827.83 320.08 L 828.72 318.83 L 829.57 317.56 L 830.39 316.29 L 831.16 315.00 L 831.90 313.70 L 832.60 312.39 L 833.25 311.07 L 833.87 309.74 L 834.46 308.40 L 835.00 307.05 L 835.50 305.69 L 835.96 304.32 L 836.38 302.95 L 836.76 301.57 L 837.11 300.18 L 837.41 298.78 L 837.67 297.38 L 837.89 295.97 L 838.07 294.55 L 838.21 293.13 L 838.31 291.71 L 838.37 290.28 L 838.39 288.85 L 838.36 287.42 L 838.30 285.98 L 838.20 284.54 L 838.05 283.09 L 837.87 281.65 L 837.64 280.21 L 837.38 278.76 L 837.07 277.31 L 836.72 275.87" fill="none" stroke="#bfc6c4" stroke-width="1.25" opacity="0.35" stroke-linecap="round" stroke-linejoin="round"/>
<path d="M 699.62 318.51 L 699.26 317.06 L 698.89 315.59 L 698.53 314.12 L 698.17 312.63 L 697.81 311.14 L 697.46 309.63 L 697.10 308.11 L 696.75 306.59 L 696.40 305.05 L 696.06 303.51 L 695.71 301.96 L 695.37 300.40 L 695.04 298.84 L 694.70 297.27 L 694.37 295.69 L 694.04 294.11 L 693.72 292.52 L 693.40 290.93 L 693.08 289.34 L 692.77 287.74 L 692.46 286.14 L 692.15 284.53 L 691.85 282.93 L 691.55 281.32 L 691.25 279.71 L 690.96 278.10 L 690.68 276.49 L 690.40 274.88 L 690.12 273.28 L 689.85 271.67 L 689.58 270.07 L 689.31 268.46 L 689.06 266.87 L 688.80 265.27 L 688.55 263.68 L 688.31 262.09 L 688.07 260.51 L 687.84 258.93 L 687.61 257.36 L 687.39 255.80 L 687.17 254.24 L 686.96 252.69 L 686.75 251.14 L 686.55 249.61 L 686.35 248.08 L 686.16 246.56 L 685.98 245.06 L 685.80 243.56 L 685.63 242.07 L 685.46 240.59 L 685.30 239.13 L 685.15 237.68 L 685.00 236.24 L 684.86 234.81 L 684.72 233.39 L 684.59 231.99 L 684.46 230.60 L 684.35 229.23 L 684.24 227.87 L 684.13 226.53 L 684.03 225.20 L 683.94 223.89 L 683.85 222.60 L 683.77 221.32 L 683.70 220.06 L 683.63 218.82 L 683.57 217.59 L 683.52 216.39 L 683.47 215.20 L 683.43 214.03 L 683.40 212.88 L 683.37 211.75 L 683.35 210.64 L 683.34 209.55 L 683.33 208.49 L 683.33 207.44 L 683.34 206.41 L 683.35 205.41 L 683.37 204.43 L 683.39 203.47 L 683.42 202.54 L 683.46 201.62 L 683.51 200.73 L 683.56 199.87 L 683.62 199.03 L 683.68 198.21 L 683.76 197.41 L 683.83 196.64 L 683.92 195.90 L 684.01 195.18 L 684.11 194.49 L 684.21 193.82 L 684.32 193.17 L 684.43 192.56 L 684.56 191.96 L 684.69 191.40 L 684.82 190.86 L 684.96 190.35 L 685.11 189.86 L 685.26 189.40" fill="none" stroke="#bfc6c4" stroke-width="1.25" opacity="0.35" stroke-linecap="round" stroke-linejoin="round"/>
<path d="M 685.42 188.97 L 685.59 188.57 L 685.76 188.19 L 685.93 187.84 L 686.12 187.52 L 686.30 187.22 L 686.50 186.96 L 686.70 186.72 L 686.90 186.50 L 687.11 186.32 L 687.33 186.16 L 687.55 186.04 L 687.78 185.94 L 688.01 185.86 L 688.25 185.82 L 688.49 185.80 L 688.74 185.82 L 688.99 185.86 L 689.25 185.93 L 689.51 186.02 L 689.78 186.15 L 690.05 186.30 L 690.32 186.48 L 690.60 186.69 L 690.89 186.92 L 691.18 187.19 L 691.47 187.48 L 691.77 187.80 L 692.07 188.14 L 692.38 188.52 L 692.69 188.92 L 693.00 189.35 L 693.32 189.80 L 693.64 190.29 L 693.96 190.79 L 694.29 191.33 L 694.62 191.89 L 694.95 192.48 L 695.29 193.09 L 695.63 193.73 L 695.97 194.40 L 696.31 195.09 L 696.66 195.81 L 697.01 196.55 L 697.37 197.31 L 697.72 198.10 L 698.08 198.92 L 698.44 199.76 L 698.80 200.62 L 699.16 201.51 L 699.53 202.42 L 699.89 203.35 L 700.26 204.31 L 700.63 205.29 L 701.00 206.29 L 701.38 207.31 L 701.75 208.35 L 702.12 209.42 L 702.50 210.50 L 702.88 211.61 L 703.25 212.74 L 703.63 213.88 L 704.01 215.05 L 704.38 216.23 L 704.76 217.44 L 705.14 218.66 L 705.52 219.90 L 705.90 221.16 L 706.27 222.43 L 706.65 223.73 L 707.03 225.03 L 707.41 226.36 L 707.78 227.70 L 708.16 229.06 L 708.53 230.43 L 708.90 231.81 L 709.27 233.21 L 709.64 234.63 L 710.01 236.05 L 710.38 237.49 L 710.74 238.94 L 711.11 240.41 L 711.47 241.88 L 711.83 243.37 L 712.19 244.86 L 712.54 246.37 L 712.90 247.89 L 713.25 249.41 L 713.60 250.95 L 713.94 252.49 L 714.29 254.04 L 714.63 255.60 L 714.96 257.16 L 715.30 258.73 L 715.63 260.31 L 715.96 261.89 L 716.28 263.48 L 716.60 265.07 L 716.92 266.66 L 717.23 268.26 L 717.54 269.86 L 717.85 271.47 L 718.15 273.07 L 718.45 274.68 L 718.75 276.29 L 719.04 277.90 L 719.32 279.51 L 719.60 281.12 L 719.88 282.72 L 720.15 284.33 L 720.42 285.93 L 720.69 287.54 L 720.94 289.13 L 721.20 290.73 L 721.45 292.32 L 721.69 293.91 L 721.93 295.49 L 722.16 297.07 L 722.39 298.64 L 722.61 300.20 L 722.83 301.76 L 723.04 303.31 L 723.25 304.86 L 723.45 306.39 L 723.65 307.92 L 723.84 309.44 L 724.02 310.94 L 724.20 312.44 L 724.37 313.93 L 724.54 315.41 L 724.70 316.87 L 724.85 318.32 L 725.00 319.76 L 725.14 321.19 L 725.28 322.61 L 725.41 324.01 L 725.54 325.40 L 725.65 326.77 L 725.76 328.13 L 725.87 329.47 L 725.97 330.80 L 726.06 332.11 L 726.15 333.40 L 726.23 334.68 L 726.30 335.94 L 726.37 337.18 L 726.43 338.41 L 726.48 339.61 L 726.53 340.80 L 726.57 341.97 L 726.60 343.12 L 726.63 344.25 L 726.65 345.36 L 726.66 346.45 L 726.67 347.51 L 726.67 348.56 L 726.66 349.59 L 726.65 350.59 L 726.63 351.57 L 726.61 352.53 L 726.58 353.46 L 726.54 354.38 L 726.49 355.27 L 726.44 356.13 L 726.38 356.97 L 726.32 357.79 L 726.24 358.59 L 726.17 359.36 L 726.08 360.10 L 725.99 360.82 L 725.89 361.51 L 725.79 362.18 L 725.68 362.83 L 725.57 363.44 L 725.44 364.04 L 725.31 364.60 L 725.18 365.14 L 725.04 365.65 L 724.89 366.14 L 724.74 366.60 L 724.58 367.03 L 724.41 367.43" fill="none" stroke="#8f918a" stroke-width="2.35" opacity="0.92" stroke-linecap="round" stroke-linejoin="round"/>
<path d="M 724.24 367.81 L 724.07 368.16 L 723.88 368.48 L 723.70 368.78 L 723.50 369.04 L 723.30 369.28 L 723.10 369.50 L 722.89 369.68 L 722.67 369.84 L 722.45 369.96 L 722.22 370.06 L 721.99 370.14 L 721.75 370.18 L 721.51 370.20 L 721.26 370.18 L 721.01 370.14 L 720.75 370.07 L 720.49 369.98 L 720.22 369.85 L 719.95 369.70 L 719.68 369.52 L 719.40 369.31 L 719.11 369.08 L 718.82 368.81 L 718.53 368.52 L 718.23 368.20 L 717.93 367.86 L 717.62 367.48 L 717.31 367.08 L 717.00 366.65 L 716.68 366.20 L 716.36 365.71 L 716.04 365.21 L 715.71 364.67 L 715.38 364.11 L 715.05 363.52 L 714.71 362.91 L 714.37 362.27 L 714.03 361.60 L 713.69 360.91 L 713.34 360.19 L 712.99 359.45 L 712.63 358.69 L 712.28 357.90 L 711.92 357.08 L 711.56 356.24 L 711.20 355.38 L 710.84 354.49 L 710.47 353.58 L 710.11 352.65 L 709.74 351.69 L 709.37 350.71 L 709.00 349.71 L 708.62 348.69 L 708.25 347.65 L 707.88 346.58 L 707.50 345.50 L 707.12 344.39 L 706.75 343.26 L 706.37 342.12 L 705.99 340.95 L 705.62 339.77 L 705.24 338.56 L 704.86 337.34 L 704.48 336.10 L 704.10 334.84 L 703.73 333.57 L 703.35 332.27 L 702.97 330.97 L 702.59 329.64 L 702.22 328.30 L 701.84 326.94 L 701.47 325.57 L 701.10 324.19 L 700.73 322.79 L 700.36 321.37 L 699.99 319.95 L 699.62 318.51" fill="none" stroke="#bfc6c4" stroke-width="1.25" opacity="0.35" stroke-linecap="round" stroke-linejoin="round"/>
<line x1="573.28" y1="280.13" x2="836.72" y2="275.87" stroke="#7a2e2e" stroke-width="2.2" opacity="0.55" stroke-linecap="round"/>
<circle cx="836.72" cy="275.87" r="3.8" fill="#7a2e2e" opacity="0.75"/>
<line x1="710.38" y1="237.49" x2="699.62" y2="318.51" stroke="#496d8a" stroke-width="2.2" opacity="0.55" stroke-linecap="round"/>
<circle cx="699.62" cy="318.51" r="3.8" fill="#496d8a" opacity="0.75"/>
<line x1="725.99" y1="360.82" x2="684.01" y2="195.18" stroke="#8a6b2e" stroke-width="2.2" opacity="0.55" stroke-linecap="round"/>
<circle cx="684.01" cy="195.18" r="3.8" fill="#8a6b2e" opacity="0.75"/>
<path d="M 400 270 C 463 206, 530 207, 591 270" fill="none" stroke="#496d8a" stroke-width="2.7" opacity="0.62" stroke-linecap="round"/>
<path d="M 591 270 L 574 262 L 579 281 Z" fill="#496d8a" opacity="0.62"/>
</svg>