<svg xmlns="http://www.w3.org/2000/svg" viewBox="0 0 1600 900" role="img" aria-label="A full-rank linear map sends a wireframe sphere to an ellipsoid.">
    <rect width="1600" height="900" fill="#fbfaf6" />
    <ellipse cx="405" cy="430" rx="278" ry="226" fill="rgba(117, 141, 164, 0.1)" />
        <ellipse cx="1160" cy="430" rx="307" ry="205" fill="rgba(106, 137, 105, 0.1)" />
        <path d="M 200 430.04 L 200.03 431.55 L 200.13 433.07 L 200.29 434.59 L 200.51 436.1 L 200.79 437.62 L 201.13 439.13 L 201.54 440.64 L 202.01 442.14 L 202.54 443.65 L 203.13 445.14 L 203.78 446.64 L 204.5 448.12 L 205.27 449.61 L 206.11 451.08 L 207.01 452.55 L 207.96 454.02 L 208.98 455.47 L 210.06 456.92 L 211.2 458.36 L 212.39 459.79 L 213.65 461.21 L 214.96 462.63 L 216.33 464.03 L 217.76 465.42 L 219.24 466.8 L 220.78 468.17 L 222.38 469.53 L 224.04 470.88 L 225.74 472.21 L 227.51 473.53 L 229.32 474.84 L 231.19 476.14 L 233.12 477.42 L 235.09 478.68 L 237.12 479.93 L 239.2 481.17 L 241.33 482.39 L 243.51 483.59 L 245.74 484.78 L 248.01 485.95 L 250.34 487.11 L 252.71 488.24 L 255.13 489.36 L 257.59 490.46 L 260.1 491.55 L 262.66 492.61 L 265.25 493.65 L 267.89 494.68 L 270.57 495.69 L 273.29 496.67 L 276.05 497.64 L 278.86 498.58 L 281.69 499.51 L 284.57 500.41 L 287.49 501.29 L 290.44 502.15 L 293.42 502.99 L 296.44 503.8 L 299.49 504.6 L 302.57 505.37 L 305.69 506.11 L 308.83 506.84 L 312.01 507.54 L 315.21 508.21 L 318.44 508.87 L 321.7 509.5 L 324.98 510.1 L 328.28 510.68 L 331.61 511.24 L 334.96 511.77 L 338.34 512.28 L 341.73 512.76 L 345.14 513.21 L 348.58 513.64 L 352.02 514.05 L 355.49 514.43 L 358.97 514.78 L 362.46 515.11 L 365.97 515.41 L 369.48 515.69 L 373.01 515.94 L 376.55 516.16 L 380.1 516.36 L 383.66 516.53 L 387.22 516.68 L 390.78 516.79 L 394.35 516.89 L 397.93 516.95 L 401.51 516.99 L 405.08 517 L 408.66 516.99 L 412.24 516.95 L 415.81 516.88 L 419.38 516.79 L 422.95 516.67 L 426.51 516.52 L 430.07 516.35 L 433.61 516.15 L 437.15 515.93 L 440.68 515.68 L 444.2 515.4 L 447.7 515.1 L 451.2 514.77 L 454.68 514.41 L 458.14 514.03 L 461.59 513.62 L 465.02 513.19 L 468.43 512.73 L 471.82 512.25 L 475.19 511.74 L 478.54 511.21 L 481.87 510.66 L 485.18 510.07 L 488.46 509.47 L 491.71 508.84 L 494.94 508.18 L 498.14 507.5 L 501.32 506.8 L 504.46 506.08 L 507.57 505.33 L 510.65 504.56 L 513.7 503.76 L 516.72 502.95 L 519.7 502.11 L 522.65 501.25 L 525.56 500.37 L 528.44 499.46 L 531.28 498.54 L 534.08 497.59 L 536.84 496.63 L 539.56 495.64 L 542.23 494.63 L 544.87 493.61 L 547.47 492.56 L 550.02 491.5 L 552.52 490.41 L 554.98 489.31 L 557.4 488.19 L 559.77 487.05 L 562.09 485.9 L 564.37 484.73 L 566.59 483.54 L 568.77 482.33 L 570.9 481.11 L 572.97 479.87 L 575 478.62 L 576.97 477.36 L 578.89 476.07 L 580.76 474.78 L 582.58 473.47 L 584.34 472.15 L 586.04 470.81 L 587.69 469.47 L 589.29 468.11 L 590.83 466.74 L 592.31 465.36 L 593.74 463.96 L 595.1 462.56 L 596.41 461.15 L 597.67 459.72 L 598.86 458.29 L 599.99 456.85 L 601.07 455.4 L 602.08 453.95 L 603.04 452.48 L 603.93 451.01 L 604.76 449.54 L 605.54 448.05 L 606.25 446.57 L 606.9 445.07 L 607.49 443.58 L 608.02 442.07 L 608.48 440.57 L 608.89 439.06 L 609.23 437.55 L 609.51 436.03 L 609.72 434.52 L 609.88 433 L 609.97 431.48" fill="none" stroke="rgba(34, 43, 45, 0.96)" stroke-width="1.72" stroke-linecap="round" stroke-linejoin="round" />
        <path d="M 610 429.96 L 609.97 428.45 L 609.87 426.93 L 609.71 425.41 L 609.49 423.9 L 609.21 422.38 L 608.87 420.87 L 608.46 419.36 L 607.99 417.86 L 607.46 416.35 L 606.87 414.86 L 606.22 413.36 L 605.5 411.88 L 604.73 410.39 L 603.89 408.92 L 602.99 407.45 L 602.04 405.98 L 601.02 404.53 L 599.94 403.08 L 598.8 401.64 L 597.61 400.21 L 596.35 398.79 L 595.04 397.37 L 593.67 395.97 L 592.24 394.58 L 590.76 393.2 L 589.22 391.83 L 587.62 390.47 L 585.96 389.12 L 584.26 387.79 L 582.49 386.47 L 580.68 385.16 L 578.81 383.86 L 576.88 382.58 L 574.91 381.32 L 572.88 380.07 L 570.8 378.83 L 568.67 377.61 L 566.49 376.41 L 564.26 375.22 L 561.99 374.05 L 559.66 372.89 L 557.29 371.76 L 554.87 370.64 L 552.41 369.54 L 549.9 368.45 L 547.34 367.39 L 544.75 366.35 L 542.11 365.32 L 539.43 364.31 L 536.71 363.33 L 533.95 362.36 L 531.14 361.42 L 528.31 360.49 L 525.43 359.59 L 522.51 358.71 L 519.56 357.85 L 516.58 357.01 L 513.56 356.2 L 510.51 355.4 L 507.43 354.63 L 504.31 353.89 L 501.17 353.16 L 497.99 352.46 L 494.79 351.79 L 491.56 351.13 L 488.3 350.5 L 485.02 349.9 L 481.72 349.32 L 478.39 348.76 L 475.04 348.23 L 471.66 347.72 L 468.27 347.24 L 464.86 346.79 L 461.42 346.36 L 457.98 345.95 L 454.51 345.57 L 451.03 345.22 L 447.54 344.89 L 444.03 344.59 L 440.52 344.31 L 436.99 344.06 L 433.45 343.84 L 429.9 343.64 L 426.34 343.47 L 422.78 343.32 L 419.22 343.21 L 415.65 343.11 L 412.07 343.05 L 408.49 343.01 L 404.92 343 L 401.34 343.01 L 397.76 343.05 L 394.19 343.12 L 390.62 343.21 L 387.05 343.33 L 383.49 343.48 L 379.93 343.65 L 376.39 343.85 L 372.85 344.07 L 369.32 344.32 L 365.8 344.6 L 362.3 344.9 L 358.8 345.23 L 355.32 345.59 L 351.86 345.97 L 348.41 346.38 L 344.98 346.81 L 341.57 347.27 L 338.18 347.75 L 334.81 348.26 L 331.46 348.79 L 328.13 349.34 L 324.82 349.93 L 321.54 350.53 L 318.29 351.16 L 315.06 351.82 L 311.86 352.5 L 308.68 353.2 L 305.54 353.92 L 302.43 354.67 L 299.35 355.44 L 296.3 356.24 L 293.28 357.05 L 290.3 357.89 L 287.35 358.75 L 284.44 359.63 L 281.56 360.54 L 278.72 361.46 L 275.92 362.41 L 273.16 363.37 L 270.44 364.36 L 267.77 365.37 L 265.13 366.39 L 262.53 367.44 L 259.98 368.5 L 257.48 369.59 L 255.02 370.69 L 252.6 371.81 L 250.23 372.95 L 247.91 374.1 L 245.63 375.27 L 243.41 376.46 L 241.23 377.67 L 239.1 378.89 L 237.03 380.13 L 235 381.38 L 233.03 382.64 L 231.11 383.93 L 229.24 385.22 L 227.42 386.53 L 225.66 387.85 L 223.96 389.19 L 222.31 390.53 L 220.71 391.89 L 219.17 393.26 L 217.69 394.64 L 216.26 396.04 L 214.9 397.44 L 213.59 398.85 L 212.33 400.28 L 211.14 401.71 L 210.01 403.15 L 208.93 404.6 L 207.92 406.05 L 206.96 407.52 L 206.07 408.99 L 205.24 410.46 L 204.46 411.95 L 203.75 413.43 L 203.1 414.93 L 202.51 416.42 L 201.98 417.93 L 201.52 419.43 L 201.11 420.94 L 200.77 422.45 L 200.49 423.97 L 200.28 425.48 L 200.12 427 L 200.03 428.52" fill="none" stroke="rgba(130, 137, 142, 0.5)" stroke-width="1.34" stroke-linecap="round" stroke-linejoin="round" stroke-dasharray="8 8" />
        <path d="M 926.72 432.28 L 926.92 434.15 L 927.19 436.02 L 927.54 437.89 L 927.95 439.76 L 928.44 441.62 L 929 443.48 L 929.62 445.33 L 930.32 447.18 L 931.09 449.03 L 931.92 450.87 L 932.83 452.7 L 933.8 454.53 L 934.85 456.35 L 935.96 458.16 L 937.14 459.96 L 938.39 461.75 L 939.71 463.54 L 941.09 465.31 L 942.54 467.07 L 944.06 468.82 L 945.64 470.56 L 947.29 472.29 L 949 474 L 950.78 475.7 L 952.62 477.39 L 954.52 479.06 L 956.49 480.72 L 958.52 482.36 L 960.61 483.99 L 962.76 485.6 L 964.97 487.19 L 967.24 488.76 L 969.56 490.32 L 971.95 491.86 L 974.39 493.38 L 976.89 494.88 L 979.45 496.36 L 982.06 497.82 L 984.73 499.26 L 987.45 500.68 L 990.22 502.08 L 993.04 503.45 L 995.91 504.81 L 998.84 506.14 L 1001.81 507.44 L 1004.83 508.73 L 1007.9 509.99 L 1011.01 511.22 L 1014.17 512.43 L 1017.38 513.62 L 1020.63 514.78 L 1023.92 515.91 L 1027.25 517.02 L 1030.62 518.1 L 1034.03 519.15 L 1037.48 520.18 L 1040.97 521.18 L 1044.49 522.15 L 1048.05 523.1 L 1051.65 524.01 L 1055.27 524.9 L 1058.93 525.76 L 1062.62 526.59 L 1066.34 527.39 L 1070.08 528.16 L 1073.86 528.9 L 1077.66 529.61 L 1081.48 530.28 L 1085.33 530.93 L 1089.2 531.55 L 1093.1 532.14 L 1097.01 532.7 L 1100.95 533.22 L 1104.9 533.71 L 1108.86 534.18 L 1112.85 534.61 L 1116.85 535 L 1120.86 535.37 L 1124.88 535.7 L 1128.91 536.01 L 1132.96 536.28 L 1137.01 536.51 L 1141.07 536.72 L 1145.13 536.89 L 1149.2 537.03 L 1153.27 537.14 L 1157.35 537.21 L 1161.42 537.25 L 1165.5 537.26 L 1169.57 537.24 L 1173.64 537.18 L 1177.7 537.09 L 1181.76 536.97 L 1185.82 536.82 L 1189.86 536.63 L 1193.9 536.41 L 1197.93 536.16 L 1201.94 535.88 L 1205.94 535.56 L 1209.93 535.21 L 1213.91 534.83 L 1217.86 534.42 L 1221.8 533.98 L 1225.72 533.5 L 1229.62 532.99 L 1233.5 532.46 L 1237.36 531.89 L 1241.19 531.29 L 1245 530.65 L 1248.78 529.99 L 1252.53 529.3 L 1256.26 528.58 L 1259.96 527.82 L 1263.63 527.04 L 1267.26 526.23 L 1270.87 525.39 L 1274.43 524.51 L 1277.97 523.62 L 1281.47 522.69 L 1284.93 521.73 L 1288.35 520.75 L 1291.74 519.73 L 1295.08 518.7 L 1298.38 517.63 L 1301.64 516.54 L 1304.86 515.42 L 1308.04 514.27 L 1311.16 513.1 L 1314.25 511.9 L 1317.28 510.68 L 1320.27 509.44 L 1323.21 508.17 L 1326.1 506.87 L 1328.94 505.56 L 1331.72 504.22 L 1334.46 502.85 L 1337.14 501.47 L 1339.77 500.06 L 1342.34 498.63 L 1344.86 497.18 L 1347.32 495.71 L 1349.72 494.22 L 1352.07 492.72 L 1354.35 491.19 L 1356.58 489.64 L 1358.75 488.08 L 1360.86 486.49 L 1362.91 484.89 L 1364.89 483.28 L 1366.81 481.64 L 1368.67 479.99 L 1370.47 478.33 L 1372.2 476.65 L 1373.87 474.96 L 1375.47 473.25 L 1377.01 471.53 L 1378.48 469.8 L 1379.88 468.06 L 1381.22 466.3 L 1382.49 464.53 L 1383.69 462.76 L 1384.82 460.97 L 1385.89 459.17 L 1386.88 457.37 L 1387.81 455.55 L 1388.67 453.73 L 1389.46 451.9 L 1390.17 450.06 L 1390.82 448.22 L 1391.4 446.37 L 1391.91 444.52 L 1392.34 442.67 L 1392.71 440.8 L 1393.01 438.94 L 1393.23 437.07 L 1393.38 435.2 L 1393.46 433.33 L 1393.47 431.46 L 1393.41 429.59" fill="none" stroke="rgba(38, 78, 49, 0.96)" stroke-width="1.72" stroke-linecap="round" stroke-linejoin="round" />
        <path d="M 1393.28 427.72 L 1393.08 425.85 L 1392.81 423.98 L 1392.46 422.11 L 1392.05 420.24 L 1391.56 418.38 L 1391 416.52 L 1390.38 414.67 L 1389.68 412.82 L 1388.91 410.97 L 1388.08 409.13 L 1387.17 407.3 L 1386.2 405.47 L 1385.15 403.65 L 1384.04 401.84 L 1382.86 400.04 L 1381.61 398.25 L 1380.29 396.46 L 1378.91 394.69 L 1377.46 392.93 L 1375.94 391.18 L 1374.36 389.44 L 1372.71 387.71 L 1371 386 L 1369.22 384.3 L 1367.38 382.61 L 1365.48 380.94 L 1363.51 379.28 L 1361.48 377.64 L 1359.39 376.01 L 1357.24 374.4 L 1355.03 372.81 L 1352.76 371.24 L 1350.44 369.68 L 1348.05 368.14 L 1345.61 366.62 L 1343.11 365.12 L 1340.55 363.64 L 1337.94 362.18 L 1335.27 360.74 L 1332.55 359.32 L 1329.78 357.92 L 1326.96 356.55 L 1324.09 355.19 L 1321.16 353.86 L 1318.19 352.56 L 1315.17 351.27 L 1312.1 350.01 L 1308.99 348.78 L 1305.83 347.57 L 1302.62 346.38 L 1299.37 345.22 L 1296.08 344.09 L 1292.75 342.98 L 1289.38 341.9 L 1285.97 340.85 L 1282.52 339.82 L 1279.03 338.82 L 1275.51 337.85 L 1271.95 336.9 L 1268.35 335.99 L 1264.73 335.1 L 1261.07 334.24 L 1257.38 333.41 L 1253.66 332.61 L 1249.92 331.84 L 1246.14 331.1 L 1242.34 330.39 L 1238.52 329.72 L 1234.67 329.07 L 1230.8 328.45 L 1226.9 327.86 L 1222.99 327.3 L 1219.05 326.78 L 1215.1 326.29 L 1211.14 325.82 L 1207.15 325.39 L 1203.15 325 L 1199.14 324.63 L 1195.12 324.3 L 1191.09 323.99 L 1187.04 323.72 L 1182.99 323.49 L 1178.93 323.28 L 1174.87 323.11 L 1170.8 322.97 L 1166.73 322.86 L 1162.65 322.79 L 1158.58 322.75 L 1154.5 322.74 L 1150.43 322.76 L 1146.36 322.82 L 1142.3 322.91 L 1138.24 323.03 L 1134.18 323.18 L 1130.14 323.37 L 1126.1 323.59 L 1122.07 323.84 L 1118.06 324.12 L 1114.06 324.44 L 1110.07 324.79 L 1106.09 325.17 L 1102.14 325.58 L 1098.2 326.02 L 1094.28 326.5 L 1090.38 327.01 L 1086.5 327.54 L 1082.64 328.11 L 1078.81 328.71 L 1075 329.35 L 1071.22 330.01 L 1067.47 330.7 L 1063.74 331.42 L 1060.04 332.18 L 1056.37 332.96 L 1052.74 333.77 L 1049.13 334.61 L 1045.57 335.49 L 1042.03 336.38 L 1038.53 337.31 L 1035.07 338.27 L 1031.65 339.25 L 1028.26 340.27 L 1024.92 341.3 L 1021.62 342.37 L 1018.36 343.46 L 1015.14 344.58 L 1011.96 345.73 L 1008.84 346.9 L 1005.75 348.1 L 1002.72 349.32 L 999.73 350.56 L 996.79 351.83 L 993.9 353.13 L 991.06 354.44 L 988.28 355.78 L 985.54 357.15 L 982.86 358.53 L 980.23 359.94 L 977.66 361.37 L 975.14 362.82 L 972.68 364.29 L 970.28 365.78 L 967.93 367.28 L 965.65 368.81 L 963.42 370.36 L 961.25 371.92 L 959.14 373.51 L 957.09 375.11 L 955.11 376.72 L 953.19 378.36 L 951.33 380.01 L 949.53 381.67 L 947.8 383.35 L 946.13 385.04 L 944.53 386.75 L 942.99 388.47 L 941.52 390.2 L 940.12 391.94 L 938.78 393.7 L 937.51 395.47 L 936.31 397.24 L 935.18 399.03 L 934.11 400.83 L 933.12 402.63 L 932.19 404.45 L 931.33 406.27 L 930.54 408.1 L 929.83 409.94 L 929.18 411.78 L 928.6 413.63 L 928.09 415.48 L 927.66 417.33 L 927.29 419.2 L 926.99 421.06 L 926.77 422.93 L 926.62 424.8 L 926.54 426.67 L 926.53 428.54 L 926.59 430.41" fill="none" stroke="rgba(118, 139, 111, 0.5)" stroke-width="1.34" stroke-linecap="round" stroke-linejoin="round" stroke-dasharray="8 8" />
        <path d="M 514.27 603.45 L 516.53 601.99 L 518.75 600.48 L 520.94 598.92 L 523.09 597.3 L 525.21 595.64 L 527.29 593.92 L 529.33 592.15 L 531.33 590.34 L 533.3 588.47 L 535.23 586.56 L 537.11 584.6 L 538.96 582.59 L 540.77 580.54 L 542.53 578.44 L 544.26 576.3 L 545.94 574.11 L 547.57 571.87 L 549.17 569.6 L 550.72 567.28 L 552.22 564.92 L 553.69 562.52 L 555.1 560.08 L 556.47 557.59 L 557.79 555.07 L 559.07 552.51 L 560.3 549.92 L 561.49 547.29 L 562.62 544.62 L 563.71 541.91 L 564.75 539.18 L 565.74 536.41 L 566.68 533.6 L 567.57 530.77 L 568.41 527.9 L 569.21 525.01 L 569.95 522.08 L 570.64 519.13 L 571.28 516.15 L 571.88 513.15 L 572.42 510.12 L 572.91 507.06 L 573.35 503.98 L 573.73 500.88 L 574.07 497.76 L 574.35 494.62 L 574.59 491.45 L 574.77 488.27 L 574.9 485.07 L 574.97 481.85 L 575 478.62 L 574.97 475.38 L 574.9 472.11 L 574.77 468.84 L 574.59 465.56 L 574.35 462.26 L 574.07 458.95 L 573.73 455.64 L 573.35 452.32 L 572.91 448.99 L 572.42 445.65 L 571.88 442.31 L 571.28 438.97 L 570.64 435.62 L 569.95 432.27 L 569.21 428.92 L 568.41 425.57 L 567.57 422.23 L 566.68 418.88 L 565.74 415.54 L 564.75 412.2 L 563.71 408.87 L 562.62 405.55 L 561.49 402.23 L 560.3 398.92 L 559.07 395.62 L 557.79 392.33 L 556.47 389.05 L 555.1 385.79 L 553.69 382.53 L 552.22 379.3 L 550.72 376.08 L 549.17 372.87 L 547.57 369.68 L 545.94 366.51 L 544.26 363.36 L 542.53 360.23 L 540.77 357.12 L 538.96 354.03 L 537.11 350.97 L 535.23 347.93 L 533.3 344.92 L 531.33 341.93 L 529.33 338.97 L 527.29 336.03 L 525.21 333.13 L 523.09 330.25 L 520.94 327.41 L 518.75 324.59 L 516.53 321.81 L 514.27 319.06 L 511.98 316.34 L 509.66 313.66 L 507.31 311.02 L 504.92 308.41 L 502.51 305.84 L 500.06 303.3 L 497.59 300.81 L 495.09 298.35 L 492.56 295.93 L 490 293.56 L 487.42 291.22 L 484.81 288.93 L 482.18 286.68 L 479.52 284.48 L 476.84 282.32 L 474.15 280.2 L 471.42 278.13 L 468.68 276.11 L 465.92 274.13 L 463.14 272.2 L 460.35 270.32 L 457.53 268.49 L 454.7 266.71 L 451.86 264.97 L 449 263.29 L 446.13 261.66 L 443.24 260.07 L 440.34 258.54 L 437.44 257.07 L 434.52 255.64 L 431.59 254.27 L 428.66 252.95 L 425.72 251.69 L 422.77 250.48 L 419.82 249.32 L 416.86 248.22 L 413.9 247.18 L 410.93 246.19 L 407.97 245.26 L 405 244.38 L 402.03 243.56 L 399.07 242.79 L 396.1 242.09 L 393.14 241.44 L 390.18 240.85 L 387.23 240.31 L 384.28 239.84 L 381.34 239.42 L 378.41 239.06 L 375.48 238.76 L 372.56 238.51 L 369.66 238.33 L 366.76 238.2 L 363.87 238.13 L 361 238.12 L 358.14 238.17 L 355.3 238.27 L 352.47 238.44 L 349.65 238.66 L 346.86 238.94 L 344.08 239.28 L 341.32 239.68 L 338.58 240.14 L 335.85 240.65 L 333.16 241.22 L 330.48 241.85 L 327.82 242.54 L 325.19 243.28 L 322.58 244.08 L 320 244.94 L 317.44 245.85 L 314.91 246.82 L 312.41 247.84 L 309.94 248.92 L 307.49 250.06 L 305.08 251.25 L 302.69 252.49 L 300.34 253.79 L 298.02 255.15" fill="none" stroke="rgba(34, 43, 45, 0.96)" stroke-width="1.72" stroke-linecap="round" stroke-linejoin="round" />
        <path d="M 295.73 256.55 L 293.47 258.01 L 291.25 259.52 L 289.06 261.08 L 286.91 262.7 L 284.79 264.36 L 282.71 266.08 L 280.67 267.85 L 278.67 269.66 L 276.7 271.53 L 274.77 273.44 L 272.89 275.4 L 271.04 277.41 L 269.23 279.46 L 267.47 281.56 L 265.74 283.7 L 264.06 285.89 L 262.43 288.13 L 260.83 290.4 L 259.28 292.72 L 257.78 295.08 L 256.31 297.48 L 254.9 299.92 L 253.53 302.41 L 252.21 304.93 L 250.93 307.49 L 249.7 310.08 L 248.51 312.71 L 247.38 315.38 L 246.29 318.09 L 245.25 320.82 L 244.26 323.59 L 243.32 326.4 L 242.43 329.23 L 241.59 332.1 L 240.79 334.99 L 240.05 337.92 L 239.36 340.87 L 238.72 343.85 L 238.12 346.85 L 237.58 349.88 L 237.09 352.94 L 236.65 356.02 L 236.27 359.12 L 235.93 362.24 L 235.65 365.38 L 235.41 368.55 L 235.23 371.73 L 235.1 374.93 L 235.03 378.15 L 235 381.38 L 235.03 384.62 L 235.1 387.89 L 235.23 391.16 L 235.41 394.44 L 235.65 397.74 L 235.93 401.05 L 236.27 404.36 L 236.65 407.68 L 237.09 411.01 L 237.58 414.35 L 238.12 417.69 L 238.72 421.03 L 239.36 424.38 L 240.05 427.73 L 240.79 431.08 L 241.59 434.43 L 242.43 437.77 L 243.32 441.12 L 244.26 444.46 L 245.25 447.8 L 246.29 451.13 L 247.38 454.45 L 248.51 457.77 L 249.7 461.08 L 250.93 464.38 L 252.21 467.67 L 253.53 470.95 L 254.9 474.21 L 256.31 477.47 L 257.78 480.7 L 259.28 483.92 L 260.83 487.13 L 262.43 490.32 L 264.06 493.49 L 265.74 496.64 L 267.47 499.77 L 269.23 502.88 L 271.04 505.97 L 272.89 509.03 L 274.77 512.07 L 276.7 515.08 L 278.67 518.07 L 280.67 521.03 L 282.71 523.97 L 284.79 526.87 L 286.91 529.75 L 289.06 532.59 L 291.25 535.41 L 293.47 538.19 L 295.73 540.94 L 298.02 543.66 L 300.34 546.34 L 302.69 548.98 L 305.08 551.59 L 307.49 554.16 L 309.94 556.7 L 312.41 559.19 L 314.91 561.65 L 317.44 564.07 L 320 566.44 L 322.58 568.78 L 325.19 571.07 L 327.82 573.32 L 330.48 575.52 L 333.16 577.68 L 335.85 579.8 L 338.58 581.87 L 341.32 583.89 L 344.08 585.87 L 346.86 587.8 L 349.65 589.68 L 352.47 591.51 L 355.3 593.29 L 358.14 595.03 L 361 596.71 L 363.87 598.34 L 366.76 599.93 L 369.66 601.46 L 372.56 602.93 L 375.48 604.36 L 378.41 605.73 L 381.34 607.05 L 384.28 608.31 L 387.23 609.52 L 390.18 610.68 L 393.14 611.78 L 396.1 612.82 L 399.07 613.81 L 402.03 614.74 L 405 615.62 L 407.97 616.44 L 410.93 617.21 L 413.9 617.91 L 416.86 618.56 L 419.82 619.15 L 422.77 619.69 L 425.72 620.16 L 428.66 620.58 L 431.59 620.94 L 434.52 621.24 L 437.44 621.49 L 440.34 621.67 L 443.24 621.8 L 446.13 621.87 L 449 621.88 L 451.86 621.83 L 454.7 621.73 L 457.53 621.56 L 460.35 621.34 L 463.14 621.06 L 465.92 620.72 L 468.68 620.32 L 471.42 619.86 L 474.15 619.35 L 476.84 618.78 L 479.52 618.15 L 482.18 617.46 L 484.81 616.72 L 487.42 615.92 L 490 615.06 L 492.56 614.15 L 495.09 613.18 L 497.59 612.16 L 500.06 611.08 L 502.51 609.94 L 504.92 608.75 L 507.31 607.51 L 509.66 606.21 L 511.98 604.85" fill="none" stroke="rgba(130, 137, 142, 0.5)" stroke-width="1.34" stroke-linecap="round" stroke-linejoin="round" stroke-dasharray="8 8" />
        <path d="M 1287.56 558.83 L 1290.2 558.25 L 1292.8 557.63 L 1295.36 556.97 L 1297.88 556.27 L 1300.36 555.53 L 1302.79 554.75 L 1305.18 553.94 L 1307.53 553.08 L 1309.83 552.19 L 1312.09 551.27 L 1314.3 550.3 L 1316.46 549.3 L 1318.58 548.27 L 1320.64 547.19 L 1322.66 546.08 L 1324.63 544.94 L 1326.55 543.76 L 1328.42 542.55 L 1330.23 541.3 L 1332 540.02 L 1333.71 538.7 L 1335.37 537.35 L 1336.97 535.97 L 1338.52 534.56 L 1340.02 533.12 L 1341.46 531.64 L 1342.85 530.13 L 1344.18 528.59 L 1345.46 527.02 L 1346.68 525.43 L 1347.84 523.8 L 1348.94 522.14 L 1349.99 520.46 L 1350.98 518.75 L 1351.91 517.01 L 1352.79 515.25 L 1353.6 513.46 L 1354.35 511.64 L 1355.05 509.8 L 1355.69 507.94 L 1356.26 506.05 L 1356.78 504.13 L 1357.24 502.2 L 1357.64 500.24 L 1357.97 498.27 L 1358.25 496.27 L 1358.47 494.25 L 1358.62 492.21 L 1358.72 490.15 L 1358.75 488.08 L 1358.73 485.98 L 1358.64 483.87 L 1358.49 481.74 L 1358.29 479.6 L 1358.02 477.44 L 1357.69 475.27 L 1357.3 473.09 L 1356.85 470.89 L 1356.34 468.67 L 1355.78 466.45 L 1355.15 464.22 L 1354.46 461.97 L 1353.71 459.72 L 1352.91 457.45 L 1352.05 455.18 L 1351.12 452.9 L 1350.14 450.61 L 1349.1 448.32 L 1348.01 446.02 L 1346.85 443.72 L 1345.64 441.41 L 1344.37 439.1 L 1343.05 436.79 L 1341.67 434.47 L 1340.24 432.15 L 1338.75 429.84 L 1337.2 427.52 L 1335.61 425.2 L 1333.96 422.88 L 1332.25 420.57 L 1330.5 418.26 L 1328.69 415.95 L 1326.83 413.65 L 1324.92 411.35 L 1322.95 409.06 L 1320.94 406.77 L 1318.88 404.5 L 1316.78 402.23 L 1314.62 399.96 L 1312.42 397.71 L 1310.17 395.47 L 1307.87 393.23 L 1305.53 391.01 L 1303.15 388.8 L 1300.72 386.6 L 1298.25 384.42 L 1295.74 382.25 L 1293.18 380.09 L 1290.59 377.95 L 1287.95 375.83 L 1285.28 373.72 L 1282.57 371.63 L 1279.82 369.56 L 1277.03 367.5 L 1274.21 365.47 L 1271.35 363.45 L 1268.46 361.45 L 1265.54 359.48 L 1262.58 357.52 L 1259.6 355.59 L 1256.58 353.68 L 1253.53 351.8 L 1250.46 349.94 L 1247.36 348.1 L 1244.23 346.29 L 1241.07 344.5 L 1237.89 342.74 L 1234.69 341.01 L 1231.47 339.3 L 1228.22 337.62 L 1224.95 335.97 L 1221.66 334.35 L 1218.35 332.75 L 1215.03 331.19 L 1211.69 329.65 L 1208.33 328.15 L 1204.96 326.68 L 1201.57 325.24 L 1198.17 323.83 L 1194.76 322.45 L 1191.34 321.11 L 1187.91 319.8 L 1184.48 318.52 L 1181.03 317.28 L 1177.58 316.07 L 1174.12 314.89 L 1170.66 313.76 L 1167.19 312.65 L 1163.72 311.58 L 1160.26 310.55 L 1156.79 309.56 L 1153.32 308.6 L 1149.85 307.68 L 1146.39 306.79 L 1142.93 305.95 L 1139.48 305.14 L 1136.03 304.37 L 1132.59 303.63 L 1129.16 302.94 L 1125.74 302.28 L 1122.33 301.67 L 1118.93 301.09 L 1115.54 300.55 L 1112.17 300.05 L 1108.81 299.59 L 1105.46 299.17 L 1102.14 298.79 L 1098.83 298.45 L 1095.53 298.15 L 1092.26 297.89 L 1089.01 297.67 L 1085.78 297.49 L 1082.58 297.36 L 1079.39 297.26 L 1076.24 297.2 L 1073.1 297.18 L 1070 297.21 L 1066.92 297.27 L 1063.87 297.37 L 1060.85 297.52 L 1057.85 297.7 L 1054.89 297.93 L 1051.97 298.19 L 1049.07 298.5 L 1046.21 298.84 L 1043.38 299.23 L 1040.59 299.65 L 1037.84 300.12 L 1035.12 300.62" fill="none" stroke="rgba(38, 78, 49, 0.96)" stroke-width="1.72" stroke-linecap="round" stroke-linejoin="round" />
        <path d="M 1032.44 301.17 L 1029.8 301.75 L 1027.2 302.37 L 1024.64 303.03 L 1022.12 303.73 L 1019.64 304.47 L 1017.21 305.25 L 1014.82 306.06 L 1012.47 306.92 L 1010.17 307.81 L 1007.91 308.73 L 1005.7 309.7 L 1003.54 310.7 L 1001.42 311.73 L 999.36 312.81 L 997.34 313.92 L 995.37 315.06 L 993.45 316.24 L 991.58 317.45 L 989.77 318.7 L 988 319.98 L 986.29 321.3 L 984.63 322.65 L 983.03 324.03 L 981.48 325.44 L 979.98 326.88 L 978.54 328.36 L 977.15 329.87 L 975.82 331.41 L 974.54 332.98 L 973.32 334.57 L 972.16 336.2 L 971.06 337.86 L 970.01 339.54 L 969.02 341.25 L 968.09 342.99 L 967.21 344.75 L 966.4 346.54 L 965.65 348.36 L 964.95 350.2 L 964.31 352.06 L 963.74 353.95 L 963.22 355.87 L 962.76 357.8 L 962.36 359.76 L 962.03 361.73 L 961.75 363.73 L 961.53 365.75 L 961.38 367.79 L 961.28 369.85 L 961.25 371.92 L 961.27 374.02 L 961.36 376.13 L 961.51 378.26 L 961.71 380.4 L 961.98 382.56 L 962.31 384.73 L 962.7 386.91 L 963.15 389.11 L 963.66 391.33 L 964.22 393.55 L 964.85 395.78 L 965.54 398.03 L 966.29 400.28 L 967.09 402.55 L 967.95 404.82 L 968.88 407.1 L 969.86 409.39 L 970.9 411.68 L 971.99 413.98 L 973.15 416.28 L 974.36 418.59 L 975.63 420.9 L 976.95 423.21 L 978.33 425.53 L 979.76 427.85 L 981.25 430.16 L 982.8 432.48 L 984.39 434.8 L 986.04 437.12 L 987.75 439.43 L 989.5 441.74 L 991.31 444.05 L 993.17 446.35 L 995.08 448.65 L 997.05 450.94 L 999.06 453.23 L 1001.12 455.5 L 1003.22 457.77 L 1005.38 460.04 L 1007.58 462.29 L 1009.83 464.53 L 1012.13 466.77 L 1014.47 468.99 L 1016.85 471.2 L 1019.28 473.4 L 1021.75 475.58 L 1024.26 477.75 L 1026.82 479.91 L 1029.41 482.05 L 1032.05 484.17 L 1034.72 486.28 L 1037.43 488.37 L 1040.18 490.44 L 1042.97 492.5 L 1045.79 494.53 L 1048.65 496.55 L 1051.54 498.55 L 1054.46 500.52 L 1057.42 502.48 L 1060.4 504.41 L 1063.42 506.32 L 1066.47 508.2 L 1069.54 510.06 L 1072.64 511.9 L 1075.77 513.71 L 1078.93 515.5 L 1082.11 517.26 L 1085.31 518.99 L 1088.53 520.7 L 1091.78 522.38 L 1095.05 524.03 L 1098.34 525.65 L 1101.65 527.25 L 1104.97 528.81 L 1108.31 530.35 L 1111.67 531.85 L 1115.04 533.32 L 1118.43 534.76 L 1121.83 536.17 L 1125.24 537.55 L 1128.66 538.89 L 1132.09 540.2 L 1135.52 541.48 L 1138.97 542.72 L 1142.42 543.93 L 1145.88 545.11 L 1149.34 546.24 L 1152.81 547.35 L 1156.28 548.42 L 1159.74 549.45 L 1163.21 550.44 L 1166.68 551.4 L 1170.15 552.32 L 1173.61 553.21 L 1177.07 554.05 L 1180.52 554.86 L 1183.97 555.63 L 1187.41 556.37 L 1190.84 557.06 L 1194.26 557.72 L 1197.67 558.33 L 1201.07 558.91 L 1204.46 559.45 L 1207.83 559.95 L 1211.19 560.41 L 1214.54 560.83 L 1217.86 561.21 L 1221.17 561.55 L 1224.47 561.85 L 1227.74 562.11 L 1230.99 562.33 L 1234.22 562.51 L 1237.42 562.64 L 1240.61 562.74 L 1243.76 562.8 L 1246.9 562.82 L 1250 562.79 L 1253.08 562.73 L 1256.13 562.63 L 1259.15 562.48 L 1262.15 562.3 L 1265.11 562.07 L 1268.03 561.81 L 1270.93 561.5 L 1273.79 561.16 L 1276.62 560.77 L 1279.41 560.35 L 1282.16 559.88 L 1284.88 559.38" fill="none" stroke="rgba(118, 139, 111, 0.5)" stroke-width="1.34" stroke-linecap="round" stroke-linejoin="round" stroke-dasharray="8 8" />
        <path d="M 349.46 627.33 L 351.22 627.77 L 352.99 628.15 L 354.78 628.46 L 356.58 628.72 L 358.4 628.92 L 360.24 629.06 L 362.08 629.13 L 363.94 629.15 L 365.82 629.1 L 367.7 629 L 369.6 628.83 L 371.5 628.61 L 373.42 628.32 L 375.35 627.97 L 377.28 627.56 L 379.23 627.09 L 381.18 626.57 L 383.14 625.98 L 385.11 625.33 L 387.08 624.62 L 389.06 623.86 L 391.04 623.03 L 393.02 622.15 L 395.02 621.2 L 397.01 620.2 L 399 619.14 L 401 618.03 L 403 616.85 L 405 615.62 L 407 614.33 L 409 612.99 L 411 611.59 L 412.99 610.14 L 414.98 608.63 L 416.98 607.06 L 418.96 605.45 L 420.94 603.77 L 422.92 602.05 L 424.89 600.27 L 426.86 598.44 L 428.82 596.56 L 430.77 594.63 L 432.72 592.65 L 434.65 590.62 L 436.58 588.54 L 438.5 586.42 L 440.4 584.24 L 442.3 582.02 L 444.18 579.75 L 446.06 577.44 L 447.92 575.08 L 449.76 572.67 L 451.6 570.23 L 453.42 567.74 L 455.22 565.21 L 457.01 562.63 L 458.78 560.02 L 460.54 557.37 L 462.28 554.68 L 464.01 551.95 L 465.71 549.18 L 467.4 546.38 L 469.06 543.54 L 470.71 540.67 L 472.34 537.76 L 473.95 534.82 L 475.53 531.85 L 477.1 528.85 L 478.64 525.82 L 480.16 522.76 L 481.66 519.67 L 483.13 516.55 L 484.58 513.41 L 486.01 510.24 L 487.41 507.04 L 488.79 503.83 L 490.14 500.59 L 491.46 497.33 L 492.76 494.05 L 494.03 490.74 L 495.28 487.43 L 496.5 484.09 L 497.68 480.74 L 498.85 477.37 L 499.98 473.98 L 501.08 470.59 L 502.16 467.18 L 503.2 463.76 L 504.22 460.33 L 505.2 456.89 L 506.15 453.44 L 507.08 449.98 L 507.97 446.52 L 508.83 443.06 L 509.66 439.59 L 510.46 436.11 L 511.22 432.64 L 511.96 429.16 L 512.66 425.69 L 513.32 422.21 L 513.96 418.74 L 514.56 415.27 L 515.13 411.81 L 515.66 408.35 L 516.16 404.9 L 516.63 401.46 L 517.06 398.02 L 517.46 394.59 L 517.82 391.18 L 518.15 387.78 L 518.45 384.39 L 518.71 381.01 L 518.94 377.65 L 519.13 374.3 L 519.29 370.97 L 519.41 367.66 L 519.5 364.37 L 519.55 361.1 L 519.56 357.85 L 519.55 354.62 L 519.5 351.42 L 519.41 348.23 L 519.29 345.08 L 519.13 341.95 L 518.94 338.84 L 518.71 335.77 L 518.45 332.72 L 518.15 329.7 L 517.82 326.71 L 517.46 323.76 L 517.06 320.83 L 516.63 317.94 L 516.16 315.09 L 515.66 312.27 L 515.13 309.48 L 514.56 306.73 L 513.96 304.02 L 513.32 301.35 L 512.66 298.72 L 511.96 296.12 L 511.22 293.57 L 510.46 291.06 L 509.66 288.59 L 508.83 286.16 L 507.97 283.78 L 507.08 281.44 L 506.15 279.15 L 505.2 276.91 L 504.22 274.71 L 503.2 272.55 L 502.16 270.45 L 501.08 268.39 L 499.98 266.39 L 498.85 264.43 L 497.68 262.52 L 496.5 260.67 L 495.28 258.87 L 494.03 257.11 L 492.76 255.42 L 491.46 253.77 L 490.14 252.18 L 488.79 250.64 L 487.41 249.16 L 486.01 247.73 L 484.58 246.36 L 483.13 245.04 L 481.66 243.78 L 480.16 242.58 L 478.64 241.43 L 477.1 240.34 L 475.53 239.31 L 473.95 238.34 L 472.34 237.42 L 470.71 236.56 L 469.06 235.77 L 467.4 235.03 L 465.71 234.35 L 464.01 233.73 L 462.28 233.17" fill="none" stroke="rgba(130, 137, 142, 0.5)" stroke-width="1.34" stroke-linecap="round" stroke-linejoin="round" stroke-dasharray="8 8" />
        <path d="M 460.54 232.67 L 458.78 232.23 L 457.01 231.85 L 455.22 231.54 L 453.42 231.28 L 451.6 231.08 L 449.76 230.94 L 447.92 230.87 L 446.06 230.85 L 444.18 230.9 L 442.3 231 L 440.4 231.17 L 438.5 231.39 L 436.58 231.68 L 434.65 232.03 L 432.72 232.44 L 430.77 232.91 L 428.82 233.43 L 426.86 234.02 L 424.89 234.67 L 422.92 235.38 L 420.94 236.14 L 418.96 236.97 L 416.98 237.85 L 414.98 238.8 L 412.99 239.8 L 411 240.86 L 409 241.97 L 407 243.15 L 405 244.38 L 403 245.67 L 401 247.01 L 399 248.41 L 397.01 249.86 L 395.02 251.37 L 393.02 252.94 L 391.04 254.55 L 389.06 256.23 L 387.08 257.95 L 385.11 259.73 L 383.14 261.56 L 381.18 263.44 L 379.23 265.37 L 377.28 267.35 L 375.35 269.38 L 373.42 271.46 L 371.5 273.58 L 369.6 275.76 L 367.7 277.98 L 365.82 280.25 L 363.94 282.56 L 362.08 284.92 L 360.24 287.33 L 358.4 289.77 L 356.58 292.26 L 354.78 294.79 L 352.99 297.37 L 351.22 299.98 L 349.46 302.63 L 347.72 305.32 L 345.99 308.05 L 344.29 310.82 L 342.6 313.62 L 340.94 316.46 L 339.29 319.33 L 337.66 322.24 L 336.05 325.18 L 334.47 328.15 L 332.9 331.15 L 331.36 334.18 L 329.84 337.24 L 328.34 340.33 L 326.87 343.45 L 325.42 346.59 L 323.99 349.76 L 322.59 352.96 L 321.21 356.17 L 319.86 359.41 L 318.54 362.67 L 317.24 365.95 L 315.97 369.26 L 314.72 372.57 L 313.5 375.91 L 312.32 379.26 L 311.15 382.63 L 310.02 386.02 L 308.92 389.41 L 307.84 392.82 L 306.8 396.24 L 305.78 399.67 L 304.8 403.11 L 303.85 406.56 L 302.92 410.02 L 302.03 413.48 L 301.17 416.94 L 300.34 420.41 L 299.54 423.89 L 298.78 427.36 L 298.04 430.84 L 297.34 434.31 L 296.68 437.79 L 296.04 441.26 L 295.44 444.73 L 294.87 448.19 L 294.34 451.65 L 293.84 455.1 L 293.37 458.54 L 292.94 461.98 L 292.54 465.41 L 292.18 468.82 L 291.85 472.22 L 291.55 475.61 L 291.29 478.99 L 291.06 482.35 L 290.87 485.7 L 290.71 489.03 L 290.59 492.34 L 290.5 495.63 L 290.45 498.9 L 290.44 502.15 L 290.45 505.38 L 290.5 508.58 L 290.59 511.77 L 290.71 514.92 L 290.87 518.05 L 291.06 521.16 L 291.29 524.23 L 291.55 527.28 L 291.85 530.3 L 292.18 533.29 L 292.54 536.24 L 292.94 539.17 L 293.37 542.06 L 293.84 544.91 L 294.34 547.73 L 294.87 550.52 L 295.44 553.27 L 296.04 555.98 L 296.68 558.65 L 297.34 561.28 L 298.04 563.88 L 298.78 566.43 L 299.54 568.94 L 300.34 571.41 L 301.17 573.84 L 302.03 576.22 L 302.92 578.56 L 303.85 580.85 L 304.8 583.09 L 305.78 585.29 L 306.8 587.45 L 307.84 589.55 L 308.92 591.61 L 310.02 593.61 L 311.15 595.57 L 312.32 597.48 L 313.5 599.33 L 314.72 601.13 L 315.97 602.89 L 317.24 604.58 L 318.54 606.23 L 319.86 607.82 L 321.21 609.36 L 322.59 610.84 L 323.99 612.27 L 325.42 613.64 L 326.87 614.96 L 328.34 616.22 L 329.84 617.42 L 331.36 618.57 L 332.9 619.66 L 334.47 620.69 L 336.05 621.66 L 337.66 622.58 L 339.29 623.44 L 340.94 624.23 L 342.6 624.97 L 344.29 625.65 L 345.99 626.27 L 347.72 626.83" fill="none" stroke="rgba(34, 43, 45, 0.96)" stroke-width="1.72" stroke-linecap="round" stroke-linejoin="round" />
        <path d="M 1100.38 578.19 L 1102.26 577.8 L 1104.15 577.37 L 1106.06 576.89 L 1107.99 576.37 L 1109.93 575.8 L 1111.89 575.19 L 1113.87 574.53 L 1115.85 573.83 L 1117.86 573.09 L 1119.87 572.3 L 1121.9 571.47 L 1123.93 570.59 L 1125.98 569.68 L 1128.04 568.72 L 1130.11 567.72 L 1132.19 566.67 L 1134.28 565.59 L 1136.37 564.46 L 1138.47 563.29 L 1140.58 562.08 L 1142.7 560.84 L 1144.81 559.55 L 1146.94 558.22 L 1149.07 556.85 L 1151.2 555.45 L 1153.33 554 L 1155.47 552.52 L 1157.61 551 L 1159.74 549.45 L 1161.88 547.86 L 1164.02 546.23 L 1166.16 544.56 L 1168.29 542.87 L 1170.42 541.13 L 1172.55 539.37 L 1174.68 537.57 L 1176.8 535.73 L 1178.91 533.87 L 1181.02 531.97 L 1183.13 530.05 L 1185.22 528.09 L 1187.31 526.1 L 1189.39 524.08 L 1191.46 522.04 L 1193.52 519.96 L 1195.58 517.86 L 1197.62 515.73 L 1199.65 513.58 L 1201.66 511.4 L 1203.67 509.2 L 1205.66 506.97 L 1207.64 504.72 L 1209.6 502.44 L 1211.55 500.14 L 1213.48 497.83 L 1215.39 495.49 L 1217.29 493.13 L 1219.17 490.75 L 1221.04 488.35 L 1222.88 485.94 L 1224.71 483.51 L 1226.51 481.06 L 1228.3 478.6 L 1230.06 476.12 L 1231.81 473.63 L 1233.53 471.12 L 1235.23 468.6 L 1236.9 466.08 L 1238.56 463.53 L 1240.19 460.98 L 1241.79 458.42 L 1243.37 455.85 L 1244.92 453.28 L 1246.45 450.69 L 1247.95 448.1 L 1249.43 445.51 L 1250.88 442.91 L 1252.3 440.3 L 1253.69 437.7 L 1255.05 435.09 L 1256.39 432.48 L 1257.69 429.86 L 1258.97 427.25 L 1260.21 424.64 L 1261.43 422.03 L 1262.61 419.42 L 1263.76 416.82 L 1264.89 414.22 L 1265.98 411.62 L 1267.03 409.04 L 1268.06 406.45 L 1269.05 403.88 L 1270.01 401.31 L 1270.93 398.75 L 1271.82 396.2 L 1272.68 393.66 L 1273.5 391.13 L 1274.29 388.61 L 1275.04 386.11 L 1275.76 383.62 L 1276.44 381.14 L 1277.09 378.68 L 1277.7 376.24 L 1278.28 373.81 L 1278.82 371.39 L 1279.32 369 L 1279.79 366.62 L 1280.22 364.27 L 1280.61 361.93 L 1280.97 359.61 L 1281.29 357.32 L 1281.57 355.05 L 1281.82 352.8 L 1282.03 350.57 L 1282.2 348.37 L 1282.34 346.19 L 1282.43 344.04 L 1282.49 341.92 L 1282.52 339.82 L 1282.5 337.75 L 1282.45 335.71 L 1282.36 333.69 L 1282.24 331.71 L 1282.07 329.75 L 1281.87 327.83 L 1281.64 325.93 L 1281.36 324.07 L 1281.05 322.24 L 1280.7 320.45 L 1280.32 318.68 L 1279.89 316.96 L 1279.43 315.26 L 1278.94 313.6 L 1278.41 311.98 L 1277.84 310.39 L 1277.24 308.84 L 1276.6 307.32 L 1275.93 305.84 L 1275.22 304.4 L 1274.47 303 L 1273.69 301.64 L 1272.88 300.32 L 1272.03 299.03 L 1271.15 297.79 L 1270.23 296.58 L 1269.28 295.42 L 1268.3 294.3 L 1267.28 293.22 L 1266.23 292.18 L 1265.15 291.18 L 1264.04 290.22 L 1262.89 289.31 L 1261.71 288.44 L 1260.51 287.62 L 1259.27 286.83 L 1258 286.09 L 1256.7 285.4 L 1255.37 284.75 L 1254.02 284.14 L 1252.63 283.58 L 1251.22 283.06 L 1249.78 282.58 L 1248.31 282.15 L 1246.81 281.77 L 1245.29 281.43 L 1243.74 281.14 L 1242.17 280.89 L 1240.57 280.69 L 1238.95 280.53 L 1237.3 280.42 L 1235.63 280.35 L 1233.94 280.33 L 1232.22 280.36 L 1230.48 280.43 L 1228.72 280.55 L 1226.94 280.71 L 1225.14 280.91 L 1223.32 281.17 L 1221.48 281.47" fill="none" stroke="rgba(118, 139, 111, 0.5)" stroke-width="1.34" stroke-linecap="round" stroke-linejoin="round" stroke-dasharray="8 8" />
        <path d="M 1219.62 281.81 L 1217.74 282.2 L 1215.85 282.63 L 1213.94 283.11 L 1212.01 283.63 L 1210.07 284.2 L 1208.11 284.81 L 1206.13 285.47 L 1204.15 286.17 L 1202.14 286.91 L 1200.13 287.7 L 1198.1 288.53 L 1196.07 289.41 L 1194.02 290.32 L 1191.96 291.28 L 1189.89 292.28 L 1187.81 293.33 L 1185.72 294.41 L 1183.63 295.54 L 1181.53 296.71 L 1179.42 297.92 L 1177.3 299.16 L 1175.19 300.45 L 1173.06 301.78 L 1170.93 303.15 L 1168.8 304.55 L 1166.67 306 L 1164.53 307.48 L 1162.39 309 L 1160.26 310.55 L 1158.12 312.14 L 1155.98 313.77 L 1153.84 315.44 L 1151.71 317.13 L 1149.58 318.87 L 1147.45 320.63 L 1145.32 322.43 L 1143.2 324.27 L 1141.09 326.13 L 1138.98 328.03 L 1136.87 329.95 L 1134.78 331.91 L 1132.69 333.9 L 1130.61 335.92 L 1128.54 337.96 L 1126.48 340.04 L 1124.42 342.14 L 1122.38 344.27 L 1120.35 346.42 L 1118.34 348.6 L 1116.33 350.8 L 1114.34 353.03 L 1112.36 355.28 L 1110.4 357.56 L 1108.45 359.86 L 1106.52 362.17 L 1104.61 364.51 L 1102.71 366.87 L 1100.83 369.25 L 1098.96 371.65 L 1097.12 374.06 L 1095.29 376.49 L 1093.49 378.94 L 1091.7 381.4 L 1089.94 383.88 L 1088.19 386.37 L 1086.47 388.88 L 1084.77 391.4 L 1083.1 393.92 L 1081.44 396.47 L 1079.81 399.02 L 1078.21 401.58 L 1076.63 404.15 L 1075.08 406.72 L 1073.55 409.31 L 1072.05 411.9 L 1070.57 414.49 L 1069.12 417.09 L 1067.7 419.7 L 1066.31 422.3 L 1064.95 424.91 L 1063.61 427.52 L 1062.31 430.14 L 1061.03 432.75 L 1059.79 435.36 L 1058.57 437.97 L 1057.39 440.58 L 1056.24 443.18 L 1055.11 445.78 L 1054.02 448.38 L 1052.97 450.96 L 1051.94 453.55 L 1050.95 456.12 L 1049.99 458.69 L 1049.07 461.25 L 1048.18 463.8 L 1047.32 466.34 L 1046.5 468.87 L 1045.71 471.39 L 1044.96 473.89 L 1044.24 476.38 L 1043.56 478.86 L 1042.91 481.32 L 1042.3 483.76 L 1041.72 486.19 L 1041.18 488.61 L 1040.68 491 L 1040.21 493.38 L 1039.78 495.73 L 1039.39 498.07 L 1039.03 500.39 L 1038.71 502.68 L 1038.43 504.95 L 1038.18 507.2 L 1037.97 509.43 L 1037.8 511.63 L 1037.66 513.81 L 1037.57 515.96 L 1037.51 518.08 L 1037.48 520.18 L 1037.5 522.25 L 1037.55 524.29 L 1037.64 526.31 L 1037.76 528.29 L 1037.93 530.25 L 1038.13 532.17 L 1038.36 534.07 L 1038.64 535.93 L 1038.95 537.76 L 1039.3 539.55 L 1039.68 541.32 L 1040.11 543.04 L 1040.57 544.74 L 1041.06 546.4 L 1041.59 548.02 L 1042.16 549.61 L 1042.76 551.16 L 1043.4 552.68 L 1044.07 554.16 L 1044.78 555.6 L 1045.53 557 L 1046.31 558.36 L 1047.12 559.68 L 1047.97 560.97 L 1048.85 562.21 L 1049.77 563.42 L 1050.72 564.58 L 1051.7 565.7 L 1052.72 566.78 L 1053.77 567.82 L 1054.85 568.82 L 1055.96 569.78 L 1057.11 570.69 L 1058.29 571.56 L 1059.49 572.38 L 1060.73 573.17 L 1062 573.91 L 1063.3 574.6 L 1064.63 575.25 L 1065.98 575.86 L 1067.37 576.42 L 1068.78 576.94 L 1070.22 577.42 L 1071.69 577.85 L 1073.19 578.23 L 1074.71 578.57 L 1076.26 578.86 L 1077.83 579.11 L 1079.43 579.31 L 1081.05 579.47 L 1082.7 579.58 L 1084.37 579.65 L 1086.06 579.67 L 1087.78 579.64 L 1089.52 579.57 L 1091.28 579.45 L 1093.06 579.29 L 1094.86 579.09 L 1096.68 578.83 L 1098.52 578.53" fill="none" stroke="rgba(38, 78, 49, 0.96)" stroke-width="1.72" stroke-linecap="round" stroke-linejoin="round" />
        <path d="M 405 430 L 575 478.62" fill="none" stroke="rgba(130, 47, 47, 0.92)" stroke-width="1.85" stroke-linecap="round" stroke-linejoin="round" />
        <polygon points="575,478.62 565.75,480.04 567.9,472.53" fill="rgba(130, 47, 47, 0.92)" />
        <path d="M 1160 430 L 1358.75 488.08" fill="none" stroke="rgba(130, 47, 47, 0.92)" stroke-width="1.85" stroke-linecap="round" stroke-linejoin="round" />
        <polygon points="1358.75,488.08 1349.5,489.44 1351.69,481.94" fill="rgba(130, 47, 47, 0.92)" />
        <path d="M 405 430 L 519.56 357.85" fill="none" stroke="rgba(77, 66, 139, 0.92)" stroke-width="1.85" stroke-linecap="round" stroke-linejoin="round" />
        <polygon points="519.56,357.85 514.46,365.69 510.29,359.07" fill="rgba(77, 66, 139, 0.92)" />
        <path d="M 1160 430 L 1282.52 339.82" fill="none" stroke="rgba(77, 66, 139, 0.92)" stroke-width="1.85" stroke-linecap="round" stroke-linejoin="round" />
        <polygon points="1282.52,339.82 1277.99,348.01 1273.35,341.71" fill="rgba(77, 66, 139, 0.92)" />
        <path d="M 405 430 L 405 244.38" fill="none" stroke="rgba(38, 50, 52, 0.92)" stroke-width="1.85" stroke-linecap="round" stroke-linejoin="round" />
        <polygon points="405,244.38 408.91,252.88 401.09,252.88" fill="rgba(38, 50, 52, 0.92)" />
        <path d="M 1160 430 L 1160.26 310.55" fill="none" stroke="rgba(38, 50, 52, 0.92)" stroke-width="1.85" stroke-linecap="round" stroke-linejoin="round" />
        <polygon points="1160.26,310.55 1164.15,319.06 1156.33,319.04" fill="rgba(38, 50, 52, 0.92)" />
        <path d="M 690 430 L 870 430" fill="none" stroke="rgba(96, 145, 190, 0.95)" stroke-width="2.6" stroke-linecap="round" stroke-linejoin="round" />
        <polygon points="870,430 855,436.9 855,423.1" fill="rgba(96, 145, 190, 0.95)" />
</svg>
