<svg xmlns="http://www.w3.org/2000/svg" viewBox="0 0 960 540" role="img" aria-labelledby="title desc">
<title id="title">Modular arcs over the rational line</title>
<desc id="desc">Farey and modular geodesics rise from rational boundary points in the upper half-plane.</desc>
<rect width="960" height="540" fill="#fbfaf6"/>
<g transform="translate(0 4)">
<path d="M 176.970 402.000 C 176.970 234.641 312.641 98.970 480.000 98.970 C 647.359 98.970 783.030 234.641 783.030 402.000" fill="none" stroke="#496d8a" stroke-width="0.75" stroke-linecap="round" opacity="0.18"/>
<path d="M 116.364 402.000 C 116.364 201.169 279.169 38.364 480.000 38.364 C 680.831 38.364 843.636 201.169 843.636 402.000" fill="none" stroke="#8a6b2e" stroke-width="0.75" stroke-linecap="round" opacity="0.14"/>
<path d="M 298.182 402.000 C 298.182 301.585 379.585 220.182 480.000 220.182 C 580.415 220.182 661.818 301.585 661.818 402.000" fill="none" stroke="#7a2e2e" stroke-width="2.2" stroke-linecap="round" opacity="0.95"/>
<path d="M 116.364 402.000 C 116.364 385.264 129.931 371.697 146.667 371.697 C 163.403 371.697 176.970 385.264 176.970 402.000" fill="none" stroke="#8a6b2e" stroke-width="0.75" stroke-linecap="round" opacity="0.28"/>
<path d="M 176.970 402.000 C 176.970 393.632 183.753 386.848 192.121 386.848 C 200.489 386.848 207.273 393.632 207.273 402.000" fill="none" stroke="#496d8a" stroke-width="0.75" stroke-linecap="round" opacity="0.28"/>
<path d="M 207.273 402.000 C 207.273 376.896 227.623 356.545 252.727 356.545 C 277.831 356.545 298.182 376.896 298.182 402.000" fill="none" stroke="#8a6b2e" stroke-width="0.75" stroke-linecap="round" opacity="0.28"/>
<path d="M 298.182 402.000 C 298.182 376.896 318.533 356.545 343.636 356.545 C 368.740 356.545 389.091 376.896 389.091 402.000" fill="none" stroke="#496d8a" stroke-width="0.75" stroke-linecap="round" opacity="0.28"/>
<path d="M 389.091 402.000 C 389.091 393.632 395.874 386.848 404.242 386.848 C 412.610 386.848 419.394 393.632 419.394 402.000" fill="none" stroke="#8a6b2e" stroke-width="0.75" stroke-linecap="round" opacity="0.28"/>
<path d="M 419.394 402.000 C 419.394 385.264 432.961 371.697 449.697 371.697 C 466.433 371.697 480.000 385.264 480.000 402.000" fill="none" stroke="#496d8a" stroke-width="0.75" stroke-linecap="round" opacity="0.28"/>
<path d="M 480.000 402.000 C 480.000 385.264 493.567 371.697 510.303 371.697 C 527.039 371.697 540.606 385.264 540.606 402.000" fill="none" stroke="#8a6b2e" stroke-width="0.75" stroke-linecap="round" opacity="0.28"/>
<path d="M 540.606 402.000 C 540.606 393.632 547.390 386.848 555.758 386.848 C 564.126 386.848 570.909 393.632 570.909 402.000" fill="none" stroke="#496d8a" stroke-width="0.75" stroke-linecap="round" opacity="0.28"/>
<path d="M 570.909 402.000 C 570.909 376.896 591.260 356.545 616.364 356.545 C 641.467 356.545 661.818 376.896 661.818 402.000" fill="none" stroke="#8a6b2e" stroke-width="0.75" stroke-linecap="round" opacity="0.28"/>
<path d="M 661.818 402.000 C 661.818 376.896 682.169 356.545 707.273 356.545 C 732.377 356.545 752.727 376.896 752.727 402.000" fill="none" stroke="#496d8a" stroke-width="0.75" stroke-linecap="round" opacity="0.28"/>
<path d="M 752.727 402.000 C 752.727 393.632 759.511 386.848 767.879 386.848 C 776.247 386.848 783.030 393.632 783.030 402.000" fill="none" stroke="#8a6b2e" stroke-width="0.75" stroke-linecap="round" opacity="0.28"/>
<path d="M 783.030 402.000 C 783.030 385.264 796.597 371.697 813.333 371.697 C 830.069 371.697 843.636 385.264 843.636 402.000" fill="none" stroke="#496d8a" stroke-width="0.75" stroke-linecap="round" opacity="0.28"/>
<path d="M 80.000 402.000 C 80.000 391.958 88.140 383.818 98.182 383.818 C 108.223 383.818 116.364 391.958 116.364 402.000" fill="none" stroke="#8a6b2e" stroke-width="0.68" stroke-linecap="round" opacity="0.34"/>
<path d="M 116.364 402.000 C 116.364 391.958 124.504 383.818 134.545 383.818 C 144.587 383.818 152.727 391.958 152.727 402.000" fill="none" stroke="#496d8a" stroke-width="0.68" stroke-linecap="round" opacity="0.34"/>
<path d="M 152.727 402.000 C 152.727 395.306 158.154 389.879 164.848 389.879 C 171.543 389.879 176.970 395.306 176.970 402.000" fill="none" stroke="#8a6b2e" stroke-width="0.68" stroke-linecap="round" opacity="0.34"/>
<path d="M 176.970 402.000 C 176.970 393.632 183.753 386.848 192.121 386.848 C 200.489 386.848 207.273 393.632 207.273 402.000" fill="none" stroke="#496d8a" stroke-width="0.68" stroke-linecap="round" opacity="0.34"/>
<path d="M 207.273 402.000 C 207.273 396.979 211.343 392.909 216.364 392.909 C 221.384 392.909 225.455 396.979 225.455 402.000" fill="none" stroke="#8a6b2e" stroke-width="0.68" stroke-linecap="round" opacity="0.34"/>
<path d="M 225.455 402.000 C 225.455 398.653 228.168 395.939 231.515 395.939 C 234.862 395.939 237.576 398.653 237.576 402.000" fill="none" stroke="#496d8a" stroke-width="0.68" stroke-linecap="round" opacity="0.34"/>
<path d="M 237.576 402.000 C 237.576 385.264 251.143 371.697 267.879 371.697 C 284.615 371.697 298.182 385.264 298.182 402.000" fill="none" stroke="#8a6b2e" stroke-width="0.68" stroke-linecap="round" opacity="0.34"/>
<path d="M 298.182 402.000 C 298.182 385.264 311.749 371.697 328.485 371.697 C 345.221 371.697 358.788 385.264 358.788 402.000" fill="none" stroke="#496d8a" stroke-width="0.68" stroke-linecap="round" opacity="0.34"/>
<path d="M 358.788 402.000 C 358.788 398.653 361.501 395.939 364.848 395.939 C 368.196 395.939 370.909 398.653 370.909 402.000" fill="none" stroke="#8a6b2e" stroke-width="0.68" stroke-linecap="round" opacity="0.34"/>
<path d="M 370.909 402.000 C 370.909 396.979 374.979 392.909 380.000 392.909 C 385.021 392.909 389.091 396.979 389.091 402.000" fill="none" stroke="#496d8a" stroke-width="0.68" stroke-linecap="round" opacity="0.34"/>
<path d="M 389.091 402.000 C 389.091 393.632 395.874 386.848 404.242 386.848 C 412.610 386.848 419.394 393.632 419.394 402.000" fill="none" stroke="#8a6b2e" stroke-width="0.68" stroke-linecap="round" opacity="0.34"/>
<path d="M 419.394 402.000 C 419.394 395.306 424.821 389.879 431.515 389.879 C 438.210 389.879 443.636 395.306 443.636 402.000" fill="none" stroke="#496d8a" stroke-width="0.68" stroke-linecap="round" opacity="0.34"/>
<path d="M 443.636 402.000 C 443.636 391.958 451.777 383.818 461.818 383.818 C 471.860 383.818 480.000 391.958 480.000 402.000" fill="none" stroke="#8a6b2e" stroke-width="0.68" stroke-linecap="round" opacity="0.34"/>
<path d="M 480.000 402.000 C 480.000 391.958 488.140 383.818 498.182 383.818 C 508.223 383.818 516.364 391.958 516.364 402.000" fill="none" stroke="#496d8a" stroke-width="0.68" stroke-linecap="round" opacity="0.34"/>
<path d="M 516.364 402.000 C 516.364 395.306 521.790 389.879 528.485 389.879 C 535.179 389.879 540.606 395.306 540.606 402.000" fill="none" stroke="#8a6b2e" stroke-width="0.68" stroke-linecap="round" opacity="0.34"/>
<path d="M 540.606 402.000 C 540.606 393.632 547.390 386.848 555.758 386.848 C 564.126 386.848 570.909 393.632 570.909 402.000" fill="none" stroke="#496d8a" stroke-width="0.68" stroke-linecap="round" opacity="0.34"/>
<path d="M 570.909 402.000 C 570.909 396.979 574.979 392.909 580.000 392.909 C 585.021 392.909 589.091 396.979 589.091 402.000" fill="none" stroke="#8a6b2e" stroke-width="0.68" stroke-linecap="round" opacity="0.34"/>
<path d="M 589.091 402.000 C 589.091 398.653 591.804 395.939 595.152 395.939 C 598.499 395.939 601.212 398.653 601.212 402.000" fill="none" stroke="#496d8a" stroke-width="0.68" stroke-linecap="round" opacity="0.34"/>
<path d="M 601.212 402.000 C 601.212 385.264 614.779 371.697 631.515 371.697 C 648.251 371.697 661.818 385.264 661.818 402.000" fill="none" stroke="#8a6b2e" stroke-width="0.68" stroke-linecap="round" opacity="0.34"/>
<path d="M 661.818 402.000 C 661.818 385.264 675.385 371.697 692.121 371.697 C 708.857 371.697 722.424 385.264 722.424 402.000" fill="none" stroke="#496d8a" stroke-width="0.68" stroke-linecap="round" opacity="0.34"/>
<path d="M 722.424 402.000 C 722.424 398.653 725.138 395.939 728.485 395.939 C 731.832 395.939 734.545 398.653 734.545 402.000" fill="none" stroke="#8a6b2e" stroke-width="0.68" stroke-linecap="round" opacity="0.34"/>
<path d="M 734.545 402.000 C 734.545 396.979 738.616 392.909 743.636 392.909 C 748.657 392.909 752.727 396.979 752.727 402.000" fill="none" stroke="#496d8a" stroke-width="0.68" stroke-linecap="round" opacity="0.34"/>
<path d="M 752.727 402.000 C 752.727 393.632 759.511 386.848 767.879 386.848 C 776.247 386.848 783.030 393.632 783.030 402.000" fill="none" stroke="#8a6b2e" stroke-width="0.68" stroke-linecap="round" opacity="0.34"/>
<path d="M 783.030 402.000 C 783.030 395.306 788.457 389.879 795.152 389.879 C 801.846 389.879 807.273 395.306 807.273 402.000" fill="none" stroke="#496d8a" stroke-width="0.68" stroke-linecap="round" opacity="0.34"/>
<path d="M 807.273 402.000 C 807.273 391.958 815.413 383.818 825.455 383.818 C 835.496 383.818 843.636 391.958 843.636 402.000" fill="none" stroke="#8a6b2e" stroke-width="0.68" stroke-linecap="round" opacity="0.34"/>
<path d="M 843.636 402.000 C 843.636 391.958 851.777 383.818 861.818 383.818 C 871.860 383.818 880.000 391.958 880.000 402.000" fill="none" stroke="#496d8a" stroke-width="0.68" stroke-linecap="round" opacity="0.34"/>
<path d="M 80.000 402.000 C 80.000 399.131 82.326 396.805 85.195 396.805 C 88.064 396.805 90.390 399.131 90.390 402.000" fill="none" stroke="#496d8a" stroke-width="0.62" stroke-linecap="round" opacity="0.48"/>
<path d="M 90.390 402.000 C 90.390 400.406 91.682 399.114 93.276 399.114 C 94.870 399.114 96.162 400.406 96.162 402.000" fill="none" stroke="#8a6b2e" stroke-width="0.62" stroke-linecap="round" opacity="0.48"/>
<path d="M 96.162 402.000 C 96.162 396.421 100.684 391.899 106.263 391.899 C 111.841 391.899 116.364 396.421 116.364 402.000" fill="none" stroke="#496d8a" stroke-width="0.62" stroke-linecap="round" opacity="0.48"/>
<path d="M 116.364 402.000 C 116.364 396.421 120.886 391.899 126.465 391.899 C 132.043 391.899 136.566 396.421 136.566 402.000" fill="none" stroke="#8a6b2e" stroke-width="0.62" stroke-linecap="round" opacity="0.48"/>
<path d="M 136.566 402.000 C 136.566 400.406 137.858 399.114 139.452 399.114 C 141.046 399.114 142.338 400.406 142.338 402.000" fill="none" stroke="#496d8a" stroke-width="0.62" stroke-linecap="round" opacity="0.48"/>
<path d="M 142.338 402.000 C 142.338 399.131 144.663 396.805 147.532 396.805 C 150.401 396.805 152.727 399.131 152.727 402.000" fill="none" stroke="#8a6b2e" stroke-width="0.62" stroke-linecap="round" opacity="0.48"/>
<path d="M 152.727 402.000 C 152.727 399.490 154.762 397.455 157.273 397.455 C 159.783 397.455 161.818 399.490 161.818 402.000" fill="none" stroke="#496d8a" stroke-width="0.62" stroke-linecap="round" opacity="0.48"/>
<path d="M 161.818 402.000 C 161.818 397.816 165.210 394.424 169.394 394.424 C 173.578 394.424 176.970 397.816 176.970 402.000" fill="none" stroke="#8a6b2e" stroke-width="0.62" stroke-linecap="round" opacity="0.48"/>
<path d="M 176.970 402.000 C 176.970 397.218 180.846 393.342 185.628 393.342 C 190.409 393.342 194.286 397.218 194.286 402.000" fill="none" stroke="#496d8a" stroke-width="0.62" stroke-linecap="round" opacity="0.48"/>
<path d="M 194.286 402.000 C 194.286 398.414 197.193 395.506 200.779 395.506 C 204.365 395.506 207.273 398.414 207.273 402.000" fill="none" stroke="#8a6b2e" stroke-width="0.62" stroke-linecap="round" opacity="0.48"/>
<path d="M 207.273 402.000 C 207.273 399.211 209.534 396.949 212.323 396.949 C 215.113 396.949 217.374 399.211 217.374 402.000" fill="none" stroke="#496d8a" stroke-width="0.62" stroke-linecap="round" opacity="0.48"/>
<path d="M 217.374 402.000 C 217.374 399.769 219.183 397.960 221.414 397.960 C 223.646 397.960 225.455 399.769 225.455 402.000" fill="none" stroke="#8a6b2e" stroke-width="0.62" stroke-linecap="round" opacity="0.48"/>
<path d="M 225.455 402.000 C 225.455 398.653 228.168 395.939 231.515 395.939 C 234.862 395.939 237.576 398.653 237.576 402.000" fill="none" stroke="#496d8a" stroke-width="0.62" stroke-linecap="round" opacity="0.48"/>
<path d="M 237.576 402.000 C 237.576 399.609 239.514 397.671 241.905 397.671 C 244.296 397.671 246.234 399.609 246.234 402.000" fill="none" stroke="#8a6b2e" stroke-width="0.62" stroke-linecap="round" opacity="0.48"/>
<path d="M 246.234 402.000 C 246.234 400.207 247.687 398.753 249.481 398.753 C 251.274 398.753 252.727 400.207 252.727 402.000" fill="none" stroke="#496d8a" stroke-width="0.62" stroke-linecap="round" opacity="0.48"/>
<path d="M 252.727 402.000 C 252.727 400.605 253.858 399.475 255.253 399.475 C 256.647 399.475 257.778 400.605 257.778 402.000" fill="none" stroke="#8a6b2e" stroke-width="0.62" stroke-linecap="round" opacity="0.48"/>
<path d="M 257.778 402.000 C 257.778 390.843 266.823 381.798 277.980 381.798 C 289.137 381.798 298.182 390.843 298.182 402.000" fill="none" stroke="#496d8a" stroke-width="0.62" stroke-linecap="round" opacity="0.48"/>
<path d="M 298.182 402.000 C 298.182 390.843 307.227 381.798 318.384 381.798 C 329.541 381.798 338.586 390.843 338.586 402.000" fill="none" stroke="#8a6b2e" stroke-width="0.62" stroke-linecap="round" opacity="0.48"/>
<path d="M 338.586 402.000 C 338.586 400.605 339.716 399.475 341.111 399.475 C 342.506 399.475 343.636 400.605 343.636 402.000" fill="none" stroke="#496d8a" stroke-width="0.62" stroke-linecap="round" opacity="0.48"/>
<path d="M 343.636 402.000 C 343.636 400.207 345.090 398.753 346.883 398.753 C 348.676 398.753 350.130 400.207 350.130 402.000" fill="none" stroke="#8a6b2e" stroke-width="0.62" stroke-linecap="round" opacity="0.48"/>
<path d="M 350.130 402.000 C 350.130 399.609 352.068 397.671 354.459 397.671 C 356.850 397.671 358.788 399.609 358.788 402.000" fill="none" stroke="#496d8a" stroke-width="0.62" stroke-linecap="round" opacity="0.48"/>
<path d="M 358.788 402.000 C 358.788 398.653 361.501 395.939 364.848 395.939 C 368.196 395.939 370.909 398.653 370.909 402.000" fill="none" stroke="#8a6b2e" stroke-width="0.62" stroke-linecap="round" opacity="0.48"/>
<path d="M 370.909 402.000 C 370.909 399.769 372.718 397.960 374.949 397.960 C 377.181 397.960 378.990 399.769 378.990 402.000" fill="none" stroke="#496d8a" stroke-width="0.62" stroke-linecap="round" opacity="0.48"/>
<path d="M 378.990 402.000 C 378.990 399.211 381.251 396.949 384.040 396.949 C 386.830 396.949 389.091 399.211 389.091 402.000" fill="none" stroke="#8a6b2e" stroke-width="0.62" stroke-linecap="round" opacity="0.48"/>
<path d="M 389.091 402.000 C 389.091 398.414 391.998 395.506 395.584 395.506 C 399.171 395.506 402.078 398.414 402.078 402.000" fill="none" stroke="#496d8a" stroke-width="0.62" stroke-linecap="round" opacity="0.48"/>
<path d="M 402.078 402.000 C 402.078 397.218 405.954 393.342 410.736 393.342 C 415.518 393.342 419.394 397.218 419.394 402.000" fill="none" stroke="#8a6b2e" stroke-width="0.62" stroke-linecap="round" opacity="0.48"/>
<path d="M 419.394 402.000 C 419.394 397.816 422.786 394.424 426.970 394.424 C 431.154 394.424 434.545 397.816 434.545 402.000" fill="none" stroke="#496d8a" stroke-width="0.62" stroke-linecap="round" opacity="0.48"/>
<path d="M 434.545 402.000 C 434.545 399.490 436.581 397.455 439.091 397.455 C 441.601 397.455 443.636 399.490 443.636 402.000" fill="none" stroke="#8a6b2e" stroke-width="0.62" stroke-linecap="round" opacity="0.48"/>
<path d="M 443.636 402.000 C 443.636 399.131 445.962 396.805 448.831 396.805 C 451.700 396.805 454.026 399.131 454.026 402.000" fill="none" stroke="#496d8a" stroke-width="0.62" stroke-linecap="round" opacity="0.48"/>
<path d="M 454.026 402.000 C 454.026 400.406 455.318 399.114 456.912 399.114 C 458.506 399.114 459.798 400.406 459.798 402.000" fill="none" stroke="#8a6b2e" stroke-width="0.62" stroke-linecap="round" opacity="0.48"/>
<path d="M 459.798 402.000 C 459.798 396.421 464.320 391.899 469.899 391.899 C 475.478 391.899 480.000 396.421 480.000 402.000" fill="none" stroke="#496d8a" stroke-width="0.62" stroke-linecap="round" opacity="0.48"/>
<path d="M 480.000 402.000 C 480.000 396.421 484.522 391.899 490.101 391.899 C 495.680 391.899 500.202 396.421 500.202 402.000" fill="none" stroke="#8a6b2e" stroke-width="0.62" stroke-linecap="round" opacity="0.48"/>
<path d="M 500.202 402.000 C 500.202 400.406 501.494 399.114 503.088 399.114 C 504.682 399.114 505.974 400.406 505.974 402.000" fill="none" stroke="#496d8a" stroke-width="0.62" stroke-linecap="round" opacity="0.48"/>
<path d="M 505.974 402.000 C 505.974 399.131 508.300 396.805 511.169 396.805 C 514.038 396.805 516.364 399.131 516.364 402.000" fill="none" stroke="#8a6b2e" stroke-width="0.62" stroke-linecap="round" opacity="0.48"/>
<path d="M 516.364 402.000 C 516.364 399.490 518.399 397.455 520.909 397.455 C 523.419 397.455 525.455 399.490 525.455 402.000" fill="none" stroke="#496d8a" stroke-width="0.62" stroke-linecap="round" opacity="0.48"/>
<path d="M 525.455 402.000 C 525.455 397.816 528.846 394.424 533.030 394.424 C 537.214 394.424 540.606 397.816 540.606 402.000" fill="none" stroke="#8a6b2e" stroke-width="0.62" stroke-linecap="round" opacity="0.48"/>
<path d="M 540.606 402.000 C 540.606 397.218 544.482 393.342 549.264 393.342 C 554.046 393.342 557.922 397.218 557.922 402.000" fill="none" stroke="#496d8a" stroke-width="0.62" stroke-linecap="round" opacity="0.48"/>
<path d="M 557.922 402.000 C 557.922 398.414 560.829 395.506 564.416 395.506 C 568.002 395.506 570.909 398.414 570.909 402.000" fill="none" stroke="#8a6b2e" stroke-width="0.62" stroke-linecap="round" opacity="0.48"/>
<path d="M 570.909 402.000 C 570.909 399.211 573.170 396.949 575.960 396.949 C 578.749 396.949 581.010 399.211 581.010 402.000" fill="none" stroke="#496d8a" stroke-width="0.62" stroke-linecap="round" opacity="0.48"/>
<path d="M 581.010 402.000 C 581.010 399.769 582.819 397.960 585.051 397.960 C 587.282 397.960 589.091 399.769 589.091 402.000" fill="none" stroke="#8a6b2e" stroke-width="0.62" stroke-linecap="round" opacity="0.48"/>
<path d="M 589.091 402.000 C 589.091 398.653 591.804 395.939 595.152 395.939 C 598.499 395.939 601.212 398.653 601.212 402.000" fill="none" stroke="#496d8a" stroke-width="0.62" stroke-linecap="round" opacity="0.48"/>
<path d="M 601.212 402.000 C 601.212 399.609 603.150 397.671 605.541 397.671 C 607.932 397.671 609.870 399.609 609.870 402.000" fill="none" stroke="#8a6b2e" stroke-width="0.62" stroke-linecap="round" opacity="0.48"/>
<path d="M 609.870 402.000 C 609.870 400.207 611.324 398.753 613.117 398.753 C 614.910 398.753 616.364 400.207 616.364 402.000" fill="none" stroke="#496d8a" stroke-width="0.62" stroke-linecap="round" opacity="0.48"/>
<path d="M 616.364 402.000 C 616.364 400.605 617.494 399.475 618.889 399.475 C 620.284 399.475 621.414 400.605 621.414 402.000" fill="none" stroke="#8a6b2e" stroke-width="0.62" stroke-linecap="round" opacity="0.48"/>
<path d="M 621.414 402.000 C 621.414 390.843 630.459 381.798 641.616 381.798 C 652.773 381.798 661.818 390.843 661.818 402.000" fill="none" stroke="#496d8a" stroke-width="0.62" stroke-linecap="round" opacity="0.48"/>
<path d="M 661.818 402.000 C 661.818 390.843 670.863 381.798 682.020 381.798 C 693.177 381.798 702.222 390.843 702.222 402.000" fill="none" stroke="#8a6b2e" stroke-width="0.62" stroke-linecap="round" opacity="0.48"/>
<path d="M 702.222 402.000 C 702.222 400.605 703.353 399.475 704.747 399.475 C 706.142 399.475 707.273 400.605 707.273 402.000" fill="none" stroke="#496d8a" stroke-width="0.62" stroke-linecap="round" opacity="0.48"/>
<path d="M 707.273 402.000 C 707.273 400.207 708.726 398.753 710.519 398.753 C 712.313 398.753 713.766 400.207 713.766 402.000" fill="none" stroke="#8a6b2e" stroke-width="0.62" stroke-linecap="round" opacity="0.48"/>
<path d="M 713.766 402.000 C 713.766 399.609 715.704 397.671 718.095 397.671 C 720.486 397.671 722.424 399.609 722.424 402.000" fill="none" stroke="#496d8a" stroke-width="0.62" stroke-linecap="round" opacity="0.48"/>
<path d="M 722.424 402.000 C 722.424 398.653 725.138 395.939 728.485 395.939 C 731.832 395.939 734.545 398.653 734.545 402.000" fill="none" stroke="#8a6b2e" stroke-width="0.62" stroke-linecap="round" opacity="0.48"/>
<path d="M 734.545 402.000 C 734.545 399.769 736.354 397.960 738.586 397.960 C 740.817 397.960 742.626 399.769 742.626 402.000" fill="none" stroke="#496d8a" stroke-width="0.62" stroke-linecap="round" opacity="0.48"/>
<path d="M 742.626 402.000 C 742.626 399.211 744.887 396.949 747.677 396.949 C 750.466 396.949 752.727 399.211 752.727 402.000" fill="none" stroke="#8a6b2e" stroke-width="0.62" stroke-linecap="round" opacity="0.48"/>
<path d="M 752.727 402.000 C 752.727 398.414 755.635 395.506 759.221 395.506 C 762.807 395.506 765.714 398.414 765.714 402.000" fill="none" stroke="#496d8a" stroke-width="0.62" stroke-linecap="round" opacity="0.48"/>
<path d="M 765.714 402.000 C 765.714 397.218 769.591 393.342 774.372 393.342 C 779.154 393.342 783.030 397.218 783.030 402.000" fill="none" stroke="#8a6b2e" stroke-width="0.62" stroke-linecap="round" opacity="0.48"/>
<path d="M 783.030 402.000 C 783.030 397.816 786.422 394.424 790.606 394.424 C 794.790 394.424 798.182 397.816 798.182 402.000" fill="none" stroke="#496d8a" stroke-width="0.62" stroke-linecap="round" opacity="0.48"/>
<path d="M 798.182 402.000 C 798.182 399.490 800.217 397.455 802.727 397.455 C 805.238 397.455 807.273 399.490 807.273 402.000" fill="none" stroke="#8a6b2e" stroke-width="0.62" stroke-linecap="round" opacity="0.48"/>
<path d="M 807.273 402.000 C 807.273 399.131 809.599 396.805 812.468 396.805 C 815.337 396.805 817.662 399.131 817.662 402.000" fill="none" stroke="#496d8a" stroke-width="0.62" stroke-linecap="round" opacity="0.48"/>
<path d="M 817.662 402.000 C 817.662 400.406 818.954 399.114 820.548 399.114 C 822.142 399.114 823.434 400.406 823.434 402.000" fill="none" stroke="#8a6b2e" stroke-width="0.62" stroke-linecap="round" opacity="0.48"/>
<path d="M 823.434 402.000 C 823.434 396.421 827.957 391.899 833.535 391.899 C 839.114 391.899 843.636 396.421 843.636 402.000" fill="none" stroke="#496d8a" stroke-width="0.62" stroke-linecap="round" opacity="0.48"/>
<path d="M 843.636 402.000 C 843.636 396.421 848.159 391.899 853.737 391.899 C 859.316 391.899 863.838 396.421 863.838 402.000" fill="none" stroke="#8a6b2e" stroke-width="0.62" stroke-linecap="round" opacity="0.48"/>
<path d="M 863.838 402.000 C 863.838 400.406 865.130 399.114 866.724 399.114 C 868.318 399.114 869.610 400.406 869.610 402.000" fill="none" stroke="#496d8a" stroke-width="0.62" stroke-linecap="round" opacity="0.48"/>
<path d="M 869.610 402.000 C 869.610 399.131 871.936 396.805 874.805 396.805 C 877.674 396.805 880.000 399.131 880.000 402.000" fill="none" stroke="#8a6b2e" stroke-width="0.62" stroke-linecap="round" opacity="0.48"/>
<line x1="419.394" y1="182.000" x2="419.394" y2="402.000" stroke="#7a2e2e" stroke-width="2.1" stroke-linecap="round" opacity="0.92"/>
<line x1="540.606" y1="182.000" x2="540.606" y2="402.000" stroke="#7a2e2e" stroke-width="2.1" stroke-linecap="round" opacity="0.92"/>
<line x1="74.000" y1="402.000" x2="886.000" y2="402.000" stroke="#6f8790" stroke-width="1.1" stroke-linecap="round" opacity="0.7"/>
<circle cx="298.182" cy="402.000" r="3.6" fill="#2f2b25" opacity="0.95"/>
<circle cx="419.394" cy="402.000" r="2.8" fill="#2f2b25" opacity="0.82"/>
<circle cx="480.000" cy="402.000" r="3.5" fill="#2f2b25" opacity="0.9"/>
<circle cx="540.606" cy="402.000" r="2.8" fill="#2f2b25" opacity="0.82"/>
<circle cx="661.818" cy="402.000" r="3.6" fill="#2f2b25" opacity="0.95"/>
<circle cx="116.364" cy="402.000" r="2.4" fill="#2f2b25" opacity="0.65"/>
<circle cx="843.636" cy="402.000" r="2.4" fill="#2f2b25" opacity="0.65"/>
<path d="M 110 404 C 300 397, 520 407, 850 400" fill="none" stroke="#2f2b25" stroke-width="0.35" opacity="0.08"/>
</g>
</svg>
