<?xml version="1.0" encoding="UTF-8"?>
<svg xmlns="http://www.w3.org/2000/svg" viewBox="0 0 800 1000" role="img" aria-labelledby="a-transport-map-carrying-one-distribution-into-another">
  <title id="a-transport-map-carrying-one-distribution-into-another">A transport map carrying one distribution into another</title>
  <defs>
  <marker id="open-arrow" viewBox="0 0 14 14" refX="12" refY="7"
    markerWidth="14" markerHeight="14" markerUnits="userSpaceOnUse" orient="auto">
    <path d="M 2 2 L 12 7 L 2 12" fill="none" stroke="context-stroke"
      stroke-width="2.2" stroke-linecap="round" stroke-linejoin="round"/>
  </marker>
  <style>
    .ink { fill: none; stroke: #25343d; stroke-width: 3.2; stroke-linecap: round; stroke-linejoin: round; }
    .blue { fill: none; stroke: #54778c; stroke-width: 3.4; stroke-linecap: round; stroke-linejoin: round; }
    .red { fill: none; stroke: #9b625c; stroke-width: 3.4; stroke-linecap: round; stroke-linejoin: round; }
    .gold { fill: none; stroke: #b08d55; stroke-width: 3.2; stroke-linecap: round; stroke-linejoin: round; }
    .green { fill: none; stroke: #718677; stroke-width: 3.2; stroke-linecap: round; stroke-linejoin: round; }
    .violet { fill: none; stroke: #756b82; stroke-width: 3.2; stroke-linecap: round; stroke-linejoin: round; }
    .soft { fill: none; stroke: #9ba9ad; stroke-width: 1.75; stroke-linecap: round; stroke-linejoin: round; }
  </style></defs>
  <ellipse cx="290" cy="210" rx="165" ry="93"
      fill="none" fill-opacity="0.2" stroke="#54778c"
      stroke-width="3" opacity="0.42"/>
<ellipse cx="290" cy="210" rx="122" ry="66"
      fill="none" fill-opacity="0.2" stroke="#54778c"
      stroke-width="2.65" opacity="0.57"/>
<ellipse cx="290" cy="210" rx="76" ry="39"
      fill="#dce7ea" fill-opacity="0.2" stroke="#54778c"
      stroke-width="2.3" opacity="0.72"/>
    <path d="M 170 210 C 218.13 420, 321.87 568, 370 795.25"
      fill="none" stroke="#b08d55"
      stroke-width="2.1" opacity="0.38"
      marker-end="url(#open-arrow)"/>
<path d="M 194 185.31 C 237.66 420, 353.34 568, 397 810.08"
      fill="none" stroke="#54778c"
      stroke-width="2.1" opacity="0.38"
      marker-end="url(#open-arrow)"/>
<path d="M 218 170.06 C 209.48 420, 432.52 568, 424 815.98"
      fill="none" stroke="#b08d55"
      stroke-width="2.1" opacity="0.38"
      marker-end="url(#open-arrow)"/>
<path d="M 242 170.06 C 190.61 420, 502.39 568, 451 811.3"
      fill="none" stroke="#54778c"
      stroke-width="2.1" opacity="0.38"
      marker-end="url(#open-arrow)"/>
<path d="M 266 185.31 C 227.9 420, 516.1 568, 478 797.34"
      fill="none" stroke="#b08d55"
      stroke-width="2.1" opacity="0.38"
      marker-end="url(#open-arrow)"/>
<path d="M 290 210 C 306.82 420, 488.18 568, 505 778"
      fill="none" stroke="#25343d"
      stroke-width="3.6" opacity="0.8"
      marker-end="url(#open-arrow)"/>
<path d="M 314 234.69 C 367.36 420, 478.64 568, 532 758.66"
      fill="none" stroke="#b08d55"
      stroke-width="2.1" opacity="0.38"
      marker-end="url(#open-arrow)"/>
<path d="M 338 249.94 C 369.59 420, 527.41 568, 559 744.7"
      fill="none" stroke="#54778c"
      stroke-width="2.1" opacity="0.38"
      marker-end="url(#open-arrow)"/>
<path d="M 362 249.94 C 337.29 420, 610.71 568, 586 740.02"
      fill="none" stroke="#b08d55"
      stroke-width="2.1" opacity="0.38"
      marker-end="url(#open-arrow)"/>
<path d="M 386 234.69 C 332 420, 667 568, 613 745.92"
      fill="none" stroke="#54778c"
      stroke-width="2.1" opacity="0.38"
      marker-end="url(#open-arrow)"/>
<path d="M 410 210 C 385.72 420, 664.28 568, 640 760.75"
      fill="none" stroke="#b08d55"
      stroke-width="2.1" opacity="0.38"
      marker-end="url(#open-arrow)"/>
    <ellipse cx="505" cy="778" rx="176" ry="88"
      fill="none" fill-opacity="0.2" stroke="#b08d55"
      stroke-width="3" opacity="0.42"/>
<ellipse cx="505" cy="778" rx="128" ry="61"
      fill="none" fill-opacity="0.2" stroke="#b08d55"
      stroke-width="2.65" opacity="0.57"/>
<ellipse cx="505" cy="778" rx="78" ry="34"
      fill="#eee3c9" fill-opacity="0.2" stroke="#b08d55"
      stroke-width="2.3" opacity="0.72"/>
</svg>
