<svg xmlns="http://www.w3.org/2000/svg" width="960" height="540" viewBox="0 0 960 540" role="img" aria-labelledby="title desc">
  <title id="title">Optimization saddle minimax prototype v3</title>
  <desc id="desc">A hyperbolic-paraboloid saddle whose highlighted minimax directions are actual coordinate curves on the surface and meet at the saddle point.</desc>
  <defs>
    <linearGradient id="bg" x1="0" y1="0" x2="1" y2="1">
      <stop offset="0" stop-color="#fbfaf4"/>
      <stop offset="1" stop-color="#eef3f2"/>
    </linearGradient>
    <linearGradient id="surface" x1="0" y1="0" x2="0" y2="1">
      <stop offset="0" stop-color="#9fb9b6" stop-opacity="0.18"/>
      <stop offset="1" stop-color="#d8bf74" stop-opacity="0.07"/>
    </linearGradient>
    <marker id="blueArrow" viewBox="0 0 10 10" refX="8" refY="5" markerWidth="5" markerHeight="5" orient="auto">
      <path d="M0 0 L10 5 L0 10 Z" fill="#557a80"/>
    </marker>
    <marker id="goldArrow" viewBox="0 0 10 10" refX="8" refY="5" markerWidth="5" markerHeight="5" orient="auto">
      <path d="M0 0 L10 5 L0 10 Z" fill="#a27c4d"/>
    </marker>
    <filter id="soft" x="-20%" y="-20%" width="140%" height="140%">
      <feGaussianBlur stdDeviation="2.2"/>
    </filter>
  </defs>

  <rect width="960" height="540" rx="10" fill="url(#bg)"/>

  <g fill="none" stroke-linecap="round" stroke-linejoin="round">
    <path d="M190 213 C284 170, 456 150, 630 213 C720 246, 768 291, 770 294
             C654 408, 462 462, 330 294 C240 180, 192 211, 190 213 Z"
          fill="url(#surface)" opacity="0.90"/>

    <g stroke="#5f7f80" stroke-width="1.25" opacity="0.50">
      <path d="M 202.0 243.2 L 209.8 232.5 L 217.6 223.3 L 225.4 215.8 L 233.2 209.9 L 241.0 205.6 L 248.8 202.8 L 256.6 201.7 L 264.4 202.2 L 272.2 204.3 L 280.0 208.0 L 287.8 213.3 L 295.6 220.2 L 303.4 228.7 L 311.2 238.8 L 319.0 250.6 L 326.8 263.9 L 334.6 278.8 L 342.4 295.3 L 350.2 313.5 L 358.0 333.2"/>
      <path d="M 252.0 283.5 L 259.8 272.7 L 267.6 263.6 L 275.4 256.1 L 283.2 250.1 L 291.0 245.8 L 298.8 243.1 L 306.6 242.0 L 314.4 242.5 L 322.2 244.6 L 330.0 248.3 L 337.8 253.6 L 345.6 260.5 L 353.4 269.0 L 361.2 279.1 L 369.0 290.8 L 376.8 304.1 L 384.6 319.1 L 392.4 335.6 L 400.2 353.7 L 408.0 373.5"/>
      <path d="M 302.0 312.2 L 309.8 301.5 L 317.6 292.3 L 325.4 284.8 L 333.2 278.9 L 341.0 274.6 L 348.8 271.8 L 356.6 270.7 L 364.4 271.2 L 372.2 273.3 L 380.0 277.0 L 387.8 282.3 L 395.6 289.2 L 403.4 297.7 L 411.2 307.8 L 419.0 319.6 L 426.8 332.9 L 434.6 347.8 L 442.4 364.3 L 450.2 382.5 L 458.0 402.2"/>
      <path d="M 352.0 329.5 L 359.8 318.7 L 367.6 309.6 L 375.4 302.1 L 383.2 296.1 L 391.0 291.8 L 398.8 289.1 L 406.6 288.0 L 414.4 288.5 L 422.2 290.6 L 430.0 294.3 L 437.8 299.6 L 445.6 306.5 L 453.4 315.0 L 461.2 325.1 L 469.0 336.8 L 476.8 350.1 L 484.6 365.1 L 492.4 381.6 L 500.2 399.7 L 508.0 419.5"/>
      <path d="M 402.0 335.2 L 409.8 324.5 L 417.6 315.3 L 425.4 307.8 L 433.2 301.9 L 441.0 297.6 L 448.8 294.8 L 456.6 293.7 L 464.4 294.2 L 472.2 296.3 L 480.0 300.0 L 487.8 305.3 L 495.6 312.2 L 503.4 320.7 L 511.2 330.8 L 519.0 342.6 L 526.8 355.9 L 534.6 370.8 L 542.4 387.3 L 550.2 405.5 L 558.0 425.2"/>
      <path d="M 452.0 329.5 L 459.8 318.7 L 467.6 309.6 L 475.4 302.1 L 483.2 296.1 L 491.0 291.8 L 498.8 289.1 L 506.6 288.0 L 514.4 288.5 L 522.2 290.6 L 530.0 294.3 L 537.8 299.6 L 545.6 306.5 L 553.4 315.0 L 561.2 325.1 L 569.0 336.8 L 576.8 350.1 L 584.6 365.1 L 592.4 381.6 L 600.2 399.7 L 608.0 419.5"/>
      <path d="M 502.0 312.2 L 509.8 301.5 L 517.6 292.3 L 525.4 284.8 L 533.2 278.9 L 541.0 274.6 L 548.8 271.8 L 556.6 270.7 L 564.4 271.2 L 572.2 273.3 L 580.0 277.0 L 587.8 282.3 L 595.6 289.2 L 603.4 297.7 L 611.2 307.8 L 619.0 319.6 L 626.8 332.9 L 634.6 347.8 L 642.4 364.3 L 650.2 382.5 L 658.0 402.2"/>
      <path d="M 552.0 283.5 L 559.8 272.7 L 567.6 263.6 L 575.4 256.1 L 583.2 250.1 L 591.0 245.8 L 598.8 243.1 L 606.6 242.0 L 614.4 242.5 L 622.2 244.6 L 630.0 248.3 L 637.8 253.6 L 645.6 260.5 L 653.4 269.0 L 661.2 279.1 L 669.0 290.8 L 676.8 304.1 L 684.6 319.1 L 692.4 335.6 L 700.2 353.7 L 708.0 373.5"/>
      <path d="M 602.0 243.2 L 609.8 232.5 L 617.6 223.3 L 625.4 215.8 L 633.2 209.9 L 641.0 205.6 L 648.8 202.8 L 656.6 201.7 L 664.4 202.2 L 672.2 204.3 L 680.0 208.0 L 687.8 213.3 L 695.6 220.2 L 703.4 228.7 L 711.2 238.8 L 719.0 250.6 L 726.8 263.9 L 734.6 278.8 L 742.4 295.3 L 750.2 313.5 L 758.0 333.2"/>
    </g>

    <g stroke="#b19159" stroke-width="1.15" opacity="0.40">
      <path d="M 189.8 213.2 L 209.8 232.5 L 229.8 250.0 L 249.8 265.6 L 269.8 279.4 L 289.8 291.4 L 309.8 301.5 L 329.8 309.8 L 349.8 316.2 L 369.8 320.8 L 389.8 323.6 L 409.8 324.5 L 429.8 323.6 L 449.8 320.8 L 469.8 316.2 L 489.8 309.8 L 509.8 301.5 L 529.8 291.4 L 549.8 279.4 L 569.8 265.6 L 589.8 250.0 L 609.8 232.5 L 629.8 213.2"/>
      <path d="M 213.2 190.6 L 233.2 209.9 L 253.2 227.4 L 273.2 243.0 L 293.2 256.8 L 313.2 268.8 L 333.2 278.9 L 353.2 287.2 L 373.2 293.6 L 393.2 298.2 L 413.2 301.0 L 433.2 301.9 L 453.2 301.0 L 473.2 298.2 L 493.2 293.6 L 513.2 287.2 L 533.2 278.9 L 553.2 268.8 L 573.2 256.8 L 593.2 243.0 L 613.2 227.4 L 633.2 209.9 L 653.2 190.6"/>
      <path d="M 236.6 182.4 L 256.6 201.7 L 276.6 219.2 L 296.6 234.8 L 316.6 248.6 L 336.6 260.6 L 356.6 270.7 L 376.6 279.0 L 396.6 285.4 L 416.6 290.0 L 436.6 292.8 L 456.6 293.7 L 476.6 292.8 L 496.6 290.0 L 516.6 285.4 L 536.6 279.0 L 556.6 270.7 L 576.6 260.6 L 596.6 248.6 L 616.6 234.8 L 636.6 219.2 L 656.6 201.7 L 676.6 182.4"/>
      <path d="M 260.0 188.7 L 280.0 208.0 L 300.0 225.5 L 320.0 241.1 L 340.0 254.9 L 360.0 266.9 L 380.0 277.0 L 400.0 285.3 L 420.0 291.7 L 440.0 296.3 L 460.0 299.1 L 480.0 300.0 L 500.0 299.1 L 520.0 296.3 L 540.0 291.7 L 560.0 285.3 L 580.0 277.0 L 600.0 266.9 L 620.0 254.9 L 640.0 241.1 L 660.0 225.5 L 680.0 208.0 L 700.0 188.7"/>
      <path d="M 283.4 209.4 L 303.4 228.7 L 323.4 246.2 L 343.4 261.8 L 363.4 275.6 L 383.4 287.6 L 403.4 297.7 L 423.4 306.0 L 443.4 312.4 L 463.4 317.0 L 483.4 319.8 L 503.4 320.7 L 523.4 319.8 L 543.4 317.0 L 563.4 312.4 L 583.4 306.0 L 603.4 297.7 L 623.4 287.6 L 643.4 275.6 L 663.4 261.8 L 683.4 246.2 L 703.4 228.7 L 723.4 209.4"/>
      <path d="M 306.8 244.6 L 326.8 263.9 L 346.8 281.4 L 366.8 297.0 L 386.8 310.8 L 406.8 322.8 L 426.8 332.9 L 446.8 341.2 L 466.8 347.6 L 486.8 352.2 L 506.8 355.0 L 526.8 355.9 L 546.8 355.0 L 566.8 352.2 L 586.8 347.6 L 606.8 341.2 L 626.8 332.9 L 646.8 322.8 L 666.8 310.8 L 686.8 297.0 L 706.8 281.4 L 726.8 263.9 L 746.8 244.6"/>
      <path d="M 330.2 294.2 L 350.2 313.5 L 370.2 331.0 L 390.2 346.6 L 410.2 360.4 L 430.2 372.4 L 450.2 382.5 L 470.2 390.8 L 490.2 397.2 L 510.2 401.8 L 530.2 404.6 L 550.2 405.5 L 570.2 404.6 L 590.2 401.8 L 610.2 397.2 L 630.2 390.8 L 650.2 382.5 L 670.2 372.4 L 690.2 360.4 L 710.2 346.6 L 730.2 331.0 L 750.2 313.5 L 770.2 294.2"/>
    </g>

    <path d="M700 188.7 L680 208 L660 225.5 L640 241.1 L620 254.9 L600 266.9 L580 277 L560 285.3 L540 291.7 L520 296.3 L500 299.1 L480 300"
          stroke="#557a80" stroke-width="2.8" opacity="0.92" marker-end="url(#blueArrow)"/>
    <path d="M558 425.2 L550.2 405.5 L542.4 387.3 L534.6 370.8 L526.8 355.9 L519 342.6 L511.2 330.8 L503.4 320.7 L495.6 312.2 L487.8 305.3 L480 300"
          stroke="#a27c4d" stroke-width="2.6" opacity="0.86" marker-end="url(#goldArrow)"/>

    <circle cx="480" cy="300" r="5.8" fill="#a65d4f" opacity="0.88"/>
    <circle cx="480" cy="300" r="13.5" fill="none" stroke="#a65d4f" stroke-width="1.05" opacity="0.30"/>
    <path d="M450 300 C472 286, 502 286, 524 300" stroke="#ffffff" stroke-width="6" opacity="0.13" filter="url(#soft)"/>
  </g>
</svg>
