<svg xmlns="http://www.w3.org/2000/svg" width="960" height="540" viewBox="0 0 960 540" role="img" aria-labelledby="title desc">
  <title id="title">Optimal transport as displacement of mass</title>
  <desc id="desc">Two probability densities are connected by a smooth family of noncrossing transport trajectories.</desc>
  <defs>
    <linearGradient id="flow" x1="0" y1="0" x2="1" y2="0">
      <stop offset="0" stop-color="#557c91"/>
      <stop offset="0.48" stop-color="#7c8c79"/>
      <stop offset="1" stop-color="#9a6259"/>
    </linearGradient>
    <linearGradient id="sourceWash" x1="0" y1="0" x2="1" y2="1">
      <stop offset="0" stop-color="#dce9ee" stop-opacity="0.62"/>
      <stop offset="1" stop-color="#dce9ee" stop-opacity="0.08"/>
    </linearGradient>
    <linearGradient id="targetWash" x1="0" y1="0" x2="1" y2="1">
      <stop offset="0" stop-color="#eaded9" stop-opacity="0.08"/>
      <stop offset="1" stop-color="#eaded9" stop-opacity="0.64"/>
    </linearGradient>
  </defs>

  <rect width="960" height="540" fill="#fbfaf6"/>
  <rect x="0.5" y="0.5" width="959" height="539" fill="none" stroke="#d8d2c5"/>

  <path d="M251 143
           C180 116 106 171 99 270
           C92 374 171 425 256 367
           C323 322 327 207 277 163
           C268 155 259 148 251 143 Z"
        fill="url(#sourceWash)" stroke="none"/>
  <path d="M693 163
           C765 117 860 164 872 250
           C885 340 808 405 715 379
           C640 358 612 235 666 184
           C674 176 683 169 693 163 Z"
        fill="url(#targetWash)" stroke="none"/>

  <g fill="none" stroke-linecap="round" stroke-linejoin="round">
    <path d="M251 143
             C180 116 106 171 99 270
             C92 374 171 425 256 367
             C323 322 327 207 277 163
             C268 155 259 148 251 143 Z"
          stroke="#557c91" stroke-width="2.6" opacity="0.88"/>
    <path d="M237 177
             C181 157 129 202 126 275
             C122 347 178 383 238 343
             C287 311 291 228 254 191
             C249 185 243 181 237 177 Z"
          stroke="#557c91" stroke-width="2.05" opacity="0.66"/>
    <path d="M224 210
             C184 198 155 229 154 278
             C153 326 189 349 226 324
             C258 302 260 249 237 221
             C233 217 229 213 224 210 Z"
          stroke="#557c91" stroke-width="1.6" opacity="0.42"/>

    <path d="M693 163
             C765 117 860 164 872 250
             C885 340 808 405 715 379
             C640 358 612 235 666 184
             C674 176 683 169 693 163 Z"
          stroke="#9a6259" stroke-width="2.6" opacity="0.88"/>
    <path d="M709 193
             C766 158 835 191 842 254
             C850 318 795 363 729 345
             C675 331 655 243 693 206
             C698 201 703 197 709 193 Z"
          stroke="#9a6259" stroke-width="2.05" opacity="0.66"/>
    <path d="M725 222
             C766 199 811 222 814 260
             C818 301 781 327 741 316
             C708 307 694 256 715 232
             C718 228 721 225 725 222 Z"
          stroke="#9a6259" stroke-width="1.6" opacity="0.42"/>

    <path d="M105 236 C264 113 518 123 864 216"
          stroke="url(#flow)" stroke-width="1.45" opacity="0.30"/>
    <path d="M102 270 C271 171 520 160 873 247"
          stroke="url(#flow)" stroke-width="1.75" opacity="0.43"/>
    <path d="M107 305 C287 228 536 203 873 280"
          stroke="url(#flow)" stroke-width="2.05" opacity="0.58"/>
    <path d="M123 340 C306 284 552 253 859 316"
          stroke="url(#flow)" stroke-width="2.25" opacity="0.72"/>
    <path d="M151 374 C326 337 572 309 830 350"
          stroke="url(#flow)" stroke-width="1.85" opacity="0.48"/>

    <path d="M286 275 C392 245 526 236 665 257"
          stroke="url(#flow)" stroke-width="3" opacity="0.88"/>
    <path d="M493 240 L510 244 L497 255"
          stroke="#7c8c79" stroke-width="2.8" opacity="0.84"/>

    <path d="M426 204
             C448 188 482 187 506 202
             C530 217 535 247 520 268
             C505 290 469 296 442 280
             C414 264 405 225 426 204 Z"
          stroke="#879084" stroke-width="1.25" opacity="0.18"/>
    <path d="M450 218
             C465 208 487 208 501 219
             C516 230 518 249 508 262
             C497 276 474 278 458 267
             C441 256 437 229 450 218 Z"
          stroke="#879084" stroke-width="1.05" opacity="0.13"/>
  </g>
</svg>
