<svg xmlns="http://www.w3.org/2000/svg" width="960" height="540" viewBox="0 0 960 540" role="img" aria-label="Continuum, Dedekind cut, and nested intervals">
<defs>
<linearGradient id="bg" x1="0" y1="0" x2="1" y2="1"><stop offset="0" stop-color="#fbfaf6"/><stop offset="1" stop-color="#f4efe4"/></linearGradient>
<radialGradient id="warm" cx="48%" cy="40%" r="62%"><stop offset="0" stop-color="#fff4d4" stop-opacity="0.46"/><stop offset="0.64" stop-color="#f5d894" stop-opacity="0.10"/><stop offset="1" stop-color="#fbfaf6" stop-opacity="0"/></radialGradient>
<filter id="soft" x="-20%" y="-20%" width="140%" height="140%"><feDropShadow dx="0" dy="8" stdDeviation="10" flood-color="#7c684c" flood-opacity="0.11"/></filter>
</defs>
<rect width="960" height="540" fill="url(#bg)"/>
<rect width="960" height="540" fill="url(#warm)"/>
<path d="M112,286 L848,286" stroke="#24211f" stroke-width="1.25" opacity="0.32"/>
<circle cx="711.3" cy="261.9" r="1.1" fill="#496d8a" opacity="0.21"/>
<circle cx="155.2" cy="276.5" r="0.9" fill="#496d8a" opacity="0.19"/>
<circle cx="533.8" cy="273.3" r="1.2" fill="#496d8a" opacity="0.19"/>
<circle cx="144.3" cy="309.2" r="0.9" fill="#496d8a" opacity="0.10"/>
<circle cx="137.1" cy="278.5" r="1.1" fill="#496d8a" opacity="0.14"/>
<circle cx="395.7" cy="290.1" r="0.9" fill="#496d8a" opacity="0.18"/>
<circle cx="239.7" cy="286.5" r="1.6" fill="#496d8a" opacity="0.10"/>
<circle cx="673.7" cy="275.7" r="1.0" fill="#496d8a" opacity="0.15"/>
<circle cx="841.9" cy="285.3" r="1.5" fill="#496d8a" opacity="0.17"/>
<circle cx="209.2" cy="295.6" r="0.9" fill="#496d8a" opacity="0.09"/>
<circle cx="507.4" cy="272.4" r="1.6" fill="#496d8a" opacity="0.10"/>
<circle cx="470.6" cy="305.4" r="1.4" fill="#496d8a" opacity="0.20"/>
<circle cx="175.8" cy="294.3" r="1.2" fill="#496d8a" opacity="0.22"/>
<circle cx="231.1" cy="294.2" r="1.4" fill="#496d8a" opacity="0.11"/>
<circle cx="146.4" cy="281.6" r="1.0" fill="#496d8a" opacity="0.12"/>
<circle cx="526.4" cy="276.7" r="1.6" fill="#496d8a" opacity="0.17"/>
<circle cx="281.5" cy="292.8" r="1.7" fill="#496d8a" opacity="0.09"/>
<circle cx="607.3" cy="269.9" r="1.8" fill="#496d8a" opacity="0.14"/>
<circle cx="754.7" cy="283.6" r="1.3" fill="#496d8a" opacity="0.13"/>
<circle cx="784.1" cy="254.1" r="1.7" fill="#496d8a" opacity="0.19"/>
<circle cx="819.6" cy="314.1" r="1.6" fill="#496d8a" opacity="0.19"/>
<circle cx="213.0" cy="286.1" r="1.0" fill="#496d8a" opacity="0.08"/>
<circle cx="405.8" cy="295.5" r="1.8" fill="#496d8a" opacity="0.14"/>
<circle cx="681.0" cy="282.4" r="1.7" fill="#496d8a" opacity="0.10"/>
<circle cx="221.9" cy="297.4" r="0.9" fill="#496d8a" opacity="0.20"/>
<circle cx="271.4" cy="302.1" r="1.4" fill="#496d8a" opacity="0.18"/>
<circle cx="246.3" cy="270.2" r="1.6" fill="#496d8a" opacity="0.15"/>
<circle cx="475.7" cy="309.9" r="1.0" fill="#496d8a" opacity="0.17"/>
<circle cx="306.5" cy="279.0" r="1.6" fill="#496d8a" opacity="0.15"/>
<circle cx="188.2" cy="288.7" r="1.0" fill="#496d8a" opacity="0.20"/>
<circle cx="202.3" cy="304.5" r="0.8" fill="#496d8a" opacity="0.20"/>
<circle cx="448.0" cy="311.6" r="1.2" fill="#496d8a" opacity="0.17"/>
<circle cx="785.3" cy="290.5" r="1.7" fill="#496d8a" opacity="0.19"/>
<circle cx="331.5" cy="275.3" r="1.1" fill="#496d8a" opacity="0.11"/>
<circle cx="812.7" cy="302.2" r="1.3" fill="#496d8a" opacity="0.13"/>
<circle cx="665.3" cy="300.3" r="1.5" fill="#496d8a" opacity="0.14"/>
<circle cx="254.1" cy="257.9" r="0.9" fill="#496d8a" opacity="0.19"/>
<circle cx="225.0" cy="293.9" r="0.8" fill="#496d8a" opacity="0.10"/>
<circle cx="407.2" cy="269.3" r="1.3" fill="#496d8a" opacity="0.11"/>
<circle cx="771.0" cy="299.9" r="1.4" fill="#496d8a" opacity="0.15"/>
<circle cx="847.3" cy="282.8" r="1.6" fill="#496d8a" opacity="0.17"/>
<circle cx="115.2" cy="280.1" r="1.5" fill="#496d8a" opacity="0.19"/>
<circle cx="581.1" cy="301.9" r="1.1" fill="#496d8a" opacity="0.09"/>
<circle cx="689.8" cy="289.2" r="1.1" fill="#496d8a" opacity="0.14"/>
<circle cx="449.9" cy="267.8" r="1.6" fill="#496d8a" opacity="0.14"/>
<circle cx="186.6" cy="300.4" r="1.0" fill="#496d8a" opacity="0.18"/>
<circle cx="188.3" cy="304.3" r="1.4" fill="#496d8a" opacity="0.14"/>
<circle cx="762.6" cy="303.0" r="1.3" fill="#496d8a" opacity="0.17"/>
<circle cx="347.9" cy="270.9" r="0.8" fill="#496d8a" opacity="0.20"/>
<circle cx="837.3" cy="287.0" r="1.0" fill="#496d8a" opacity="0.21"/>
<circle cx="801.0" cy="269.5" r="1.6" fill="#496d8a" opacity="0.22"/>
<circle cx="483.0" cy="259.6" r="0.9" fill="#496d8a" opacity="0.15"/>
<circle cx="590.2" cy="287.5" r="1.2" fill="#496d8a" opacity="0.13"/>
<circle cx="534.1" cy="269.1" r="1.7" fill="#496d8a" opacity="0.17"/>
<circle cx="266.4" cy="296.8" r="1.3" fill="#496d8a" opacity="0.16"/>
<circle cx="739.9" cy="287.1" r="1.1" fill="#496d8a" opacity="0.13"/>
<circle cx="691.1" cy="279.0" r="1.5" fill="#496d8a" opacity="0.14"/>
<circle cx="702.2" cy="309.5" r="0.8" fill="#496d8a" opacity="0.10"/>
<circle cx="380.0" cy="292.3" r="0.9" fill="#496d8a" opacity="0.20"/>
<circle cx="207.9" cy="310.3" r="1.8" fill="#496d8a" opacity="0.10"/>
<circle cx="769.7" cy="295.4" r="1.7" fill="#496d8a" opacity="0.18"/>
<circle cx="268.5" cy="283.7" r="1.1" fill="#496d8a" opacity="0.12"/>
<circle cx="549.0" cy="288.4" r="1.1" fill="#496d8a" opacity="0.22"/>
<circle cx="726.6" cy="284.4" r="1.5" fill="#496d8a" opacity="0.21"/>
<circle cx="370.6" cy="290.2" r="1.1" fill="#496d8a" opacity="0.09"/>
<circle cx="759.2" cy="287.7" r="1.7" fill="#496d8a" opacity="0.11"/>
<circle cx="711.9" cy="302.5" r="1.7" fill="#496d8a" opacity="0.17"/>
<circle cx="114.6" cy="272.3" r="1.4" fill="#496d8a" opacity="0.09"/>
<circle cx="483.3" cy="278.0" r="1.3" fill="#496d8a" opacity="0.12"/>
<circle cx="281.4" cy="293.1" r="1.4" fill="#496d8a" opacity="0.13"/>
<circle cx="347.3" cy="284.3" r="1.5" fill="#496d8a" opacity="0.08"/>
<circle cx="614.7" cy="281.8" r="1.2" fill="#496d8a" opacity="0.14"/>
<circle cx="626.6" cy="284.1" r="1.3" fill="#496d8a" opacity="0.09"/>
<circle cx="781.3" cy="299.9" r="0.8" fill="#496d8a" opacity="0.21"/>
<circle cx="482.4" cy="273.4" r="0.9" fill="#496d8a" opacity="0.09"/>
<circle cx="479.1" cy="289.5" r="1.5" fill="#496d8a" opacity="0.16"/>
<circle cx="534.6" cy="308.8" r="1.8" fill="#496d8a" opacity="0.16"/>
<circle cx="363.8" cy="295.1" r="1.1" fill="#496d8a" opacity="0.19"/>
<circle cx="688.7" cy="287.0" r="1.6" fill="#496d8a" opacity="0.21"/>
<circle cx="721.2" cy="261.8" r="1.6" fill="#496d8a" opacity="0.13"/>
<circle cx="678.1" cy="299.2" r="1.6" fill="#496d8a" opacity="0.19"/>
<circle cx="357.0" cy="274.5" r="0.9" fill="#496d8a" opacity="0.10"/>
<circle cx="631.4" cy="280.4" r="1.7" fill="#496d8a" opacity="0.09"/>
<circle cx="462.5" cy="306.3" r="1.5" fill="#496d8a" opacity="0.16"/>
<circle cx="534.1" cy="273.4" r="1.0" fill="#496d8a" opacity="0.14"/>
<circle cx="440.9" cy="275.1" r="1.4" fill="#496d8a" opacity="0.08"/>
<circle cx="303.6" cy="285.0" r="1.7" fill="#496d8a" opacity="0.09"/>
<circle cx="596.3" cy="283.7" r="1.7" fill="#496d8a" opacity="0.14"/>
<circle cx="402.6" cy="293.7" r="1.2" fill="#496d8a" opacity="0.15"/>
<circle cx="311.4" cy="301.8" r="1.6" fill="#496d8a" opacity="0.09"/>
<circle cx="598.8" cy="285.9" r="1.4" fill="#496d8a" opacity="0.12"/>
<circle cx="341.9" cy="275.4" r="0.9" fill="#496d8a" opacity="0.16"/>
<circle cx="149.1" cy="291.3" r="1.1" fill="#496d8a" opacity="0.22"/>
<circle cx="631.8" cy="294.8" r="1.0" fill="#496d8a" opacity="0.15"/>
<circle cx="164.4" cy="264.2" r="0.9" fill="#496d8a" opacity="0.11"/>
<circle cx="655.3" cy="295.9" r="1.5" fill="#496d8a" opacity="0.13"/>
<circle cx="547.4" cy="276.5" r="0.9" fill="#496d8a" opacity="0.16"/>
<circle cx="675.9" cy="262.5" r="1.6" fill="#496d8a" opacity="0.18"/>
<circle cx="556.6" cy="251.6" r="1.4" fill="#496d8a" opacity="0.12"/>
<circle cx="145.5" cy="277.4" r="1.6" fill="#496d8a" opacity="0.09"/>
<circle cx="441.8" cy="262.5" r="1.2" fill="#496d8a" opacity="0.09"/>
<circle cx="454.3" cy="311.9" r="1.2" fill="#496d8a" opacity="0.09"/>
<circle cx="788.3" cy="285.0" r="0.9" fill="#496d8a" opacity="0.22"/>
<circle cx="323.7" cy="277.7" r="1.7" fill="#496d8a" opacity="0.12"/>
<circle cx="158.3" cy="262.6" r="0.8" fill="#496d8a" opacity="0.13"/>
<circle cx="406.4" cy="281.3" r="1.6" fill="#496d8a" opacity="0.14"/>
<circle cx="266.7" cy="290.4" r="1.6" fill="#496d8a" opacity="0.14"/>
<circle cx="394.1" cy="282.3" r="1.4" fill="#496d8a" opacity="0.12"/>
<circle cx="492.9" cy="308.9" r="1.5" fill="#496d8a" opacity="0.21"/>
<circle cx="571.7" cy="289.5" r="1.4" fill="#496d8a" opacity="0.18"/>
<circle cx="714.7" cy="281.0" r="0.8" fill="#496d8a" opacity="0.11"/>
<circle cx="191.7" cy="264.0" r="1.1" fill="#496d8a" opacity="0.19"/>
<circle cx="338.9" cy="285.5" r="1.2" fill="#496d8a" opacity="0.20"/>
<circle cx="834.7" cy="300.2" r="1.8" fill="#496d8a" opacity="0.16"/>
<circle cx="573.1" cy="279.5" r="1.6" fill="#496d8a" opacity="0.21"/>
<circle cx="381.5" cy="276.0" r="1.6" fill="#496d8a" opacity="0.14"/>
<circle cx="642.9" cy="273.8" r="0.9" fill="#496d8a" opacity="0.15"/>
<circle cx="316.2" cy="293.6" r="0.9" fill="#496d8a" opacity="0.20"/>
<circle cx="454.2" cy="269.7" r="1.5" fill="#496d8a" opacity="0.14"/>
<circle cx="564.8" cy="281.4" r="1.8" fill="#496d8a" opacity="0.17"/>
<circle cx="395.8" cy="274.5" r="1.6" fill="#496d8a" opacity="0.19"/>
<circle cx="282.5" cy="288.4" r="1.6" fill="#496d8a" opacity="0.17"/>
<circle cx="321.8" cy="266.8" r="0.8" fill="#496d8a" opacity="0.13"/>
<circle cx="795.0" cy="278.6" r="1.5" fill="#496d8a" opacity="0.15"/>
<circle cx="603.0" cy="270.5" r="1.0" fill="#496d8a" opacity="0.15"/>
<circle cx="781.2" cy="269.3" r="1.6" fill="#496d8a" opacity="0.13"/>
<circle cx="494.8" cy="273.4" r="1.4" fill="#496d8a" opacity="0.12"/>
<circle cx="733.9" cy="281.7" r="1.5" fill="#496d8a" opacity="0.17"/>
<circle cx="547.9" cy="281.2" r="1.1" fill="#496d8a" opacity="0.16"/>
<circle cx="276.2" cy="277.1" r="1.7" fill="#496d8a" opacity="0.17"/>
<circle cx="784.3" cy="296.0" r="1.6" fill="#496d8a" opacity="0.13"/>
<circle cx="621.4" cy="308.8" r="0.8" fill="#496d8a" opacity="0.18"/>
<circle cx="386.6" cy="249.4" r="1.3" fill="#496d8a" opacity="0.17"/>
<circle cx="407.6" cy="287.8" r="1.4" fill="#496d8a" opacity="0.21"/>
<circle cx="688.4" cy="266.6" r="1.5" fill="#496d8a" opacity="0.09"/>
<circle cx="363.2" cy="298.3" r="1.5" fill="#496d8a" opacity="0.20"/>
<circle cx="474.2" cy="296.3" r="1.7" fill="#496d8a" opacity="0.20"/>
<circle cx="663.3" cy="275.5" r="1.5" fill="#496d8a" opacity="0.14"/>
<circle cx="636.3" cy="311.5" r="1.3" fill="#496d8a" opacity="0.08"/>
<circle cx="335.8" cy="264.2" r="1.2" fill="#496d8a" opacity="0.22"/>
<circle cx="585.6" cy="261.3" r="1.3" fill="#496d8a" opacity="0.22"/>
<circle cx="275.7" cy="292.1" r="0.8" fill="#496d8a" opacity="0.10"/>
<circle cx="624.0" cy="272.6" r="1.7" fill="#496d8a" opacity="0.17"/>
<circle cx="120.2" cy="281.6" r="1.1" fill="#496d8a" opacity="0.11"/>
<circle cx="555.8" cy="251.8" r="1.8" fill="#496d8a" opacity="0.19"/>
<circle cx="418.2" cy="285.9" r="1.0" fill="#496d8a" opacity="0.16"/>
<circle cx="561.9" cy="287.3" r="1.7" fill="#496d8a" opacity="0.09"/>
<circle cx="358.5" cy="278.9" r="1.3" fill="#496d8a" opacity="0.15"/>
<circle cx="214.4" cy="302.1" r="1.2" fill="#496d8a" opacity="0.21"/>
<circle cx="593.5" cy="274.7" r="1.2" fill="#496d8a" opacity="0.13"/>
<circle cx="517.9" cy="285.7" r="1.3" fill="#496d8a" opacity="0.15"/>
<circle cx="702.4" cy="285.9" r="1.4" fill="#496d8a" opacity="0.12"/>
<circle cx="365.5" cy="312.9" r="1.0" fill="#496d8a" opacity="0.13"/>
<circle cx="738.9" cy="272.2" r="1.6" fill="#496d8a" opacity="0.12"/>
<circle cx="210.4" cy="288.4" r="1.3" fill="#496d8a" opacity="0.09"/>
<circle cx="135.6" cy="283.7" r="1.1" fill="#496d8a" opacity="0.11"/>
<circle cx="641.0" cy="285.0" r="1.3" fill="#496d8a" opacity="0.10"/>
<circle cx="188.2" cy="283.6" r="1.6" fill="#496d8a" opacity="0.18"/>
<circle cx="694.1" cy="287.0" r="1.0" fill="#496d8a" opacity="0.21"/>
<circle cx="489.4" cy="274.4" r="1.7" fill="#496d8a" opacity="0.16"/>
<circle cx="648.2" cy="273.0" r="0.9" fill="#496d8a" opacity="0.10"/>
<circle cx="388.6" cy="295.2" r="1.2" fill="#496d8a" opacity="0.16"/>
<circle cx="331.8" cy="306.6" r="1.4" fill="#496d8a" opacity="0.18"/>
<circle cx="574.0" cy="292.6" r="0.9" fill="#496d8a" opacity="0.09"/>
<circle cx="371.9" cy="279.1" r="1.7" fill="#496d8a" opacity="0.20"/>
<circle cx="522.5" cy="300.3" r="1.6" fill="#496d8a" opacity="0.14"/>
<circle cx="741.7" cy="304.2" r="1.0" fill="#496d8a" opacity="0.11"/>
<circle cx="816.8" cy="285.0" r="1.7" fill="#496d8a" opacity="0.20"/>
<circle cx="757.8" cy="293.2" r="0.9" fill="#496d8a" opacity="0.16"/>
<circle cx="705.4" cy="290.6" r="1.2" fill="#496d8a" opacity="0.19"/>
<circle cx="191.7" cy="286.9" r="1.7" fill="#496d8a" opacity="0.17"/>
<circle cx="519.7" cy="289.7" r="1.1" fill="#496d8a" opacity="0.14"/>
<circle cx="797.5" cy="302.6" r="0.9" fill="#496d8a" opacity="0.14"/>
<circle cx="416.9" cy="284.6" r="1.1" fill="#496d8a" opacity="0.15"/>
<circle cx="449.3" cy="283.4" r="1.3" fill="#496d8a" opacity="0.15"/>
<circle cx="770.6" cy="305.8" r="1.7" fill="#496d8a" opacity="0.15"/>
<circle cx="753.0" cy="301.3" r="0.8" fill="#496d8a" opacity="0.10"/>
<circle cx="216.0" cy="284.0" r="0.9" fill="#496d8a" opacity="0.14"/>
<circle cx="671.9" cy="296.2" r="1.1" fill="#496d8a" opacity="0.19"/>
<circle cx="119.3" cy="262.3" r="1.6" fill="#496d8a" opacity="0.12"/>
<circle cx="144.8" cy="304.3" r="1.1" fill="#496d8a" opacity="0.19"/>
<circle cx="460.8" cy="273.7" r="1.3" fill="#496d8a" opacity="0.19"/>
<circle cx="190.5" cy="321.5" r="1.0" fill="#496d8a" opacity="0.14"/>
<circle cx="366.4" cy="293.0" r="1.6" fill="#496d8a" opacity="0.17"/>
<circle cx="389.9" cy="287.9" r="1.0" fill="#496d8a" opacity="0.08"/>
<circle cx="575.8" cy="257.5" r="1.1" fill="#496d8a" opacity="0.17"/>
<circle cx="670.0" cy="299.1" r="1.5" fill="#496d8a" opacity="0.19"/>
<circle cx="798.2" cy="301.4" r="1.5" fill="#496d8a" opacity="0.12"/>
<circle cx="297.9" cy="301.7" r="1.0" fill="#496d8a" opacity="0.18"/>
<circle cx="252.2" cy="281.9" r="1.4" fill="#496d8a" opacity="0.19"/>
<circle cx="824.6" cy="312.3" r="1.5" fill="#496d8a" opacity="0.10"/>
<circle cx="382.1" cy="285.4" r="1.1" fill="#496d8a" opacity="0.15"/>
<circle cx="460.6" cy="282.3" r="1.4" fill="#496d8a" opacity="0.15"/>
<circle cx="152.6" cy="288.1" r="1.2" fill="#496d8a" opacity="0.12"/>
<circle cx="259.2" cy="327.1" r="0.8" fill="#496d8a" opacity="0.21"/>
<circle cx="495.2" cy="304.0" r="1.3" fill="#496d8a" opacity="0.16"/>
<circle cx="690.0" cy="283.0" r="1.5" fill="#496d8a" opacity="0.15"/>
<circle cx="559.8" cy="291.2" r="1.5" fill="#496d8a" opacity="0.18"/>
<circle cx="541.3" cy="281.2" r="1.8" fill="#496d8a" opacity="0.20"/>
<circle cx="628.2" cy="279.5" r="1.3" fill="#496d8a" opacity="0.17"/>
<circle cx="293.3" cy="285.6" r="1.4" fill="#496d8a" opacity="0.14"/>
<circle cx="761.4" cy="286.7" r="1.7" fill="#496d8a" opacity="0.15"/>
<circle cx="839.3" cy="279.2" r="1.1" fill="#496d8a" opacity="0.10"/>
<circle cx="728.4" cy="278.7" r="1.2" fill="#496d8a" opacity="0.10"/>
<circle cx="621.6" cy="286.9" r="1.7" fill="#496d8a" opacity="0.11"/>
<circle cx="765.5" cy="295.5" r="1.4" fill="#496d8a" opacity="0.15"/>
<circle cx="345.7" cy="279.0" r="1.5" fill="#496d8a" opacity="0.21"/>
<circle cx="666.4" cy="274.9" r="1.0" fill="#496d8a" opacity="0.12"/>
<circle cx="127.2" cy="261.5" r="0.9" fill="#496d8a" opacity="0.18"/>
<circle cx="265.6" cy="287.8" r="1.5" fill="#496d8a" opacity="0.15"/>
<circle cx="639.1" cy="285.0" r="1.0" fill="#496d8a" opacity="0.15"/>
<circle cx="695.3" cy="274.4" r="1.4" fill="#496d8a" opacity="0.20"/>
<circle cx="649.8" cy="291.3" r="1.7" fill="#496d8a" opacity="0.21"/>
<circle cx="182.4" cy="285.0" r="1.3" fill="#496d8a" opacity="0.13"/>
<circle cx="668.8" cy="283.5" r="1.8" fill="#496d8a" opacity="0.19"/>
<circle cx="838.3" cy="290.3" r="1.1" fill="#496d8a" opacity="0.09"/>
<circle cx="626.2" cy="281.8" r="1.2" fill="#496d8a" opacity="0.17"/>
<circle cx="203.8" cy="316.5" r="1.0" fill="#496d8a" opacity="0.17"/>
<circle cx="651.7" cy="294.8" r="0.8" fill="#496d8a" opacity="0.09"/>
<circle cx="491.3" cy="290.6" r="1.1" fill="#496d8a" opacity="0.12"/>
<circle cx="462.4" cy="278.0" r="1.7" fill="#496d8a" opacity="0.18"/>
<circle cx="638.1" cy="275.8" r="1.1" fill="#496d8a" opacity="0.15"/>
<circle cx="241.9" cy="284.6" r="1.0" fill="#496d8a" opacity="0.11"/>
<circle cx="332.4" cy="302.2" r="1.6" fill="#496d8a" opacity="0.19"/>
<circle cx="132.1" cy="291.4" r="1.8" fill="#496d8a" opacity="0.11"/>
<circle cx="309.2" cy="278.1" r="1.3" fill="#496d8a" opacity="0.12"/>
<circle cx="541.3" cy="288.9" r="1.1" fill="#496d8a" opacity="0.15"/>
<circle cx="487.2" cy="310.3" r="1.1" fill="#496d8a" opacity="0.21"/>
<circle cx="597.3" cy="281.2" r="1.1" fill="#496d8a" opacity="0.11"/>
<circle cx="242.9" cy="301.8" r="1.0" fill="#496d8a" opacity="0.09"/>
<circle cx="184.1" cy="292.4" r="1.2" fill="#496d8a" opacity="0.22"/>
<circle cx="165.9" cy="285.6" r="1.1" fill="#496d8a" opacity="0.13"/>
<circle cx="434.3" cy="298.6" r="1.2" fill="#496d8a" opacity="0.16"/>
<circle cx="485.1" cy="309.4" r="1.5" fill="#496d8a" opacity="0.18"/>
<circle cx="113.2" cy="290.1" r="1.7" fill="#496d8a" opacity="0.14"/>
<circle cx="462.1" cy="279.0" r="1.4" fill="#496d8a" opacity="0.18"/>
<circle cx="425.8" cy="277.8" r="1.8" fill="#496d8a" opacity="0.16"/>
<circle cx="366.5" cy="305.6" r="1.0" fill="#496d8a" opacity="0.11"/>
<circle cx="435.8" cy="294.7" r="1.6" fill="#496d8a" opacity="0.18"/>
<circle cx="659.1" cy="289.3" r="1.7" fill="#496d8a" opacity="0.15"/>
<circle cx="798.4" cy="286.7" r="1.4" fill="#496d8a" opacity="0.18"/>
<circle cx="269.3" cy="263.4" r="0.9" fill="#496d8a" opacity="0.13"/>
<circle cx="598.5" cy="284.9" r="1.6" fill="#496d8a" opacity="0.19"/>
<circle cx="782.7" cy="264.4" r="1.0" fill="#496d8a" opacity="0.18"/>
<circle cx="525.5" cy="282.3" r="1.0" fill="#496d8a" opacity="0.17"/>
<circle cx="312.7" cy="271.7" r="1.3" fill="#496d8a" opacity="0.19"/>
<circle cx="498.7" cy="299.2" r="1.4" fill="#496d8a" opacity="0.13"/>
<circle cx="321.2" cy="265.8" r="1.0" fill="#496d8a" opacity="0.15"/>
<circle cx="714.2" cy="269.5" r="1.6" fill="#496d8a" opacity="0.14"/>
<circle cx="286.7" cy="301.6" r="1.0" fill="#496d8a" opacity="0.19"/>
<circle cx="617.0" cy="290.2" r="1.3" fill="#496d8a" opacity="0.21"/>
<circle cx="688.4" cy="282.7" r="1.4" fill="#496d8a" opacity="0.12"/>
<circle cx="792.8" cy="260.0" r="1.2" fill="#496d8a" opacity="0.18"/>
<circle cx="318.1" cy="261.2" r="1.0" fill="#496d8a" opacity="0.19"/>
<circle cx="715.2" cy="277.9" r="0.8" fill="#496d8a" opacity="0.08"/>
<circle cx="755.8" cy="277.0" r="1.7" fill="#496d8a" opacity="0.15"/>
<circle cx="360.5" cy="299.7" r="1.6" fill="#496d8a" opacity="0.16"/>
<circle cx="757.6" cy="276.3" r="1.2" fill="#496d8a" opacity="0.12"/>
<circle cx="808.8" cy="258.8" r="1.4" fill="#496d8a" opacity="0.13"/>
<circle cx="256.7" cy="304.7" r="1.1" fill="#496d8a" opacity="0.16"/>
<circle cx="333.3" cy="274.4" r="1.1" fill="#496d8a" opacity="0.16"/>
<circle cx="614.3" cy="280.9" r="1.6" fill="#496d8a" opacity="0.09"/>
<circle cx="567.0" cy="296.6" r="1.0" fill="#496d8a" opacity="0.09"/>
<circle cx="529.9" cy="304.7" r="1.2" fill="#496d8a" opacity="0.20"/>
<circle cx="399.0" cy="281.3" r="1.5" fill="#496d8a" opacity="0.15"/>
<circle cx="327.4" cy="276.2" r="0.9" fill="#496d8a" opacity="0.09"/>
<circle cx="361.7" cy="306.8" r="1.6" fill="#496d8a" opacity="0.20"/>
<circle cx="477.1" cy="280.9" r="1.5" fill="#496d8a" opacity="0.22"/>
<circle cx="826.0" cy="290.4" r="1.2" fill="#496d8a" opacity="0.16"/>
<circle cx="573.2" cy="257.1" r="1.4" fill="#496d8a" opacity="0.11"/>
<circle cx="640.9" cy="275.9" r="1.1" fill="#496d8a" opacity="0.21"/>
<circle cx="797.5" cy="285.3" r="1.4" fill="#496d8a" opacity="0.21"/>
<circle cx="218.7" cy="275.2" r="1.5" fill="#496d8a" opacity="0.14"/>
<circle cx="360.0" cy="292.9" r="1.4" fill="#496d8a" opacity="0.21"/>
<circle cx="656.9" cy="280.9" r="1.1" fill="#496d8a" opacity="0.16"/>
<circle cx="709.2" cy="268.9" r="1.1" fill="#496d8a" opacity="0.11"/>
<circle cx="668.2" cy="281.5" r="1.6" fill="#496d8a" opacity="0.15"/>
<circle cx="179.7" cy="277.5" r="0.9" fill="#496d8a" opacity="0.21"/>
<circle cx="151.5" cy="289.3" r="1.4" fill="#496d8a" opacity="0.18"/>
<circle cx="154.4" cy="267.1" r="1.4" fill="#496d8a" opacity="0.10"/>
<circle cx="635.3" cy="285.9" r="1.8" fill="#496d8a" opacity="0.13"/>
<circle cx="367.3" cy="280.8" r="1.4" fill="#496d8a" opacity="0.19"/>
<circle cx="706.5" cy="278.3" r="1.7" fill="#496d8a" opacity="0.13"/>
<circle cx="763.9" cy="284.0" r="1.7" fill="#496d8a" opacity="0.13"/>
<circle cx="704.0" cy="275.5" r="1.5" fill="#496d8a" opacity="0.13"/>
<circle cx="603.7" cy="298.3" r="1.1" fill="#496d8a" opacity="0.10"/>
<circle cx="644.5" cy="274.5" r="1.6" fill="#496d8a" opacity="0.12"/>
<circle cx="618.9" cy="302.7" r="1.0" fill="#496d8a" opacity="0.11"/>
<circle cx="608.9" cy="268.7" r="1.5" fill="#496d8a" opacity="0.08"/>
<circle cx="531.9" cy="302.3" r="1.4" fill="#496d8a" opacity="0.19"/>
<circle cx="613.4" cy="287.8" r="1.2" fill="#496d8a" opacity="0.18"/>
<circle cx="261.2" cy="272.8" r="1.2" fill="#496d8a" opacity="0.10"/>
<circle cx="809.9" cy="300.4" r="1.1" fill="#496d8a" opacity="0.18"/>
<circle cx="706.6" cy="307.7" r="1.5" fill="#496d8a" opacity="0.14"/>
<circle cx="588.3" cy="272.7" r="1.5" fill="#496d8a" opacity="0.14"/>
<circle cx="764.0" cy="292.5" r="1.6" fill="#496d8a" opacity="0.14"/>
<circle cx="619.6" cy="307.3" r="1.0" fill="#496d8a" opacity="0.20"/>
<circle cx="556.8" cy="269.9" r="1.1" fill="#496d8a" opacity="0.09"/>
<circle cx="592.7" cy="296.2" r="1.4" fill="#496d8a" opacity="0.12"/>
<circle cx="434.9" cy="299.4" r="1.6" fill="#496d8a" opacity="0.13"/>
<circle cx="229.6" cy="307.7" r="0.8" fill="#496d8a" opacity="0.19"/>
<circle cx="148.9" cy="288.1" r="1.2" fill="#496d8a" opacity="0.21"/>
<circle cx="262.0" cy="308.8" r="1.6" fill="#496d8a" opacity="0.10"/>
<circle cx="289.0" cy="281.6" r="1.3" fill="#496d8a" opacity="0.19"/>
<circle cx="688.4" cy="278.4" r="1.7" fill="#496d8a" opacity="0.15"/>
<circle cx="353.4" cy="277.6" r="1.8" fill="#496d8a" opacity="0.08"/>
<circle cx="115.9" cy="288.4" r="1.6" fill="#496d8a" opacity="0.13"/>
<circle cx="512.8" cy="294.4" r="1.0" fill="#496d8a" opacity="0.10"/>
<circle cx="342.4" cy="281.0" r="0.9" fill="#496d8a" opacity="0.08"/>
<circle cx="173.2" cy="292.5" r="1.6" fill="#496d8a" opacity="0.17"/>
<circle cx="576.0" cy="295.8" r="1.2" fill="#496d8a" opacity="0.14"/>
<circle cx="404.2" cy="278.4" r="1.0" fill="#496d8a" opacity="0.18"/>
<circle cx="153.3" cy="290.3" r="1.3" fill="#496d8a" opacity="0.18"/>
<circle cx="325.6" cy="283.8" r="1.6" fill="#496d8a" opacity="0.15"/>
<circle cx="454.2" cy="305.0" r="1.1" fill="#496d8a" opacity="0.21"/>
<circle cx="625.1" cy="304.0" r="0.9" fill="#496d8a" opacity="0.16"/>
<circle cx="382.6" cy="281.6" r="1.6" fill="#496d8a" opacity="0.13"/>
<circle cx="230.3" cy="300.6" r="0.9" fill="#496d8a" opacity="0.11"/>
<circle cx="438.7" cy="290.4" r="0.9" fill="#496d8a" opacity="0.21"/>
<circle cx="444.8" cy="299.2" r="1.5" fill="#496d8a" opacity="0.18"/>
<circle cx="294.6" cy="296.8" r="1.7" fill="#496d8a" opacity="0.21"/>
<circle cx="335.9" cy="287.6" r="1.7" fill="#496d8a" opacity="0.19"/>
<circle cx="819.6" cy="265.9" r="1.4" fill="#496d8a" opacity="0.17"/>
<circle cx="159.0" cy="279.2" r="0.9" fill="#496d8a" opacity="0.13"/>
<circle cx="647.3" cy="258.2" r="1.3" fill="#496d8a" opacity="0.19"/>
<circle cx="186.4" cy="288.0" r="0.9" fill="#496d8a" opacity="0.20"/>
<circle cx="194.8" cy="266.6" r="0.8" fill="#496d8a" opacity="0.20"/>
<circle cx="363.2" cy="287.4" r="1.5" fill="#496d8a" opacity="0.18"/>
<circle cx="189.7" cy="296.2" r="1.3" fill="#496d8a" opacity="0.09"/>
<circle cx="299.2" cy="290.8" r="1.5" fill="#496d8a" opacity="0.08"/>
<circle cx="818.1" cy="297.3" r="0.8" fill="#496d8a" opacity="0.19"/>
<circle cx="176.9" cy="281.0" r="0.8" fill="#496d8a" opacity="0.10"/>
<circle cx="265.6" cy="275.0" r="0.8" fill="#496d8a" opacity="0.15"/>
<circle cx="217.6" cy="249.8" r="1.3" fill="#496d8a" opacity="0.14"/>
<circle cx="450.0" cy="278.6" r="1.8" fill="#496d8a" opacity="0.17"/>
<circle cx="263.6" cy="309.7" r="1.5" fill="#496d8a" opacity="0.12"/>
<circle cx="206.5" cy="298.2" r="1.7" fill="#496d8a" opacity="0.16"/>
<circle cx="163.7" cy="280.3" r="1.8" fill="#496d8a" opacity="0.09"/>
<circle cx="388.3" cy="277.3" r="1.4" fill="#496d8a" opacity="0.18"/>
<circle cx="265.1" cy="288.1" r="1.0" fill="#496d8a" opacity="0.14"/>
<circle cx="217.3" cy="282.9" r="1.5" fill="#496d8a" opacity="0.12"/>
<circle cx="512.3" cy="280.9" r="0.9" fill="#496d8a" opacity="0.10"/>
<circle cx="626.3" cy="292.3" r="1.1" fill="#496d8a" opacity="0.20"/>
<circle cx="395.3" cy="291.8" r="1.8" fill="#496d8a" opacity="0.12"/>
<circle cx="622.9" cy="271.6" r="1.7" fill="#496d8a" opacity="0.18"/>
<circle cx="204.7" cy="290.8" r="1.1" fill="#496d8a" opacity="0.16"/>
<circle cx="554.1" cy="292.7" r="1.4" fill="#496d8a" opacity="0.11"/>
<circle cx="797.8" cy="298.2" r="1.4" fill="#496d8a" opacity="0.11"/>
<circle cx="457.8" cy="268.1" r="1.7" fill="#496d8a" opacity="0.20"/>
<circle cx="252.7" cy="283.2" r="1.4" fill="#496d8a" opacity="0.18"/>
<circle cx="291.5" cy="302.1" r="1.4" fill="#496d8a" opacity="0.17"/>
<circle cx="158.0" cy="303.9" r="1.1" fill="#496d8a" opacity="0.21"/>
<circle cx="484.8" cy="259.6" r="1.5" fill="#496d8a" opacity="0.16"/>
<circle cx="220.7" cy="276.7" r="0.9" fill="#496d8a" opacity="0.15"/>
<circle cx="677.5" cy="281.8" r="1.6" fill="#496d8a" opacity="0.16"/>
<circle cx="435.7" cy="281.8" r="1.5" fill="#496d8a" opacity="0.12"/>
<circle cx="256.2" cy="275.5" r="1.3" fill="#496d8a" opacity="0.13"/>
<circle cx="733.9" cy="301.4" r="1.1" fill="#496d8a" opacity="0.17"/>
<circle cx="366.2" cy="282.5" r="1.2" fill="#496d8a" opacity="0.12"/>
<circle cx="794.1" cy="291.8" r="1.7" fill="#496d8a" opacity="0.17"/>
<rect x="112" y="246" width="404" height="80" fill="#d5aa55" opacity="0.10"/>
<path d="M516,218 L516,356" stroke="#8e3e38" stroke-width="2.2" opacity="0.72"/>
<path d="M178,393 L744,393" stroke="#8e3e38" stroke-width="2.0" opacity="0.15" stroke-linecap="round"/>
<circle cx="178" cy="393" r="4.2" fill="#fbfaf6" stroke="#8e3e38" stroke-width="1.2" opacity="0.32999999999999996"/>
<circle cx="744" cy="393" r="4.2" fill="#fbfaf6" stroke="#8e3e38" stroke-width="1.2" opacity="0.32999999999999996"/>
<path d="M260,373 L662,373" stroke="#8e3e38" stroke-width="2.0" opacity="0.2" stroke-linecap="round"/>
<circle cx="260" cy="373" r="4.2" fill="#fbfaf6" stroke="#8e3e38" stroke-width="1.2" opacity="0.38"/>
<circle cx="662" cy="373" r="4.2" fill="#fbfaf6" stroke="#8e3e38" stroke-width="1.2" opacity="0.38"/>
<path d="M333,353 L590,353" stroke="#8e3e38" stroke-width="2.0" opacity="0.27" stroke-linecap="round"/>
<circle cx="333" cy="353" r="4.2" fill="#fbfaf6" stroke="#8e3e38" stroke-width="1.2" opacity="0.45"/>
<circle cx="590" cy="353" r="4.2" fill="#fbfaf6" stroke="#8e3e38" stroke-width="1.2" opacity="0.45"/>
<path d="M393,333 L552,333" stroke="#8e3e38" stroke-width="2.0" opacity="0.36" stroke-linecap="round"/>
<circle cx="393" cy="333" r="4.2" fill="#fbfaf6" stroke="#8e3e38" stroke-width="1.2" opacity="0.54"/>
<circle cx="552" cy="333" r="4.2" fill="#fbfaf6" stroke="#8e3e38" stroke-width="1.2" opacity="0.54"/>
<path d="M448,313 L530,313" stroke="#8e3e38" stroke-width="2.0" opacity="0.52" stroke-linecap="round"/>
<circle cx="448" cy="313" r="4.2" fill="#fbfaf6" stroke="#8e3e38" stroke-width="1.2" opacity="0.7"/>
<circle cx="530" cy="313" r="4.2" fill="#fbfaf6" stroke="#8e3e38" stroke-width="1.2" opacity="0.7"/>
<path d="M160.0,440 L800.0,440" stroke="#24211f" stroke-width="1.0" opacity="0.220"/>
<path d="M160.0,449 L373.3,449" stroke="#24211f" stroke-width="1.0" opacity="0.195"/>
<path d="M586.7,449 L800.0,449" stroke="#24211f" stroke-width="1.0" opacity="0.195"/>
<path d="M160.0,458 L231.1,458" stroke="#24211f" stroke-width="1.0" opacity="0.170"/>
<path d="M302.2,458 L373.3,458" stroke="#24211f" stroke-width="1.0" opacity="0.170"/>
<path d="M586.7,458 L657.8,458" stroke="#24211f" stroke-width="1.0" opacity="0.170"/>
<path d="M728.9,458 L800.0,458" stroke="#24211f" stroke-width="1.0" opacity="0.170"/>
<path d="M160.0,467 L183.7,467" stroke="#24211f" stroke-width="1.0" opacity="0.145"/>
<path d="M207.4,467 L231.1,467" stroke="#24211f" stroke-width="1.0" opacity="0.145"/>
<path d="M302.2,467 L325.9,467" stroke="#24211f" stroke-width="1.0" opacity="0.145"/>
<path d="M349.6,467 L373.3,467" stroke="#24211f" stroke-width="1.0" opacity="0.145"/>
<path d="M586.7,467 L610.4,467" stroke="#24211f" stroke-width="1.0" opacity="0.145"/>
<path d="M634.1,467 L657.8,467" stroke="#24211f" stroke-width="1.0" opacity="0.145"/>
<path d="M728.9,467 L752.6,467" stroke="#24211f" stroke-width="1.0" opacity="0.145"/>
<path d="M776.3,467 L800.0,467" stroke="#24211f" stroke-width="1.0" opacity="0.145"/>
<path d="M160.0,476 L167.9,476" stroke="#24211f" stroke-width="1.0" opacity="0.120"/>
<path d="M175.8,476 L183.7,476" stroke="#24211f" stroke-width="1.0" opacity="0.120"/>
<path d="M207.4,476 L215.3,476" stroke="#24211f" stroke-width="1.0" opacity="0.120"/>
<path d="M223.2,476 L231.1,476" stroke="#24211f" stroke-width="1.0" opacity="0.120"/>
<path d="M302.2,476 L310.1,476" stroke="#24211f" stroke-width="1.0" opacity="0.120"/>
<path d="M318.0,476 L325.9,476" stroke="#24211f" stroke-width="1.0" opacity="0.120"/>
<path d="M349.6,476 L357.5,476" stroke="#24211f" stroke-width="1.0" opacity="0.120"/>
<path d="M365.4,476 L373.3,476" stroke="#24211f" stroke-width="1.0" opacity="0.120"/>
<path d="M586.7,476 L594.6,476" stroke="#24211f" stroke-width="1.0" opacity="0.120"/>
<path d="M602.5,476 L610.4,476" stroke="#24211f" stroke-width="1.0" opacity="0.120"/>
<path d="M634.1,476 L642.0,476" stroke="#24211f" stroke-width="1.0" opacity="0.120"/>
<path d="M649.9,476 L657.8,476" stroke="#24211f" stroke-width="1.0" opacity="0.120"/>
<path d="M728.9,476 L736.8,476" stroke="#24211f" stroke-width="1.0" opacity="0.120"/>
<path d="M744.7,476 L752.6,476" stroke="#24211f" stroke-width="1.0" opacity="0.120"/>
<path d="M776.3,476 L784.2,476" stroke="#24211f" stroke-width="1.0" opacity="0.120"/>
<path d="M792.1,476 L800.0,476" stroke="#24211f" stroke-width="1.0" opacity="0.120"/>
<circle cx="516" cy="286" r="7.5" fill="#24211f" opacity="0.86"/>
<circle cx="516" cy="286" r="23" fill="none" stroke="#8e3e38" stroke-width="1.0" opacity="0.22"/>
<rect x="0.5" y="0.5" width="959" height="539" rx="8" fill="none" stroke="#ddd5c7" stroke-width="1" opacity="0.95"/>
</svg>