<svg xmlns="http://www.w3.org/2000/svg" width="960" height="540" viewBox="0 0 960 540" role="img" aria-labelledby="title desc">
  <title id="title">Statistical decision theory risk envelope prototype</title>
  <desc id="desc">Risk curves over the parameter space with the minimax envelope and selected action.</desc>
  <defs>
    <linearGradient id="bg" x1="0" y1="0" x2="1" y2="1">
      <stop offset="0" stop-color="#fbfaf4"/>
      <stop offset="1" stop-color="#f0f2ed"/>
    </linearGradient>
    <linearGradient id="envelopeFill" x1="0" y1="0" x2="0" y2="1">
      <stop offset="0" stop-color="#d8bf74" stop-opacity="0.22"/>
      <stop offset="1" stop-color="#d8bf74" stop-opacity="0"/>
    </linearGradient>
  </defs>
  <rect width="960" height="540" rx="10" fill="url(#bg)"/>
  <g fill="none" stroke-linecap="round" stroke-linejoin="round">
    <path d="M128 400 H838" stroke="#7f8f88" stroke-width="1.15" opacity="0.33"/>
    <path d="M128 400 V134" stroke="#7f8f88" stroke-width="1.05" opacity="0.22"/>
    <path d="M150 356 C220 252, 304 217, 388 250 C484 288, 564 385, 680 362 C742 350, 790 318, 824 286" stroke="#6c8989" stroke-width="1.55" opacity="0.54"/>
    <path d="M150 306 C230 337, 312 379, 408 356 C506 333, 568 220, 672 198 C738 184, 790 209, 824 248" stroke="#9d8354" stroke-width="1.55" opacity="0.54"/>
    <path d="M150 382 C226 361, 292 318, 360 268 C462 192, 548 184, 642 250 C704 293, 766 346, 824 366" stroke="#806f9f" stroke-width="1.45" opacity="0.43"/>
    <path d="M150 338 C230 282, 310 287, 384 329 C474 380, 566 350, 646 302 C716 260, 772 240, 824 258" stroke="#a65d4f" stroke-width="1.35" opacity="0.38"/>
    <path d="M150 306 C230 337, 312 379, 408 356 C506 333, 568 220, 672 198 C738 184, 790 209, 824 248
             L824 400 H150 Z" fill="url(#envelopeFill)" opacity="0.8"/>
    <path d="M150 306 C230 337, 312 379, 408 356 C506 333, 568 220, 672 198 C738 184, 790 209, 824 248"
          stroke="#4f7377" stroke-width="2.55"/>
    <path d="M150 248 C254 247, 350 246, 452 246 C568 246, 696 246, 824 246" stroke="#a65d4f" stroke-width="1.3" opacity="0.38"/>
    <circle cx="672" cy="198" r="5" fill="#a65d4f" opacity="0.78"/>
    <circle cx="672" cy="246" r="3.7" fill="#4f7377" opacity="0.74"/>
    <path d="M672 198 V246" stroke="#a65d4f" stroke-width="1.1" stroke-dasharray="5 7" opacity="0.46"/>
    <g fill="#4f7377" opacity="0.38">
      <circle cx="210" cy="324" r="2.2"/>
      <circle cx="304" cy="368" r="2.4"/>
      <circle cx="408" cy="356" r="2.2"/>
      <circle cx="548" cy="252" r="2.3"/>
      <circle cx="738" cy="184" r="2.1"/>
      <circle cx="804" cy="225" r="2"/>
    </g>
  </g>
</svg>
