<svg xmlns="http://www.w3.org/2000/svg" width="960" height="540" viewBox="0 0 960 540" role="img" aria-label="Sampling distribution and confidence geometry">
<defs>
<linearGradient id="bg" x1="0" y1="0" x2="1" y2="1"><stop offset="0" stop-color="#fbfaf6"/><stop offset="1" stop-color="#f4efe4"/></linearGradient>
<radialGradient id="warm" cx="48%" cy="38%" r="62%"><stop offset="0" stop-color="#fff4d4" stop-opacity="0.54"/><stop offset="0.62" stop-color="#f5d894" stop-opacity="0.12"/><stop offset="1" stop-color="#fbfaf6" stop-opacity="0"/></radialGradient>
<filter id="soft" x="-20%" y="-20%" width="140%" height="140%"><feDropShadow dx="0" dy="8" stdDeviation="9" flood-color="#7c684c" flood-opacity="0.12"/></filter>
<marker id="arrow" markerWidth="10" markerHeight="10" refX="8" refY="5" orient="auto"><path d="M0,0 L9,5 L0,10 Z" fill="#496d8a" opacity="0.68"/></marker>
</defs>
<rect width="960" height="540" fill="url(#bg)"/>
<rect width="960" height="540" fill="url(#warm)"/>
<g opacity="0.34">
<path d="M788.2,190.4 L789.0,193.7 L789.7,197.1 L790.1,200.5 L790.3,204.1 L790.2,207.6 L789.9,211.3 L789.3,215.0 L788.5,218.7 L787.4,222.5 L786.1,226.4 L784.6,230.3 L782.8,234.2 L780.8,238.2 L778.6,242.2 L776.1,246.3 L773.4,250.4 L770.5,254.5 L767.3,258.6 L763.9,262.7 L760.3,266.9 L756.5,271.1 L752.4,275.3 L748.2,279.5 L743.7,283.6 L739.0,287.8 L734.2,292.0 L729.1,296.2 L723.8,300.4 L718.4,304.5 L712.7,308.6 L706.9,312.8 L700.9,316.8 L694.8,320.9 L688.4,324.9 L681.9,328.9 L675.3,332.9 L668.5,336.8 L661.6,340.6 L654.5,344.5 L647.3,348.2 L639.9,351.9 L632.5,355.6 L624.9,359.2 L617.2,362.7 L609.5,366.2 L601.6,369.6 L593.6,372.9 L585.6,376.2 L577.4,379.3 L569.2,382.4 L561.0,385.5 L552.7,388.4 L544.3,391.2 L535.9,394.0 L527.5,396.6 L519.0,399.2 L510.5,401.7 L502.0,404.1 L493.5,406.3 L485.0,408.5 L476.4,410.6 L467.9,412.6 L459.5,414.4 L451.0,416.2 L442.6,417.8 L434.2,419.3 L425.9,420.8 L417.6,422.1 L409.4,423.3 L401.2,424.3 L393.2,425.3 L385.2,426.1 L377.2,426.9 L369.4,427.5 L361.7,428.0 L354.1,428.3 L346.6,428.6 L339.2,428.7 L332.0,428.7 L324.9,428.6 L317.9,428.4 L311.0,428.1 L304.3,427.6 L297.8,427.0 L291.4,426.3 L285.2,425.5 L279.1,424.6 L273.3,423.5 L267.5,422.3 L262.0,421.0 L256.7,419.7 L251.6,418.1 L246.6,416.5 L241.9,414.8 L237.3,413.0 L233.0,411.0 L228.9,409.0 L225.0,406.8 L221.3,404.6 L217.8,402.2 L214.6,399.7 L211.6,397.2 L208.8,394.6 L206.2,391.8 L203.9,389.0 L201.8,386.1 L200.0,383.1 L198.4,380.0 L197.0,376.8 L195.8,373.6 L195.0,370.3 L194.3,366.9 L193.9,363.5 L193.7,359.9 L193.8,356.4 L194.1,352.7 L194.7,349.0 L195.5,345.3 L196.6,341.5 L197.9,337.6 L199.4,333.7 L201.2,329.8 L203.2,325.8 L205.4,321.8 L207.9,317.7 L210.6,313.6 L213.5,309.5 L216.7,305.4 L220.1,301.3 L223.7,297.1 L227.5,292.9 L231.6,288.7 L235.8,284.5 L240.3,280.4 L245.0,276.2 L249.8,272.0 L254.9,267.8 L260.2,263.6 L265.6,259.5 L271.3,255.4 L277.1,251.2 L283.1,247.2 L289.2,243.1 L295.6,239.1 L302.1,235.1 L308.7,231.1 L315.5,227.2 L322.4,223.4 L329.5,219.5 L336.7,215.8 L344.1,212.1 L351.5,208.4 L359.1,204.8 L366.8,201.3 L374.5,197.8 L382.4,194.4 L390.4,191.1 L398.4,187.8 L406.6,184.7 L414.8,181.6 L423.0,178.5 L431.3,175.6 L439.7,172.8 L448.1,170.0 L456.5,167.4 L465.0,164.8 L473.5,162.3 L482.0,159.9 L490.5,157.7 L499.0,155.5 L507.6,153.4 L516.1,151.4 L524.5,149.6 L533.0,147.8 L541.4,146.2 L549.8,144.7 L558.1,143.2 L566.4,141.9 L574.6,140.7 L582.8,139.7 L590.8,138.7 L598.8,137.9 L606.8,137.1 L614.6,136.5 L622.3,136.0 L629.9,135.7 L637.4,135.4 L644.8,135.3 L652.0,135.3 L659.1,135.4 L666.1,135.6 L673.0,135.9 L679.7,136.4 L686.2,137.0 L692.6,137.7 L698.8,138.5 L704.9,139.4 L710.7,140.5 L716.5,141.7 L722.0,143.0 L727.3,144.3 L732.4,145.9 L737.4,147.5 L742.1,149.2 L746.7,151.0 L751.0,153.0 L755.1,155.0 L759.0,157.2 L762.7,159.4 L766.2,161.8 L769.4,164.3 L772.4,166.8 L775.2,169.4 L777.8,172.2 L780.1,175.0 L782.2,177.9 L784.0,180.9 L785.6,184.0 L787.0,187.2 L788.2,190.4" fill="none" stroke="#8e3e38" stroke-width="1.1" opacity="0.18"/>
<path d="M730.8,208.1 L731.5,210.7 L732.0,213.4 L732.4,216.2 L732.5,218.9 L732.4,221.8 L732.1,224.7 L731.7,227.6 L731.0,230.6 L730.1,233.6 L729.1,236.7 L727.8,239.8 L726.4,242.9 L724.7,246.1 L722.9,249.3 L720.9,252.5 L718.7,255.7 L716.3,259.0 L713.8,262.3 L711.0,265.6 L708.1,268.9 L705.0,272.2 L701.7,275.6 L698.3,278.9 L694.7,282.3 L690.9,285.6 L686.9,288.9 L682.8,292.3 L678.6,295.6 L674.2,298.9 L669.6,302.2 L664.9,305.5 L660.1,308.8 L655.1,312.0 L650.0,315.2 L644.7,318.4 L639.4,321.6 L633.9,324.7 L628.3,327.8 L622.6,330.8 L616.8,333.9 L610.8,336.8 L604.8,339.8 L598.7,342.7 L592.5,345.5 L586.2,348.3 L579.9,351.0 L573.4,353.7 L566.9,356.3 L560.4,358.8 L553.8,361.3 L547.1,363.7 L540.4,366.1 L533.7,368.4 L526.9,370.6 L520.1,372.8 L513.2,374.8 L506.4,376.8 L499.5,378.7 L492.7,380.6 L485.8,382.3 L478.9,384.0 L472.1,385.6 L465.2,387.1 L458.4,388.6 L451.6,389.9 L444.9,391.1 L438.2,392.3 L431.5,393.4 L424.9,394.4 L418.3,395.2 L411.8,396.0 L405.4,396.7 L399.0,397.4 L392.7,397.9 L386.5,398.3 L380.4,398.6 L374.3,398.8 L368.4,399.0 L362.5,399.0 L356.8,399.0 L351.2,398.8 L345.7,398.6 L340.3,398.2 L335.0,397.8 L329.9,397.3 L324.9,396.6 L320.0,395.9 L315.3,395.1 L310.7,394.2 L306.3,393.2 L302.0,392.1 L297.8,391.0 L293.9,389.7 L290.1,388.3 L286.4,386.9 L282.9,385.4 L279.6,383.8 L276.5,382.1 L273.5,380.3 L270.7,378.5 L268.1,376.5 L265.7,374.5 L263.5,372.4 L261.5,370.3 L259.6,368.0 L257.9,365.7 L256.4,363.4 L255.2,360.9 L254.1,358.4 L253.2,355.9 L252.5,353.3 L252.0,350.6 L251.6,347.8 L251.5,345.1 L251.6,342.2 L251.9,339.3 L252.3,336.4 L253.0,333.4 L253.9,330.4 L254.9,327.3 L256.2,324.2 L257.6,321.1 L259.3,317.9 L261.1,314.7 L263.1,311.5 L265.3,308.3 L267.7,305.0 L270.2,301.7 L273.0,298.4 L275.9,295.1 L279.0,291.8 L282.3,288.4 L285.7,285.1 L289.3,281.7 L293.1,278.4 L297.1,275.1 L301.2,271.7 L305.4,268.4 L309.8,265.1 L314.4,261.8 L319.1,258.5 L323.9,255.2 L328.9,252.0 L334.0,248.8 L339.3,245.6 L344.6,242.4 L350.1,239.3 L355.7,236.2 L361.4,233.2 L367.2,230.1 L373.2,227.2 L379.2,224.2 L385.3,221.3 L391.5,218.5 L397.8,215.7 L404.1,213.0 L410.6,210.3 L417.1,207.7 L423.6,205.2 L430.2,202.7 L436.9,200.3 L443.6,197.9 L450.3,195.6 L457.1,193.4 L463.9,191.2 L470.8,189.2 L477.6,187.2 L484.5,185.3 L491.3,183.4 L498.2,181.7 L505.1,180.0 L511.9,178.4 L518.8,176.9 L525.6,175.4 L532.4,174.1 L539.1,172.9 L545.8,171.7 L552.5,170.6 L559.1,169.6 L565.7,168.8 L572.2,168.0 L578.6,167.3 L585.0,166.6 L591.3,166.1 L597.5,165.7 L603.6,165.4 L609.7,165.2 L615.6,165.0 L621.5,165.0 L627.2,165.0 L632.8,165.2 L638.3,165.4 L643.7,165.8 L649.0,166.2 L654.1,166.7 L659.1,167.4 L664.0,168.1 L668.7,168.9 L673.3,169.8 L677.7,170.8 L682.0,171.9 L686.2,173.0 L690.1,174.3 L693.9,175.7 L697.6,177.1 L701.1,178.6 L704.4,180.2 L707.5,181.9 L710.5,183.7 L713.3,185.5 L715.9,187.5 L718.3,189.5 L720.5,191.6 L722.5,193.7 L724.4,196.0 L726.1,198.3 L727.6,200.6 L728.8,203.1 L729.9,205.6 L730.8,208.1" fill="none" stroke="#8e3e38" stroke-width="1.1" opacity="0.22"/>
<path d="M668.7,227.3 L669.3,229.3 L669.6,231.2 L669.9,233.3 L669.9,235.3 L669.9,237.4 L669.7,239.5 L669.3,241.7 L668.8,243.9 L668.2,246.1 L667.4,248.4 L666.5,250.7 L665.4,253.0 L664.2,255.3 L662.8,257.7 L661.4,260.0 L659.7,262.4 L658.0,264.9 L656.1,267.3 L654.0,269.7 L651.9,272.2 L649.6,274.6 L647.1,277.1 L644.6,279.5 L641.9,282.0 L639.1,284.5 L636.2,286.9 L633.2,289.4 L630.0,291.9 L626.7,294.3 L623.4,296.7 L619.9,299.2 L616.3,301.6 L612.6,304.0 L608.8,306.3 L605.0,308.7 L601.0,311.0 L596.9,313.3 L592.8,315.6 L588.5,317.9 L584.2,320.1 L579.9,322.3 L575.4,324.5 L570.9,326.6 L566.3,328.7 L561.6,330.8 L556.9,332.8 L552.2,334.8 L547.4,336.7 L542.5,338.6 L537.6,340.4 L532.7,342.2 L527.7,343.9 L522.7,345.6 L517.7,347.3 L512.7,348.9 L507.6,350.4 L502.6,351.9 L497.5,353.3 L492.4,354.7 L487.3,356.0 L482.2,357.2 L477.2,358.4 L472.1,359.5 L467.1,360.6 L462.1,361.6 L457.1,362.5 L452.1,363.4 L447.2,364.2 L442.3,364.9 L437.4,365.5 L432.6,366.1 L427.8,366.7 L423.1,367.1 L418.4,367.5 L413.9,367.8 L409.3,368.1 L404.9,368.2 L400.5,368.3 L396.1,368.4 L391.9,368.3 L387.7,368.2 L383.7,368.1 L379.7,367.8 L375.8,367.5 L372.0,367.1 L368.3,366.7 L364.7,366.1 L361.2,365.5 L357.8,364.9 L354.5,364.1 L351.3,363.4 L348.3,362.5 L345.3,361.6 L342.5,360.6 L339.8,359.5 L337.3,358.4 L334.8,357.2 L332.5,356.0 L330.3,354.7 L328.2,353.3 L326.3,351.9 L324.5,350.4 L322.9,348.9 L321.4,347.3 L320.0,345.6 L318.8,343.9 L317.7,342.2 L316.7,340.4 L315.9,338.6 L315.3,336.7 L314.7,334.7 L314.4,332.8 L314.1,330.7 L314.1,328.7 L314.1,326.6 L314.3,324.5 L314.7,322.3 L315.2,320.1 L315.8,317.9 L316.6,315.6 L317.5,313.3 L318.6,311.0 L319.8,308.7 L321.2,306.3 L322.6,304.0 L324.3,301.6 L326.0,299.1 L327.9,296.7 L330.0,294.3 L332.1,291.8 L334.4,289.4 L336.9,286.9 L339.4,284.5 L342.1,282.0 L344.9,279.5 L347.8,277.1 L350.8,274.6 L354.0,272.1 L357.3,269.7 L360.6,267.3 L364.1,264.8 L367.7,262.4 L371.4,260.0 L375.2,257.7 L379.0,255.3 L383.0,253.0 L387.1,250.7 L391.2,248.4 L395.5,246.1 L399.8,243.9 L404.1,241.7 L408.6,239.5 L413.1,237.4 L417.7,235.3 L422.4,233.2 L427.1,231.2 L431.8,229.2 L436.6,227.3 L441.5,225.4 L446.4,223.6 L451.3,221.8 L456.3,220.1 L461.3,218.4 L466.3,216.7 L471.3,215.1 L476.4,213.6 L481.4,212.1 L486.5,210.7 L491.6,209.3 L496.7,208.0 L501.8,206.8 L506.8,205.6 L511.9,204.5 L516.9,203.4 L521.9,202.4 L526.9,201.5 L531.9,200.6 L536.8,199.8 L541.7,199.1 L546.6,198.5 L551.4,197.9 L556.2,197.3 L560.9,196.9 L565.6,196.5 L570.1,196.2 L574.7,195.9 L579.1,195.8 L583.5,195.7 L587.9,195.6 L592.1,195.7 L596.3,195.8 L600.3,195.9 L604.3,196.2 L608.2,196.5 L612.0,196.9 L615.7,197.3 L619.3,197.9 L622.8,198.5 L626.2,199.1 L629.5,199.9 L632.7,200.6 L635.7,201.5 L638.7,202.4 L641.5,203.4 L644.2,204.5 L646.7,205.6 L649.2,206.8 L651.5,208.0 L653.7,209.3 L655.8,210.7 L657.7,212.1 L659.5,213.6 L661.1,215.1 L662.6,216.7 L664.0,218.4 L665.2,220.1 L666.3,221.8 L667.3,223.6 L668.1,225.4 L668.7,227.3" fill="none" stroke="#8e3e38" stroke-width="1.1" opacity="0.28"/>
<path d="M606.6,246.5 L607.0,247.8 L607.2,249.1 L607.4,250.4 L607.4,251.8 L607.4,253.2 L607.3,254.6 L607.1,256.0 L606.7,257.4 L606.3,258.9 L605.8,260.4 L605.2,261.9 L604.5,263.4 L603.8,264.9 L602.9,266.4 L601.9,268.0 L600.9,269.6 L599.7,271.1 L598.5,272.7 L597.2,274.3 L595.8,275.9 L594.3,277.5 L592.7,279.1 L591.1,280.8 L589.4,282.4 L587.5,284.0 L585.7,285.6 L583.7,287.2 L581.6,288.8 L579.5,290.4 L577.3,292.0 L575.1,293.6 L572.8,295.1 L570.4,296.7 L567.9,298.3 L565.4,299.8 L562.8,301.3 L560.2,302.8 L557.5,304.3 L554.8,305.8 L552.0,307.2 L549.1,308.7 L546.3,310.1 L543.3,311.5 L540.4,312.8 L537.3,314.2 L534.3,315.5 L531.2,316.8 L528.1,318.0 L524.9,319.3 L521.8,320.5 L518.6,321.6 L515.4,322.7 L512.1,323.8 L508.9,324.9 L505.6,325.9 L502.3,326.9 L499.0,327.9 L495.7,328.8 L492.4,329.7 L489.1,330.5 L485.8,331.3 L482.6,332.1 L479.3,332.8 L476.0,333.5 L472.7,334.2 L469.5,334.8 L466.3,335.3 L463.1,335.8 L459.9,336.3 L456.7,336.7 L453.6,337.1 L450.5,337.4 L447.5,337.7 L444.4,337.9 L441.5,338.1 L438.5,338.3 L435.6,338.4 L432.8,338.5 L430.0,338.5 L427.2,338.4 L424.5,338.4 L421.9,338.2 L419.3,338.1 L416.7,337.8 L414.3,337.6 L411.9,337.3 L409.5,336.9 L407.2,336.5 L405.0,336.1 L402.9,335.6 L400.8,335.1 L398.9,334.5 L397.0,333.9 L395.1,333.2 L393.4,332.5 L391.7,331.8 L390.1,331.0 L388.6,330.2 L387.2,329.3 L385.8,328.4 L384.6,327.5 L383.4,326.5 L382.3,325.5 L381.4,324.4 L380.5,323.4 L379.7,322.2 L378.9,321.1 L378.3,319.9 L377.8,318.7 L377.4,317.5 L377.0,316.2 L376.8,314.9 L376.6,313.6 L376.6,312.2 L376.6,310.8 L376.7,309.4 L376.9,308.0 L377.3,306.6 L377.7,305.1 L378.2,303.6 L378.8,302.1 L379.5,300.6 L380.2,299.1 L381.1,297.6 L382.1,296.0 L383.1,294.4 L384.3,292.9 L385.5,291.3 L386.8,289.7 L388.2,288.1 L389.7,286.5 L391.3,284.9 L392.9,283.2 L394.6,281.6 L396.5,280.0 L398.3,278.4 L400.3,276.8 L402.4,275.2 L404.5,273.6 L406.7,272.0 L408.9,270.4 L411.2,268.9 L413.6,267.3 L416.1,265.7 L418.6,264.2 L421.2,262.7 L423.8,261.2 L426.5,259.7 L429.2,258.2 L432.0,256.8 L434.9,255.3 L437.7,253.9 L440.7,252.5 L443.6,251.2 L446.7,249.8 L449.7,248.5 L452.8,247.2 L455.9,246.0 L459.1,244.7 L462.2,243.5 L465.4,242.4 L468.6,241.3 L471.9,240.2 L475.1,239.1 L478.4,238.1 L481.7,237.1 L485.0,236.1 L488.3,235.2 L491.6,234.3 L494.9,233.5 L498.2,232.7 L501.4,231.9 L504.7,231.2 L508.0,230.5 L511.3,229.8 L514.5,229.2 L517.7,228.7 L520.9,228.2 L524.1,227.7 L527.3,227.3 L530.4,226.9 L533.5,226.6 L536.5,226.3 L539.6,226.1 L542.5,225.9 L545.5,225.7 L548.4,225.6 L551.2,225.5 L554.0,225.5 L556.8,225.6 L559.5,225.6 L562.1,225.8 L564.7,225.9 L567.3,226.2 L569.7,226.4 L572.1,226.7 L574.5,227.1 L576.8,227.5 L579.0,227.9 L581.1,228.4 L583.2,228.9 L585.1,229.5 L587.0,230.1 L588.9,230.8 L590.6,231.5 L592.3,232.2 L593.9,233.0 L595.4,233.8 L596.8,234.7 L598.2,235.6 L599.4,236.5 L600.6,237.5 L601.7,238.5 L602.6,239.6 L603.5,240.6 L604.3,241.8 L605.1,242.9 L605.7,244.1 L606.2,245.3 L606.6,246.5" fill="none" stroke="#8e3e38" stroke-width="1.1" opacity="0.36"/>
</g>
<circle cx="468.8" cy="277.9" r="1.6" fill="#496d8a" opacity="0.16"/>
<circle cx="337.5" cy="240.8" r="3.3" fill="#496d8a" opacity="0.16"/>
<circle cx="676.1" cy="273.9" r="2.7" fill="#496d8a" opacity="0.12"/>
<circle cx="396.3" cy="314.4" r="2.5" fill="#496d8a" opacity="0.25"/>
<circle cx="467.4" cy="334.7" r="1.9" fill="#496d8a" opacity="0.14"/>
<circle cx="403.1" cy="237.0" r="2.8" fill="#496d8a" opacity="0.19"/>
<circle cx="520.6" cy="303.7" r="2.2" fill="#496d8a" opacity="0.13"/>
<circle cx="398.6" cy="241.2" r="2.6" fill="#496d8a" opacity="0.19"/>
<circle cx="483.6" cy="342.3" r="3.1" fill="#496d8a" opacity="0.19"/>
<circle cx="481.0" cy="203.7" r="2.0" fill="#496d8a" opacity="0.24"/>
<circle cx="656.2" cy="315.1" r="2.8" fill="#496d8a" opacity="0.21"/>
<circle cx="458.8" cy="334.4" r="3.2" fill="#496d8a" opacity="0.28"/>
<circle cx="498.9" cy="226.1" r="2.3" fill="#496d8a" opacity="0.16"/>
<circle cx="645.9" cy="305.0" r="1.7" fill="#496d8a" opacity="0.23"/>
<circle cx="481.7" cy="294.9" r="1.7" fill="#496d8a" opacity="0.16"/>
<circle cx="420.8" cy="205.3" r="2.1" fill="#496d8a" opacity="0.15"/>
<circle cx="539.3" cy="267.6" r="2.5" fill="#496d8a" opacity="0.26"/>
<circle cx="528.2" cy="216.1" r="1.9" fill="#496d8a" opacity="0.15"/>
<circle cx="581.1" cy="230.8" r="2.0" fill="#496d8a" opacity="0.15"/>
<circle cx="498.3" cy="280.8" r="2.1" fill="#496d8a" opacity="0.27"/>
<circle cx="408.2" cy="431.8" r="2.1" fill="#496d8a" opacity="0.11"/>
<circle cx="454.8" cy="280.1" r="2.0" fill="#496d8a" opacity="0.15"/>
<circle cx="446.0" cy="173.0" r="2.1" fill="#496d8a" opacity="0.19"/>
<circle cx="525.3" cy="340.5" r="2.4" fill="#496d8a" opacity="0.11"/>
<circle cx="508.1" cy="346.7" r="2.9" fill="#496d8a" opacity="0.19"/>
<circle cx="354.3" cy="247.1" r="1.6" fill="#496d8a" opacity="0.20"/>
<circle cx="579.8" cy="254.2" r="2.9" fill="#496d8a" opacity="0.15"/>
<circle cx="544.9" cy="299.8" r="1.9" fill="#496d8a" opacity="0.27"/>
<circle cx="579.0" cy="253.3" r="3.3" fill="#496d8a" opacity="0.23"/>
<circle cx="596.0" cy="220.7" r="2.2" fill="#496d8a" opacity="0.18"/>
<circle cx="458.8" cy="330.0" r="2.2" fill="#496d8a" opacity="0.19"/>
<circle cx="390.6" cy="426.3" r="2.3" fill="#496d8a" opacity="0.14"/>
<circle cx="460.2" cy="311.6" r="2.9" fill="#496d8a" opacity="0.18"/>
<circle cx="548.7" cy="299.9" r="2.2" fill="#496d8a" opacity="0.13"/>
<circle cx="499.7" cy="158.1" r="2.5" fill="#496d8a" opacity="0.15"/>
<circle cx="540.3" cy="347.1" r="2.8" fill="#496d8a" opacity="0.27"/>
<circle cx="535.9" cy="356.9" r="1.7" fill="#496d8a" opacity="0.20"/>
<circle cx="391.1" cy="301.5" r="2.9" fill="#496d8a" opacity="0.18"/>
<circle cx="418.1" cy="373.5" r="1.7" fill="#496d8a" opacity="0.27"/>
<circle cx="624.4" cy="317.1" r="2.0" fill="#496d8a" opacity="0.26"/>
<circle cx="632.0" cy="408.2" r="2.4" fill="#496d8a" opacity="0.12"/>
<circle cx="430.5" cy="234.3" r="2.5" fill="#496d8a" opacity="0.19"/>
<circle cx="443.8" cy="300.6" r="3.0" fill="#496d8a" opacity="0.28"/>
<circle cx="494.2" cy="290.3" r="3.1" fill="#496d8a" opacity="0.15"/>
<circle cx="473.9" cy="252.2" r="3.2" fill="#496d8a" opacity="0.25"/>
<circle cx="325.5" cy="357.2" r="3.2" fill="#496d8a" opacity="0.19"/>
<circle cx="379.5" cy="212.0" r="3.1" fill="#496d8a" opacity="0.17"/>
<circle cx="502.5" cy="246.2" r="2.0" fill="#496d8a" opacity="0.23"/>
<circle cx="532.3" cy="446.9" r="3.1" fill="#496d8a" opacity="0.23"/>
<circle cx="444.1" cy="359.7" r="3.2" fill="#496d8a" opacity="0.26"/>
<circle cx="483.6" cy="322.4" r="2.3" fill="#496d8a" opacity="0.15"/>
<circle cx="428.8" cy="302.0" r="2.0" fill="#496d8a" opacity="0.18"/>
<circle cx="428.7" cy="382.1" r="2.3" fill="#496d8a" opacity="0.26"/>
<circle cx="495.4" cy="237.7" r="2.0" fill="#496d8a" opacity="0.24"/>
<circle cx="534.9" cy="331.2" r="2.2" fill="#496d8a" opacity="0.25"/>
<circle cx="502.8" cy="204.3" r="2.2" fill="#496d8a" opacity="0.21"/>
<circle cx="520.5" cy="383.2" r="3.3" fill="#496d8a" opacity="0.12"/>
<circle cx="561.2" cy="249.7" r="2.0" fill="#496d8a" opacity="0.13"/>
<circle cx="480.4" cy="212.9" r="3.3" fill="#496d8a" opacity="0.19"/>
<circle cx="412.8" cy="318.3" r="2.5" fill="#496d8a" opacity="0.26"/>
<circle cx="380.0" cy="193.2" r="2.1" fill="#496d8a" opacity="0.23"/>
<circle cx="388.5" cy="248.1" r="2.8" fill="#496d8a" opacity="0.22"/>
<circle cx="475.9" cy="227.0" r="3.2" fill="#496d8a" opacity="0.20"/>
<circle cx="346.6" cy="270.5" r="3.0" fill="#496d8a" opacity="0.10"/>
<circle cx="250.9" cy="362.2" r="2.7" fill="#496d8a" opacity="0.12"/>
<circle cx="550.4" cy="295.7" r="2.1" fill="#496d8a" opacity="0.23"/>
<circle cx="364.7" cy="311.4" r="2.1" fill="#496d8a" opacity="0.18"/>
<circle cx="220.7" cy="230.4" r="2.0" fill="#496d8a" opacity="0.13"/>
<circle cx="254.0" cy="331.8" r="3.1" fill="#496d8a" opacity="0.20"/>
<circle cx="480.9" cy="163.9" r="2.4" fill="#496d8a" opacity="0.25"/>
<circle cx="455.1" cy="310.8" r="2.5" fill="#496d8a" opacity="0.25"/>
<circle cx="430.3" cy="281.0" r="1.7" fill="#496d8a" opacity="0.25"/>
<circle cx="658.6" cy="200.8" r="2.0" fill="#496d8a" opacity="0.26"/>
<circle cx="588.6" cy="357.2" r="3.2" fill="#496d8a" opacity="0.25"/>
<circle cx="665.4" cy="229.7" r="1.9" fill="#496d8a" opacity="0.28"/>
<circle cx="564.3" cy="287.8" r="2.5" fill="#496d8a" opacity="0.16"/>
<circle cx="495.8" cy="275.8" r="2.4" fill="#496d8a" opacity="0.25"/>
<circle cx="524.9" cy="260.8" r="2.9" fill="#496d8a" opacity="0.13"/>
<circle cx="574.7" cy="316.2" r="1.7" fill="#496d8a" opacity="0.25"/>
<circle cx="589.9" cy="371.4" r="2.5" fill="#496d8a" opacity="0.24"/>
<circle cx="504.3" cy="335.0" r="3.2" fill="#496d8a" opacity="0.15"/>
<circle cx="517.9" cy="391.2" r="3.0" fill="#496d8a" opacity="0.27"/>
<circle cx="443.3" cy="185.7" r="2.1" fill="#496d8a" opacity="0.27"/>
<circle cx="623.0" cy="229.7" r="3.1" fill="#496d8a" opacity="0.15"/>
<circle cx="488.5" cy="327.5" r="3.0" fill="#496d8a" opacity="0.26"/>
<circle cx="497.4" cy="289.6" r="1.8" fill="#496d8a" opacity="0.18"/>
<circle cx="541.7" cy="242.7" r="3.1" fill="#496d8a" opacity="0.26"/>
<circle cx="486.9" cy="330.4" r="3.3" fill="#496d8a" opacity="0.20"/>
<circle cx="416.7" cy="292.4" r="2.3" fill="#496d8a" opacity="0.13"/>
<circle cx="509.7" cy="313.9" r="2.9" fill="#496d8a" opacity="0.20"/>
<circle cx="528.2" cy="342.1" r="3.3" fill="#496d8a" opacity="0.18"/>
<circle cx="658.3" cy="391.0" r="3.1" fill="#496d8a" opacity="0.16"/>
<circle cx="426.3" cy="261.3" r="1.6" fill="#496d8a" opacity="0.20"/>
<circle cx="476.2" cy="234.6" r="2.1" fill="#496d8a" opacity="0.25"/>
<circle cx="493.4" cy="255.7" r="1.9" fill="#496d8a" opacity="0.13"/>
<circle cx="650.1" cy="332.6" r="2.4" fill="#496d8a" opacity="0.24"/>
<circle cx="544.2" cy="218.5" r="2.0" fill="#496d8a" opacity="0.24"/>
<circle cx="315.8" cy="344.6" r="3.0" fill="#496d8a" opacity="0.14"/>
<circle cx="366.0" cy="328.9" r="2.7" fill="#496d8a" opacity="0.21"/>
<circle cx="606.0" cy="205.2" r="1.9" fill="#496d8a" opacity="0.27"/>
<circle cx="503.0" cy="226.6" r="1.9" fill="#496d8a" opacity="0.15"/>
<circle cx="406.8" cy="299.3" r="2.5" fill="#496d8a" opacity="0.11"/>
<circle cx="701.3" cy="430.4" r="1.9" fill="#496d8a" opacity="0.27"/>
<circle cx="533.0" cy="346.8" r="2.5" fill="#496d8a" opacity="0.21"/>
<circle cx="468.7" cy="157.2" r="2.3" fill="#496d8a" opacity="0.20"/>
<circle cx="506.3" cy="260.7" r="1.8" fill="#496d8a" opacity="0.27"/>
<circle cx="578.8" cy="188.1" r="2.3" fill="#496d8a" opacity="0.24"/>
<circle cx="397.4" cy="285.5" r="2.2" fill="#496d8a" opacity="0.27"/>
<circle cx="451.1" cy="236.1" r="2.4" fill="#496d8a" opacity="0.25"/>
<circle cx="413.9" cy="306.7" r="2.7" fill="#496d8a" opacity="0.11"/>
<circle cx="587.4" cy="270.3" r="2.6" fill="#496d8a" opacity="0.26"/>
<circle cx="605.6" cy="350.3" r="2.0" fill="#496d8a" opacity="0.17"/>
<circle cx="610.4" cy="142.3" r="2.5" fill="#496d8a" opacity="0.16"/>
<circle cx="761.0" cy="343.2" r="3.0" fill="#496d8a" opacity="0.22"/>
<circle cx="537.7" cy="279.0" r="3.2" fill="#496d8a" opacity="0.11"/>
<circle cx="412.9" cy="277.0" r="3.0" fill="#496d8a" opacity="0.16"/>
<circle cx="507.1" cy="333.5" r="1.7" fill="#496d8a" opacity="0.16"/>
<circle cx="500.0" cy="308.5" r="2.8" fill="#496d8a" opacity="0.24"/>
<circle cx="577.1" cy="355.7" r="2.6" fill="#496d8a" opacity="0.14"/>
<circle cx="536.0" cy="303.7" r="3.2" fill="#496d8a" opacity="0.27"/>
<circle cx="591.4" cy="358.0" r="1.7" fill="#496d8a" opacity="0.15"/>
<circle cx="432.0" cy="320.5" r="2.4" fill="#496d8a" opacity="0.14"/>
<circle cx="472.8" cy="267.8" r="1.7" fill="#496d8a" opacity="0.19"/>
<circle cx="319.8" cy="239.0" r="2.5" fill="#496d8a" opacity="0.24"/>
<circle cx="620.1" cy="332.8" r="2.7" fill="#496d8a" opacity="0.12"/>
<circle cx="344.8" cy="271.4" r="2.9" fill="#496d8a" opacity="0.23"/>
<circle cx="484.9" cy="329.1" r="2.9" fill="#496d8a" opacity="0.21"/>
<circle cx="539.0" cy="357.6" r="2.6" fill="#496d8a" opacity="0.15"/>
<circle cx="572.4" cy="335.4" r="2.4" fill="#496d8a" opacity="0.13"/>
<circle cx="473.2" cy="206.9" r="2.1" fill="#496d8a" opacity="0.21"/>
<circle cx="477.6" cy="288.8" r="2.4" fill="#496d8a" opacity="0.16"/>
<circle cx="620.9" cy="323.6" r="2.2" fill="#496d8a" opacity="0.12"/>
<circle cx="475.3" cy="395.0" r="2.5" fill="#496d8a" opacity="0.25"/>
<circle cx="607.2" cy="301.1" r="1.9" fill="#496d8a" opacity="0.21"/>
<circle cx="514.9" cy="318.6" r="2.4" fill="#496d8a" opacity="0.16"/>
<circle cx="422.6" cy="304.7" r="3.1" fill="#496d8a" opacity="0.20"/>
<circle cx="465.7" cy="313.0" r="1.9" fill="#496d8a" opacity="0.13"/>
<circle cx="466.2" cy="200.2" r="2.7" fill="#496d8a" opacity="0.27"/>
<circle cx="334.7" cy="282.5" r="2.2" fill="#496d8a" opacity="0.24"/>
<circle cx="448.6" cy="309.4" r="2.7" fill="#496d8a" opacity="0.19"/>
<circle cx="448.7" cy="342.7" r="1.7" fill="#496d8a" opacity="0.27"/>
<circle cx="560.7" cy="252.6" r="3.1" fill="#496d8a" opacity="0.15"/>
<circle cx="420.7" cy="292.5" r="3.0" fill="#496d8a" opacity="0.18"/>
<circle cx="344.6" cy="326.9" r="3.1" fill="#496d8a" opacity="0.11"/>
<circle cx="692.9" cy="154.6" r="2.0" fill="#496d8a" opacity="0.25"/>
<circle cx="661.8" cy="374.0" r="2.6" fill="#496d8a" opacity="0.13"/>
<circle cx="454.0" cy="192.0" r="2.6" fill="#496d8a" opacity="0.13"/>
<circle cx="647.8" cy="358.6" r="1.7" fill="#496d8a" opacity="0.28"/>
<circle cx="595.6" cy="247.1" r="3.0" fill="#496d8a" opacity="0.15"/>
<circle cx="524.3" cy="309.2" r="3.1" fill="#496d8a" opacity="0.13"/>
<circle cx="516.2" cy="285.7" r="1.7" fill="#496d8a" opacity="0.26"/>
<circle cx="465.0" cy="271.6" r="2.4" fill="#496d8a" opacity="0.14"/>
<circle cx="515.6" cy="235.6" r="3.3" fill="#496d8a" opacity="0.11"/>
<circle cx="604.4" cy="199.8" r="2.8" fill="#496d8a" opacity="0.13"/>
<circle cx="416.4" cy="397.3" r="2.2" fill="#496d8a" opacity="0.25"/>
<circle cx="463.4" cy="329.2" r="3.3" fill="#496d8a" opacity="0.12"/>
<circle cx="473.6" cy="257.7" r="2.8" fill="#496d8a" opacity="0.15"/>
<circle cx="509.7" cy="271.9" r="2.8" fill="#496d8a" opacity="0.12"/>
<circle cx="503.2" cy="243.2" r="2.4" fill="#496d8a" opacity="0.10"/>
<circle cx="488.6" cy="287.8" r="2.4" fill="#496d8a" opacity="0.18"/>
<circle cx="452.2" cy="305.6" r="2.4" fill="#496d8a" opacity="0.11"/>
<circle cx="557.9" cy="254.8" r="3.0" fill="#496d8a" opacity="0.15"/>
<circle cx="552.3" cy="285.9" r="3.1" fill="#496d8a" opacity="0.19"/>
<circle cx="488.4" cy="342.2" r="2.5" fill="#496d8a" opacity="0.21"/>
<circle cx="410.9" cy="273.7" r="1.9" fill="#496d8a" opacity="0.23"/>
<circle cx="414.5" cy="198.5" r="3.2" fill="#496d8a" opacity="0.15"/>
<circle cx="604.0" cy="335.7" r="2.9" fill="#496d8a" opacity="0.19"/>
<circle cx="328.1" cy="258.4" r="2.6" fill="#496d8a" opacity="0.12"/>
<circle cx="393.6" cy="181.0" r="2.8" fill="#496d8a" opacity="0.26"/>
<circle cx="521.0" cy="329.0" r="2.4" fill="#496d8a" opacity="0.25"/>
<circle cx="365.0" cy="286.0" r="3.0" fill="#496d8a" opacity="0.23"/>
<circle cx="434.3" cy="305.9" r="1.8" fill="#496d8a" opacity="0.18"/>
<circle cx="517.7" cy="221.0" r="3.0" fill="#496d8a" opacity="0.17"/>
<circle cx="389.5" cy="261.3" r="1.7" fill="#496d8a" opacity="0.25"/>
<circle cx="673.6" cy="185.4" r="2.2" fill="#496d8a" opacity="0.19"/>
<circle cx="432.3" cy="215.9" r="2.8" fill="#496d8a" opacity="0.13"/>
<circle cx="433.1" cy="327.4" r="2.9" fill="#496d8a" opacity="0.24"/>
<circle cx="513.8" cy="372.7" r="2.1" fill="#496d8a" opacity="0.26"/>
<circle cx="638.9" cy="321.9" r="2.8" fill="#496d8a" opacity="0.23"/>
<path d="M654.4,231.8 L654.9,233.5 L655.2,235.3 L655.4,237.1 L655.5,238.9 L655.4,240.8 L655.2,242.8 L654.9,244.7 L654.4,246.7 L653.8,248.7 L653.1,250.8 L652.2,252.8 L651.2,254.9 L650.1,257.0 L648.8,259.2 L647.5,261.3 L646.0,263.5 L644.3,265.7 L642.6,267.9 L640.7,270.1 L638.7,272.3 L636.6,274.5 L634.3,276.7 L632.0,279.0 L629.5,281.2 L626.9,283.4 L624.2,285.7 L621.4,287.9 L618.5,290.1 L615.5,292.4 L612.4,294.6 L609.2,296.8 L605.9,299.0 L602.5,301.2 L599.0,303.3 L595.5,305.5 L591.8,307.6 L588.1,309.7 L584.3,311.8 L580.4,313.8 L576.4,315.9 L572.4,317.9 L568.3,319.9 L564.1,321.8 L559.9,323.7 L555.6,325.6 L551.3,327.4 L546.9,329.2 L542.5,331.0 L538.0,332.7 L533.5,334.4 L529.0,336.1 L524.4,337.7 L519.9,339.2 L515.2,340.7 L510.6,342.2 L506.0,343.6 L501.3,345.0 L496.7,346.3 L492.0,347.5 L487.3,348.7 L482.7,349.9 L478.0,351.0 L473.3,352.0 L468.7,353.0 L464.1,353.9 L459.5,354.8 L455.0,355.6 L450.4,356.3 L445.9,357.0 L441.5,357.6 L437.1,358.2 L432.7,358.7 L428.4,359.1 L424.1,359.5 L419.9,359.8 L415.7,360.0 L411.6,360.2 L407.6,360.3 L403.6,360.4 L399.7,360.4 L395.9,360.3 L392.2,360.2 L388.5,360.0 L384.9,359.7 L381.5,359.4 L378.1,359.0 L374.8,358.5 L371.6,358.0 L368.4,357.4 L365.4,356.8 L362.5,356.1 L359.7,355.3 L357.1,354.5 L354.5,353.6 L352.0,352.7 L349.7,351.7 L347.4,350.7 L345.3,349.5 L343.3,348.4 L341.4,347.2 L339.7,345.9 L338.0,344.6 L336.5,343.2 L335.1,341.8 L333.9,340.3 L332.8,338.8 L331.8,337.2 L330.9,335.6 L330.2,333.9 L329.6,332.2 L329.1,330.5 L328.8,328.7 L328.6,326.9 L328.5,325.1 L328.6,323.2 L328.8,321.2 L329.1,319.3 L329.6,317.3 L330.2,315.3 L330.9,313.2 L331.8,311.2 L332.8,309.1 L333.9,307.0 L335.2,304.8 L336.5,302.7 L338.0,300.5 L339.7,298.3 L341.4,296.1 L343.3,293.9 L345.3,291.7 L347.4,289.5 L349.7,287.3 L352.0,285.0 L354.5,282.8 L357.1,280.6 L359.8,278.3 L362.6,276.1 L365.5,273.9 L368.5,271.6 L371.6,269.4 L374.8,267.2 L378.1,265.0 L381.5,262.8 L385.0,260.7 L388.5,258.5 L392.2,256.4 L395.9,254.3 L399.7,252.2 L403.6,250.2 L407.6,248.1 L411.6,246.1 L415.7,244.1 L419.9,242.2 L424.1,240.3 L428.4,238.4 L432.7,236.6 L437.1,234.8 L441.5,233.0 L446.0,231.3 L450.5,229.6 L455.0,227.9 L459.6,226.3 L464.1,224.8 L468.8,223.3 L473.4,221.8 L478.0,220.4 L482.7,219.0 L487.3,217.7 L492.0,216.5 L496.7,215.3 L501.3,214.1 L506.0,213.0 L510.7,212.0 L515.3,211.0 L519.9,210.1 L524.5,209.2 L529.0,208.4 L533.6,207.7 L538.1,207.0 L542.5,206.4 L546.9,205.8 L551.3,205.3 L555.6,204.9 L559.9,204.5 L564.1,204.2 L568.3,204.0 L572.4,203.8 L576.4,203.7 L580.4,203.6 L584.3,203.6 L588.1,203.7 L591.8,203.8 L595.5,204.0 L599.1,204.3 L602.5,204.6 L605.9,205.0 L609.2,205.5 L612.4,206.0 L615.6,206.6 L618.6,207.2 L621.5,207.9 L624.3,208.7 L626.9,209.5 L629.5,210.4 L632.0,211.3 L634.3,212.3 L636.6,213.3 L638.7,214.5 L640.7,215.6 L642.6,216.8 L644.3,218.1 L646.0,219.4 L647.5,220.8 L648.9,222.2 L650.1,223.7 L651.2,225.2 L652.2,226.8 L653.1,228.4 L653.8,230.1 L654.4,231.8" fill="none" stroke="#8e3e38" stroke-width="2.3" opacity="0.88"/>
<circle cx="492" cy="282" r="5.6" fill="#24211f" opacity="0.92"/>
<circle cx="580" cy="250" r="6.5" fill="#8e3e38" opacity="0.92"/>
<path d="M492,282 C522,269 548,258 580,250" fill="none" stroke="#496d8a" stroke-width="1.7" opacity="0.55" marker-end="url(#arrow)"/>
<g opacity="0.52">
<path d="M180,110 L180,455" stroke="#d9d1c4" stroke-width="0.8"/>
<path d="M260,110 L260,455" stroke="#d9d1c4" stroke-width="0.8"/>
<path d="M340,110 L340,455" stroke="#d9d1c4" stroke-width="0.8"/>
<path d="M420,110 L420,455" stroke="#d9d1c4" stroke-width="0.8"/>
<path d="M500,110 L500,455" stroke="#d9d1c4" stroke-width="0.8"/>
<path d="M580,110 L580,455" stroke="#d9d1c4" stroke-width="0.8"/>
<path d="M660,110 L660,455" stroke="#d9d1c4" stroke-width="0.8"/>
<path d="M740,110 L740,455" stroke="#d9d1c4" stroke-width="0.8"/>
<path d="M820,110 L820,455" stroke="#d9d1c4" stroke-width="0.8"/>
<path d="M165,120 L830,120" stroke="#d9d1c4" stroke-width="0.8"/>
<path d="M165,188 L830,188" stroke="#d9d1c4" stroke-width="0.8"/>
<path d="M165,256 L830,256" stroke="#d9d1c4" stroke-width="0.8"/>
<path d="M165,324 L830,324" stroke="#d9d1c4" stroke-width="0.8"/>
<path d="M165,392 L830,392" stroke="#d9d1c4" stroke-width="0.8"/>
<path d="M165,460 L830,460" stroke="#d9d1c4" stroke-width="0.8"/>
</g>
<rect x="0.5" y="0.5" width="959" height="539" rx="8" fill="none" stroke="#ddd5c7" stroke-width="1" opacity="0.95"/>
</svg>
