<svg xmlns="http://www.w3.org/2000/svg" width="960" height="540" viewBox="0 0 960 540" role="img" aria-labelledby="title desc">
  <title id="title">Statistical inference sampling prototype</title>
  <desc id="desc">Repeated estimators fluctuate around a fixed truth with confidence geometry.</desc>
  <defs>
    <linearGradient id="bg" x1="0" y1="0" x2="1" y2="1">
      <stop offset="0" stop-color="#fbfaf4"/>
      <stop offset="1" stop-color="#f3f0e8"/>
    </linearGradient>
    <radialGradient id="truthHalo" cx="50%" cy="50%" r="50%">
      <stop offset="0" stop-color="#d8bd75" stop-opacity="0.34"/>
      <stop offset="1" stop-color="#d8bd75" stop-opacity="0"/>
    </radialGradient>
  </defs>
  <rect width="960" height="540" rx="10" fill="url(#bg)"/>
  <circle cx="494" cy="274" r="142" fill="url(#truthHalo)"/>
  <g fill="none" stroke-linecap="round" stroke-linejoin="round">
    <path d="M146 390 C270 349, 372 322, 494 274 C612 228, 724 205, 834 178" stroke="#82908a" stroke-width="1.1" opacity="0.22"/>
    <path d="M214 150 C308 226, 407 256, 494 274 C607 296, 704 328, 800 402" stroke="#82908a" stroke-width="1.1" opacity="0.18"/>
    <g transform="translate(494 274) rotate(-18)" opacity="0.76">
      <ellipse cx="0" cy="0" rx="177" ry="86" stroke="#4f7377" stroke-width="1.75"/>
      <ellipse cx="0" cy="0" rx="119" ry="55" stroke="#4f7377" stroke-width="1.2" opacity="0.45"/>
      <ellipse cx="0" cy="0" rx="57" ry="25" stroke="#4f7377" stroke-width="1" opacity="0.36"/>
      <path d="M-150 0 H150" stroke="#b18b55" stroke-width="1" opacity="0.34"/>
      <path d="M0 -72 V72" stroke="#b18b55" stroke-width="0.9" opacity="0.25"/>
    </g>
    <g fill="#4f7377" opacity="0.56">
      <circle cx="337" cy="247" r="2.5"/>
      <circle cx="372" cy="304" r="2.7"/>
      <circle cx="398" cy="225" r="2.2"/>
      <circle cx="423" cy="338" r="2.9"/>
      <circle cx="450" cy="259" r="2.6"/>
      <circle cx="475" cy="307" r="2.4"/>
      <circle cx="510" cy="229" r="2.8"/>
      <circle cx="532" cy="287" r="2.2"/>
      <circle cx="554" cy="337" r="2.5"/>
      <circle cx="583" cy="246" r="2.9"/>
      <circle cx="609" cy="302" r="2.3"/>
      <circle cx="638" cy="220" r="2.4"/>
      <circle cx="663" cy="283" r="2.1"/>
      <circle cx="697" cy="253" r="2"/>
    </g>
    <circle cx="494" cy="274" r="6" fill="#a65d4f"/>
    <circle cx="494" cy="274" r="13" fill="none" stroke="#a65d4f" stroke-width="1.15" opacity="0.38"/>
    <g stroke="#a65d4f" stroke-width="1.1" opacity="0.34">
      <path d="M494 274 C465 248, 430 233, 398 225"/>
      <path d="M494 274 C466 296, 432 318, 423 338"/>
      <path d="M494 274 C526 251, 553 242, 583 246"/>
      <path d="M494 274 C532 288, 579 300, 609 302"/>
    </g>
    <path d="M238 410 C342 386, 428 374, 526 381 C637 388, 726 366, 820 328" stroke="#d3bd7b" stroke-width="1" opacity="0.24"/>
  </g>
</svg>
