<svg xmlns="http://www.w3.org/2000/svg" width="960" height="1180" viewBox="0 0 960 1180" role="img" aria-label="Vertical history from ancient Greek ratios to modern structures.">
<defs>
<radialGradient id="paper" cx="48%" cy="30%" r="88%"><stop offset="0" stop-color="#fff0bd"/><stop offset="0.56" stop-color="#d5b16d"/><stop offset="1" stop-color="#7c5a35"/></radialGradient>
<linearGradient id="edge" x1="0" y1="0" x2="1" y2="1"><stop offset="0" stop-color="#4e3220" stop-opacity="0.48"/><stop offset="0.24" stop-color="#d8bd80" stop-opacity="0.04"/><stop offset="0.72" stop-color="#d8bd80" stop-opacity="0.03"/><stop offset="1" stop-color="#432917" stop-opacity="0.46"/></linearGradient>
<filter id="paperNoise" x="-5%" y="-5%" width="110%" height="110%"><feTurbulence type="fractalNoise" baseFrequency="0.015 0.048" numOctaves="5" seed="89" result="noise"/><feColorMatrix in="noise" type="matrix" values="0.34 0 0 0 0.19 0 0.26 0 0 0.13 0 0 0.15 0 0.05 0 0 0 0.31 0" result="tone"/><feBlend in="SourceGraphic" in2="tone" mode="multiply"/></filter>
<filter id="shadow" x="-20%" y="-20%" width="140%" height="140%"><feDropShadow dx="0" dy="10" stdDeviation="12" flood-color="#2b1b0f" flood-opacity="0.24"/></filter>
<filter id="ink"><feGaussianBlur stdDeviation="0.16"/></filter>
<marker id="downArrow" viewBox="0 0 10 10" refX="5" refY="8.2" markerWidth="7" markerHeight="7" orient="auto"><path d="M 1.6 1.6 L 5 8.2 L 8.4 1.6" fill="none" stroke="#6e4e2f" stroke-width="1.75" stroke-linecap="round" stroke-linejoin="round" opacity="0.76"/></marker>
</defs>
<rect width="960" height="1180" fill="url(#paper)" filter="url(#paperNoise)"/>
<rect width="960" height="1180" fill="url(#edge)"/>
<rect x="18" y="18" width="924" height="1144" rx="9" fill="none" stroke="#4e3824" stroke-width="2.2" opacity="0.56"/>
<rect x="32" y="32" width="896" height="1116" rx="5" fill="none" stroke="#f1dca1" stroke-width="1.0" opacity="0.25"/>
<path d="M 52 48 L 70 48 L 70 61 L 59 61 L 59 74 L 83 74" fill="none" stroke="#5f452d" stroke-width="1.05" opacity="0.27"/><path d="M 92 48 L 110 48 L 110 61 L 99 61 L 99 74 L 123 74" fill="none" stroke="#5f452d" stroke-width="1.05" opacity="0.27"/><path d="M 132 48 L 150 48 L 150 61 L 139 61 L 139 74 L 163 74" fill="none" stroke="#5f452d" stroke-width="1.05" opacity="0.27"/><path d="M 172 48 L 190 48 L 190 61 L 179 61 L 179 74 L 203 74" fill="none" stroke="#5f452d" stroke-width="1.05" opacity="0.27"/><path d="M 212 48 L 230 48 L 230 61 L 219 61 L 219 74 L 243 74" fill="none" stroke="#5f452d" stroke-width="1.05" opacity="0.27"/><path d="M 252 48 L 270 48 L 270 61 L 259 61 L 259 74 L 283 74" fill="none" stroke="#5f452d" stroke-width="1.05" opacity="0.27"/><path d="M 292 48 L 310 48 L 310 61 L 299 61 L 299 74 L 323 74" fill="none" stroke="#5f452d" stroke-width="1.05" opacity="0.27"/><path d="M 332 48 L 350 48 L 350 61 L 339 61 L 339 74 L 363 74" fill="none" stroke="#5f452d" stroke-width="1.05" opacity="0.27"/><path d="M 372 48 L 390 48 L 390 61 L 379 61 L 379 74 L 403 74" fill="none" stroke="#5f452d" stroke-width="1.05" opacity="0.27"/><path d="M 412 48 L 430 48 L 430 61 L 419 61 L 419 74 L 443 74" fill="none" stroke="#5f452d" stroke-width="1.05" opacity="0.27"/><path d="M 452 48 L 470 48 L 470 61 L 459 61 L 459 74 L 483 74" fill="none" stroke="#5f452d" stroke-width="1.05" opacity="0.27"/><path d="M 492 48 L 510 48 L 510 61 L 499 61 L 499 74 L 523 74" fill="none" stroke="#5f452d" stroke-width="1.05" opacity="0.27"/><path d="M 532 48 L 550 48 L 550 61 L 539 61 L 539 74 L 563 74" fill="none" stroke="#5f452d" stroke-width="1.05" opacity="0.27"/><path d="M 572 48 L 590 48 L 590 61 L 579 61 L 579 74 L 603 74" fill="none" stroke="#5f452d" stroke-width="1.05" opacity="0.27"/><path d="M 612 48 L 630 48 L 630 61 L 619 61 L 619 74 L 643 74" fill="none" stroke="#5f452d" stroke-width="1.05" opacity="0.27"/><path d="M 652 48 L 670 48 L 670 61 L 659 61 L 659 74 L 683 74" fill="none" stroke="#5f452d" stroke-width="1.05" opacity="0.27"/><path d="M 692 48 L 710 48 L 710 61 L 699 61 L 699 74 L 723 74" fill="none" stroke="#5f452d" stroke-width="1.05" opacity="0.27"/><path d="M 732 48 L 750 48 L 750 61 L 739 61 L 739 74 L 763 74" fill="none" stroke="#5f452d" stroke-width="1.05" opacity="0.27"/><path d="M 772 48 L 790 48 L 790 61 L 779 61 L 779 74 L 803 74" fill="none" stroke="#5f452d" stroke-width="1.05" opacity="0.27"/><path d="M 812 48 L 830 48 L 830 61 L 819 61 L 819 74 L 843 74" fill="none" stroke="#5f452d" stroke-width="1.05" opacity="0.27"/><path d="M 852 48 L 870 48 L 870 61 L 859 61 L 859 74 L 883 74" fill="none" stroke="#5f452d" stroke-width="1.05" opacity="0.27"/><path d="M 52 1094 L 70 1094 L 70 1107 L 59 1107 L 59 1120 L 83 1120" fill="none" stroke="#5f452d" stroke-width="1.05" opacity="0.22"/><path d="M 92 1094 L 110 1094 L 110 1107 L 99 1107 L 99 1120 L 123 1120" fill="none" stroke="#5f452d" stroke-width="1.05" opacity="0.22"/><path d="M 132 1094 L 150 1094 L 150 1107 L 139 1107 L 139 1120 L 163 1120" fill="none" stroke="#5f452d" stroke-width="1.05" opacity="0.22"/><path d="M 172 1094 L 190 1094 L 190 1107 L 179 1107 L 179 1120 L 203 1120" fill="none" stroke="#5f452d" stroke-width="1.05" opacity="0.22"/><path d="M 212 1094 L 230 1094 L 230 1107 L 219 1107 L 219 1120 L 243 1120" fill="none" stroke="#5f452d" stroke-width="1.05" opacity="0.22"/><path d="M 252 1094 L 270 1094 L 270 1107 L 259 1107 L 259 1120 L 283 1120" fill="none" stroke="#5f452d" stroke-width="1.05" opacity="0.22"/><path d="M 292 1094 L 310 1094 L 310 1107 L 299 1107 L 299 1120 L 323 1120" fill="none" stroke="#5f452d" stroke-width="1.05" opacity="0.22"/><path d="M 332 1094 L 350 1094 L 350 1107 L 339 1107 L 339 1120 L 363 1120" fill="none" stroke="#5f452d" stroke-width="1.05" opacity="0.22"/><path d="M 372 1094 L 390 1094 L 390 1107 L 379 1107 L 379 1120 L 403 1120" fill="none" stroke="#5f452d" stroke-width="1.05" opacity="0.22"/><path d="M 412 1094 L 430 1094 L 430 1107 L 419 1107 L 419 1120 L 443 1120" fill="none" stroke="#5f452d" stroke-width="1.05" opacity="0.22"/><path d="M 452 1094 L 470 1094 L 470 1107 L 459 1107 L 459 1120 L 483 1120" fill="none" stroke="#5f452d" stroke-width="1.05" opacity="0.22"/><path d="M 492 1094 L 510 1094 L 510 1107 L 499 1107 L 499 1120 L 523 1120" fill="none" stroke="#5f452d" stroke-width="1.05" opacity="0.22"/><path d="M 532 1094 L 550 1094 L 550 1107 L 539 1107 L 539 1120 L 563 1120" fill="none" stroke="#5f452d" stroke-width="1.05" opacity="0.22"/><path d="M 572 1094 L 590 1094 L 590 1107 L 579 1107 L 579 1120 L 603 1120" fill="none" stroke="#5f452d" stroke-width="1.05" opacity="0.22"/><path d="M 612 1094 L 630 1094 L 630 1107 L 619 1107 L 619 1120 L 643 1120" fill="none" stroke="#5f452d" stroke-width="1.05" opacity="0.22"/><path d="M 652 1094 L 670 1094 L 670 1107 L 659 1107 L 659 1120 L 683 1120" fill="none" stroke="#5f452d" stroke-width="1.05" opacity="0.22"/><path d="M 692 1094 L 710 1094 L 710 1107 L 699 1107 L 699 1120 L 723 1120" fill="none" stroke="#5f452d" stroke-width="1.05" opacity="0.22"/><path d="M 732 1094 L 750 1094 L 750 1107 L 739 1107 L 739 1120 L 763 1120" fill="none" stroke="#5f452d" stroke-width="1.05" opacity="0.22"/><path d="M 772 1094 L 790 1094 L 790 1107 L 779 1107 L 779 1120 L 803 1120" fill="none" stroke="#5f452d" stroke-width="1.05" opacity="0.22"/><path d="M 812 1094 L 830 1094 L 830 1107 L 819 1107 L 819 1120 L 843 1120" fill="none" stroke="#5f452d" stroke-width="1.05" opacity="0.22"/><path d="M 852 1094 L 870 1094 L 870 1107 L 859 1107 L 859 1120 L 883 1120" fill="none" stroke="#5f452d" stroke-width="1.05" opacity="0.22"/>
<g filter="url(#shadow)">
<path d="M 480 108 C 454 184, 507 238, 474 316 C 438 402, 518 464, 477 552 C 438 635, 516 704, 479 790 C 448 862, 512 924, 480 1048" fill="none" stroke="#543824" stroke-width="4.2" opacity="0.38" stroke-linecap="round" marker-end="url(#downArrow)"/>
<path d="M 480 108 C 454 184, 507 238, 474 316 C 438 402, 518 464, 477 552 C 438 635, 516 704, 479 790 C 448 862, 512 924, 480 1048" fill="none" stroke="#caa56b" stroke-width="1.6" opacity="0.50" stroke-linecap="round"/>
<path d="M 470 140 C 420 124, 380 130, 330 140" fill="none" stroke="#5d412a" stroke-width="1.35" opacity="0.36" stroke-linecap="round"/><circle cx="470.00" cy="140.00" r="8.00" fill="#e6c47a" stroke="#4d3522" stroke-width="1.3" opacity="0.74"/><circle cx="470.00" cy="140.00" r="3.20" fill="#5b3923" opacity="0.48"/><text x="270.00" y="132.00" font-family="Georgia, 'Times New Roman', serif" font-size="24" font-weight="600" text-anchor="end" fill="#3d2a1c" opacity="0.76">Greek ratios</text><text x="270.00" y="160.00" font-family="Georgia, 'Times New Roman', serif" font-size="15" text-anchor="end" fill="#4d3826" opacity="0.50">magnitude, proportion, proof</text><path d="M 490 300 C 540 284, 585 290, 630 300" fill="none" stroke="#5d412a" stroke-width="1.35" opacity="0.36" stroke-linecap="round"/><circle cx="490.00" cy="300.00" r="8.00" fill="#e6c47a" stroke="#4d3522" stroke-width="1.3" opacity="0.74"/><circle cx="490.00" cy="300.00" r="3.20" fill="#5b3923" opacity="0.48"/><text x="690.00" y="292.00" font-family="Georgia, 'Times New Roman', serif" font-size="24" font-weight="600" text-anchor="start" fill="#3d2a1c" opacity="0.76">Calculus</text><text x="690.00" y="320.00" font-family="Georgia, 'Times New Roman', serif" font-size="15" text-anchor="start" fill="#4d3826" opacity="0.50">infinitesimal motion and area</text><path d="M 470 460 C 420 444, 380 450, 330 460" fill="none" stroke="#5d412a" stroke-width="1.35" opacity="0.36" stroke-linecap="round"/><circle cx="470.00" cy="460.00" r="8.00" fill="#e6c47a" stroke="#4d3522" stroke-width="1.3" opacity="0.74"/><circle cx="470.00" cy="460.00" r="3.20" fill="#5b3923" opacity="0.48"/><text x="270.00" y="452.00" font-family="Georgia, 'Times New Roman', serif" font-size="24" font-weight="600" text-anchor="end" fill="#3d2a1c" opacity="0.76">Real line</text><text x="270.00" y="480.00" font-family="Georgia, 'Times New Roman', serif" font-size="15" text-anchor="end" fill="#4d3826" opacity="0.50">cuts, limits, continuum</text><path d="M 490 620 C 540 604, 585 610, 630 620" fill="none" stroke="#5d412a" stroke-width="1.35" opacity="0.36" stroke-linecap="round"/><circle cx="490.00" cy="620.00" r="8.00" fill="#e6c47a" stroke="#4d3522" stroke-width="1.3" opacity="0.74"/><circle cx="490.00" cy="620.00" r="3.20" fill="#5b3923" opacity="0.48"/><text x="690.00" y="612.00" font-family="Georgia, 'Times New Roman', serif" font-size="24" font-weight="600" text-anchor="start" fill="#3d2a1c" opacity="0.76">Sets</text><text x="690.00" y="640.00" font-family="Georgia, 'Times New Roman', serif" font-size="15" text-anchor="start" fill="#4d3826" opacity="0.50">infinity becomes an object</text><path d="M 470 780 C 420 764, 380 770, 330 780" fill="none" stroke="#5d412a" stroke-width="1.35" opacity="0.36" stroke-linecap="round"/><circle cx="470.00" cy="780.00" r="8.00" fill="#e6c47a" stroke="#4d3522" stroke-width="1.3" opacity="0.74"/><circle cx="470.00" cy="780.00" r="3.20" fill="#5b3923" opacity="0.48"/><text x="270.00" y="772.00" font-family="Georgia, 'Times New Roman', serif" font-size="24" font-weight="600" text-anchor="end" fill="#3d2a1c" opacity="0.76">Incompleteness</text><text x="270.00" y="800.00" font-family="Georgia, 'Times New Roman', serif" font-size="15" text-anchor="end" fill="#4d3826" opacity="0.50">formal proof meets its boundary</text><path d="M 490 940 C 540 924, 585 930, 630 940" fill="none" stroke="#5d412a" stroke-width="1.35" opacity="0.36" stroke-linecap="round"/><circle cx="490.00" cy="940.00" r="8.00" fill="#e6c47a" stroke="#4d3522" stroke-width="1.3" opacity="0.74"/><circle cx="490.00" cy="940.00" r="3.20" fill="#5b3923" opacity="0.48"/><text x="690.00" y="932.00" font-family="Georgia, 'Times New Roman', serif" font-size="24" font-weight="600" text-anchor="start" fill="#3d2a1c" opacity="0.76">Structures</text><text x="690.00" y="960.00" font-family="Georgia, 'Times New Roman', serif" font-size="15" text-anchor="start" fill="#4d3826" opacity="0.50">models, categories, abstraction</text><circle cx="204.00" cy="168.00" r="70.00" fill="none" stroke="#66472e" stroke-width="1.15" opacity="0.30"/><circle cx="260.00" cy="168.00" r="70.00" fill="none" stroke="#66472e" stroke-width="1.15" opacity="0.25"/><line x1="158.00" y1="225.00" x2="306.00" y2="225.00" stroke="#3e2c20" stroke-width="0.9" opacity="0.30"/><line x1="158.00" y1="225.00" x2="232.00" y2="96.00" stroke="#3e2c20" stroke-width="0.8" opacity="0.22"/><line x1="306.00" y1="225.00" x2="232.00" y2="96.00" stroke="#3e2c20" stroke-width="0.8" opacity="0.22"/><path d="M 636 270 C 695 238, 765 238, 824 270" fill="none" stroke="#39526b" stroke-width="1.7" opacity="0.30"/><path d="M 638 330 C 700 366, 762 366, 824 330" fill="none" stroke="#8e463d" stroke-width="1.5" opacity="0.30"/><line x1="168.00" y1="462.00" x2="354.00" y2="462.00" stroke="#3e2c20" stroke-width="0.9" opacity="0.25"/><line x1="170.00" y1="456.00" x2="170.00" y2="468.00" stroke="#31485e" stroke-width="0.45" opacity="0.14"/><line x1="173.50" y1="456.00" x2="173.50" y2="468.00" stroke="#31485e" stroke-width="0.45" opacity="0.14"/><line x1="184.00" y1="456.00" x2="184.00" y2="468.00" stroke="#31485e" stroke-width="0.45" opacity="0.14"/><line x1="187.50" y1="456.00" x2="187.50" y2="468.00" stroke="#31485e" stroke-width="0.45" opacity="0.14"/><line x1="194.50" y1="456.00" x2="194.50" y2="468.00" stroke="#31485e" stroke-width="0.45" opacity="0.14"/><line x1="198.00" y1="456.00" x2="198.00" y2="468.00" stroke="#31485e" stroke-width="0.45" opacity="0.14"/><line x1="205.00" y1="456.00" x2="205.00" y2="468.00" stroke="#31485e" stroke-width="0.45" opacity="0.14"/><line x1="208.50" y1="456.00" x2="208.50" y2="468.00" stroke="#31485e" stroke-width="0.45" opacity="0.14"/><line x1="215.50" y1="456.00" x2="215.50" y2="468.00" stroke="#31485e" stroke-width="0.45" opacity="0.14"/><line x1="219.00" y1="456.00" x2="219.00" y2="468.00" stroke="#31485e" stroke-width="0.45" opacity="0.14"/><line x1="229.50" y1="456.00" x2="229.50" y2="468.00" stroke="#31485e" stroke-width="0.45" opacity="0.14"/><line x1="233.00" y1="456.00" x2="233.00" y2="468.00" stroke="#31485e" stroke-width="0.45" opacity="0.14"/><line x1="240.00" y1="456.00" x2="240.00" y2="468.00" stroke="#31485e" stroke-width="0.45" opacity="0.14"/><line x1="243.50" y1="456.00" x2="243.50" y2="468.00" stroke="#31485e" stroke-width="0.45" opacity="0.14"/><line x1="250.50" y1="456.00" x2="250.50" y2="468.00" stroke="#31485e" stroke-width="0.45" opacity="0.14"/><line x1="254.00" y1="456.00" x2="254.00" y2="468.00" stroke="#31485e" stroke-width="0.45" opacity="0.14"/><line x1="261.00" y1="456.00" x2="261.00" y2="468.00" stroke="#31485e" stroke-width="0.45" opacity="0.14"/><line x1="264.50" y1="456.00" x2="264.50" y2="468.00" stroke="#31485e" stroke-width="0.45" opacity="0.14"/><line x1="275.00" y1="456.00" x2="275.00" y2="468.00" stroke="#31485e" stroke-width="0.45" opacity="0.14"/><line x1="278.50" y1="456.00" x2="278.50" y2="468.00" stroke="#31485e" stroke-width="0.45" opacity="0.14"/><line x1="285.50" y1="456.00" x2="285.50" y2="468.00" stroke="#31485e" stroke-width="0.45" opacity="0.14"/><line x1="289.00" y1="456.00" x2="289.00" y2="468.00" stroke="#31485e" stroke-width="0.45" opacity="0.14"/><line x1="296.00" y1="456.00" x2="296.00" y2="468.00" stroke="#31485e" stroke-width="0.45" opacity="0.14"/><line x1="299.50" y1="456.00" x2="299.50" y2="468.00" stroke="#31485e" stroke-width="0.45" opacity="0.14"/><line x1="306.50" y1="456.00" x2="306.50" y2="468.00" stroke="#31485e" stroke-width="0.45" opacity="0.14"/><line x1="310.00" y1="456.00" x2="310.00" y2="468.00" stroke="#31485e" stroke-width="0.45" opacity="0.14"/><line x1="320.50" y1="456.00" x2="320.50" y2="468.00" stroke="#31485e" stroke-width="0.45" opacity="0.14"/><line x1="324.00" y1="456.00" x2="324.00" y2="468.00" stroke="#31485e" stroke-width="0.45" opacity="0.14"/><line x1="331.00" y1="456.00" x2="331.00" y2="468.00" stroke="#31485e" stroke-width="0.45" opacity="0.14"/><line x1="334.50" y1="456.00" x2="334.50" y2="468.00" stroke="#31485e" stroke-width="0.45" opacity="0.14"/><line x1="341.50" y1="456.00" x2="341.50" y2="468.00" stroke="#31485e" stroke-width="0.45" opacity="0.14"/><line x1="345.00" y1="456.00" x2="345.00" y2="468.00" stroke="#31485e" stroke-width="0.45" opacity="0.14"/><path d="M 258 414 C 242 442, 242 486, 258 514" fill="none" stroke="#8e463d" stroke-width="2.1" opacity="0.39" filter="url(#ink)"/><circle cx="674.00" cy="584.00" r="4.00" fill="#3b2a20" opacity="0.28"/><circle cx="754.00" cy="558.00" r="4.00" fill="#3b2a20" opacity="0.28"/><circle cx="814.00" cy="640.00" r="4.00" fill="#3b2a20" opacity="0.28"/><circle cx="706.00" cy="704.00" r="4.00" fill="#3b2a20" opacity="0.28"/><circle cx="835.00" cy="738.00" r="4.00" fill="#3b2a20" opacity="0.28"/><path d="M 674 584 C 724 530, 742 538, 754 558 C 818 596, 790 622, 814 640 C 820 696, 740 680, 706 704 C 748 766, 808 764, 835 738" fill="none" stroke="#3b2a20" stroke-width="1.0" opacity="0.20"/><path d="M 170 1012 C 328 954, 408 1074, 566 1004 S 762 950, 840 1018" fill="none" stroke="#5e765e" stroke-width="2.0" opacity="0.22"/><path d="M 92 72 C 166 64, 262 64, 336 72" fill="none" stroke="#3f2c1d" stroke-width="0.55" opacity="0.055"/><path d="M 620 82 C 676 74, 778 74, 840 82" fill="none" stroke="#3f2c1d" stroke-width="0.55" opacity="0.05"/><path d="M 100 102 C 174 94, 270 94, 344 102" fill="none" stroke="#3f2c1d" stroke-width="0.55" opacity="0.065"/><path d="M 626 112 C 676 104, 778 104, 840 112" fill="none" stroke="#3f2c1d" stroke-width="0.55" opacity="0.060000000000000005"/><path d="M 92 132 C 166 124, 262 124, 336 132" fill="none" stroke="#3f2c1d" stroke-width="0.55" opacity="0.075"/><path d="M 620 142 C 676 134, 778 134, 840 142" fill="none" stroke="#3f2c1d" stroke-width="0.55" opacity="0.07"/><path d="M 100 162 C 174 154, 270 154, 344 162" fill="none" stroke="#3f2c1d" stroke-width="0.55" opacity="0.08499999999999999"/><path d="M 626 172 C 676 164, 778 164, 840 172" fill="none" stroke="#3f2c1d" stroke-width="0.55" opacity="0.08"/><path d="M 92 192 C 166 184, 262 184, 336 192" fill="none" stroke="#3f2c1d" stroke-width="0.55" opacity="0.055"/><path d="M 620 202 C 676 194, 778 194, 840 202" fill="none" stroke="#3f2c1d" stroke-width="0.55" opacity="0.05"/><path d="M 100 222 C 174 214, 270 214, 344 222" fill="none" stroke="#3f2c1d" stroke-width="0.55" opacity="0.065"/><path d="M 626 232 C 676 224, 778 224, 840 232" fill="none" stroke="#3f2c1d" stroke-width="0.55" opacity="0.060000000000000005"/><path d="M 92 252 C 166 244, 262 244, 336 252" fill="none" stroke="#3f2c1d" stroke-width="0.55" opacity="0.075"/><path d="M 620 262 C 676 254, 778 254, 840 262" fill="none" stroke="#3f2c1d" stroke-width="0.55" opacity="0.07"/><path d="M 100 282 C 174 274, 270 274, 344 282" fill="none" stroke="#3f2c1d" stroke-width="0.55" opacity="0.08499999999999999"/><path d="M 626 292 C 676 284, 778 284, 840 292" fill="none" stroke="#3f2c1d" stroke-width="0.55" opacity="0.08"/><path d="M 92 312 C 166 304, 262 304, 336 312" fill="none" stroke="#3f2c1d" stroke-width="0.55" opacity="0.055"/><path d="M 620 322 C 676 314, 778 314, 840 322" fill="none" stroke="#3f2c1d" stroke-width="0.55" opacity="0.05"/><path d="M 100 342 C 174 334, 270 334, 344 342" fill="none" stroke="#3f2c1d" stroke-width="0.55" opacity="0.065"/><path d="M 626 352 C 676 344, 778 344, 840 352" fill="none" stroke="#3f2c1d" stroke-width="0.55" opacity="0.060000000000000005"/><path d="M 92 372 C 166 364, 262 364, 336 372" fill="none" stroke="#3f2c1d" stroke-width="0.55" opacity="0.075"/><path d="M 620 382 C 676 374, 778 374, 840 382" fill="none" stroke="#3f2c1d" stroke-width="0.55" opacity="0.07"/><path d="M 100 402 C 174 394, 270 394, 344 402" fill="none" stroke="#3f2c1d" stroke-width="0.55" opacity="0.08499999999999999"/><path d="M 626 412 C 676 404, 778 404, 840 412" fill="none" stroke="#3f2c1d" stroke-width="0.55" opacity="0.08"/><path d="M 92 432 C 166 424, 262 424, 336 432" fill="none" stroke="#3f2c1d" stroke-width="0.55" opacity="0.055"/><path d="M 620 442 C 676 434, 778 434, 840 442" fill="none" stroke="#3f2c1d" stroke-width="0.55" opacity="0.05"/><path d="M 100 462 C 174 454, 270 454, 344 462" fill="none" stroke="#3f2c1d" stroke-width="0.55" opacity="0.065"/><path d="M 626 472 C 676 464, 778 464, 840 472" fill="none" stroke="#3f2c1d" stroke-width="0.55" opacity="0.060000000000000005"/><path d="M 92 492 C 166 484, 262 484, 336 492" fill="none" stroke="#3f2c1d" stroke-width="0.55" opacity="0.075"/><path d="M 620 502 C 676 494, 778 494, 840 502" fill="none" stroke="#3f2c1d" stroke-width="0.55" opacity="0.07"/><path d="M 100 522 C 174 514, 270 514, 344 522" fill="none" stroke="#3f2c1d" stroke-width="0.55" opacity="0.08499999999999999"/><path d="M 626 532 C 676 524, 778 524, 840 532" fill="none" stroke="#3f2c1d" stroke-width="0.55" opacity="0.08"/><path d="M 92 552 C 166 544, 262 544, 336 552" fill="none" stroke="#3f2c1d" stroke-width="0.55" opacity="0.055"/><path d="M 620 562 C 676 554, 778 554, 840 562" fill="none" stroke="#3f2c1d" stroke-width="0.55" opacity="0.05"/><path d="M 100 582 C 174 574, 270 574, 344 582" fill="none" stroke="#3f2c1d" stroke-width="0.55" opacity="0.065"/><path d="M 626 592 C 676 584, 778 584, 840 592" fill="none" stroke="#3f2c1d" stroke-width="0.55" opacity="0.060000000000000005"/><path d="M 92 612 C 166 604, 262 604, 336 612" fill="none" stroke="#3f2c1d" stroke-width="0.55" opacity="0.075"/><path d="M 620 622 C 676 614, 778 614, 840 622" fill="none" stroke="#3f2c1d" stroke-width="0.55" opacity="0.07"/><path d="M 100 642 C 174 634, 270 634, 344 642" fill="none" stroke="#3f2c1d" stroke-width="0.55" opacity="0.08499999999999999"/><path d="M 626 652 C 676 644, 778 644, 840 652" fill="none" stroke="#3f2c1d" stroke-width="0.55" opacity="0.08"/><path d="M 92 672 C 166 664, 262 664, 336 672" fill="none" stroke="#3f2c1d" stroke-width="0.55" opacity="0.055"/><path d="M 620 682 C 676 674, 778 674, 840 682" fill="none" stroke="#3f2c1d" stroke-width="0.55" opacity="0.05"/><path d="M 100 702 C 174 694, 270 694, 344 702" fill="none" stroke="#3f2c1d" stroke-width="0.55" opacity="0.065"/><path d="M 626 712 C 676 704, 778 704, 840 712" fill="none" stroke="#3f2c1d" stroke-width="0.55" opacity="0.060000000000000005"/><path d="M 92 732 C 166 724, 262 724, 336 732" fill="none" stroke="#3f2c1d" stroke-width="0.55" opacity="0.075"/><path d="M 620 742 C 676 734, 778 734, 840 742" fill="none" stroke="#3f2c1d" stroke-width="0.55" opacity="0.07"/><path d="M 100 762 C 174 754, 270 754, 344 762" fill="none" stroke="#3f2c1d" stroke-width="0.55" opacity="0.08499999999999999"/><path d="M 626 772 C 676 764, 778 764, 840 772" fill="none" stroke="#3f2c1d" stroke-width="0.55" opacity="0.08"/><path d="M 92 792 C 166 784, 262 784, 336 792" fill="none" stroke="#3f2c1d" stroke-width="0.55" opacity="0.055"/><path d="M 620 802 C 676 794, 778 794, 840 802" fill="none" stroke="#3f2c1d" stroke-width="0.55" opacity="0.05"/><path d="M 100 822 C 174 814, 270 814, 344 822" fill="none" stroke="#3f2c1d" stroke-width="0.55" opacity="0.065"/><path d="M 626 832 C 676 824, 778 824, 840 832" fill="none" stroke="#3f2c1d" stroke-width="0.55" opacity="0.060000000000000005"/><path d="M 92 852 C 166 844, 262 844, 336 852" fill="none" stroke="#3f2c1d" stroke-width="0.55" opacity="0.075"/><path d="M 620 862 C 676 854, 778 854, 840 862" fill="none" stroke="#3f2c1d" stroke-width="0.55" opacity="0.07"/><path d="M 100 882 C 174 874, 270 874, 344 882" fill="none" stroke="#3f2c1d" stroke-width="0.55" opacity="0.08499999999999999"/><path d="M 626 892 C 676 884, 778 884, 840 892" fill="none" stroke="#3f2c1d" stroke-width="0.55" opacity="0.08"/><path d="M 92 912 C 166 904, 262 904, 336 912" fill="none" stroke="#3f2c1d" stroke-width="0.55" opacity="0.055"/><path d="M 620 922 C 676 914, 778 914, 840 922" fill="none" stroke="#3f2c1d" stroke-width="0.55" opacity="0.05"/><path d="M 100 942 C 174 934, 270 934, 344 942" fill="none" stroke="#3f2c1d" stroke-width="0.55" opacity="0.065"/><path d="M 626 952 C 676 944, 778 944, 840 952" fill="none" stroke="#3f2c1d" stroke-width="0.55" opacity="0.060000000000000005"/><path d="M 92 972 C 166 964, 262 964, 336 972" fill="none" stroke="#3f2c1d" stroke-width="0.55" opacity="0.075"/><path d="M 620 982 C 676 974, 778 974, 840 982" fill="none" stroke="#3f2c1d" stroke-width="0.55" opacity="0.07"/><path d="M 100 1002 C 174 994, 270 994, 344 1002" fill="none" stroke="#3f2c1d" stroke-width="0.55" opacity="0.08499999999999999"/><path d="M 626 1012 C 676 1004, 778 1004, 840 1012" fill="none" stroke="#3f2c1d" stroke-width="0.55" opacity="0.08"/><path d="M 92 1032 C 166 1024, 262 1024, 336 1032" fill="none" stroke="#3f2c1d" stroke-width="0.55" opacity="0.055"/><path d="M 620 1042 C 676 1034, 778 1034, 840 1042" fill="none" stroke="#3f2c1d" stroke-width="0.55" opacity="0.05"/><path d="M 100 1062 C 174 1054, 270 1054, 344 1062" fill="none" stroke="#3f2c1d" stroke-width="0.55" opacity="0.065"/><path d="M 626 1072 C 676 1064, 778 1064, 840 1072" fill="none" stroke="#3f2c1d" stroke-width="0.55" opacity="0.060000000000000005"/></g></svg>